# Blender v2.77 (sub 0) OBJ File: 'acid.sapphire.blend'
# www.blender.org
mtllib acid_waves_right.sapphire.mtl
o Waves.Right_Cube.007
origin 0.000000 0.400000 0.000000
v -0.500000 0.000000 0.500000
v 0.500000 0.032950 0.500000
v 0.500000 0.033333 0.375000
v 0.500000 0.033333 0.250000
v 0.500000 0.020765 0.125000
v 0.500000 0.000000 -0.000000
v -0.500000 0.000000 0.000000
v -0.500000 0.000397 0.125000
v -0.500000 0.000000 0.250000
v -0.500000 0.000000 0.375000
v 0.375000 0.032950 0.500000
v 0.250000 0.032562 0.500000
v 0.125000 0.031369 0.500000
v 0.000000 0.029273 0.500000
v -0.125000 0.026058 0.500000
v -0.250000 0.021219 0.500000
v -0.375000 0.013063 0.500000
v 0.375000 0.033333 0.375000
v 0.375000 0.033333 0.250000
v 0.375000 0.020765 0.125000
v 0.375000 0.000000 -0.000000
v 0.250000 0.032950 0.375000
v 0.250000 0.032950 0.250000
v 0.250000 0.020522 0.125000
v 0.250000 0.000000 -0.000000
v 0.125000 0.031772 0.375000
v 0.125000 0.031772 0.250000
v 0.125000 0.019776 0.125000
v 0.125000 0.000000 0.000000
v 0.000000 0.029704 0.375000
v 0.000000 0.029704 0.250000
v 0.000000 0.018473 0.125000
v 0.000000 0.000000 0.000000
v -0.125000 0.026541 0.375000
v -0.125000 0.026541 0.250000
v -0.125000 0.016490 0.125000
v -0.125000 0.000000 0.000000
v -0.250000 0.021809 0.375000
v -0.250000 0.021809 0.250000
v -0.250000 0.013550 0.125000
v -0.250000 0.000000 0.000000
v -0.375000 0.014002 0.375000
v -0.375000 0.014002 0.250000
v -0.375000 0.008764 0.125000
v -0.375000 0.000000 0.000000
v 0.500000 0.000000 0.500000
v -0.375000 0.013063 0.500000
v -0.500000 0.000000 0.500000
v 0.500000 0.032950 0.500000
v 0.375000 0.032950 0.500000
v 0.250000 0.032562 0.500000
v 0.125000 0.031369 0.500000
v 0.000000 0.029273 0.500000
v -0.125000 0.026058 0.500000
v -0.250000 0.021219 0.500000
vn 0.0000 0.0000 1.0000
vn 0.0000 1.0000 -0.0000
vn -0.0015 1.0000 0.0015
vn -0.0015 1.0000 0.0031
vn -0.0015 0.9987 -0.0501
vn -0.0011 0.9913 -0.1319
vn -0.0063 1.0000 0.0015
vn -0.0063 1.0000 0.0031
vn -0.0061 0.9987 -0.0497
vn -0.0041 0.9915 -0.1303
vn -0.0130 0.9999 0.0016
vn -0.0131 0.9999 0.0033
vn -0.0125 0.9988 -0.0482
vn 0.0005 1.0000 0.0005
vn -0.0082 0.9920 -0.1259
vn -0.0209 0.9998 0.0017
vn -0.0211 0.9998 0.0036
vn -0.0201 0.9988 -0.0455
vn 0.0015 1.0000 0.0015
vn -0.0129 0.9929 -0.1180
vn -0.0316 0.9995 0.0019
vn -0.0320 0.9995 0.0041
vn -0.0304 0.9987 -0.0413
vn 0.0026 1.0000 0.0027
vn -0.0194 0.9942 -0.1057
vn -0.0502 0.9987 0.0023
vn -0.0512 0.9987 0.0054
vn -0.0483 0.9982 -0.0347
vn 0.0039 1.0000 0.0040
vn -0.0309 0.9958 -0.0867
vn -0.0872 0.9962 0.0034
vn -0.0864 0.9962 0.0056
vn -0.0838 0.9962 -0.0239
vn 0.0059 1.0000 0.0060
vn -0.0533 0.9971 -0.0550
vn 0.0035 1.0000 -0.0037
vn 0.0003 1.0000 0.0001
vn 0.0096 0.9999 0.0097
vn 0.0114 0.9999 0.0113
vn 0.0327 0.9989 0.0327
usemtl Material
s off
f 13//1 14//1 46//1
f 16//1 17//1 1//1
f 1//1 15//1 16//1
f 2//1 11//1 46//1
f 12//1 13//1 46//1
f 14//1 15//1 46//1
f 1//1 46//1 15//1
f 11//1 12//1 46//1
s 1
f 49//2 18//3 50//4
f 3//2 19//5 18//3
f 4//2 20//6 19//5
f 5//2 21//2 20//6
f 50//4 22//7 51//8
f 19//5 22//7 18//3
f 20//6 23//9 19//5
f 21//2 24//10 20//6
f 51//8 26//11 52//12
f 22//7 27//13 26//11
f 24//10 27//13 23//9
f 25//14 28//15 24//10
f 52//12 30//16 53//17
f 26//11 31//18 30//16
f 28//15 31//18 27//13
f 29//19 32//20 28//15
f 53//17 34//21 54//22
f 30//16 35//23 34//21
f 32//20 35//23 31//18
f 33//24 36//25 32//20
f 54//22 38//26 55//27
f 34//21 39//28 38//26
f 36//25 39//28 35//23
f 37//29 40//30 36//25
f 55//27 42//31 47//32
f 39//28 42//31 38//26
f 40//30 43//33 39//28
f 41//34 44//35 40//30
f 47//32 10//2 48//36
f 43//33 10//2 42//31
f 44//35 9//37 43//33
f 45//38 8//39 44//35
f 49//2 3//2 18//3
f 3//2 4//2 19//5
f 4//2 5//2 20//6
f 5//2 6//2 21//2
f 50//4 18//3 22//7
f 19//5 23//9 22//7
f 20//6 24//10 23//9
f 21//2 25//14 24//10
f 51//8 22//7 26//11
f 22//7 23//9 27//13
f 24//10 28//15 27//13
f 25//14 29//19 28//15
f 52//12 26//11 30//16
f 26//11 27//13 31//18
f 28//15 32//20 31//18
f 29//19 33//24 32//20
f 53//17 30//16 34//21
f 30//16 31//18 35//23
f 32//20 36//25 35//23
f 33//24 37//29 36//25
f 54//22 34//21 38//26
f 34//21 35//23 39//28
f 36//25 40//30 39//28
f 37//29 41//34 40//30
f 55//27 38//26 42//31
f 39//28 43//33 42//31
f 40//30 44//35 43//33
f 41//34 45//38 44//35
f 47//32 42//31 10//2
f 43//33 9//37 10//2
f 44//35 8//39 9//37
f 45//38 7//40 8//39
