# Blender v2.77 (sub 0) OBJ File: 'bug.sapphire.blend'
# www.blender.org
mtllib bug_leg_general_left.sapphire.mtl
o Leg.General.Left_Cube.005
origin -0.087576 -0.227777 0.104047
v -0.015140 -0.058151 -0.005726
v 0.003495 -0.058151 -0.020047
v 0.011905 -0.058151 -0.008486
v -0.005968 -0.058151 0.005902
v -0.050464 -0.143488 -0.068543
v -0.032417 -0.140766 -0.080116
v -0.020805 -0.139014 -0.067778
v -0.037943 -0.141600 -0.056045
v -0.014312 -0.243411 -0.131725
v -0.004228 -0.243411 -0.138120
v 0.002261 -0.243411 -0.131303
v -0.007316 -0.243411 -0.124820
v 0.004859 0.048322 0.000700
v 0.012622 0.048796 0.017042
v -0.014326 0.037613 0.009287
v -0.005756 0.038312 0.026043
vn -0.9894 0.1442 0.0180
vn -0.1613 -0.5283 0.8336
vn -0.0783 -0.3663 0.9272
vn -0.9441 0.0640 -0.3234
vn 0.2730 0.3417 -0.8993
vn 0.4861 0.1795 -0.8553
vn 0.9546 -0.2574 0.1499
vn 0.0202 -0.7986 0.6015
vn 0.9906 -0.1367 0.0033
vn -0.9988 0.0244 -0.0412
vn 0.1619 -0.3836 -0.9091
vn -0.7385 -0.5832 -0.3383
vn -0.0391 0.5458 -0.8370
vn 0.8837 -0.4540 -0.1134
vn -0.0687 -0.2234 0.9723
vn 0.9717 -0.0609 0.2281
usemtl Leg
s 1
f 1//1 8//2 4//3
f 15//4 2//5 1//1
f 13//6 3//7 2//5
f 4//3 15//4 1//1
f 12//8 7//9 8//2
f 7//9 2//5 3//7
f 8//2 3//7 4//3
f 2//5 5//10 1//1
f 10//11 12//8 9//12
f 6//13 9//12 5//10
f 5//10 12//8 8//2
f 11//14 6//13 7//9
f 3//7 16//15 4//3
f 1//1 5//10 8//2
f 15//4 13//6 2//5
f 13//6 14//16 3//7
f 4//3 16//15 15//4
f 12//8 11//14 7//9
f 7//9 6//13 2//5
f 8//2 7//9 3//7
f 2//5 6//13 5//10
f 10//11 11//14 12//8
f 6//13 10//11 9//12
f 5//10 9//12 12//8
f 11//14 10//11 6//13
f 3//7 14//16 16//15
