# Blender v2.77 (sub 0) OBJ File: 'bug.sapphire.blend'
# www.blender.org
mtllib bug_leg_general_right.sapphire.mtl
o Leg.General.Right_Cube.004
origin -0.087576 0.227777 0.104047
v -0.015140 0.058151 -0.005726
v 0.003495 0.058151 -0.020047
v 0.011905 0.058151 -0.008486
v -0.005968 0.058151 0.005902
v -0.050464 0.143488 -0.068543
v -0.032417 0.140766 -0.080116
v -0.020805 0.139014 -0.067778
v -0.037943 0.141600 -0.056045
v -0.014312 0.243411 -0.131725
v -0.004228 0.243411 -0.138120
v 0.002261 0.243411 -0.131303
v -0.007316 0.243411 -0.124820
v 0.004859 -0.048322 0.000700
v 0.012622 -0.048796 0.017042
v -0.014326 -0.037613 0.009287
v -0.005756 -0.038312 0.026043
vn -0.9894 -0.1442 0.0180
vn -0.1613 0.5283 0.8336
vn -0.9988 -0.0244 -0.0412
vn 0.2730 -0.3417 -0.8993
vn -0.9441 -0.0640 -0.3234
vn 0.9546 0.2574 0.1499
vn 0.4861 -0.1795 -0.8553
vn -0.0783 0.3663 0.9272
vn -0.0687 0.2234 0.9723
vn 0.9906 0.1367 0.0033
vn 0.0202 0.7986 0.6015
vn -0.0391 -0.5458 -0.8370
vn 0.1619 0.3836 -0.9091
vn 0.8837 0.4540 -0.1134
vn -0.7385 0.5832 -0.3383
vn 0.9717 0.0609 0.2281
usemtl Leg
s 1
f 1//1 8//2 5//3
f 2//4 15//5 1//1
f 3//6 13//7 2//4
f 4//8 15//5 16//9
f 7//10 12//11 8//2
f 2//4 7//10 3//6
f 3//6 8//2 4//8
f 2//4 5//3 6//12
f 10//13 12//11 11//14
f 6//12 9//15 10//13
f 5//3 12//11 9//15
f 6//12 11//14 7//10
f 3//6 16//9 14//16
f 1//1 4//8 8//2
f 2//4 13//7 15//5
f 3//6 14//16 13//7
f 4//8 1//1 15//5
f 7//10 11//14 12//11
f 2//4 6//12 7//10
f 3//6 7//10 8//2
f 2//4 1//1 5//3
f 10//13 9//15 12//11
f 6//12 5//3 9//15
f 5//3 8//2 12//11
f 6//12 10//13 11//14
f 3//6 4//8 16//9
