# Blender v2.77 (sub 0) OBJ File: 'citrine.sapphire.blend'
# www.blender.org
mtllib citrine_shattering_1.sapphire.mtl
o Shattering.001_Cube.004
origin -0.310000 -0.000000 -0.000000
v -0.065000 0.375000 0.000000
v -0.065000 -0.375000 -0.000000
v -0.190000 -0.000000 -0.000000
v 0.170120 0.139880 -0.156747
v 0.124066 -0.185934 0.126044
v 0.143491 -0.444497 -0.000000
v -0.009292 0.000000 -0.090354
v 0.198300 0.111700 0.175533
v 0.310000 0.216270 -0.141865
v 0.224318 0.471440 0.000000
v 0.088286 -0.000000 0.139143
v 0.154409 -0.155591 -0.146272
vn 0.7095 -0.7045 0.0176
vn -0.4423 0.1474 0.8847
vn 0.9755 0.1787 0.1286
vn -0.4423 -0.1474 0.8847
vn 0.9257 0.1096 0.3619
vn 0.4839 -0.8353 -0.2610
vn 0.6163 0.7426 -0.2620
vn -0.1474 0.4423 0.8847
vn 0.5436 -0.8069 -0.2311
vn 0.9934 0.0196 0.1129
vn -0.1474 -0.4423 0.8847
vn -0.1474 0.4423 -0.8847
vn -0.4423 0.1474 -0.8847
vn -0.4423 -0.1474 -0.8847
vn -0.1474 -0.4423 -0.8847
usemtl GemColor
s off
f 8//1 11//1 9//1
f 11//2 8//2 1//2
f 11//3 5//3 12//3
f 5//4 11//4 3//4
f 8//5 9//5 10//5
f 9//6 11//6 4//6
f 7//7 11//7 12//7
f 8//8 10//8 1//8
f 4//9 11//9 7//9
f 6//10 12//10 5//10
f 11//2 1//2 3//2
f 5//4 3//4 2//4
f 2//11 6//11 5//11
f 10//12 9//12 4//12
f 7//13 1//13 4//13
f 2//14 7//14 12//14
f 10//12 4//12 1//12
f 7//13 3//13 1//13
f 2//14 3//14 7//14
f 2//15 12//15 6//15
