# Blender v2.77 (sub 0) OBJ File: 'citrine.sapphire.blend'
# www.blender.org
mtllib citrine_breaking.sapphire.mtl
o Breaking_Cube.002
origin 0.000000 0.000000 0.000000
v 0.000000 -0.500000 0.000000
v -0.075000 -0.475000 0.000000
v 0.075000 -0.475000 0.000000
v -0.150000 -0.450000 0.000000
v 0.150000 -0.450000 0.000000
v 0.225000 -0.425000 0.000000
v -0.225000 -0.425000 0.000000
v 0.375000 -0.375000 0.000000
v -0.375000 -0.375000 0.000000
v 0.300000 -0.400000 0.000000
v -0.300000 -0.400000 0.000000
v 0.000000 -0.400000 -0.050000
v 0.000000 -0.400000 0.050000
v -0.400000 -0.300000 0.000000
v 0.400000 -0.300000 0.000000
v -0.075000 -0.375000 0.050000
v 0.075000 -0.375000 -0.050000
v 0.075000 -0.375000 0.050000
v -0.075000 -0.375000 -0.050000
v -0.150000 -0.350000 0.050000
v 0.150000 -0.350000 -0.050000
v 0.150000 -0.350000 0.050000
v -0.150000 -0.350000 -0.050000
v -0.225000 -0.325000 -0.050000
v 0.225000 -0.325000 0.050000
v -0.225000 -0.325000 0.050000
v 0.225000 -0.325000 -0.050000
v -0.300000 -0.300000 -0.050000
v 0.300000 -0.300000 -0.050000
v 0.300000 -0.300000 0.050000
v -0.300000 -0.300000 0.050000
v -0.425000 -0.225000 0.000000
v 0.425000 -0.225000 0.000000
v 0.000000 -0.300000 -0.100000
v 0.000000 -0.300000 0.100000
v -0.325000 -0.225000 0.050000
v 0.325000 -0.225000 -0.050000
v 0.325000 -0.225000 0.050000
v -0.325000 -0.225000 -0.050000
v -0.450000 -0.150000 0.000000
v 0.450000 -0.150000 0.000000
v -0.075000 -0.275000 -0.100000
v 0.075000 -0.275000 0.100000
v -0.075000 -0.275000 0.100000
v 0.075000 -0.275000 -0.100000
v 0.150000 -0.250000 -0.100000
v -0.150000 -0.250000 0.100000
v 0.150000 -0.250000 0.100000
v -0.150000 -0.250000 -0.100000
v -0.225000 -0.225000 -0.100000
v 0.225000 -0.225000 0.100000
v 0.225000 -0.225000 -0.100000
v -0.225000 -0.225000 0.100000
v -0.475000 -0.075000 0.000000
v 0.475000 -0.075000 0.000000
v 0.350000 -0.150000 0.050000
v 0.350000 -0.150000 -0.050000
v -0.350000 -0.150000 0.050000
v -0.350000 -0.150000 -0.050000
v 0.000000 -0.200000 0.150000
v 0.000000 -0.200000 -0.150000
v -0.500000 0.000000 0.000000
v 0.500000 0.000000 0.000000
v 0.250000 -0.150000 0.100000
v -0.250000 -0.150000 0.100000
v -0.250000 -0.150000 -0.100000
v 0.250000 -0.150000 -0.100000
v -0.075000 -0.175000 0.150000
v 0.075000 -0.175000 -0.150000
v 0.075000 -0.175000 0.150000
v -0.075000 -0.175000 -0.150000
v -0.375000 -0.075000 0.050000
v 0.375000 -0.075000 -0.050000
v 0.375000 -0.075000 0.050000
v -0.375000 -0.075000 -0.050000
v 0.150000 -0.150000 -0.150000
v -0.150000 -0.150000 -0.150000
v 0.150000 -0.150000 0.150000
v -0.150000 -0.150000 0.150000
v -0.275000 -0.075000 0.100000
v 0.275000 -0.075000 0.100000
v 0.275000 -0.075000 -0.100000
v -0.275000 -0.075000 -0.100000
v 0.400000 0.000000 0.050000
v -0.400000 0.000000 -0.050000
v 0.400000 0.000000 -0.050000
v -0.400000 0.000000 0.050000
v 0.475000 0.075000 0.000000
v -0.475000 0.075000 0.000000
v 0.000000 -0.100000 0.200000
v 0.000000 -0.100000 -0.200000
v -0.175000 -0.075000 0.150000
v 0.175000 -0.075000 0.150000
v 0.175000 -0.075000 -0.150000
v -0.175000 -0.075000 -0.150000
v -0.075000 -0.075000 -0.200000
v 0.075000 -0.075000 0.200000
v 0.075000 -0.075000 -0.200000
v -0.075000 -0.075000 0.200000
v -0.300000 0.000000 -0.100000
v 0.300000 0.000000 0.100000
v 0.300000 0.000000 -0.100000
v -0.300000 0.000000 0.100000
v 0.450000 0.150000 0.000000
v -0.450000 0.150000 0.000000
v 0.375000 0.075000 -0.050000
v -0.375000 0.075000 0.050000
v -0.375000 0.075000 -0.050000
v 0.375000 0.075000 0.050000
v 0.000000 0.000000 -0.250000
v 0.000000 0.000000 0.250000
v 0.200000 0.000000 0.150000
v -0.200000 0.000000 0.150000
v 0.200000 0.000000 -0.150000
v -0.200000 0.000000 -0.150000
v 0.100000 0.000000 0.200000
v 0.100000 0.000000 -0.200000
v -0.100000 0.000000 -0.200000
v -0.100000 0.000000 0.200000
v -0.275000 0.075000 0.100000
v 0.275000 0.075000 0.100000
v 0.275000 0.075000 -0.100000
v -0.275000 0.075000 -0.100000
v 0.425000 0.225000 0.000000
v -0.425000 0.225000 0.000000
v -0.350000 0.150000 0.050000
v 0.350000 0.150000 0.050000
v 0.350000 0.150000 -0.050000
v -0.350000 0.150000 -0.050000
v 0.175000 0.075000 0.150000
v -0.175000 0.075000 0.150000
v 0.175000 0.075000 -0.150000
v -0.175000 0.075000 -0.150000
v -0.075000 0.075000 0.200000
v 0.075000 0.075000 -0.200000
v 0.075000 0.075000 0.200000
v -0.075000 0.075000 -0.200000
v 0.000000 0.100000 -0.200000
v 0.000000 0.100000 0.200000
v 0.400000 0.300000 0.000000
v -0.400000 0.300000 0.000000
v 0.250000 0.150000 -0.100000
v -0.250000 0.150000 -0.100000
v -0.250000 0.150000 0.100000
v 0.250000 0.150000 0.100000
v -0.325000 0.225000 0.050000
v 0.325000 0.225000 -0.050000
v 0.325000 0.225000 0.050000
v -0.325000 0.225000 -0.050000
v 0.150000 0.150000 -0.150000
v -0.150000 0.150000 0.150000
v -0.150000 0.150000 -0.150000
v 0.150000 0.150000 0.150000
v 0.375000 0.375000 0.000000
v -0.375000 0.375000 0.000000
v 0.225000 0.225000 0.100000
v -0.225000 0.225000 -0.100000
v -0.225000 0.225000 0.100000
v 0.225000 0.225000 -0.100000
v -0.075000 0.175000 -0.150000
v 0.075000 0.175000 0.150000
v -0.075000 0.175000 0.150000
v 0.075000 0.175000 -0.150000
v -0.300000 0.300000 -0.050000
v 0.300000 0.300000 0.050000
v -0.300000 0.300000 0.050000
v 0.300000 0.300000 -0.050000
v 0.000000 0.200000 -0.150000
v 0.000000 0.200000 0.150000
v 0.300000 0.400000 0.000000
v -0.300000 0.400000 0.000000
v -0.150000 0.250000 -0.100000
v 0.150000 0.250000 0.100000
v 0.150000 0.250000 -0.100000
v -0.150000 0.250000 0.100000
v -0.225000 0.325000 0.050000
v 0.225000 0.325000 -0.050000
v 0.225000 0.325000 0.050000
v -0.225000 0.325000 -0.050000
v 0.075000 0.275000 0.100000
v -0.075000 0.275000 -0.100000
v 0.075000 0.275000 -0.100000
v -0.075000 0.275000 0.100000
v 0.225000 0.425000 0.000000
v -0.225000 0.425000 0.000000
v 0.000000 0.300000 -0.100000
v 0.000000 0.300000 0.100000
v 0.150000 0.350000 -0.050000
v -0.150000 0.350000 0.050000
v 0.150000 0.350000 0.050000
v -0.150000 0.350000 -0.050000
v 0.150000 0.450000 0.000000
v -0.150000 0.450000 0.000000
v -0.075000 0.375000 -0.050000
v 0.075000 0.375000 -0.050000
v 0.075000 0.375000 0.050000
v -0.075000 0.375000 0.050000
v 0.000000 0.400000 -0.050000
v 0.000000 0.400000 0.050000
v -0.075000 0.475000 0.000000
v 0.075000 0.475000 0.000000
v 0.000000 0.500000 0.000000
vn -0.1474 -0.4423 -0.8847
vn 0.1474 -0.4423 0.8847
vn 0.1474 -0.4423 -0.8847
vn -0.1474 -0.4423 0.8847
vn 0.4423 -0.1474 -0.8847
vn 0.4423 -0.1474 0.8847
vn -0.4423 -0.1474 0.8847
vn -0.4423 -0.1474 -0.8847
vn 0.4423 0.1474 -0.8847
vn 0.4423 0.1474 0.8847
vn -0.4423 0.1474 0.8847
vn -0.4423 0.1474 -0.8847
vn -0.1474 0.4423 -0.8847
vn 0.1474 0.4423 -0.8847
vn 0.1474 0.4423 0.8847
vn -0.1474 0.4423 0.8847
usemtl GemColor
s off
f 28//1 11//1 9//1
f 30//2 10//2 8//2
f 29//3 8//3 10//3
f 31//4 9//4 11//4
f 13//4 2//4 1//4
f 12//1 1//1 2//1
f 13//2 1//2 3//2
f 12//3 3//3 1//3
f 29//5 15//5 8//5
f 30//6 8//6 15//6
f 31//7 14//7 9//7
f 28//8 9//8 14//8
f 27//3 10//3 6//3
f 26//4 11//4 7//4
f 25//2 6//2 10//2
f 24//1 7//1 11//1
f 19//1 2//1 4//1
f 16//4 4//4 2//4
f 17//3 5//3 3//3
f 18//2 3//2 5//2
f 23//1 4//1 7//1
f 22//2 5//2 6//2
f 21//3 6//3 5//3
f 20//4 7//4 4//4
f 26//4 31//4 11//4
f 27//3 29//3 10//3
f 28//1 24//1 11//1
f 30//2 25//2 10//2
f 19//1 12//1 2//1
f 18//2 13//2 3//2
f 12//3 17//3 3//3
f 13//4 16//4 2//4
f 39//8 14//8 32//8
f 38//6 15//6 33//6
f 36//7 32//7 14//7
f 37//5 33//5 15//5
f 24//1 23//1 7//1
f 25//2 22//2 6//2
f 20//4 26//4 7//4
f 21//3 27//3 6//3
f 22//2 18//2 5//2
f 16//4 20//4 4//4
f 23//1 19//1 4//1
f 17//3 21//3 5//3
f 38//6 30//6 15//6
f 39//8 28//8 14//8
f 29//5 37//5 15//5
f 31//7 36//7 14//7
f 58//7 40//7 32//7
f 59//8 32//8 40//8
f 57//5 41//5 33//5
f 56//6 33//6 41//6
f 72//7 54//7 40//7
f 75//8 40//8 54//8
f 73//5 55//5 41//5
f 74//6 41//6 55//6
f 87//7 62//7 54//7
f 86//5 63//5 55//5
f 85//8 54//8 62//8
f 84//6 55//6 63//6
f 36//7 58//7 32//7
f 59//8 39//8 32//8
f 37//5 57//5 33//5
f 56//6 38//6 33//6
f 35//4 16//4 13//4
f 35//2 13//2 18//2
f 34//1 12//1 19//1
f 34//3 17//3 12//3
f 53//4 31//4 26//4
f 52//3 29//3 27//3
f 50//1 24//1 28//1
f 51//2 25//2 30//2
f 52//5 37//5 29//5
f 53//7 36//7 31//7
f 51//6 30//6 38//6
f 50//8 28//8 39//8
f 75//8 59//8 40//8
f 58//7 72//7 40//7
f 74//6 56//6 41//6
f 57//5 73//5 41//5
f 42//1 19//1 23//1
f 43//2 18//2 22//2
f 45//3 21//3 17//3
f 44//4 20//4 16//4
f 47//4 26//4 20//4
f 48//2 22//2 25//2
f 49//1 23//1 24//1
f 46//3 27//3 21//3
f 72//7 87//7 54//7
f 84//6 74//6 55//6
f 73//5 86//5 55//5
f 85//8 75//8 54//8
f 34//3 45//3 17//3
f 35//4 44//4 16//4
f 43//2 35//2 18//2
f 42//1 34//1 19//1
f 50//1 49//1 24//1
f 51//2 48//2 25//2
f 46//3 52//3 27//3
f 47//4 53//4 26//4
f 49//1 42//1 23//1
f 45//3 46//3 21//3
f 48//2 43//2 22//2
f 44//4 47//4 20//4
f 65//7 58//7 36//7
f 67//5 57//5 37//5
f 64//6 38//6 56//6
f 66//8 39//8 59//8
f 53//7 65//7 36//7
f 66//8 50//8 39//8
f 52//5 67//5 37//5
f 64//6 51//6 38//6
f 81//6 56//6 74//6
f 80//7 72//7 58//7
f 83//8 59//8 75//8
f 82//5 73//5 57//5
f 100//8 75//8 85//8
f 101//6 74//6 84//6
f 103//7 87//7 72//7
f 102//5 86//5 73//5
f 81//6 64//6 56//6
f 83//8 66//8 59//8
f 65//7 80//7 58//7
f 67//5 82//5 57//5
f 60//2 35//2 43//2
f 61//1 34//1 42//1
f 61//3 45//3 34//3
f 60//4 44//4 35//4
f 78//2 48//2 51//2
f 79//4 53//4 47//4
f 76//3 52//3 46//3
f 77//1 49//1 50//1
f 71//1 42//1 49//1
f 70//2 43//2 48//2
f 68//4 47//4 44//4
f 69//3 46//3 45//3
f 76//5 67//5 52//5
f 79//7 65//7 53//7
f 78//6 51//6 64//6
f 77//8 50//8 66//8
f 82//5 102//5 73//5
f 80//7 103//7 72//7
f 101//6 81//6 74//6
f 100//8 83//8 75//8
f 70//2 60//2 43//2
f 71//1 61//1 42//1
f 60//4 68//4 44//4
f 61//3 69//3 45//3
f 77//1 71//1 49//1
f 69//3 76//3 46//3
f 78//2 70//2 48//2
f 68//4 79//4 47//4
f 92//7 80//7 65//7
f 93//6 64//6 81//6
f 95//8 66//8 83//8
f 94//5 82//5 67//5
f 95//8 77//8 66//8
f 79//7 92//7 65//7
f 93//6 78//6 64//6
f 76//5 94//5 67//5
f 113//7 103//7 80//7
f 112//6 81//6 101//6
f 115//8 83//8 100//8
f 114//5 102//5 82//5
f 91//1 61//1 71//1
f 90//2 60//2 70//2
f 90//4 68//4 60//4
f 91//3 69//3 61//3
f 99//4 79//4 68//4
f 98//3 76//3 69//3
f 97//2 70//2 78//2
f 96//1 71//1 77//1
f 92//7 113//7 80//7
f 94//5 114//5 82//5
f 112//6 93//6 81//6
f 115//8 95//8 83//8
f 99//7 92//7 79//7
f 96//8 77//8 95//8
f 97//6 78//6 93//6
f 98//5 94//5 76//5
f 97//2 90//2 70//2
f 91//3 98//3 69//3
f 96//1 91//1 71//1
f 90//4 99//4 68//4
f 88//9 63//9 86//9
f 88//10 84//10 63//10
f 89//11 62//11 87//11
f 89//12 85//12 62//12
f 106//9 88//9 86//9
f 88//10 109//10 84//10
f 89//12 108//12 85//12
f 107//11 89//11 87//11
f 111//4 99//4 90//4
f 110//1 91//1 96//1
f 111//2 90//2 97//2
f 110//3 98//3 91//3
f 106//9 86//9 102//9
f 108//12 100//12 85//12
f 109//10 101//10 84//10
f 107//11 87//11 103//11
f 104//10 109//10 88//10
f 105//12 108//12 89//12
f 104//9 88//9 106//9
f 105//11 89//11 107//11
f 116//6 97//6 93//6
f 98//5 117//5 94//5
f 118//8 96//8 95//8
f 99//7 119//7 92//7
f 108//12 123//12 100//12
f 120//11 107//11 103//11
f 109//10 121//10 101//10
f 122//9 106//9 102//9
f 122//9 102//9 114//9
f 120//11 103//11 113//11
f 121//10 112//10 101//10
f 123//12 115//12 100//12
f 118//8 95//8 115//8
f 117//5 114//5 94//5
f 116//6 93//6 112//6
f 119//7 113//7 92//7
f 128//9 104//9 106//9
f 104//10 127//10 109//10
f 105//12 129//12 108//12
f 126//11 105//11 107//11
f 131//11 113//11 119//11
f 133//12 118//12 115//12
f 130//10 116//10 112//10
f 132//9 114//9 117//9
f 136//10 111//10 116//10
f 137//12 110//12 118//12
f 134//11 119//11 111//11
f 135//9 117//9 110//9
f 128//9 106//9 122//9
f 126//11 107//11 120//11
f 129//12 123//12 108//12
f 127//10 121//10 109//10
f 125//11 105//11 126//11
f 124//9 104//9 128//9
f 124//10 127//10 104//10
f 125//12 129//12 105//12
f 111//6 97//6 116//6
f 110//5 117//5 98//5
f 110//8 96//8 118//8
f 111//7 119//7 99//7
f 121//10 130//10 112//10
f 132//9 122//9 114//9
f 123//12 133//12 115//12
f 131//11 120//11 113//11
f 134//11 131//11 119//11
f 133//12 137//12 118//12
f 130//10 136//10 116//10
f 135//9 132//9 117//9
f 137//13 138//13 110//13
f 135//14 110//14 138//14
f 136//15 139//15 111//15
f 134//16 111//16 139//16
f 127//10 145//10 121//10
f 142//9 128//9 122//9
f 129//12 143//12 123//12
f 144//11 126//11 120//11
f 143//12 133//12 123//12
f 145//10 130//10 121//10
f 144//11 120//11 131//11
f 142//9 122//9 132//9
f 124//10 148//10 127//10
f 147//9 124//9 128//9
f 146//11 125//11 126//11
f 125//12 149//12 129//12
f 140//10 148//10 124//10
f 140//9 124//9 147//9
f 141//12 149//12 125//12
f 141//11 125//11 146//11
f 152//12 137//12 133//12
f 153//10 136//10 130//10
f 150//9 132//9 135//9
f 151//11 131//11 134//11
f 147//9 128//9 142//9
f 146//11 126//11 144//11
f 148//10 145//10 127//10
f 149//12 143//12 129//12
f 151//11 144//11 131//11
f 150//9 142//9 132//9
f 143//12 152//12 133//12
f 145//10 153//10 130//10
f 137//13 160//13 138//13
f 163//14 135//14 138//14
f 136//15 161//15 139//15
f 162//16 134//16 139//16
f 151//16 134//16 162//16
f 150//14 135//14 163//14
f 153//15 161//15 136//15
f 152//13 160//13 137//13
f 140//10 165//10 148//10
f 167//9 140//9 147//9
f 166//11 141//11 146//11
f 141//12 164//12 149//12
f 148//10 156//10 145//10
f 158//11 146//11 144//11
f 149//12 157//12 143//12
f 159//9 147//9 142//9
f 159//9 142//9 150//9
f 158//11 144//11 151//11
f 157//12 152//12 143//12
f 156//10 153//10 145//10
f 155//12 164//12 141//12
f 154//9 140//9 167//9
f 154//10 165//10 140//10
f 155//11 141//11 166//11
f 164//12 157//12 149//12
f 167//9 147//9 159//9
f 166//11 146//11 158//11
f 165//10 156//10 148//10
f 161//15 169//15 139//15
f 160//13 168//13 138//13
f 163//14 138//14 168//14
f 162//16 139//16 169//16
f 158//16 151//16 175//16
f 157//13 172//13 152//13
f 159//14 150//14 174//14
f 156//15 173//15 153//15
f 174//14 150//14 163//14
f 175//16 151//16 162//16
f 153//15 173//15 161//15
f 152//13 172//13 160//13
f 155//16 166//16 171//16
f 155//13 171//13 164//13
f 154//15 170//15 165//15
f 154//14 167//14 170//14
f 165//15 178//15 156//15
f 167//14 159//14 177//14
f 164//13 179//13 157//13
f 166//16 158//16 176//16
f 171//16 166//16 176//16
f 170//14 167//14 177//14
f 164//13 171//13 179//13
f 165//15 170//15 178//15
f 157//13 179//13 172//13
f 177//14 159//14 174//14
f 156//15 178//15 173//15
f 176//16 158//16 175//16
f 182//14 163//14 168//14
f 183//16 162//16 169//16
f 161//15 180//15 169//15
f 160//13 181//13 168//13
f 173//15 180//15 161//15
f 174//14 163//14 182//14
f 175//16 162//16 183//16
f 172//13 181//13 160//13
f 171//13 185//13 179//13
f 171//16 176//16 185//16
f 170//14 177//14 184//14
f 170//15 184//15 178//15
f 183//16 169//16 187//16
f 180//15 187//15 169//15
f 181//13 186//13 168//13
f 182//14 168//14 186//14
f 176//16 175//16 189//16
f 177//14 174//14 188//14
f 179//13 191//13 172//13
f 178//15 190//15 173//15
f 189//16 175//16 183//16
f 172//13 191//13 181//13
f 188//14 174//14 182//14
f 173//15 190//15 180//15
f 179//13 185//13 191//13
f 178//15 184//15 190//15
f 185//16 176//16 189//16
f 184//14 177//14 188//14
f 181//13 194//13 186//13
f 197//16 183//16 187//16
f 180//15 196//15 187//15
f 195//14 182//14 186//14
f 191//13 194//13 181//13
f 188//14 182//14 195//14
f 189//16 183//16 197//16
f 190//15 196//15 180//15
f 184//14 188//14 192//14
f 185//16 189//16 193//16
f 184//15 192//15 190//15
f 185//13 193//13 191//13
f 193//16 189//16 197//16
f 192//14 188//14 195//14
f 190//15 192//15 196//15
f 191//13 193//13 194//13
f 196//15 199//15 187//15
f 195//14 186//14 198//14
f 194//13 198//13 186//13
f 197//16 187//16 199//16
f 192//15 201//15 196//15
f 193//13 200//13 194//13
f 192//14 195//14 201//14
f 193//16 197//16 200//16
f 196//15 201//15 199//15
f 201//14 195//14 198//14
f 194//13 200//13 198//13
f 200//16 197//16 199//16
f 201//15 202//15 199//15
f 201//14 198//14 202//14
f 200//16 199//16 202//16
f 200//13 202//13 198//13
