# Blender v2.77 (sub 0) OBJ File: 'citrine.sapphire.blend'
# www.blender.org
mtllib citrine_shattering_3.sapphire.mtl
o Shattering.003_Cube.003
origin 0.198197 0.314963 0.000000
v 0.176803 0.060037 0.000000
v -0.198197 0.185037 0.000000
v -0.198197 -0.098693 -0.141865
v -0.283879 0.156477 0.000000
v 0.255737 -0.176766 -0.000000
v 0.079427 -0.314963 0.111188
v 0.029813 -0.086952 -0.097993
v 0.070891 -0.045875 0.070608
v -0.198197 -0.026204 0.105620
v -0.290860 0.059949 0.047100
v -0.076458 -0.076681 0.110570
v -0.058421 0.008657 -0.064894
vn -0.3788 -0.8882 0.2601
vn 0.1474 0.4423 0.8847
vn -0.9718 0.0047 0.2356
vn 0.0714 -0.8999 -0.4303
vn 0.4423 0.1474 0.8847
vn 0.1474 0.4423 0.8846
vn -0.7305 -0.6553 0.1920
vn 0.6749 -0.6885 -0.2655
vn -0.1474 0.4423 0.8847
vn 0.0561 -0.6683 -0.7418
vn -0.6361 -0.6997 0.3254
vn -0.9257 -0.1096 -0.3619
vn 0.1474 0.4423 -0.8847
vn -0.1474 0.4423 -0.8847
vn 0.4423 0.1474 -0.8847
usemtl GemColor
s off
f 11//1 9//1 3//1
f 2//2 9//2 11//2
f 6//3 8//3 7//3
f 8//4 11//4 12//4
f 8//5 6//5 5//5
f 11//6 8//6 2//6
f 10//7 3//7 9//7
f 12//8 11//8 3//8
f 10//9 9//9 2//9
f 5//10 6//10 7//10
f 7//11 8//11 12//11
f 3//12 10//12 4//12
f 8//2 1//2 2//2
f 8//5 5//5 1//5
f 12//13 3//13 2//13
f 10//9 2//9 4//9
f 3//14 4//14 2//14
f 12//13 2//13 1//13
f 1//13 7//13 12//13
f 5//15 7//15 1//15
