# Blender v2.77 (sub 0) OBJ File: 'converter.sapphire.blend'
# www.blender.org
mtllib converter_ring.sapphire.mtl
o Ring_Cylinder
origin 0.000000 0.200000 0.000000
v 0.459775 0.051336 -0.058041
v 0.459775 0.051336 0.059075
v 0.496824 0.025668 -0.063653
v 0.496824 0.025668 0.064687
v 0.496824 -0.025668 -0.063653
v 0.496824 -0.025668 0.064687
v 0.459775 -0.051336 -0.058041
v 0.459775 -0.051336 0.059075
v 0.422727 -0.025668 -0.063653
v 0.422727 -0.025668 0.064687
v 0.422727 0.025668 -0.063653
v 0.422727 0.025668 0.064687
v 0.459775 -0.000000 0.083456
v 0.459775 -0.000000 -0.082423
v 0.280456 0.051336 0.369634
v 0.179026 0.051336 0.428183
v 0.303838 0.025668 0.398915
v 0.192687 0.025668 0.463075
v 0.303838 -0.025668 0.398915
v 0.192687 -0.025668 0.463075
v 0.280456 -0.051336 0.369634
v 0.179026 -0.051336 0.428183
v 0.266795 -0.025668 0.334741
v 0.155644 -0.025668 0.398902
v 0.266795 0.025668 0.334741
v 0.155644 0.025668 0.398902
v 0.157910 -0.000000 0.440372
v 0.301572 -0.000000 0.357445
v -0.269232 0.051336 0.378226
v -0.355284 0.051336 0.298782
v -0.290240 0.025668 0.409254
v -0.384538 0.025668 0.322197
v -0.290240 -0.025668 0.409254
v -0.384538 -0.025668 0.322197
v -0.269232 -0.051336 0.378226
v -0.355284 -0.051336 0.298782
v -0.239977 -0.025668 0.354811
v -0.334276 -0.025668 0.267754
v -0.239977 0.025668 0.354811
v -0.334276 0.025668 0.267754
v -0.373198 -0.000000 0.282243
v -0.251318 -0.000000 0.394765
v -0.429522 0.051336 -0.174790
v -0.371909 0.051336 -0.276756
v -0.464539 0.025668 -0.188130
v -0.401404 0.025668 -0.299867
v -0.464539 -0.025668 -0.188130
v -0.401404 -0.025668 -0.299867
v -0.429522 -0.051336 -0.174790
v -0.371909 -0.051336 -0.276756
v -0.400027 -0.025668 -0.151679
v -0.336893 -0.025668 -0.263416
v -0.400027 0.025668 -0.151679
v -0.336893 0.025668 -0.263416
v -0.359915 -0.000000 -0.297983
v -0.441516 -0.000000 -0.153563
v -0.058006 0.051336 -0.459581
v 0.059110 0.051336 -0.459384
v -0.063555 0.025668 -0.496639
v 0.064784 0.025668 -0.496423
v -0.063555 -0.025668 -0.496639
v 0.064784 -0.025668 -0.496423
v -0.058006 -0.051336 -0.459581
v 0.059110 -0.051336 -0.459384
v -0.063681 -0.025668 -0.422542
v 0.064659 -0.025668 -0.422326
v -0.063681 0.025668 -0.422542
v 0.064659 0.025668 -0.422326
v 0.083491 -0.000000 -0.459343
v -0.082388 -0.000000 -0.459623
v -0.460224 -0.041400 -0.000260
v -0.460224 0.041400 -0.000260
v -0.424912 -0.041400 -0.176235
v -0.424912 0.041400 -0.176235
v -0.324944 -0.041400 -0.325301
v -0.324944 0.041400 -0.325301
v -0.175541 -0.041400 -0.424764
v -0.175541 0.041400 -0.424764
v 0.000552 -0.041400 -0.459483
v 0.000552 0.041400 -0.459483
v 0.176527 -0.041400 -0.424170
v 0.176527 0.041400 -0.424170
v 0.325593 -0.041400 -0.324203
v 0.325593 0.041400 -0.324203
v 0.425056 -0.041400 -0.174800
v 0.425056 0.041400 -0.174800
v 0.459775 -0.041400 0.001293
v 0.459775 0.041400 0.001293
v 0.424462 -0.041400 0.177268
v 0.424462 0.041400 0.177268
v 0.324495 -0.041400 0.326334
v 0.324495 0.041400 0.326334
v 0.175092 -0.041400 0.425798
v 0.175092 0.041400 0.425798
v -0.001001 -0.041400 0.460516
v -0.001001 0.041400 0.460516
v -0.176976 -0.041400 0.425203
v -0.176976 0.041400 0.425203
v -0.326043 -0.041400 0.325236
v -0.326043 0.041400 0.325236
v -0.425506 -0.041400 0.175833
v -0.425506 0.041400 0.175833
v -0.483224 0.000000 -0.000299
v -0.446146 0.000000 -0.185072
v -0.341180 0.000000 -0.341592
v -0.184307 0.000000 -0.446028
v 0.000591 0.000000 -0.482482
v 0.185365 0.000000 -0.445404
v 0.341884 0.000000 -0.340439
v 0.446320 0.000000 -0.183566
v 0.482775 0.000000 0.001332
v 0.445696 0.000000 0.186106
v 0.340731 0.000000 0.342625
v 0.183858 0.000000 0.447062
v -0.001040 0.000000 0.483516
v -0.185814 0.000000 0.446438
v -0.342333 0.000000 0.341472
v -0.446770 0.000000 0.184599
vn 0.1319 0.9912 0.0002
vn -0.9232 0.0000 -0.3842
vn -1.0000 0.0000 -0.0017
vn 0.1218 0.9912 0.0507
vn -0.7059 0.0000 -0.7083
vn 0.0931 0.9912 0.0934
vn -0.3811 0.0000 -0.9245
vn 0.0503 0.9912 0.1220
vn 0.0017 0.0000 -1.0000
vn -0.0507 0.9912 0.1218
vn 0.3842 0.0000 -0.9232
vn -0.0934 0.9912 0.0931
vn 0.7083 0.0000 -0.7059
vn 0.9245 0.0000 -0.3811
vn -0.1220 0.9912 0.0503
vn 1.0000 0.0000 0.0017
vn -0.1319 0.9912 -0.0002
vn 0.9232 0.0000 0.3842
vn -0.1218 0.9912 -0.0507
vn 0.7059 0.0000 0.7083
vn -0.0931 0.9912 -0.0934
vn 0.3811 0.0000 0.9245
vn -0.0503 0.9912 -0.1220
vn -0.0017 0.0000 1.0000
vn 0.0002 0.9912 -0.1319
vn -0.3842 0.0000 0.9232
vn 0.0507 0.9912 -0.1218
vn -0.7083 0.0000 0.7059
vn 0.0934 0.9912 -0.0931
vn -0.9245 0.0000 0.3811
vn 0.1220 0.9912 -0.0503
vn 0.1220 -0.9912 -0.0503
vn 0.1319 -0.9912 0.0002
vn 0.0934 -0.9912 -0.0931
vn 0.0507 -0.9912 -0.1218
vn 0.0002 -0.9912 -0.1319
vn -0.0503 -0.9912 -0.1220
vn -0.0931 -0.9912 -0.0934
vn -0.1218 -0.9912 -0.0507
vn -0.1319 -0.9912 -0.0002
vn -0.1220 -0.9912 0.0503
vn -0.0934 -0.9912 0.0931
vn -0.0507 -0.9912 0.1218
vn -0.0002 -0.9912 0.1319
vn 0.0503 -0.9912 0.1220
vn 0.0931 -0.9912 0.0934
vn 0.1218 -0.9912 0.0507
vn -0.0002 0.9912 0.1319
vn 0.0000 0.9014 0.4330
vn 0.7504 0.4260 -0.5054
vn 0.0000 0.9014 -0.4330
vn 0.7504 0.4260 0.5054
vn 0.7504 -0.4260 -0.5054
vn 0.7504 -0.4260 0.5054
vn 0.0000 -0.9014 -0.4330
vn 0.0000 -0.9014 0.4330
vn -0.7504 -0.4260 -0.5054
vn 0.0000 0.0000 -1.0000
vn -0.7504 -0.4260 0.5054
vn -0.7504 0.4260 -0.5054
vn -0.7504 0.4260 0.5054
vn 0.0000 0.0000 1.0000
vn -0.3750 0.9014 0.2165
vn 0.8128 0.4260 0.3972
vn 0.3750 0.9014 -0.2165
vn -0.0626 0.4260 0.9025
vn 0.8128 -0.4260 0.3972
vn -0.3750 -0.9014 0.2165
vn 0.3750 -0.9014 -0.2165
vn 0.0626 -0.4260 -0.9025
vn 0.8661 0.0000 -0.4999
vn -0.8128 -0.4260 -0.3972
vn 0.0626 0.4260 -0.9025
vn -0.8128 0.4260 -0.3972
vn -0.8661 0.0000 0.4999
vn -0.0626 -0.4260 0.9025
vn -0.3182 0.9014 -0.2937
vn -0.1376 0.4260 0.8942
vn 0.3182 0.9014 0.2937
vn -0.8803 0.4260 0.2085
vn -0.1376 -0.4260 0.8942
vn -0.3182 -0.9014 -0.2937
vn 0.3182 -0.9014 0.2937
vn 0.8803 -0.4260 -0.2085
vn 0.7347 0.0000 0.6783
vn 0.1376 -0.4260 -0.8942
vn 0.8803 0.4260 -0.2085
vn 0.1376 0.4260 -0.8942
vn -0.7347 0.0000 -0.6783
vn -0.8803 -0.4260 0.2085
vn 0.2130 0.9014 -0.3770
vn -0.9019 0.4260 0.0709
vn -0.2130 0.9014 0.3770
vn -0.4047 0.4260 -0.8091
vn -0.9019 -0.4260 0.0709
vn 0.2130 -0.9014 -0.3770
vn -0.2130 -0.9014 0.3770
vn 0.4046 -0.4260 0.8091
vn -0.4919 0.0000 0.8706
vn 0.9019 -0.4260 -0.0709
vn 0.4046 0.4260 0.8091
vn 0.9019 0.4260 -0.0709
vn 0.4919 0.0000 -0.8706
vn -0.4047 -0.4260 -0.8091
vn 0.4330 0.9014 0.0007
vn -0.5041 0.4260 -0.7512
vn -0.4330 0.9014 -0.0007
vn 0.5066 0.4260 -0.7495
vn -0.5041 -0.4260 -0.7512
vn 0.4330 -0.9014 0.0007
vn -0.4330 -0.9014 -0.0007
vn 0.5041 -0.4260 0.7512
vn -0.5066 -0.4260 0.7495
vn -0.5066 0.4260 0.7495
vn 0.5041 0.4260 0.7512
vn 0.5066 -0.4260 -0.7495
usemtl RingBody
s 1
f 72//1 104//2 103//3
f 74//4 105//5 104//2
f 76//6 106//7 105//5
f 78//8 107//9 106//7
f 107//9 82//10 108//11
f 108//11 84//12 109//13
f 84//12 110//14 109//13
f 86//15 111//16 110//14
f 88//17 112//18 111//16
f 90//19 113//20 112//18
f 92//21 114//22 113//20
f 94//23 115//24 114//22
f 96//25 116//26 115//24
f 98//27 117//28 116//26
f 100//29 118//30 117//28
f 102//31 103//3 118//30
f 101//32 103//3 71//33
f 117//28 101//32 99//34
f 116//26 99//34 97//35
f 115//24 97//35 95//36
f 114//22 95//36 93//37
f 113//20 93//37 91//38
f 89//39 113//20 91//38
f 111//16 89//39 87//40
f 110//14 87//40 85//41
f 83//42 110//14 85//41
f 108//11 83//42 81//43
f 107//9 81//43 79//44
f 77//45 107//9 79//44
f 75//46 106//7 77//45
f 73//47 105//5 75//46
f 103//3 73//47 71//33
f 75//46 74//4 73//47
f 77//45 76//6 75//46
f 79//44 78//8 77//45
f 81//43 80//48 79//44
f 83//42 82//10 81//43
f 85//41 84//12 83//42
f 87//40 86//15 85//41
f 89//39 88//17 87//40
f 91//38 90//19 89//39
f 93//37 92//21 91//38
f 95//36 94//23 93//37
f 97//35 96//25 95//36
f 99//34 98//27 97//35
f 101//32 100//29 99//34
f 71//33 102//31 101//32
f 73//47 72//1 71//33
f 72//1 74//4 104//2
f 74//4 76//6 105//5
f 76//6 78//8 106//7
f 78//8 80//48 107//9
f 107//9 80//48 82//10
f 108//11 82//10 84//12
f 84//12 86//15 110//14
f 86//15 88//17 111//16
f 88//17 90//19 112//18
f 90//19 92//21 113//20
f 92//21 94//23 114//22
f 94//23 96//25 115//24
f 96//25 98//27 116//26
f 98//27 100//29 117//28
f 100//29 102//31 118//30
f 102//31 72//1 103//3
f 101//32 118//30 103//3
f 117//28 118//30 101//32
f 116//26 117//28 99//34
f 115//24 116//26 97//35
f 114//22 115//24 95//36
f 113//20 114//22 93//37
f 89//39 112//18 113//20
f 111//16 112//18 89//39
f 110//14 111//16 87//40
f 83//42 109//13 110//14
f 108//11 109//13 83//42
f 107//9 108//11 81//43
f 77//45 106//7 107//9
f 75//46 105//5 106//7
f 73//47 104//2 105//5
f 103//3 104//2 73//47
f 75//46 76//6 74//4
f 77//45 78//8 76//6
f 79//44 80//48 78//8
f 81//43 82//10 80//48
f 83//42 84//12 82//10
f 85//41 86//15 84//12
f 87//40 88//17 86//15
f 89//39 90//19 88//17
f 91//38 92//21 90//19
f 93//37 94//23 92//21
f 95//36 96//25 94//23
f 97//35 98//27 96//25
f 99//34 100//29 98//27
f 101//32 102//31 100//29
f 71//33 72//1 102//31
f 73//47 74//4 72//1
usemtl LightMaterial
f 2//49 3//50 1//51
f 4//52 5//53 3//50
f 6//54 7//55 5//53
f 8//56 9//57 7//55
f 1//51 3//50 14//58
f 10//59 11//60 9//57
f 12//61 1//51 11//60
f 4//52 2//49 13//62
f 2//49 12//61 13//62
f 12//61 10//59 13//62
f 10//59 8//56 13//62
f 8//56 6//54 13//62
f 6//54 4//52 13//62
f 3//50 5//53 14//58
f 5//53 7//55 14//58
f 7//55 9//57 14//58
f 9//57 11//60 14//58
f 11//60 1//51 14//58
f 16//63 17//64 15//65
f 18//66 19//67 17//64
f 19//67 22//68 21//69
f 22//68 23//70 21//69
f 15//65 17//64 28//71
f 24//72 25//73 23//70
f 26//74 15//65 25//73
f 18//66 16//63 27//75
f 16//63 26//74 27//75
f 26//74 24//72 27//75
f 24//72 22//68 27//75
f 22//68 20//76 27//75
f 20//76 18//66 27//75
f 17//64 19//67 28//71
f 19//67 21//69 28//71
f 21//69 23//70 28//71
f 23//70 25//73 28//71
f 25//73 15//65 28//71
f 30//77 31//78 29//79
f 32//80 33//81 31//78
f 33//81 36//82 35//83
f 36//82 37//84 35//83
f 29//79 31//78 42//85
f 38//86 39//87 37//84
f 40//88 29//79 39//87
f 32//80 30//77 41//89
f 30//77 40//88 41//89
f 40//88 38//86 41//89
f 38//86 36//82 41//89
f 36//82 34//90 41//89
f 34//90 32//80 41//89
f 31//78 33//81 42//85
f 33//81 35//83 42//85
f 35//83 37//84 42//85
f 37//84 39//87 42//85
f 39//87 29//79 42//85
f 44//91 45//92 43//93
f 46//94 47//95 45//92
f 47//95 50//96 49//97
f 50//96 51//98 49//97
f 43//93 45//92 56//99
f 52//100 53//101 51//98
f 54//102 43//93 53//101
f 46//94 44//91 55//103
f 44//91 54//102 55//103
f 54//102 52//100 55//103
f 52//100 50//96 55//103
f 50//96 48//104 55//103
f 48//104 46//94 55//103
f 45//92 47//95 56//99
f 47//95 49//97 56//99
f 49//97 51//98 56//99
f 51//98 53//101 56//99
f 53//101 43//93 56//99
f 58//105 59//106 57//107
f 60//108 61//109 59//106
f 61//109 64//110 63//111
f 63//111 66//112 65//113
f 57//107 59//106 70//3
f 66//112 67//114 65//113
f 68//115 57//107 67//114
f 60//108 58//105 69//16
f 58//105 68//115 69//16
f 68//115 66//112 69//16
f 66//112 64//110 69//16
f 64//110 62//116 69//16
f 62//116 60//108 69//16
f 59//106 61//109 70//3
f 61//109 63//111 70//3
f 63//111 65//113 70//3
f 65//113 67//114 70//3
f 67//114 57//107 70//3
f 2//49 4//52 3//50
f 4//52 6//54 5//53
f 6//54 8//56 7//55
f 8//56 10//59 9//57
f 10//59 12//61 11//60
f 12//61 2//49 1//51
f 16//63 18//66 17//64
f 18//66 20//76 19//67
f 19//67 20//76 22//68
f 22//68 24//72 23//70
f 24//72 26//74 25//73
f 26//74 16//63 15//65
f 30//77 32//80 31//78
f 32//80 34//90 33//81
f 33//81 34//90 36//82
f 36//82 38//86 37//84
f 38//86 40//88 39//87
f 40//88 30//77 29//79
f 44//91 46//94 45//92
f 46//94 48//104 47//95
f 47//95 48//104 50//96
f 50//96 52//100 51//98
f 52//100 54//102 53//101
f 54//102 44//91 43//93
f 58//105 60//108 59//106
f 60//108 62//116 61//109
f 61//109 62//116 64//110
f 63//111 64//110 66//112
f 66//112 68//115 67//114
f 68//115 58//105 57//107
