# Blender v2.77 (sub 0) OBJ File: 'base.blend'
# www.blender.org
mtllib door_yellow_left.sapphire.mtl
o Door.Left_Cube.005
origin -0.400310 0.399695 0.000000
v 0.000007 0.000002 -0.500000
v 0.242160 0.100305 -0.500000
v 0.000007 0.000002 0.475000
v 0.242160 0.100305 0.365000
v 0.242160 0.100305 -0.390000
v 0.101634 0.042097 -0.390000
v 0.242160 0.100305 0.475000
v 0.101633 0.042097 0.365000
v 0.400310 0.100305 0.365000
v 0.400310 0.100305 -0.500000
v 0.400310 0.100305 0.475000
v 0.400310 0.100305 -0.390000
v 0.244149 0.090305 0.365000
v 0.105460 0.032858 0.365000
v 0.105461 0.032858 -0.390000
v 0.244149 0.090305 -0.390000
v 0.003834 -0.009237 -0.500000
v 0.244149 0.090305 -0.500000
v 0.244149 0.090305 0.475000
v 0.003834 -0.009237 0.475000
v 0.400310 0.090305 -0.500000
v 0.400310 0.090305 -0.390000
v 0.400310 0.090305 0.475000
v 0.400310 0.090305 0.365000
v 0.242160 0.100305 -0.160748
v 0.242160 0.100305 0.160747
v 0.400310 0.100305 0.160747
v 0.400310 0.100305 0.090834
v 0.400310 0.100305 -0.090834
v 0.400310 0.100305 -0.160748
v 0.239563 0.099231 -0.160748
v 0.239563 0.099231 0.160747
v 0.309476 0.100305 0.090834
v 0.309476 0.100305 -0.090834
vn -0.3827 0.9239 -0.0000
vn 0.0000 1.0000 -0.0000
vn 0.3827 -0.9239 0.0000
vn 0.0000 -1.0000 -0.0000
vn 1.0000 0.0000 0.0000
vn -0.0000 0.0000 1.0000
vn 0.0000 0.0000 -1.0000
vn -0.9239 -0.3827 -0.0000
vn -0.3822 0.9241 0.0000
usemtl Outer
s off
f 6//1 2//1 1//1
f 8//1 7//1 4//1
f 6//1 3//1 8//1
f 12//2 2//2 5//2
f 11//2 4//2 7//2
f 15//3 18//3 16//3
f 19//3 14//3 13//3
f 20//3 15//3 14//3
f 16//4 21//4 22//4
f 19//4 24//4 23//4
f 11//5 24//5 9//5
f 11//6 19//6 23//6
f 10//7 18//7 2//7
f 1//8 20//8 3//8
f 1//7 18//7 17//7
f 3//6 19//6 7//6
f 12//5 21//5 10//5
f 6//1 5//1 2//1
f 8//1 3//1 7//1
f 6//1 1//1 3//1
f 12//2 10//2 2//2
f 11//2 9//2 4//2
f 15//3 17//3 18//3
f 19//3 20//3 14//3
f 20//3 17//3 15//3
f 16//4 18//4 21//4
f 19//4 13//4 24//4
f 11//5 23//5 24//5
f 11//6 7//6 19//6
f 10//7 21//7 18//7
f 1//8 17//8 20//8
f 1//7 2//7 18//7
f 3//6 20//6 19//6
f 12//5 22//5 21//5
usemtl Inner
f 9//2 26//2 4//2
f 14//3 16//3 13//3
f 13//4 22//4 24//4
f 27//5 24//5 28//5
f 31//1 6//1 8//1
f 30//2 5//2 25//2
f 34//2 28//2 29//2
f 9//2 27//2 26//2
f 14//3 15//3 16//3
f 13//4 16//4 22//4
f 22//5 12//5 30//5
f 29//5 28//5 24//5
f 22//5 30//5 29//5
f 9//5 24//5 27//5
f 22//5 29//5 24//5
f 8//1 4//1 32//1
f 4//9 26//9 32//9
f 5//1 6//1 31//1
f 31//9 25//9 5//9
f 8//1 32//1 31//1
f 30//2 12//2 5//2
f 34//2 33//2 28//2
usemtl Hole
f 31//9 26//9 25//9
f 26//2 34//2 25//2
f 31//9 32//9 26//9
f 26//2 27//2 33//2
f 27//2 28//2 33//2
f 29//2 30//2 34//2
f 26//2 33//2 34//2
f 34//2 30//2 25//2
