# Blender v2.77 (sub 0) OBJ File: 'door_red.sapphire.blend'
# www.blender.org
mtllib door_red_left.sapphire.mtl
o Door.Left_Cube.005
origin -0.400300 0.399700 0.000000
v -0.000003 -0.000003 -0.500000
v 0.242150 0.100300 -0.500000
v -0.000003 -0.000003 0.475000
v 0.242150 0.100300 0.365000
v 0.242150 0.100300 -0.390000
v 0.101624 0.042092 -0.390000
v 0.242150 0.100300 0.475000
v 0.101623 0.042092 0.365000
v 0.400300 0.100300 0.365000
v 0.400300 0.100300 -0.500000
v 0.400300 0.100300 0.475000
v 0.400300 0.100300 -0.390000
v 0.400300 0.100300 0.183289
v 0.400300 0.100300 0.119097
v 0.400300 0.100300 -0.119097
v 0.400300 0.100300 -0.183290
v 0.242150 0.100300 -0.092229
v 0.242150 0.100300 0.092229
v 0.340750 0.100300 0.103141
v 0.297156 0.100300 0.059547
v 0.281200 0.100300 0.000002
v 0.297156 0.100300 -0.059547
v 0.340750 0.100300 -0.103141
v 0.308654 0.100300 -0.158733
v 0.308654 0.100300 0.158734
v 0.217008 0.089886 0.000002
v 0.244139 0.090300 0.365000
v 0.105450 0.032853 0.365000
v 0.105450 0.032853 -0.390000
v 0.244139 0.090300 -0.390000
v 0.244139 0.090300 -0.092229
v 0.220834 0.080648 0.000002
v 0.244139 0.090300 0.092229
v 0.003824 -0.009242 -0.500000
v 0.244139 0.090300 -0.500000
v 0.244139 0.090300 0.475000
v 0.003824 -0.009242 0.475000
v 0.400300 0.090300 -0.500000
v 0.400300 0.090300 -0.390000
v 0.400300 0.090300 0.475000
v 0.400300 0.090300 0.365000
v 0.308654 0.090300 0.158734
v 0.400300 0.090300 0.183289
v 0.308654 0.090300 -0.158733
v 0.400300 0.090300 -0.183290
v 0.400300 0.090300 -0.119097
v 0.340750 0.090300 -0.103141
v 0.297156 0.090300 -0.059547
v 0.281200 0.090300 0.000002
v 0.297156 0.090300 0.059547
v 0.340750 0.090300 0.103141
v 0.400300 0.090300 0.119097
vn -0.3827 0.9239 -0.0000
vn 0.0000 1.0000 0.0000
vn 0.3827 -0.9239 0.0000
vn 0.0000 -1.0000 0.0000
vn 0.0000 0.0000 -1.0000
vn 1.0000 0.0000 0.0000
vn -0.9239 -0.3827 -0.0000
vn -0.0000 0.0000 1.0000
usemtl Outer
s off
f 6//1 2//1 1//1
f 8//1 7//1 4//1
f 6//1 3//1 8//1
f 12//2 2//2 5//2
f 9//2 7//2 11//2
f 29//3 35//3 30//3
f 36//3 28//3 27//3
f 37//3 29//3 28//3
f 30//4 38//4 39//4
f 40//4 27//4 41//4
f 1//5 35//5 34//5
f 10//5 35//5 2//5
f 12//6 38//6 10//6
f 1//7 37//7 3//7
f 11//8 36//8 40//8
f 3//8 36//8 7//8
f 11//6 41//6 9//6
f 6//1 5//1 2//1
f 8//1 3//1 7//1
f 6//1 1//1 3//1
f 12//2 10//2 2//2
f 9//2 4//2 7//2
f 29//3 34//3 35//3
f 36//3 37//3 28//3
f 37//3 34//3 29//3
f 30//4 35//4 38//4
f 40//4 36//4 27//4
f 1//5 2//5 35//5
f 10//5 38//5 35//5
f 12//6 39//6 38//6
f 1//7 34//7 37//7
f 11//8 7//8 36//8
f 3//8 37//8 36//8
f 11//6 40//6 41//6
usemtl Inner
f 26//1 6//1 8//1
f 13//2 25//2 9//2
f 24//2 12//2 5//2
f 23//2 20//2 19//2
f 29//3 31//3 32//3
f 27//4 42//4 41//4
f 39//4 45//4 44//4
f 51//4 50//4 48//4
f 16//6 39//6 12//6
f 14//6 46//6 15//6
f 9//6 43//6 13//6
f 8//1 4//1 18//1
f 26//1 17//1 6//1
f 8//1 18//1 26//1
f 5//1 6//1 17//1
f 4//2 9//2 25//2
f 25//2 18//2 4//2
f 5//2 17//2 24//2
f 24//2 16//2 12//2
f 14//2 15//2 19//2
f 23//2 22//2 20//2
f 21//2 20//2 22//2
f 19//2 15//2 23//2
f 33//3 27//3 28//3
f 28//3 29//3 32//3
f 30//3 31//3 29//3
f 32//3 33//3 28//3
f 43//4 41//4 42//4
f 27//4 33//4 42//4
f 44//4 31//4 30//4
f 30//4 39//4 44//4
f 47//4 46//4 52//4
f 52//4 51//4 47//4
f 50//4 49//4 48//4
f 48//4 47//4 51//4
f 16//6 45//6 39//6
f 14//6 52//6 46//6
f 9//6 41//6 43//6
usemtl Hole
f 21//2 22//2 17//2
f 17//1 26//1 18//1
f 49//4 50//4 33//4
f 31//3 33//3 32//3
f 13//6 52//6 14//6
f 15//6 45//6 16//6
f 17//2 18//2 21//2
f 25//2 13//2 19//2
f 13//2 14//2 19//2
f 16//2 24//2 23//2
f 23//2 15//2 16//2
f 22//2 23//2 17//2
f 25//2 19//2 18//2
f 19//2 20//2 18//2
f 23//2 24//2 17//2
f 18//2 20//2 21//2
f 42//4 33//4 51//4
f 31//4 47//4 48//4
f 45//4 46//4 47//4
f 45//4 47//4 44//4
f 52//4 43//4 51//4
f 51//4 43//4 42//4
f 44//4 47//4 31//4
f 31//4 48//4 49//4
f 50//4 51//4 33//4
f 31//4 49//4 33//4
f 13//6 43//6 52//6
f 15//6 46//6 45//6
