# Blender v2.77 (sub 0) OBJ File: 'door_red.sapphire.blend'
# www.blender.org
mtllib door_cover_red.sapphire.mtl
o Cover_Cube
origin 0.000000 0.000000 0.000000
v 0.400303 0.399697 0.475000
v 0.133368 -0.375000 0.500000
v 0.304061 -0.304547 0.500000
v 0.375000 -0.133286 0.500000
v -0.375000 -0.133367 0.500000
v -0.304547 -0.304061 0.500000
v -0.133286 -0.375000 0.500000
v 0.375000 0.133367 0.500000
v 0.304547 0.304061 0.500000
v 0.133286 0.375000 0.500000
v -0.133286 0.375000 0.500000
v -0.304547 0.304061 0.500000
v -0.375000 0.133368 0.500000
v 0.375000 -0.133286 0.515000
v 0.304061 -0.304547 0.515000
v -0.133286 -0.375000 0.515000
v -0.304547 -0.304061 0.515000
v 0.133286 0.375000 0.515000
v 0.304547 0.304061 0.515000
v -0.304547 0.304061 0.515000
v -0.133286 0.375000 0.515000
v 0.375000 0.133367 0.515000
v 0.133368 -0.375000 0.515000
v -0.375000 0.133368 0.515000
v -0.375000 -0.133367 0.515000
v 0.500000 -0.158150 0.475000
v 0.475000 -0.153177 0.500000
v 0.380570 -0.381152 0.500000
v 0.399697 -0.400303 0.475000
v -0.158150 -0.500000 0.475000
v -0.153177 -0.475000 0.500000
v -0.381152 -0.380570 0.500000
v -0.400288 -0.399712 0.475000
v 0.153177 0.475000 0.500000
v 0.381152 0.380570 0.500000
v -0.400303 0.399697 0.475000
v -0.381152 0.380570 0.500000
v -0.153177 0.475000 0.500000
v 0.500000 0.158150 0.475000
v 0.475000 0.153194 0.500000
v 0.158150 -0.500000 0.475000
v 0.153194 -0.475000 0.500000
v -0.475000 0.153194 0.500000
v -0.500000 0.158150 0.475000
v -0.500000 -0.158150 0.475000
v -0.475000 -0.153194 0.500000
v 0.158150 0.500000 0.475000
v -0.158150 0.500000 0.475000
v 0.147348 -0.085067 0.515000
v 0.085071 -0.147344 0.515000
v -0.000000 -0.170139 0.515000
v -0.085071 -0.147344 0.515000
v -0.147348 -0.085067 0.515000
v -0.170143 -0.000003 0.515000
v -0.147348 0.085068 0.515000
v -0.085071 0.147344 0.515000
v -0.000000 0.170139 0.515000
v 0.085071 0.147345 0.515000
v 0.147348 0.085068 0.515000
v 0.170142 -0.000003 0.515000
v -0.226765 0.130920 0.515000
v -0.130923 0.226762 0.515000
v -0.000000 0.261843 0.515000
v 0.130923 0.226762 0.515000
v 0.226765 0.130920 0.515000
v 0.261846 0.000000 0.515000
v 0.226765 -0.130919 0.515000
v 0.130923 -0.226762 0.515000
v -0.000000 -0.261842 0.515000
v -0.130923 -0.226762 0.515000
v -0.226765 -0.130919 0.515000
v -0.261846 -0.000003 0.515000
vn 0.0000 0.0000 1.0000
vn 0.6533 -0.2706 0.7071
vn -0.2706 -0.6533 0.7071
vn 0.2706 0.6533 0.7071
vn -0.2706 0.6533 0.7071
vn 0.7071 0.0000 0.7071
vn 0.0000 -0.7071 0.7071
vn -0.0000 0.7071 0.7071
vn -0.7071 -0.0000 0.7071
vn 0.2698 -0.6536 0.7071
vn -0.6537 -0.2698 0.7070
vn 0.6536 0.2698 0.7071
vn -0.6536 0.2698 0.7071
vn -0.2705 -0.6532 0.7072
vn -0.6536 -0.2698 0.7071
vn 0.9244 0.3815 0.0000
vn 0.9239 -0.3827 0.0000
vn -1.0000 -0.0000 0.0000
vn 1.0000 0.0000 0.0000
vn -0.9244 0.3815 0.0000
vn -0.3827 -0.9239 0.0000
vn 0.3815 -0.9244 0.0000
vn 0.0000 -1.0000 0.0000
vn 0.3827 0.9239 0.0000
vn -0.9244 -0.3815 0.0000
vn 0.0000 1.0000 0.0000
vn -0.3827 0.9239 0.0000
usemtl Outer
s off
f 13//1 46//1 5//1
f 4//1 40//1 8//1
f 3//1 42//1 28//1
f 6//1 46//1 32//1
f 7//1 42//1 2//1
f 10//1 38//1 11//1
f 9//1 40//1 35//1
f 12//1 43//1 13//1
f 3//1 27//1 4//1
f 6//1 31//1 7//1
f 9//1 34//1 10//1
f 12//1 38//1 37//1
f 28//2 26//2 27//2
f 32//3 30//3 31//3
f 35//4 47//4 34//4
f 37//5 48//5 36//5
f 27//6 39//6 40//6
f 31//7 41//7 42//7
f 47//8 38//8 34//8
f 45//9 43//9 44//9
f 28//10 41//10 29//10
f 32//11 45//11 33//11
f 35//12 39//12 1//12
f 37//13 44//13 43//13
f 13//1 43//1 46//1
f 4//1 27//1 40//1
f 3//1 2//1 42//1
f 6//1 5//1 46//1
f 7//1 31//1 42//1
f 10//1 34//1 38//1
f 9//1 8//1 40//1
f 12//1 37//1 43//1
f 3//1 28//1 27//1
f 6//1 32//1 31//1
f 9//1 35//1 34//1
f 12//1 11//1 38//1
f 28//2 29//2 26//2
f 32//14 33//14 30//14
f 35//4 1//4 47//4
f 37//5 38//5 48//5
f 27//6 26//6 39//6
f 31//7 30//7 41//7
f 47//8 48//8 38//8
f 45//9 46//9 43//9
f 28//10 42//10 41//10
f 32//15 46//15 45//15
f 35//12 40//12 39//12
f 37//13 36//13 44//13
usemtl Inner
f 9//16 22//16 8//16
f 69//1 70//1 16//1
f 4//17 15//17 3//17
f 5//18 24//18 13//18
f 8//19 14//19 4//19
f 13//20 20//20 12//20
f 7//21 17//21 6//21
f 3//22 23//22 2//22
f 2//23 16//23 7//23
f 10//24 19//24 9//24
f 6//25 25//25 5//25
f 10//26 21//26 18//26
f 11//27 20//27 21//27
f 63//1 18//1 21//1
f 57//1 50//1 49//1
f 9//16 19//16 22//16
f 16//1 23//1 69//1
f 15//1 14//1 67//1
f 14//1 66//1 67//1
f 17//1 16//1 70//1
f 72//1 25//1 71//1
f 71//1 25//1 17//1
f 15//1 67//1 68//1
f 15//1 68//1 23//1
f 70//1 71//1 17//1
f 23//1 68//1 69//1
f 4//17 14//17 15//17
f 5//18 25//18 24//18
f 8//19 22//19 14//19
f 13//20 24//20 20//20
f 7//21 16//21 17//21
f 3//22 15//22 23//22
f 2//23 23//23 16//23
f 10//24 18//24 19//24
f 6//25 17//25 25//25
f 10//26 11//26 21//26
f 11//27 12//27 20//27
f 24//1 25//1 72//1
f 24//1 72//1 61//1
f 21//1 20//1 62//1
f 19//1 18//1 64//1
f 14//1 22//1 66//1
f 65//1 66//1 22//1
f 65//1 22//1 19//1
f 20//1 24//1 61//1
f 20//1 61//1 62//1
f 64//1 65//1 19//1
f 21//1 62//1 63//1
f 63//1 64//1 18//1
f 49//1 60//1 59//1
f 59//1 58//1 49//1
f 57//1 56//1 52//1
f 55//1 54//1 53//1
f 53//1 52//1 56//1
f 51//1 50//1 57//1
f 49//1 58//1 57//1
f 56//1 55//1 53//1
f 52//1 51//1 57//1
usemtl Hole
f 51//1 52//1 69//1
f 57//1 58//1 63//1
f 67//1 66//1 60//1
f 67//1 60//1 49//1
f 69//1 68//1 50//1
f 71//1 70//1 53//1
f 54//1 72//1 71//1
f 53//1 54//1 71//1
f 68//1 67//1 49//1
f 68//1 49//1 50//1
f 53//1 70//1 52//1
f 52//1 70//1 69//1
f 69//1 50//1 51//1
f 61//1 72//1 54//1
f 61//1 54//1 55//1
f 63//1 62//1 56//1
f 65//1 64//1 59//1
f 60//1 66//1 59//1
f 59//1 66//1 65//1
f 62//1 61//1 55//1
f 62//1 55//1 56//1
f 59//1 64//1 58//1
f 58//1 64//1 63//1
f 63//1 56//1 57//1
