# Blender v2.77 (sub 0) OBJ File: 'door_green.sapphire.blend'
# www.blender.org
mtllib door_green_left.sapphire.mtl
o Door.Left_Cube.004
origin -0.400000 0.399695 0.000000
v 0.241850 0.100305 0.475000
v -0.000310 0.000000 0.475000
v 0.241850 0.100305 -0.390000
v -0.000303 0.000002 -0.500000
v 0.101323 0.042097 0.365000
v 0.241850 0.100305 0.365000
v 0.241850 0.100305 -0.500000
v 0.101324 0.042097 -0.390000
v 0.400000 0.100305 -0.390000
v 0.400000 0.100305 0.475000
v 0.400000 0.100305 -0.500000
v 0.400000 0.100305 0.365000
v 0.243839 0.090305 0.365000
v 0.105150 0.032858 0.365000
v 0.105151 0.032858 -0.390000
v 0.243839 0.090305 -0.390000
v 0.400000 0.090305 -0.390000
v 0.400000 0.090305 0.365000
v 0.243839 0.090305 0.475000
v 0.003517 -0.009239 0.475000
v 0.003524 -0.009237 -0.500000
v 0.243839 0.090305 -0.500000
v 0.400000 0.090305 -0.500000
v 0.400000 0.090305 0.475000
v 0.400000 0.100305 -0.183325
v 0.400000 0.100305 -0.132698
v 0.400000 0.100305 0.068805
v 0.400000 0.100305 0.170060
v 0.241850 0.100305 -0.183325
v 0.241850 0.100305 -0.103863
v 0.283662 0.100306 -0.132698
v 0.195972 0.081302 -0.183325
vn -0.3827 0.9239 0.0000
vn 0.0000 1.0000 0.0000
vn 0.3827 -0.9239 0.0000
vn 0.0000 -1.0000 -0.0000
vn -0.9239 -0.3827 -0.0000
vn -0.0000 0.0000 1.0000
vn 0.0000 0.0000 -1.0000
vn 1.0000 0.0000 0.0000
usemtl Outer
s off
f 5//1 1//1 6//1
f 8//1 7//1 4//1
f 8//1 2//1 5//1
f 3//2 11//2 7//2
f 12//2 1//2 10//2
f 19//3 14//3 13//3
f 15//3 22//3 16//3
f 20//3 15//3 14//3
f 16//4 23//4 17//4
f 24//4 13//4 18//4
f 4//5 20//5 2//5
f 2//6 19//6 1//6
f 11//7 22//7 7//7
f 4//7 22//7 21//7
f 10//6 19//6 24//6
f 10//8 18//8 12//8
f 9//8 23//8 11//8
f 5//1 2//1 1//1
f 8//1 3//1 7//1
f 8//1 4//1 2//1
f 3//2 9//2 11//2
f 12//2 6//2 1//2
f 19//3 20//3 14//3
f 15//3 21//3 22//3
f 20//3 21//3 15//3
f 16//4 22//4 23//4
f 24//4 19//4 13//4
f 4//5 21//5 20//5
f 2//6 20//6 19//6
f 11//7 23//7 22//7
f 4//7 7//7 22//7
f 10//6 1//6 19//6
f 10//8 24//8 18//8
f 9//8 17//8 23//8
usemtl Inner
f 32//1 8//1 5//1
f 6//2 28//2 30//2
f 13//3 15//3 16//3
f 16//4 18//4 13//4
f 27//8 18//8 17//8
f 25//2 3//2 29//2
f 26//2 31//2 27//2
f 5//1 6//1 30//1
f 32//1 29//1 3//1
f 5//1 30//1 32//1
f 32//1 3//1 8//1
f 6//2 12//2 28//2
f 13//3 14//3 15//3
f 16//4 17//4 18//4
f 17//8 9//8 25//8
f 26//8 27//8 17//8
f 17//8 25//8 26//8
f 12//8 18//8 28//8
f 27//8 28//8 18//8
f 25//2 9//2 3//2
usemtl Hole
f 31//2 25//2 29//2
f 29//1 32//1 30//1
f 29//2 30//2 31//2
f 28//2 27//2 30//2
f 31//2 26//2 25//2
f 30//2 27//2 31//2
