# Blender v2.77 (sub 0) OBJ File: 'door_autolock.sapphire.blend'
# www.blender.org
mtllib door_onetime_lock.sapphire.mtl
o Lock_Cube.002
origin 0.000000 0.000000 0.000000
v 0.086632 0.155604 0.565000
v 0.135054 0.226489 0.565000
v 0.075025 0.194982 0.565000
v 0.077973 0.278381 0.565000
v 0.043316 0.223809 0.565000
v -0.000001 0.297375 0.565000
v -0.000001 0.234361 0.565000
v -0.077975 0.278381 0.565000
v -0.043317 0.223809 0.565000
v -0.135056 0.226489 0.565000
v -0.075027 0.194982 0.565000
v 0.155947 0.155604 0.565000
v -0.155949 0.155604 0.565000
v -0.086633 0.155604 0.565000
v -0.086633 0.097084 0.565000
v 0.086655 0.097084 0.565000
v 0.155971 0.097084 0.565000
v 0.125026 -0.189941 0.565000
v -0.124969 -0.189966 0.565000
v -0.124969 0.037420 0.565000
v 0.124999 0.037420 0.565000
v 0.190670 -0.249599 0.565000
v 0.190629 0.097084 0.565000
v -0.190607 -0.249637 0.565000
v -0.190607 0.097084 0.565000
v -0.155949 0.097084 0.565000
v -0.124969 0.037420 0.515000
v 0.124999 0.037420 0.515000
v -0.124969 -0.189966 0.515000
v 0.125026 -0.189941 0.515000
v 0.190629 0.097084 0.515000
v -0.190607 0.097084 0.515000
v -0.190607 -0.249637 0.515000
v 0.190670 -0.249599 0.515000
v 0.155971 0.097084 0.515000
v 0.086655 0.097084 0.515000
v -0.086633 0.097084 0.515000
v -0.155949 0.097084 0.515000
v -0.086633 0.155604 0.515000
v -0.155949 0.155604 0.515000
v -0.075027 0.194982 0.515000
v -0.135056 0.226489 0.515000
v -0.043317 0.223809 0.515000
v -0.077975 0.278381 0.515000
v -0.000001 0.234361 0.515000
v -0.000001 0.297375 0.515000
v 0.043316 0.223809 0.515000
v 0.077973 0.278381 0.515000
v 0.075025 0.194982 0.515000
v 0.135054 0.226489 0.515000
v 0.086632 0.155604 0.515000
v 0.155947 0.155604 0.515000
vn 0.9592 -0.2827 0.0000
vn -1.0000 -0.0001 0.0000
vn -0.2367 0.9716 -0.0000
vn 1.0000 0.0000 -0.0000
vn 0.2367 -0.9716 0.0000
vn 0.0000 1.0000 -0.0000
vn 0.6727 0.7399 0.0000
vn 1.0000 0.0004 0.0000
vn -0.0000 -1.0000 0.0000
vn -0.6727 -0.7399 0.0000
vn -1.0000 0.0000 0.0000
vn -0.6727 0.7399 0.0000
vn 0.6727 -0.7399 0.0000
vn 0.2367 0.9716 0.0000
vn 0.0001 -1.0000 0.0000
vn -1.0000 -0.0004 0.0000
vn -0.2367 -0.9716 0.0000
vn 1.0000 0.0001 -0.0000
vn 0.9592 0.2827 0.0000
vn -0.9592 0.2827 0.0000
vn -0.0001 1.0000 -0.0000
vn -0.9592 -0.2827 0.0000
vn 0.0000 0.0000 1.0000
vn 0.0000 0.0000 -1.0000
usemtl Hole.001
s off
f 41//1 14//1 39//1
f 28//2 18//2 21//2
f 44//3 6//3 46//3
f 27//4 19//4 29//4
f 45//5 9//5 43//5
f 35//6 23//6 31//6
f 32//6 26//6 38//6
f 48//7 2//7 50//7
f 35//8 12//8 17//8
f 28//9 20//9 27//9
f 47//10 3//10 5//10
f 40//11 26//11 13//11
f 44//12 10//12 8//12
f 39//4 15//4 37//4
f 43//13 11//13 41//13
f 46//14 4//14 48//14
f 34//15 24//15 33//15
f 36//16 1//16 51//16
f 47//17 7//17 45//17
f 34//18 23//18 22//18
f 50//19 12//19 52//19
f 42//20 13//20 10//20
f 29//21 18//21 30//21
f 37//6 16//6 36//6
f 33//11 25//11 32//11
f 49//22 1//22 3//22
f 2//23 1//23 12//23
f 4//23 3//23 2//23
f 6//23 5//23 4//23
f 9//23 6//23 8//23
f 11//23 8//23 10//23
f 14//23 10//23 13//23
f 16//23 12//23 1//23
f 15//23 13//23 26//23
f 19//23 22//23 18//23
f 18//23 23//23 21//23
f 36//24 35//24 28//24
f 29//24 32//24 27//24
f 31//24 30//24 28//24
f 34//24 29//24 30//24
f 40//24 37//24 38//24
f 36//24 52//24 35//24
f 42//24 39//24 40//24
f 44//24 41//24 42//24
f 46//24 43//24 44//24
f 46//24 47//24 45//24
f 48//24 49//24 47//24
f 50//24 51//24 49//24
f 19//23 25//23 24//23
f 21//23 16//23 20//23
f 41//1 11//1 14//1
f 28//2 30//2 18//2
f 44//3 8//3 6//3
f 27//4 20//4 19//4
f 45//5 7//5 9//5
f 35//6 17//6 23//6
f 32//6 25//6 26//6
f 48//7 4//7 2//7
f 35//8 52//8 12//8
f 28//9 21//9 20//9
f 47//10 49//10 3//10
f 40//11 38//11 26//11
f 44//12 42//12 10//12
f 39//4 14//4 15//4
f 43//13 9//13 11//13
f 46//14 6//14 4//14
f 34//15 22//15 24//15
f 36//16 16//16 1//16
f 47//17 5//17 7//17
f 34//18 31//18 23//18
f 50//19 2//19 12//19
f 42//20 40//20 13//20
f 29//21 19//21 18//21
f 37//6 15//6 16//6
f 33//11 24//11 25//11
f 49//22 51//22 1//22
f 2//23 3//23 1//23
f 4//23 5//23 3//23
f 6//23 7//23 5//23
f 9//23 7//23 6//23
f 11//23 9//23 8//23
f 14//23 11//23 10//23
f 16//23 17//23 12//23
f 15//23 14//23 13//23
f 19//23 24//23 22//23
f 18//23 22//23 23//23
f 28//24 27//24 36//24
f 38//24 37//24 27//24
f 27//24 32//24 38//24
f 35//24 31//24 28//24
f 27//24 37//24 36//24
f 29//24 33//24 32//24
f 31//24 34//24 30//24
f 34//24 33//24 29//24
f 40//24 39//24 37//24
f 36//24 51//24 52//24
f 42//24 41//24 39//24
f 44//24 43//24 41//24
f 46//24 45//24 43//24
f 46//24 48//24 47//24
f 48//24 50//24 49//24
f 50//24 52//24 51//24
f 19//23 20//23 25//23
f 25//23 20//23 26//23
f 21//23 23//23 17//23
f 16//23 15//23 20//23
f 21//23 17//23 16//23
f 26//23 20//23 15//23
