# Blender v2.77 (sub 0) OBJ File: 'earth5.sapphire.blend'
# www.blender.org
mtllib earth2_bottom.sapphire.mtl
o Bottom2_Cube.026
origin 0.000000 0.000000 0.000000
v 0.500000 0.500000 0.500000
v -0.000000 0.500000 0.500000
v 0.125000 0.500000 0.500000
v 0.250000 0.500000 0.500000
v 0.375000 0.500000 0.500000
v -0.500000 0.500000 0.500000
v -0.375000 0.500000 0.500000
v -0.250000 0.500000 0.500000
v -0.125000 0.500000 0.500000
v -0.124974 -0.485303 0.002526
v -0.214229 -0.488225 -0.008239
v -0.348254 -0.497140 -0.013716
v -0.375000 -0.500000 -0.500000
v -0.500000 -0.500000 0.375000
v -0.085574 -0.495287 0.119448
v -0.375816 -0.490316 0.091995
v -0.173739 -0.480970 0.231129
v -0.138151 -0.463586 0.360903
v -0.324523 -0.478909 0.415410
v -0.435579 -0.510562 0.353127
v 0.500000 -0.500000 0.000000
v 0.500000 -0.500000 -0.125000
v 0.500000 -0.500000 -0.375000
v 0.500000 -0.500000 0.375000
v 0.500000 -0.500000 0.250000
v 0.500000 -0.500000 0.125000
v -0.500000 -0.000000 0.500000
v -0.500000 0.125000 0.500000
v -0.500000 0.250000 0.500000
v -0.500000 0.375000 0.500000
v -0.500000 -0.500000 0.000000
v -0.500000 -0.500000 0.125000
v -0.500000 -0.125000 0.500000
v -0.500000 -0.500000 -0.500000
v -0.500000 -0.500000 -0.375000
v -0.500000 -0.500000 -0.250000
v -0.500000 -0.500000 -0.125000
v 0.500000 0.000000 0.500000
v 0.000000 -0.000000 0.477172
v 0.500000 0.125000 0.500000
v 0.500000 0.250000 0.500000
v 0.500000 0.375000 0.500000
v 0.124974 -0.002526 0.485303
v 0.214229 0.008239 0.488225
v 0.348254 0.013716 0.497140
v -0.008239 0.214229 0.488225
v 0.119448 0.085574 0.495287
v 0.101687 0.190209 0.436208
v 0.091995 0.375816 0.490316
v 0.231129 0.173739 0.480970
v 0.288279 0.271942 0.462238
v 0.223446 0.402491 0.512556
v 0.360903 0.138151 0.463586
v 0.415410 0.324524 0.478908
v 0.353127 0.435579 0.510561
v -0.002526 -0.124974 0.485303
v 0.008239 -0.214229 0.488225
v 0.500000 -0.125000 0.500000
v 0.085574 -0.119448 0.495287
v 0.190209 -0.101687 0.436208
v 0.375816 -0.091995 0.490316
v 0.402491 -0.223446 0.512556
v 0.138151 -0.360903 0.463586
v 0.435579 -0.353128 0.510561
v -0.500000 -0.250000 0.500000
v -0.500000 -0.375000 0.500000
v -0.124974 0.002526 0.485303
v -0.214229 -0.008239 0.488225
v -0.348254 -0.013716 0.497140
v -0.119448 -0.085574 0.495287
v -0.101687 -0.190209 0.436208
v -0.231129 -0.173739 0.480970
v -0.223446 -0.402491 0.512556
v -0.360903 -0.138151 0.463586
v -0.415410 -0.324523 0.478908
v 0.002526 0.124974 0.485303
v -0.013716 0.348254 0.497140
v -0.085574 0.119448 0.495287
v -0.190209 0.101687 0.436208
v -0.375816 0.091995 0.490316
v -0.173739 0.231129 0.480970
v -0.271942 0.288280 0.462238
v -0.402491 0.223446 0.512556
v -0.138151 0.360904 0.463586
v -0.324523 0.415410 0.478908
v -0.435579 0.353128 0.510561
v -0.500000 -0.500000 0.500000
v -0.500000 -0.500000 0.250000
v -0.002434 -0.447934 0.442399
v 0.000000 -0.477172 -0.000000
v -0.108748 -0.455791 0.434895
v -0.223237 -0.462634 0.449332
v -0.349740 -0.464761 0.467956
v 0.002526 -0.485303 0.124974
v -0.008239 -0.488225 0.214229
v -0.013716 -0.497140 0.348254
v -0.190209 -0.436208 0.101687
v -0.271942 -0.462238 0.288279
v -0.402491 -0.512556 0.223446
v 0.500000 -0.500000 0.500000
v 0.124974 -0.485303 -0.002526
v 0.214229 -0.488225 0.008239
v 0.348254 -0.497140 0.013716
v 0.124088 -0.437326 0.447441
v 0.119448 -0.495287 0.085574
v 0.101687 -0.436208 0.190209
v 0.091995 -0.490316 0.375816
v 0.231129 -0.480970 0.173739
v 0.288279 -0.462238 0.271942
v 0.223446 -0.512556 0.402491
v 0.360904 -0.463586 0.138151
v 0.415410 -0.478908 0.324523
v 0.353127 -0.510561 0.435579
v 0.500000 -0.500000 -0.500000
v 0.000000 -0.500000 -0.500000
v 0.125000 -0.500000 -0.500000
v 0.250000 -0.500000 -0.500000
v 0.375000 -0.500000 -0.500000
v -0.002526 -0.485303 -0.124975
v 0.008239 -0.488225 -0.214229
v 0.013716 -0.497140 -0.348254
v 0.500000 -0.500000 -0.250000
v 0.085574 -0.495287 -0.119448
v 0.190209 -0.436208 -0.101687
v 0.375816 -0.490316 -0.091995
v 0.173739 -0.480970 -0.231129
v 0.271942 -0.462238 -0.288279
v 0.402491 -0.512556 -0.223446
v 0.138151 -0.463586 -0.360903
v 0.324524 -0.478908 -0.415410
v 0.435579 -0.510561 -0.353127
v -0.250000 -0.500000 -0.500000
v -0.125000 -0.500000 -0.500000
v -0.119448 -0.495287 -0.085574
v -0.101687 -0.436208 -0.190209
v -0.091995 -0.490316 -0.375816
v -0.231129 -0.480970 -0.173739
v -0.288279 -0.462238 -0.271942
v -0.223446 -0.512556 -0.402491
v -0.360903 -0.463586 -0.138151
v -0.415410 -0.478908 -0.324523
v -0.353127 -0.510561 -0.435579
v 0.250078 -0.451625 0.471995
v 0.354182 -0.479947 0.483643
v 0.013716 -0.348254 0.497140
v 0.500000 -0.375000 0.500000
v 0.500000 -0.250000 0.500000
v 0.173739 -0.231129 0.480970
v 0.271942 -0.288280 0.462238
v 0.324523 -0.415410 0.478908
v -0.091995 -0.375816 0.490316
v -0.288280 -0.271942 0.462238
v -0.353128 -0.435579 0.510561
vn -0.0218 -0.9996 -0.0153
vn 0.0430 -0.9977 -0.0529
vn 0.1576 -0.9875 0.0061
vn -0.1475 -0.9888 -0.0233
vn -0.0379 -0.9991 -0.0165
vn -0.0436 -0.9983 0.0377
vn -0.1397 -0.9894 0.0388
vn -0.0122 -0.9985 0.0541
vn 0.1277 -0.9918 0.0000
vn -0.0153 -0.9996 0.0218
vn -0.0529 -0.9977 -0.0430
vn 0.0061 -0.9875 -0.1576
vn 0.0388 -0.9894 0.1397
vn 0.0000 -0.9918 -0.1277
vn 0.0532 -0.9841 0.1694
vn 0.0336 -0.9903 -0.1348
vn -0.0518 -0.9902 0.1300
vn 0.0436 -0.9983 -0.0377
vn 0.0582 -0.9726 -0.2250
vn 0.1781 -0.9818 -0.0663
vn 0.0508 -0.9886 -0.1420
vn 0.2478 -0.9688 0.0031
vn 0.1137 -0.9815 0.1543
vn 0.0712 -0.9931 0.0933
vn 0.0000 -1.0000 -0.0000
vn 0.0379 -0.9991 0.0165
vn 0.0401 -0.9971 0.0643
vn 0.0000 -0.0000 1.0000
vn -0.1576 -0.9875 -0.0061
vn 0.1475 -0.9888 0.0233
vn 0.1397 -0.9894 -0.0388
vn 0.0122 -0.9985 -0.0541
vn -0.1277 -0.9918 -0.0000
vn -0.1348 -0.9903 -0.0336
vn -0.1144 -0.9903 0.0785
vn 0.1694 -0.9841 -0.0532
vn 0.1300 -0.9902 0.0518
vn -0.2250 -0.9726 -0.0582
vn 0.1331 -0.9905 -0.0341
vn -0.0463 -0.9832 0.1767
vn -0.0993 -0.9871 0.1260
vn 0.1325 -0.9773 0.1654
vn -0.1781 -0.9818 0.0663
vn -0.0508 -0.9886 0.1420
vn -0.2478 -0.9688 -0.0031
vn -0.1137 -0.9815 -0.1543
vn -0.0712 -0.9931 -0.0933
vn -0.0468 -0.9852 0.1648
vn 0.0153 -0.0218 0.9996
vn 0.0233 -0.1475 0.9888
vn -0.0377 -0.0436 0.9983
vn -0.0388 -0.1397 0.9894
vn -0.0336 0.1348 0.9903
vn 0.1300 0.0518 0.9902
vn 0.0785 0.1144 0.9903
vn 0.1694 -0.0532 0.9841
vn -0.0532 -0.1694 0.9841
vn 0.0518 -0.1300 0.9902
vn -0.0582 0.2250 0.9726
vn -0.0341 -0.1331 0.9905
vn -0.0436 0.0377 0.9983
vn -0.0508 0.1420 0.9886
vn -0.1137 -0.1543 0.9815
vn -0.0283 -0.0360 0.9989
vn -0.1475 -0.0233 0.9888
vn -0.1397 0.0388 0.9894
vn 0.1348 0.0336 0.9903
vn 0.1144 -0.0785 0.9903
vn -0.1694 0.0532 0.9841
vn -0.1300 -0.0518 0.9902
vn 0.2250 0.0582 0.9726
vn -0.1331 0.0341 0.9905
vn 0.0502 -0.1911 0.9803
vn 0.0864 -0.1500 0.9849
vn -0.1795 -0.0022 0.9838
vn 0.0336 -0.1348 0.9903
vn -0.0785 -0.1144 0.9903
vn 0.0262 -0.1804 0.9833
vn 0.0532 0.1694 0.9841
vn -0.0518 0.1300 0.9902
vn 0.0582 -0.2250 0.9726
vn 0.0341 0.1331 0.9905
vn 0.0436 -0.0377 0.9983
vn 0.0508 -0.1420 0.9886
vn 0.1137 0.1543 0.9815
vn 0.1070 -0.1945 0.9750
vn 0.1096 -0.3324 0.9368
vn 0.0218 0.0153 0.9996
vn 0.1475 0.0233 0.9888
vn 0.1397 -0.0388 0.9894
vn -0.1348 -0.0336 0.9903
vn -0.1144 0.0785 0.9903
vn -0.2250 -0.0582 0.9726
vn 0.1331 -0.0341 0.9905
vn -0.1420 -0.0508 0.9886
vn 0.1543 -0.1137 0.9815
vn 0.0288 -0.8534 0.5204
vn 0.1150 -0.8961 0.4287
vn 0.1900 -0.8817 0.4318
vn 0.0127 -0.7121 0.7020
vn -0.1886 -0.4890 0.8517
vn -0.0114 -0.9807 0.1950
vn -0.1426 -0.9750 0.1705
vn -0.0796 -0.5341 0.8417
vn -0.1857 -0.3656 0.9121
vn -0.0336 -0.9903 0.1348
vn 0.0785 -0.9903 0.1144
vn -0.0532 -0.9841 -0.1694
vn 0.0518 -0.9902 -0.1300
vn -0.0582 -0.9726 0.2250
vn -0.0341 -0.9905 -0.1331
vn 0.1348 -0.9903 0.0336
vn 0.1144 -0.9903 -0.0785
vn -0.1694 -0.9841 0.0532
vn -0.1300 -0.9902 -0.0518
vn 0.2250 -0.9726 0.0582
vn -0.1331 -0.9905 0.0341
vn 0.0377 -0.9983 0.0436
vn 0.1420 -0.9886 0.0508
vn -0.1543 -0.9815 0.1137
vn 0.0663 -0.9818 0.1781
vn -0.0031 -0.9688 0.2478
vn -0.0933 -0.9931 0.0712
vn -0.0165 -0.9991 0.0379
vn -0.0233 -0.9888 0.1475
vn 0.0541 -0.9985 0.0122
vn -0.0785 -0.9903 -0.1144
vn 0.0341 -0.9905 0.1331
usemtl StoneMaterial
s 1
f 131//1 114//2 23//3
f 125//4 21//5 103//6
f 128//7 22//8 125//4
f 128//7 23//3 122//9
f 125//4 22//8 21//5
f 128//7 122//9 22//8
f 128//7 131//1 23//3
f 142//10 34//11 13//12
f 139//13 13//12 132//14
f 11//15 134//16 10//17
f 12//18 137//19 11//15
f 12//18 37//20 140//21
f 140//21 36//22 141//23
f 141//23 35//24 142//10
f 142//10 35//24 34//11
f 139//13 142//10 13//12
f 90//25 10//17 134//16
f 11//15 137//19 134//16
f 12//18 140//21 137//19
f 12//18 31//26 37//20
f 140//21 37//20 36//22
f 141//23 36//22 35//24
f 20//27 87//28 14//29
f 16//30 31//26 12//18
f 99//31 32//32 16//30
f 99//31 14//29 88//33
f 90//25 15//34 10//17
f 10//17 97//35 11//15
f 11//15 16//30 12//18
f 95//36 15//34 94//37
f 17//38 97//35 15//34
f 98//39 16//30 97//35
f 96//40 17//38 95//36
f 18//41 98//39 17//38
f 19//42 99//31 98//39
f 16//30 32//32 31//26
f 99//31 88//33 32//32
f 99//31 20//27 14//29
f 90//25 94//37 15//34
f 10//17 15//34 97//35
f 11//15 97//35 16//30
f 95//36 17//38 15//34
f 17//38 98//39 97//35
f 98//39 99//31 16//30
f 96//40 18//41 17//38
f 18//41 19//42 98//39
f 19//42 20//27 99//31
f 103//6 26//43 111//44
f 111//44 25//45 112//46
f 112//46 24//47 113//48
f 113//48 24//47 100//28
f 103//6 21//5 26//43
f 111//44 26//43 25//45
f 112//46 25//45 24//47
f 55//49 1//28 5//28
f 49//50 2//28 77//51
f 52//52 3//28 49//50
f 52//52 5//28 4//28
f 39//28 47//53 76//54
f 76//54 48//55 46//56
f 46//56 49//50 77//51
f 44//57 47//53 43//58
f 50//59 48//55 47//53
f 51//60 49//50 48//55
f 45//61 50//59 44//57
f 53//62 51//60 50//59
f 54//63 52//52 51//60
f 45//61 40//28 53//62
f 53//62 41//28 54//63
f 54//63 42//28 55//49
f 55//49 42//28 1//28
f 49//50 3//28 2//28
f 52//52 4//28 3//28
f 52//52 55//49 5//28
f 39//28 43//58 47//53
f 76//54 47//53 48//55
f 46//56 48//55 49//50
f 44//57 50//59 47//53
f 50//59 51//60 48//55
f 51//60 52//52 49//50
f 45//61 53//62 50//59
f 53//62 54//63 51//60
f 54//63 55//49 52//52
f 45//61 38//28 40//28
f 53//62 40//28 41//28
f 54//63 41//28 42//28
f 64//64 100//28 146//28
f 61//65 38//28 45//61
f 62//66 58//28 61//65
f 62//66 146//28 147//28
f 39//28 59//67 43//58
f 43//58 60//68 44//57
f 44//57 61//65 45//61
f 57//69 59//67 56//70
f 148//71 60//68 59//67
f 149//72 61//65 60//68
f 145//73 148//71 57//69
f 63//74 149//72 148//71
f 150//75 62//66 149//72
f 61//65 58//28 38//28
f 62//66 147//28 58//28
f 62//66 64//64 146//28
f 39//28 56//70 59//67
f 43//58 59//67 60//68
f 44//57 60//68 61//65
f 57//69 148//71 59//67
f 148//71 149//72 60//68
f 149//72 62//66 61//65
f 145//73 63//74 148//71
f 63//74 150//75 149//72
f 150//75 64//64 62//66
f 39//28 70//76 56//70
f 56//70 71//77 57//69
f 57//69 151//78 145//73
f 68//79 70//76 67//80
f 72//81 71//77 70//76
f 152//82 151//78 71//77
f 69//83 72//81 68//79
f 74//84 152//82 72//81
f 75//85 73//86 152//82
f 69//83 33//28 74//84
f 74//84 65//28 75//85
f 75//85 66//28 153//87
f 153//87 66//28 87//28
f 39//28 67//80 70//76
f 56//70 70//76 71//77
f 57//69 71//77 151//78
f 68//79 72//81 70//76
f 72//81 152//82 71//77
f 152//82 73//86 151//78
f 69//83 74//84 72//81
f 74//84 75//85 152//82
f 75//85 153//87 73//86
f 69//83 27//28 33//28
f 74//84 33//28 65//28
f 75//85 65//28 66//28
f 86//88 6//28 30//28
f 80//89 27//28 69//83
f 83//90 28//28 80//89
f 83//90 30//28 29//28
f 39//28 78//91 67//80
f 67//80 79//92 68//79
f 68//79 80//89 69//83
f 46//56 78//91 76//54
f 81//93 79//92 78//91
f 82//94 80//89 79//92
f 77//51 81//93 46//56
f 84//95 82//94 81//93
f 85//96 83//90 82//94
f 77//51 9//28 84//95
f 84//95 8//28 85//96
f 85//96 7//28 86//88
f 86//88 7//28 6//28
f 80//89 28//28 27//28
f 83//90 29//28 28//28
f 83//90 86//88 30//28
f 39//28 76//54 78//91
f 67//80 78//91 79//92
f 68//79 79//92 80//89
f 46//56 81//93 78//91
f 81//93 82//94 79//92
f 82//94 83//90 80//89
f 77//51 84//95 81//93
f 84//95 85//96 82//94
f 85//96 86//88 83//90
f 77//51 2//28 9//28
f 84//95 9//28 8//28
f 85//96 8//28 7//28
f 96//40 91//97 18//41
f 18//41 92//98 19//42
f 19//42 93//99 20//27
f 20//27 93//99 87//28
f 96//40 89//100 91//97
f 18//41 91//97 92//98
f 19//42 92//98 93//99
f 113//48 100//28 144//101
f 107//102 89//100 96//40
f 110//103 104//104 107//102
f 110//103 144//101 143//105
f 90//25 105//106 94//37
f 94//37 106//107 95//36
f 95//36 107//102 96//40
f 102//108 105//106 101//109
f 108//110 106//107 105//106
f 109//111 107//102 106//107
f 103//6 108//110 102//108
f 111//44 109//111 108//110
f 112//46 110//103 109//111
f 107//102 104//104 89//100
f 110//103 143//105 104//104
f 110//103 113//48 144//101
f 90//25 101//109 105//106
f 94//37 105//106 106//107
f 95//36 106//107 107//102
f 102//108 108//110 105//106
f 108//110 109//111 106//107
f 109//111 110//103 107//102
f 103//6 111//44 108//110
f 111//44 112//46 109//111
f 112//46 113//48 110//103
f 90//25 123//112 101//109
f 101//109 124//113 102//108
f 102//108 125//4 103//6
f 120//114 123//112 119//115
f 126//116 124//113 123//112
f 127//117 125//4 124//113
f 121//118 126//116 120//114
f 129//119 127//117 126//116
f 130//120 128//7 127//117
f 121//118 116//121 129//119
f 129//119 117//122 130//120
f 130//120 118//123 131//1
f 131//1 118//123 114//2
f 90//25 119//115 123//112
f 101//109 123//112 124//113
f 102//108 124//113 125//4
f 120//114 126//116 123//112
f 126//116 127//117 124//113
f 127//117 128//7 125//4
f 121//118 129//119 126//116
f 129//119 130//120 127//117
f 130//120 131//1 128//7
f 121//118 115//124 116//121
f 129//119 116//121 117//122
f 130//120 117//122 118//123
f 136//125 115//124 121//118
f 139//13 133//126 136//125
f 90//25 134//16 119//115
f 119//115 135//127 120//114
f 120//114 136//125 121//118
f 137//19 135//127 134//16
f 138//128 136//125 135//127
f 140//21 138//128 137//19
f 141//23 139//13 138//128
f 136//125 133//126 115//124
f 139//13 132//14 133//126
f 119//115 134//16 135//127
f 120//114 135//127 136//125
f 137//19 138//128 135//127
f 138//128 139//13 136//125
f 140//21 141//23 138//128
f 141//23 142//10 139//13
f 145//73 104//104 63//74
f 63//74 143//105 150//75
f 150//75 144//101 64//64
f 64//64 144//101 100//28
f 145//73 89//100 104//104
f 63//74 104//104 143//105
f 150//75 143//105 144//101
f 153//87 87//28 93//99
f 151//78 89//100 145//73
f 73//86 91//97 151//78
f 73//86 93//99 92//98
f 151//78 91//97 89//100
f 73//86 92//98 91//97
f 73//86 153//87 93//99
