# Blender v2.77 (sub 0) OBJ File: 'elevator.sapphire.blend'
# www.blender.org
mtllib elevator.sapphire.mtl
o Elevator_Cube
origin 0.000000 0.000000 0.000000
v 0.500000 0.250000 0.500000
v 0.500000 0.359936 0.500000
v -0.500000 0.359936 0.500000
v 0.425000 0.500000 -0.425000
v 0.500000 0.409743 -0.500000
v 0.462500 0.489952 -0.462500
v 0.489952 0.462500 -0.489952
v 0.425000 0.500000 0.425000
v 0.500000 0.409743 0.500000
v 0.462500 0.489952 0.462500
v 0.489952 0.462500 0.489952
v -0.425000 0.500000 0.425000
v -0.500000 0.409743 0.500000
v -0.462500 0.489952 0.462500
v -0.489952 0.462500 0.489952
v -0.425000 0.500000 -0.425000
v -0.500000 0.409743 -0.500000
v -0.462500 0.489952 -0.462500
v -0.489952 0.462500 -0.489952
v 0.500000 0.200000 -0.450000
v 0.500000 0.250000 -0.500000
v 0.500000 0.206699 -0.475000
v 0.500000 0.225000 -0.493301
v 0.500000 0.200000 0.450000
v 0.500000 0.225000 0.493301
v 0.500000 0.206699 0.475000
v -0.500000 0.200000 0.450000
v -0.500000 0.250000 0.500000
v -0.500000 0.206699 0.475000
v -0.500000 0.225000 0.493301
v -0.500000 0.250000 -0.500000
v -0.500000 0.200000 -0.450000
v -0.500000 0.225000 -0.493301
v -0.500000 0.206699 -0.475000
v 0.434812 0.261080 0.500000
v 0.392485 0.285517 0.500000
v 0.392485 0.334392 0.500000
v 0.434812 0.358829 0.500000
v 0.477138 0.334392 0.500000
v 0.477138 0.285517 0.500000
v 0.410684 0.268165 0.500000
v 0.386557 0.309955 0.500000
v 0.410684 0.351744 0.500000
v 0.458939 0.351744 0.500000
v 0.483066 0.309955 0.500000
v 0.458939 0.268165 0.500000
v 0.500000 0.359936 0.500000
v 0.500000 0.206699 -0.475000
v 0.500000 0.200000 -0.450000
v 0.500000 0.225000 -0.493301
v 0.500000 0.250000 -0.500000
v 0.500000 0.206699 0.475000
v 0.500000 0.225000 0.493301
v 0.500000 0.200000 0.450000
v 0.500000 0.250000 0.500000
v -0.500000 0.359936 0.500000
v -0.500000 0.200000 -0.450000
v -0.500000 0.206699 -0.475000
v -0.500000 0.225000 -0.493301
v -0.500000 0.250000 -0.500000
v -0.500000 0.250000 0.500000
v -0.500000 0.225000 0.493301
v -0.500000 0.206699 0.475000
v -0.500000 0.200000 0.450000
v 0.500000 0.409743 0.500000
v 0.500000 0.409743 0.500000
v 0.500000 0.409743 -0.500000
v 0.500000 0.409743 -0.500000
v -0.500000 0.409743 -0.500000
v -0.500000 0.409743 -0.500000
v -0.500000 0.409743 0.500000
v -0.500000 0.409743 0.500000
vt 0.0000 0.0000
vt 0.0000 0.0000
vt 0.0000 0.0000
vt 0.0000 0.0000
vt 0.0000 0.0000
vt 0.0000 0.0000
vt 0.0000 0.0000
vt 0.0000 0.0000
vt 0.0000 0.0000
vt 0.0000 0.0000
vt 0.0000 0.0000
vt 0.0000 0.0000
vt 0.0000 0.0000
vt 0.0000 0.0000
vt 0.0000 0.0000
vt 0.0000 0.0000
vt 0.0000 0.0000
vt 0.0000 0.0000
vt 0.0000 0.0000
vt 0.0000 0.0000
vt 0.0000 0.0000
vt 0.0000 0.0000
vt 0.0000 0.0000
vt 0.0000 0.0000
vt 0.0000 0.0000
vt 0.0000 0.0000
vt 0.0000 0.0000
vt 0.0000 0.0000
vt 0.0000 0.0000
vt 0.0000 0.0000
vt 0.0000 0.0000
vt 0.0000 0.0000
vt 0.0000 0.0000
vt 0.0000 0.0000
vt 0.0000 0.0000
vt 0.0000 0.0000
vt 0.0000 0.0000
vt 0.0000 0.0000
vt 0.0000 0.0000
vt 0.0000 0.0000
vt 0.0000 0.0000
vt 0.0000 0.0000
vt 0.0000 0.0000
vt 0.0000 0.0000
vt 0.0000 0.0000
vt 0.0000 0.0000
vt 0.0000 0.0000
vt 0.0000 0.0000
vt 0.0000 0.0000
vt 0.0000 0.0000
vt 0.0000 0.0000
vt 0.0000 0.0000
vt 0.0000 0.0000
vt 0.0000 0.0000
vt 0.0000 0.0000
vt 0.0000 0.0000
vt 0.1181 0.8819
vt 0.8819 0.1181
vt 0.8819 0.8819
vt 0.9168 0.0844
vt 0.9168 0.9156
vt 0.9516 0.9402
vt 0.9999 0.0507
vt 0.9999 0.9493
vt 0.0507 0.9999
vt 0.9402 0.9516
vt 0.9493 0.9999
vt 0.0844 0.9168
vt 0.9156 0.9168
vt 0.1181 0.1181
vt 0.9156 0.0832
vt 0.0598 0.0484
vt 0.9402 0.0484
vt 0.9493 0.0001
vt 0.0832 0.0844
vt 0.0832 0.9156
vt 0.0484 0.0598
vt 0.0484 0.9402
vt 0.0001 0.0507
vt 0.9516 0.0598
vt 0.0598 0.9516
vt 0.0844 0.0832
vt 0.0507 0.0001
vt 0.0001 0.9493
vn -1.0000 0.0000 -0.0000
vn 1.0000 0.0000 0.0000
vn -0.0000 0.0000 1.0000
vn 0.0000 -0.1305 -0.9914
vn 0.0000 0.0000 -1.0000
vn 0.0000 -0.0001 1.0000
vn 0.0000 -0.9914 -0.1305
vn 0.0000 -0.8660 -0.5000
vn 0.0000 -0.5000 -0.8660
vn 0.0000 -0.1305 0.9914
vn 0.0000 -0.5000 0.8660
vn 0.0000 -0.8660 0.5000
vn 0.0000 -0.9914 0.1305
vn -0.0984 0.9902 -0.0984
vn 0.0984 0.9902 0.0984
vn 0.0984 0.9902 -0.0984
vn 0.3332 0.8820 0.3332
vn 0.3332 0.8820 -0.3332
vn 0.6086 0.5091 -0.6086
vn 0.6828 0.2601 0.6828
vn 0.6828 0.2601 -0.6828
vn -0.6828 0.2601 -0.6828
vn -0.3332 0.8820 -0.3332
vn -0.0984 0.9902 0.0984
vn -0.6086 0.5091 0.6086
vn 0.6086 0.5091 0.6086
vn -0.3332 0.8820 0.3332
vn -0.6086 0.5091 -0.6086
vn -0.6828 0.2601 0.6828
usemtl Body
s off
f 3/1/1 72/2/1 64/3/1
f 1/4/2 25/5/2 54/6/2
f 47/7/3 13/8/3 56/9/3
f 32/10/1 64/3/1 72/2/1
f 63/11/1 62/12/1 61/13/1
f 61/13/1 64/3/1 63/11/1
f 72/2/1 17/14/1 32/10/1
f 60/15/1 59/16/1 58/17/1
f 58/17/1 32/10/1 60/15/1
f 61/13/1 3/1/1 64/3/1
f 17/14/1 60/15/1 32/10/1
f 54/6/2 66/18/2 2/19/2
f 48/20/2 50/21/2 51/22/2
f 51/22/2 5/23/2 49/24/2
f 2/19/2 1/4/2 54/6/2
f 5/23/2 66/18/2 49/24/2
f 49/24/2 48/20/2 51/22/2
f 25/5/2 52/25/2 54/6/2
f 66/18/2 54/6/2 49/24/2
f 47/7/3 9/26/3 13/8/3
s 1
f 21/27/4 69/28/5 68/29/5
f 47/7/3 38/30/6 44/31/3
f 57/32/7 22/33/8 20/34/7
f 34/35/8 23/36/9 22/33/8
f 33/37/9 21/27/4 23/36/9
f 28/38/10 53/39/11 55/40/10
f 30/41/11 26/42/12 53/39/11
f 29/43/12 24/44/13 26/42/12
f 24/44/13 57/32/7 20/34/7
f 28/38/10 35/45/3 41/46/3
f 21/27/4 31/47/4 69/28/5
f 40/48/3 55/40/10 45/49/3
f 56/9/3 37/50/3 43/51/3
f 56/9/3 43/51/3 38/30/6
f 45/49/3 55/40/10 47/7/3
f 39/52/3 45/49/3 47/7/3
f 47/7/3 56/9/3 38/30/6
f 44/31/3 39/52/3 47/7/3
f 57/32/7 34/35/8 22/33/8
f 34/35/8 33/37/9 23/36/9
f 33/37/9 31/47/4 21/27/4
f 28/38/10 30/41/11 53/39/11
f 30/41/11 29/43/12 26/42/12
f 29/43/12 27/53/13 24/44/13
f 24/44/13 27/53/13 57/32/7
f 37/50/3 56/9/3 42/54/3
f 55/40/10 40/48/3 46/55/3
f 55/40/10 46/55/3 35/45/3
f 42/54/3 56/9/3 28/38/10
f 36/56/3 42/54/3 28/38/10
f 28/38/10 55/40/10 35/45/3
f 41/46/3 36/56/3 28/38/10
usemtl Top
f 16/57/14 8/58/15 4/59/16
f 4/59/16 10/60/17 6/61/18
f 10/60/17 7/62/19 6/61/18
f 7/62/19 65/63/20 67/64/21
f 70/65/22 7/66/19 67/67/21
f 7/66/19 18/68/23 6/69/18
f 18/68/23 4/59/16 6/69/18
f 12/70/24 10/71/17 8/58/15
f 10/71/17 15/72/25 11/73/26
f 15/72/25 65/74/20 11/73/26
f 16/57/14 14/75/27 12/70/24
f 18/76/23 15/77/25 14/75/27
f 19/78/28 71/79/29 15/77/25
f 16/57/14 12/70/24 8/58/15
f 4/59/16 8/58/15 10/60/17
f 10/60/17 11/80/26 7/62/19
f 7/62/19 11/80/26 65/63/20
f 70/65/22 19/81/28 7/66/19
f 7/66/19 19/81/28 18/68/23
f 18/68/23 16/57/14 4/59/16
f 12/70/24 14/82/27 10/71/17
f 10/71/17 14/82/27 15/72/25
f 15/72/25 71/83/29 65/74/20
f 16/57/14 18/76/23 14/75/27
f 18/76/23 19/78/28 15/77/25
f 19/78/28 70/84/22 71/79/29
