# Blender v2.77 (sub 0) OBJ File: 'emerald.sapphire.blend'
# www.blender.org
mtllib emerald.sapphire.mtl
o Cube_Cube.001
origin 0.000000 0.000000 0.000000
v -0.500000 0.000000 0.000000
v -0.250000 0.000203 -0.433013
v 0.250000 0.000000 0.433013
v 0.500000 0.000000 0.000000
v 0.000000 -0.500000 0.000000
v -0.250000 0.000000 0.433013
v 0.250041 0.000000 -0.433083
v 0.000000 0.500000 0.000000
v 0.000000 -0.500000 0.000000
vn -0.6546 -0.6546 -0.3782
vn 0.0000 -0.6547 0.7559
vn -0.6547 -0.6547 0.3780
vn -0.6547 0.6547 -0.3777
vn -0.6547 0.6547 0.3780
vn 0.0000 0.6547 0.7559
vn 0.6547 -0.6547 -0.3779
vn 0.6547 0.6547 0.3780
vn 0.6547 0.6547 -0.3779
vn -0.0004 -0.6546 -0.7560
vn 0.0002 0.6548 -0.7558
vn 0.6547 -0.6547 0.3780
usemtl GemColor
s off
f 5//1 1//1 2//1
f 6//2 5//2 3//2
f 1//3 5//3 6//3
f 8//4 2//4 1//4
f 6//5 8//5 1//5
f 8//6 6//6 3//6
f 4//7 5//7 7//7
f 8//8 3//8 4//8
f 4//9 7//9 8//9
f 7//10 5//10 2//10
f 8//11 7//11 2//11
f 5//12 4//12 3//12
l 5 9
