# Blender v2.77 (sub 0) OBJ File: 'exit.sapphire.blend'
# www.blender.org
mtllib exit_doorway.sapphire.mtl
o Doorway_Cube.001
origin 0.000000 0.000000 0.000000
v -0.366878 0.186889 -0.375000
v -0.186889 0.366878 -0.375000
v -0.351766 0.262863 -0.375000
v -0.316156 0.316156 -0.375000
v -0.262863 0.351766 -0.375000
v 0.186889 0.366878 -0.375000
v 0.366878 0.186889 -0.375000
v 0.262863 0.351766 -0.375000
v 0.316156 0.316156 -0.375000
v 0.351766 0.262863 -0.375000
v 0.500000 -0.500000 -0.375000
v -0.500000 -0.500000 -0.375000
v -0.500000 -0.500000 0.125000
v 0.500000 -0.500000 0.125000
v -0.314805 0.477164 0.125000
v -0.200000 0.500000 0.125000
v -0.200000 0.500000 -0.375000
v -0.314805 0.477164 -0.375000
v -0.412132 0.412132 0.125000
v -0.412132 0.412132 -0.375000
v -0.477164 0.314805 0.125000
v -0.477164 0.314805 -0.375000
v -0.500000 0.200000 0.125000
v -0.500000 0.200000 -0.375000
v 0.314805 0.477164 -0.375000
v 0.200000 0.500000 -0.375000
v 0.200000 0.500000 0.125000
v 0.314805 0.477164 0.125000
v 0.412132 0.412132 -0.375000
v 0.412132 0.412132 0.125000
v 0.477164 0.314805 -0.375000
v 0.477164 0.314805 0.125000
v 0.500000 0.200000 -0.375000
v 0.500000 0.200000 0.125000
v -0.366878 -0.500000 -0.375000
v 0.366878 -0.500000 -0.375000
v 0.000000 0.366878 0.125000
v -0.314805 0.477164 0.125000
v -0.200000 0.500000 0.125000
v -0.200000 0.500000 -0.375000
v -0.314805 0.477164 -0.375000
v -0.412132 0.412132 0.125000
v -0.412132 0.412132 -0.375000
v -0.477164 0.314805 0.125000
v -0.477164 0.314805 -0.375000
v -0.500000 0.200000 0.125000
v -0.500000 0.200000 -0.375000
v 0.314805 0.477164 -0.375000
v 0.200000 0.500000 -0.375000
v 0.200000 0.500000 0.125000
v 0.314805 0.477164 0.125000
v 0.412132 0.412132 -0.375000
v 0.412132 0.412132 0.125000
v 0.477164 0.314805 -0.375000
v 0.477164 0.314805 0.125000
v 0.500000 0.200000 -0.375000
v 0.500000 0.200000 0.125000
v -0.262863 0.351766 0.125000
v -0.262863 0.351766 0.125000
v -0.186889 0.366878 0.125000
v -0.186889 0.366878 0.125000
v -0.186889 0.366878 -0.375000
v -0.262863 0.351766 -0.375000
v -0.316156 0.316156 0.125000
v -0.316156 0.316156 0.125000
v -0.316156 0.316156 -0.375000
v -0.351766 0.262863 0.125000
v -0.351766 0.262863 0.125000
v -0.351766 0.262863 -0.375000
v -0.366878 0.186889 0.125000
v -0.366878 0.186889 0.125000
v -0.366878 0.186889 -0.375000
v 0.262863 0.351766 -0.375000
v 0.186889 0.366878 -0.375000
v 0.186889 0.366878 0.125000
v 0.186889 0.366878 0.125000
v 0.262863 0.351766 0.125000
v 0.262863 0.351766 0.125000
v 0.316156 0.316156 -0.375000
v 0.316156 0.316156 0.125000
v 0.316156 0.316156 0.125000
v 0.351766 0.262863 -0.375000
v 0.351766 0.262863 0.125000
v 0.351766 0.262863 0.125000
v 0.366878 0.186889 -0.375000
v 0.366878 0.186889 0.125000
v 0.366878 0.186889 0.125000
v 0.000000 0.366878 0.125000
v -0.366878 -0.500000 0.125000
v 0.366878 -0.500000 0.125000
v 0.500000 -0.500000 0.125000
v 0.500000 -0.500000 -0.375000
v -0.500000 -0.500000 -0.375000
v -0.500000 -0.500000 0.125000
v -0.366878 -0.500000 0.125000
v -0.366878 -0.500000 -0.375000
v 0.366878 -0.500000 0.125000
v 0.366878 -0.500000 -0.375000
vn 0.0000 -1.0000 0.0000
vn 0.0000 0.0000 1.0000
vn 0.0000 0.0000 -1.0000
vn 0.0980 0.9952 0.0000
vn -0.0980 0.9952 0.0000
vn 0.9952 0.0980 0.0000
vn 1.0000 0.0000 0.0000
vn -0.9952 0.0980 0.0000
vn -1.0000 0.0000 0.0000
vn -0.3827 0.9239 0.0000
vn -0.7071 0.7071 0.0000
vn -0.9239 0.3827 0.0000
vn 0.3827 0.9239 0.0000
vn 0.7071 0.7071 0.0000
vn 0.9239 0.3827 0.0000
vn -0.9952 -0.0980 0.0000
vn 0.9952 -0.0980 0.0000
vn 0.9239 -0.3827 0.0000
vn 0.7071 -0.7071 0.0000
vn 0.3827 -0.9239 0.0000
vn 0.0980 -0.9952 0.0000
vn -0.3827 -0.9239 0.0000
vn -0.0980 -0.9952 0.0000
vn -0.7071 -0.7071 0.0000
vn -0.9239 -0.3827 0.0000
usemtl Gate
s off
f 12//1 95//1 13//1
f 58//2 16//2 15//2
f 63//3 17//3 62//3
f 58//2 19//2 64//2
f 63//3 20//3 18//3
f 68//2 19//2 21//2
f 69//3 20//3 66//3
f 68//2 23//2 71//2
f 69//3 24//3 22//3
f 73//3 26//3 25//3
f 77//2 27//2 75//2
f 73//3 29//3 79//3
f 77//2 30//2 28//2
f 82//3 29//3 31//3
f 83//2 30//2 80//2
f 82//3 33//3 85//3
f 83//2 34//2 32//2
f 71//2 13//2 95//2
f 37//2 27//2 16//2
f 85//3 11//3 98//3
f 62//3 26//3 74//3
f 72//3 12//3 24//3
f 87//2 14//2 34//2
f 97//1 11//1 14//1
f 12//1 96//1 95//1
f 58//2 61//2 16//2
f 63//3 18//3 17//3
f 58//2 15//2 19//2
f 63//3 66//3 20//3
f 68//2 64//2 19//2
f 69//3 22//3 20//3
f 68//2 21//2 23//2
f 69//3 72//3 24//3
f 73//3 74//3 26//3
f 77//2 28//2 27//2
f 73//3 25//3 29//3
f 77//2 80//2 30//2
f 82//3 79//3 29//3
f 83//2 32//2 30//2
f 82//3 31//3 33//3
f 83//2 87//2 34//2
f 71//2 23//2 13//2
f 16//2 61//2 37//2
f 37//2 75//2 27//2
f 85//3 33//3 11//3
f 62//3 17//3 26//3
f 72//3 96//3 12//3
f 87//2 97//2 14//2
f 97//1 98//1 11//1
s 1
f 49//4 39//5 50//4
f 57//6 92//7 56//6
f 47//8 94//9 46//8
f 40//5 38//10 39//5
f 41//10 42//11 38//10
f 43//11 44//12 42//11
f 45//12 46//8 44//12
f 50//4 48//13 49//4
f 51//13 52//14 48//13
f 53//14 54//15 52//14
f 55//15 56//6 54//15
f 7//16 90//9 86//16
f 70//17 35//7 1//17
f 1//17 67//18 70//17
f 3//18 65//19 67//18
f 4//19 59//20 65//19
f 5//20 60//21 59//20
f 78//22 6//23 8//22
f 81//24 8//22 9//24
f 84//25 9//24 10//25
f 86//16 10//25 7//16
f 2//21 6//23 88//1
f 49//4 40//5 39//5
f 57//6 91//7 92//7
f 47//8 93//9 94//9
f 40//5 41//10 38//10
f 41//10 43//11 42//11
f 43//11 45//12 44//12
f 45//12 47//8 46//8
f 50//4 51//13 48//13
f 51//13 53//14 52//14
f 53//14 55//15 54//15
f 55//15 57//6 56//6
f 7//16 36//9 90//9
f 70//17 89//7 35//7
f 1//17 3//18 67//18
f 3//18 4//19 65//19
f 4//19 5//20 59//20
f 5//20 2//21 60//21
f 78//22 76//23 6//23
f 81//24 78//22 8//22
f 84//25 81//24 9//24
f 86//16 84//25 10//25
f 76//23 88//1 6//23
f 60//21 2//21 88//1
