# Blender v2.77 (sub 0) OBJ File: 'explosion.sapphire.blend'
# www.blender.org
mtllib explosion.sapphire.mtl
o Icosphere_Icosphere.001
v 0.000256 -0.499301 -0.001145
v 0.356005 -0.220967 0.266095
v -0.133936 -0.210217 0.403747
v -0.467084 -0.230741 -0.003290
v -0.139218 -0.229573 -0.429192
v 0.382267 -0.236706 -0.276839
v 0.130152 0.205906 0.392667
v -0.355006 0.218296 0.253680
v -0.366826 0.225693 -0.263359
v 0.128262 0.209304 -0.396018
v 0.474551 0.241817 -0.005236
v -0.002508 0.489288 0.000406
v -0.111507 -0.311108 0.340086
v -0.077272 -0.405432 0.238885
v -0.033183 -0.455201 0.102319
v 0.100623 -0.478225 0.065309
v 0.198534 -0.403037 0.141916
v 0.289077 -0.313094 0.218525
v 0.276904 -0.261584 0.353997
v 0.131346 -0.259410 0.393353
v -0.014348 -0.223157 0.383173
v 0.419471 -0.258582 -0.158726
v 0.383128 -0.235168 -0.009724
v 0.368792 -0.227521 0.139794
v 0.101717 -0.489983 -0.070973
v 0.204149 -0.399603 -0.138541
v 0.314624 -0.332032 -0.226849
v -0.363878 -0.307284 0.001614
v -0.235489 -0.386299 -0.001062
v -0.121561 -0.484770 -0.002472
v -0.231577 -0.239781 0.346812
v -0.326332 -0.243330 0.233078
v -0.411270 -0.243406 0.111937
v -0.124554 -0.345226 -0.379459
v -0.082860 -0.434708 -0.255750
v -0.038254 -0.481679 -0.115899
v -0.403785 -0.239201 -0.111715
v -0.311591 -0.237522 -0.230835
v -0.246577 -0.258410 -0.369240
v -0.018407 -0.259287 -0.451529
v 0.136294 -0.267338 -0.419294
v 0.276822 -0.258103 -0.351997
v 0.436279 0.124408 0.061395
v 0.455951 -0.001650 0.148084
v 0.410190 -0.121915 0.216373
v 0.442664 -0.134521 -0.227846
v 0.443082 -0.003684 -0.140792
v 0.469908 0.128732 -0.072955
v 0.073193 0.116556 0.445248
v -0.002327 -0.000755 0.485662
v -0.077099 -0.118336 0.454542
v 0.349155 -0.131778 0.346005
v 0.281295 -0.003833 0.381611
v 0.200922 0.118005 0.397386
v -0.426672 0.126225 0.222159
v -0.466099 0.000250 0.153551
v -0.470265 -0.126981 0.071181
v -0.217690 -0.126470 0.433279
v -0.286771 -0.001022 0.395420
v -0.338597 0.122206 0.332192
v -0.313788 0.116536 -0.305352
v -0.264474 -0.001620 -0.359888
v -0.204638 -0.127127 -0.409621
v -0.471582 -0.127650 -0.072925
v -0.455273 0.002219 -0.149435
v -0.436701 0.130529 -0.223909
v 0.216678 0.126776 -0.431459
v 0.281881 -0.001322 -0.391709
v 0.342949 -0.131238 -0.337829
v -0.077835 -0.130262 -0.487737
v 0.001814 -0.001249 -0.494369
v 0.074630 0.124297 -0.456755
v 0.411465 0.253172 0.112200
v 0.323670 0.248488 0.231307
v 0.233992 0.241824 0.346016
v 0.017085 0.227652 0.394289
v -0.116483 0.231522 0.356033
v -0.243275 0.223407 0.298503
v -0.409203 0.251808 0.151049
v -0.436471 0.268599 -0.002739
v -0.439391 0.270431 -0.162492
v -0.245024 0.236112 -0.310120
v -0.120842 0.252927 -0.384751
v 0.015742 0.246437 -0.420862
v 0.234785 0.247258 -0.354302
v 0.306680 0.243661 -0.225622
v 0.421477 0.255818 -0.117338
v 0.035059 0.457599 0.110831
v 0.075208 0.390247 0.227274
v 0.111134 0.295860 0.324805
v 0.396499 0.342698 -0.003285
v 0.259024 0.411551 -0.001538
v 0.108785 0.434063 -0.003102
v -0.093507 0.457479 0.067115
v -0.196081 0.388095 0.141006
v -0.294633 0.310227 0.208174
v -0.100035 0.489098 -0.072013
v -0.206290 0.409153 -0.150264
v -0.320037 0.339478 -0.230150
v 0.032373 0.463327 -0.116580
v 0.082142 0.434266 -0.256046
v 0.113184 0.321274 -0.347181
v 0.176332 0.425610 -0.131836
v 0.318902 0.366819 -0.132845
v 0.219959 0.362572 -0.259228
v -0.069139 0.447287 -0.216808
v -0.027844 0.366272 -0.343066
v -0.178773 0.366908 -0.296504
v -0.215375 0.422695 -0.001963
v -0.348520 0.373716 -0.083034
v -0.319816 0.342409 0.074568
v -0.063155 0.404369 0.191954
v -0.158457 0.318874 0.250218
v -0.023542 0.315830 0.290846
v 0.171217 0.410857 0.122936
v 0.211897 0.331253 0.239942
v 0.313211 0.352740 0.127689
v 0.393090 0.122073 -0.190521
v 0.370705 -0.003577 -0.265124
v 0.303196 0.124401 -0.314141
v -0.061294 0.133064 -0.445919
v -0.129649 0.001737 -0.418328
v -0.191837 0.126481 -0.377104
v -0.494548 0.145781 -0.084805
v -0.461274 0.006863 0.001419
v -0.462916 0.136184 0.076054
v -0.204734 0.122479 0.390829
v -0.151435 0.000263 0.467134
v -0.063137 0.119623 0.431111
v 0.318951 0.130676 0.324825
v 0.380243 0.000270 0.279109
v 0.392459 0.130594 0.195312
v 0.152347 -0.003163 -0.467780
v 0.225574 -0.141298 -0.435655
v 0.071854 -0.141516 -0.482978
v -0.389093 -0.003397 -0.280319
v -0.319756 -0.130933 -0.324817
v -0.417638 -0.132397 -0.208503
v -0.389608 -0.003158 0.282637
v -0.418624 -0.133418 0.207394
v -0.331555 -0.133642 0.337745
v 0.139388 -0.001085 0.422538
v 0.066750 -0.119048 0.418614
v 0.216051 -0.132650 0.400298
v 0.459415 -0.003490 -0.005861
v 0.449215 -0.127478 0.072922
v 0.468768 -0.135894 -0.082503
v 0.170772 -0.333422 -0.277621
v 0.062102 -0.408444 -0.194447
v 0.020769 -0.332414 -0.324475
v -0.202606 -0.344185 -0.252216
v -0.164536 -0.421147 -0.124773
v -0.270338 -0.313992 -0.110157
v -0.287609 -0.318937 0.114992
v -0.160582 -0.404908 0.116303
v -0.209505 -0.340357 0.246041
v 0.327476 -0.358338 -0.080865
v 0.300038 -0.335910 0.068962
v 0.228541 -0.454445 -0.001054
v 0.027455 -0.345627 0.325573
v 0.064665 -0.410164 0.193083
v 0.177057 -0.361505 0.295934
vn -0.0320 -0.9928 0.1155
vn 0.1609 -0.9324 0.3235
vn -0.1239 -0.9148 0.3844
vn 0.8189 -0.4888 0.3007
vn 0.6658 -0.7091 0.2320
vn 0.8198 -0.5550 0.1408
vn -0.3982 -0.9131 0.0872
vn -0.0835 -0.9475 -0.3086
vn 0.2218 -0.9351 -0.2763
vn 0.9098 -0.2451 0.3350
vn -0.1047 -0.5253 0.8444
vn 0.0097 -0.4391 0.8984
vn 0.0244 -0.3604 0.9325
vn -0.8671 -0.4971 -0.0313
vn -0.7087 -0.6119 0.3511
vn -0.9752 -0.1285 0.1798
vn -0.3754 -0.3018 -0.8763
vn -0.6485 -0.4439 -0.6183
vn -0.5196 0.0194 -0.8542
vn 0.7142 -0.4223 -0.5581
vn 0.4617 -0.5669 -0.6823
vn 0.7053 -0.0373 -0.7079
vn 0.7064 -0.1223 0.6971
vn -0.3929 -0.2931 0.8716
vn -0.9709 -0.1244 -0.2044
vn -0.2943 -0.0633 -0.9536
vn 0.9004 -0.0190 -0.4347
vn 0.2044 0.4655 0.8611
vn 0.4370 0.5311 0.7259
vn 0.1086 0.7108 0.6949
vn -0.5594 0.5226 0.6434
vn -0.3302 0.5879 0.7384
vn -0.4179 0.7340 0.5353
vn -0.5424 0.2765 -0.7933
vn -0.8113 0.4845 -0.3271
vn -0.4836 0.6710 -0.5619
vn 0.2280 0.4559 -0.8603
vn 0.0413 0.4298 -0.9020
vn 0.2577 0.5677 -0.7818
vn 0.9565 0.2833 0.0696
vn 0.7669 0.3908 -0.5090
vn 0.6705 0.7407 0.0416
vn 0.2909 0.9558 0.0419
vn 0.1995 0.9717 -0.1265
vn 0.1505 0.9850 0.0843
vn 0.3298 0.9421 0.0601
vn 0.3100 0.9415 -0.1320
vn 0.5686 0.7316 -0.3761
vn 0.2008 0.8678 -0.4546
vn 0.5217 0.6742 -0.5227
vn 0.7310 0.3730 -0.5714
vn 0.5628 0.4580 -0.6881
vn -0.2304 0.9696 -0.0825
vn -0.1567 0.9094 -0.3852
vn -0.0620 0.6644 -0.7447
vn -0.3859 0.8894 -0.2451
vn -0.3752 0.6646 -0.6461
vn -0.3682 0.3644 -0.8553
vn -0.4602 0.2897 -0.8392
vn -0.2525 0.9146 0.3157
vn -0.4314 0.8925 0.1317
vn -0.5444 0.8384 -0.0254
vn -0.3607 0.8378 0.4098
vn -0.5320 0.8060 0.2595
vn -0.8235 0.5459 0.1547
vn -0.7646 0.5505 0.3350
vn 0.1289 0.9417 0.3106
vn -0.1798 0.8076 0.5616
vn -0.2581 0.7066 0.6588
vn 0.1068 0.8084 0.5788
vn -0.1312 0.7175 0.6840
vn -0.2604 0.5995 0.7568
vn -0.0610 0.5766 0.8148
vn 0.2936 0.9105 0.2911
vn 0.3736 0.7574 0.5354
vn 0.5110 0.7562 0.4086
vn 0.6800 0.4962 0.5398
vn 0.8144 0.3623 0.4533
vn 0.9788 0.0302 -0.2026
vn 0.9372 0.1173 -0.3283
vn 0.7913 0.2028 -0.5768
vn 0.8053 0.2063 -0.5558
vn 0.7942 0.2632 -0.5477
vn 0.6890 0.1048 -0.7171
vn 0.4696 0.2886 -0.8343
vn 0.1115 0.3126 -0.9433
vn -0.1176 0.1337 -0.9840
vn -0.2995 0.2179 -0.9289
vn -0.4591 0.1491 -0.8758
vn -0.4799 0.1749 -0.8597
vn -0.4973 0.1079 -0.8608
vn -0.5011 0.1669 -0.8491
vn -0.7949 0.0703 -0.6026
vn -0.9537 -0.0893 -0.2870
vn -0.9937 0.0848 -0.0728
vn -0.9996 -0.0261 0.0107
vn -0.9718 0.1549 0.1778
vn -0.9634 -0.0131 0.2675
vn -0.8594 0.2090 0.4666
vn -0.5803 0.3177 0.7499
vn -0.5839 0.0862 0.8072
vn -0.3381 0.4401 0.8318
vn -0.2664 0.1306 0.9550
vn -0.1655 0.4144 0.8949
vn 0.1176 -0.0037 0.9930
vn 0.1746 0.2681 0.9474
vn 0.3818 0.1849 0.9055
vn 0.4921 0.0839 0.8664
vn 0.6970 0.2610 0.6678
vn 0.8235 0.1175 0.5549
vn 0.8640 0.2495 0.4373
vn 0.9594 0.0674 0.2738
vn 0.9616 0.0757 0.2636
vn 0.3102 0.0624 -0.9486
vn 0.4724 -0.1698 -0.8648
vn 0.1625 -0.1856 -0.9691
vn 0.2393 -0.6464 -0.7244
vn 0.0103 -0.5555 -0.8314
vn -0.7192 -0.0097 -0.6948
vn -0.6952 -0.1973 -0.6912
vn -0.8138 -0.3127 -0.4898
vn -0.6888 -0.6210 -0.3740
vn -0.6594 -0.6422 -0.3907
vn -0.8048 -0.0318 0.5926
vn -0.8369 -0.2965 0.4600
vn -0.7058 -0.3072 0.6383
vn -0.6422 -0.6238 0.4455
vn -0.4694 -0.5868 0.6597
vn 0.3056 -0.0430 0.9511
vn 0.1579 -0.2643 0.9514
vn 0.2549 -0.1110 0.9605
vn 0.0635 -0.4140 0.9080
vn 0.5042 -0.5101 0.6968
vn 0.9994 0.0236 0.0259
vn 0.9308 -0.3321 0.1524
vn 0.9793 -0.2018 0.0136
vn 0.8138 -0.5491 0.1902
vn 0.8399 -0.5365 -0.0811
vn 0.4479 -0.8043 -0.3904
vn 0.3362 -0.8414 -0.4230
vn 0.1958 -0.8524 -0.4848
vn 0.2532 -0.8147 -0.5217
vn 0.2189 -0.8126 -0.5401
vn -0.1107 -0.8872 -0.4478
vn -0.2146 -0.7251 -0.6544
vn -0.6412 -0.7191 -0.2676
vn -0.5832 -0.7806 -0.2246
vn -0.5964 -0.7517 -0.2816
vn -0.6128 -0.7902 0.0004
vn -0.5409 -0.8402 -0.0392
vn -0.5412 -0.8006 0.2572
vn -0.4655 -0.8390 0.2817
vn -0.4928 -0.7646 0.4152
vn -0.1716 -0.8787 0.4454
vn -0.1816 -0.6386 0.7478
vn 0.6879 -0.7257 -0.0094
vn 0.7558 -0.6198 0.2114
vn 0.5330 -0.8449 0.0451
vn 0.4456 -0.8274 0.3417
vn -0.0218 -0.7120 0.7019
vn 0.0968 -0.9025 0.4197
vn 0.2672 -0.8215 0.5036
usemtl Material.002
s 1
f 1//1 16//2 15//3
f 2//4 18//5 24//6
f 1//1 15//3 30//7
f 1//1 30//7 36//8
f 1//1 36//8 25//9
f 2//4 24//6 45//10
f 3//11 21//12 51//13
f 4//14 33//15 57//16
f 5//17 39//18 63//19
f 6//20 42//21 69//22
f 2//4 45//10 52//23
f 3//11 51//13 58//24
f 4//14 57//16 64//25
f 5//17 63//19 70//26
f 6//20 69//22 46//27
f 7//28 75//29 90//30
f 8//31 78//32 96//33
f 9//34 81//35 99//36
f 10//37 84//38 102//39
f 11//40 87//41 91//42
f 93//43 100//44 12//45
f 92//46 103//47 93//43
f 91//42 104//48 92//46
f 93//43 103//47 100//44
f 103//47 101//49 100//44
f 92//46 104//48 103//47
f 104//48 105//50 103//47
f 103//47 105//50 101//49
f 105//50 102//39 101//49
f 91//42 87//41 104//48
f 87//41 86//51 104//48
f 104//48 86//51 105//50
f 86//51 85//52 105//50
f 105//50 85//52 102//39
f 85//52 10//37 102//39
f 100//44 97//53 12//45
f 101//49 106//54 100//44
f 102//39 107//55 101//49
f 100//44 106//54 97//53
f 106//54 98//56 97//53
f 101//49 107//55 106//54
f 107//55 108//57 106//54
f 106//54 108//57 98//56
f 108//57 99//36 98//56
f 102//39 84//38 107//55
f 84//38 83//58 107//55
f 107//55 83//58 108//57
f 83//58 82//59 108//57
f 108//57 82//59 99//36
f 82//59 9//34 99//36
f 97//53 94//60 12//45
f 98//56 109//61 97//53
f 99//36 110//62 98//56
f 97//53 109//61 94//60
f 109//61 95//63 94//60
f 98//56 110//62 109//61
f 110//62 111//64 109//61
f 109//61 111//64 95//63
f 111//64 96//33 95//63
f 99//36 81//35 110//62
f 81//35 80//65 110//62
f 110//62 80//65 111//64
f 80//65 79//66 111//64
f 111//64 79//66 96//33
f 79//66 8//31 96//33
f 94//60 88//67 12//45
f 95//63 112//68 94//60
f 96//33 113//69 95//63
f 94//60 112//68 88//67
f 112//68 89//70 88//67
f 95//63 113//69 112//68
f 113//69 114//71 112//68
f 112//68 114//71 89//70
f 114//71 90//30 89//70
f 96//33 78//32 113//69
f 78//32 77//72 113//69
f 113//69 77//72 114//71
f 77//72 76//73 114//71
f 114//71 76//73 90//30
f 76//73 7//28 90//30
f 88//67 93//43 12//45
f 89//70 115//74 88//67
f 90//30 116//75 89//70
f 88//67 115//74 93//43
f 115//74 92//46 93//43
f 89//70 116//75 115//74
f 116//75 117//76 115//74
f 115//74 117//76 92//46
f 117//76 91//42 92//46
f 90//30 75//29 116//75
f 75//29 74//77 116//75
f 116//75 74//77 117//76
f 74//77 73//78 117//76
f 117//76 73//78 91//42
f 73//78 11//40 91//42
f 48//79 87//41 11//40
f 47//80 118//81 48//79
f 46//27 119//82 47//80
f 48//79 118//81 87//41
f 118//81 86//51 87//41
f 47//80 119//82 118//81
f 119//82 120//83 118//81
f 118//81 120//83 86//51
f 120//83 85//52 86//51
f 46//27 69//22 119//82
f 69//22 68//84 119//82
f 119//82 68//84 120//83
f 68//84 67//85 120//83
f 120//83 67//85 85//52
f 67//85 10//37 85//52
f 72//86 84//38 10//37
f 71//87 121//88 72//86
f 70//26 122//89 71//87
f 72//86 121//88 84//38
f 121//88 83//58 84//38
f 71//87 122//89 121//88
f 122//89 123//90 121//88
f 121//88 123//90 83//58
f 123//90 82//59 83//58
f 70//26 63//19 122//89
f 63//19 62//91 122//89
f 122//89 62//91 123//90
f 62//91 61//92 123//90
f 123//90 61//92 82//59
f 61//92 9//34 82//59
f 66//93 81//35 9//34
f 65//94 124//95 66//93
f 64//25 125//96 65//94
f 66//93 124//95 81//35
f 124//95 80//65 81//35
f 65//94 125//96 124//95
f 125//96 126//97 124//95
f 124//95 126//97 80//65
f 126//97 79//66 80//65
f 64//25 57//16 125//96
f 57//16 56//98 125//96
f 125//96 56//98 126//97
f 56//98 55//99 126//97
f 126//97 55//99 79//66
f 55//99 8//31 79//66
f 60//100 78//32 8//31
f 59//101 127//102 60//100
f 58//24 128//103 59//101
f 60//100 127//102 78//32
f 127//102 77//72 78//32
f 59//101 128//103 127//102
f 128//103 129//104 127//102
f 127//102 129//104 77//72
f 129//104 76//73 77//72
f 58//24 51//13 128//103
f 51//13 50//105 128//103
f 128//103 50//105 129//104
f 50//105 49//106 129//104
f 129//104 49//106 76//73
f 49//106 7//28 76//73
f 54//107 75//29 7//28
f 53//108 130//109 54//107
f 52//23 131//110 53//108
f 54//107 130//109 75//29
f 130//109 74//77 75//29
f 53//108 131//110 130//109
f 131//110 132//111 130//109
f 130//109 132//111 74//77
f 132//111 73//78 74//77
f 52//23 45//10 131//110
f 45//10 44//112 131//110
f 131//110 44//112 132//111
f 44//112 43//113 132//111
f 132//111 43//113 73//78
f 43//113 11//40 73//78
f 67//85 72//86 10//37
f 68//84 133//114 67//85
f 69//22 134//115 68//84
f 67//85 133//114 72//86
f 133//114 71//87 72//86
f 68//84 134//115 133//114
f 134//115 135//116 133//114
f 133//114 135//116 71//87
f 135//116 70//26 71//87
f 69//22 42//21 134//115
f 42//21 41//117 134//115
f 134//115 41//117 135//116
f 41//117 40//118 135//116
f 135//116 40//118 70//26
f 40//118 5//17 70//26
f 61//92 66//93 9//34
f 62//91 136//119 61//92
f 63//19 137//120 62//91
f 61//92 136//119 66//93
f 136//119 65//94 66//93
f 62//91 137//120 136//119
f 137//120 138//121 136//119
f 136//119 138//121 65//94
f 138//121 64//25 65//94
f 63//19 39//18 137//120
f 39//18 38//122 137//120
f 137//120 38//122 138//121
f 38//122 37//123 138//121
f 138//121 37//123 64//25
f 37//123 4//14 64//25
f 55//99 60//100 8//31
f 56//98 139//124 55//99
f 57//16 140//125 56//98
f 55//99 139//124 60//100
f 139//124 59//101 60//100
f 56//98 140//125 139//124
f 140//125 141//126 139//124
f 139//124 141//126 59//101
f 141//126 58//24 59//101
f 57//16 33//15 140//125
f 33//15 32//127 140//125
f 140//125 32//127 141//126
f 32//127 31//128 141//126
f 141//126 31//128 58//24
f 31//128 3//11 58//24
f 49//106 54//107 7//28
f 50//105 142//129 49//106
f 51//13 143//130 50//105
f 49//106 142//129 54//107
f 142//129 53//108 54//107
f 50//105 143//130 142//129
f 143//130 144//131 142//129
f 142//129 144//131 53//108
f 144//131 52//23 53//108
f 51//13 21//12 143//130
f 21//12 20//132 143//130
f 143//130 20//132 144//131
f 20//132 19//133 144//131
f 144//131 19//133 52//23
f 19//133 2//4 52//23
f 43//113 48//79 11//40
f 44//112 145//134 43//113
f 45//10 146//135 44//112
f 43//113 145//134 48//79
f 145//134 47//80 48//79
f 44//112 146//135 145//134
f 146//135 147//136 145//134
f 145//134 147//136 47//80
f 147//136 46//27 47//80
f 45//10 24//6 146//135
f 24//6 23//137 146//135
f 146//135 23//137 147//136
f 23//137 22//138 147//136
f 147//136 22//138 46//27
f 22//138 6//20 46//27
f 27//139 42//21 6//20
f 26//140 148//141 27//139
f 25//9 149//142 26//140
f 27//139 148//141 42//21
f 148//141 41//117 42//21
f 26//140 149//142 148//141
f 149//142 150//143 148//141
f 148//141 150//143 41//117
f 150//143 40//118 41//117
f 25//9 36//8 149//142
f 36//8 35//144 149//142
f 149//142 35//144 150//143
f 35//144 34//145 150//143
f 150//143 34//145 40//118
f 34//145 5//17 40//118
f 34//145 39//18 5//17
f 35//144 151//146 34//145
f 36//8 152//147 35//144
f 34//145 151//146 39//18
f 151//146 38//122 39//18
f 35//144 152//147 151//146
f 152//147 153//148 151//146
f 151//146 153//148 38//122
f 153//148 37//123 38//122
f 36//8 30//7 152//147
f 30//7 29//149 152//147
f 152//147 29//149 153//148
f 29//149 28//150 153//148
f 153//148 28//150 37//123
f 28//150 4//14 37//123
f 28//150 33//15 4//14
f 29//149 154//151 28//150
f 30//7 155//152 29//149
f 28//150 154//151 33//15
f 154//151 32//127 33//15
f 29//149 155//152 154//151
f 155//152 156//153 154//151
f 154//151 156//153 32//127
f 156//153 31//128 32//127
f 30//7 15//3 155//152
f 15//3 14//154 155//152
f 155//152 14//154 156//153
f 14//154 13//155 156//153
f 156//153 13//155 31//128
f 13//155 3//11 31//128
f 22//138 27//139 6//20
f 23//137 157//156 22//138
f 24//6 158//157 23//137
f 22//138 157//156 27//139
f 157//156 26//140 27//139
f 23//137 158//157 157//156
f 158//157 159//158 157//156
f 157//156 159//158 26//140
f 159//158 25//9 26//140
f 24//6 18//5 158//157
f 18//5 17//159 158//157
f 158//157 17//159 159//158
f 17//159 16//2 159//158
f 159//158 16//2 25//9
f 16//2 1//1 25//9
f 13//155 21//12 3//11
f 14//154 160//160 13//155
f 15//3 161//161 14//154
f 13//155 160//160 21//12
f 160//160 20//132 21//12
f 14//154 161//161 160//160
f 161//161 162//162 160//160
f 160//160 162//162 20//132
f 162//162 19//133 20//132
f 15//3 16//2 161//161
f 16//2 17//159 161//161
f 161//161 17//159 162//162
f 17//159 18//5 162//162
f 162//162 18//5 19//133
f 18//5 2//4 19//133
