# Blender v2.77 (sub 0) OBJ File: 'key_green.sapphire.blend'
# www.blender.org
mtllib key_green.sapphire.mtl
o Cube_Cube.001
origin 0.000000 0.000000 0.000000
v 0.203824 0.087241 0.070000
v 0.116222 0.137818 0.070000
v 0.116222 0.137818 -0.070000
v 0.203824 0.087241 -0.070000
v -0.000000 0.440274 0.070000
v -0.000000 0.339120 0.070000
v -0.000000 0.339120 -0.070000
v -0.000000 0.440274 -0.070000
v -0.203824 0.087241 0.070000
v -0.116222 0.137818 0.070000
v -0.116222 0.137818 -0.070000
v -0.203824 0.087241 -0.070000
v -0.050000 -0.400000 0.070000
v -0.050000 -0.400000 -0.070000
v 0.050000 -0.150000 -0.070000
v 0.050000 -0.150000 0.070000
v 0.050000 -0.362500 -0.070000
v 0.050000 -0.362500 0.070000
v 0.050000 -0.328315 0.070000
v 0.050000 -0.328315 -0.070000
v 0.050000 -0.231436 -0.070000
v 0.050000 -0.231436 0.070000
v 0.050000 -0.193688 0.070000
v 0.050000 -0.193688 -0.070000
v 0.050000 -0.259682 -0.070000
v 0.050000 -0.259682 0.070000
v 0.050000 -0.299344 -0.070000
v 0.050000 -0.299344 0.070000
v 0.125131 -0.362500 -0.070000
v 0.125131 -0.400000 -0.070000
v 0.125131 -0.362500 0.070000
v 0.125131 -0.400000 0.070000
v 0.110610 -0.150000 0.070000
v 0.110610 -0.150000 -0.070000
v 0.174805 -0.299344 0.070000
v 0.174805 -0.328315 0.070000
v 0.174805 -0.299344 -0.070000
v 0.174805 -0.328315 -0.070000
v 0.143007 -0.231436 0.070000
v 0.143007 -0.231436 -0.070000
v 0.110610 -0.193688 0.070000
v 0.110610 -0.193688 -0.070000
v 0.143007 -0.259682 -0.070000
v 0.143007 -0.259682 0.070000
v 0.050000 0.087241 -0.070000
v 0.050000 0.087241 0.070000
v -0.050000 0.087241 0.070000
v -0.050000 0.087241 -0.070000
vn 0.0000 -1.0000 0.0000
vn 0.0000 0.0000 1.0000
vn 0.8660 -0.5000 0.0000
vn 0.0000 0.0000 -1.0000
vn 0.8660 0.5000 0.0000
vn 0.0000 1.0000 0.0000
vn -0.8660 -0.5000 0.0000
vn -0.8660 0.5000 0.0000
vn 1.0000 0.0000 0.0000
vn -1.0000 0.0000 0.0000
usemtl Material
s off
f 1//1 45//1 4//1
f 5//2 10//2 6//2
f 10//3 7//3 6//3
f 3//4 45//4 48//4
f 1//5 8//5 5//5
f 46//2 2//2 47//2
f 7//4 4//4 3//4
f 2//6 11//6 10//6
f 11//4 8//4 7//4
f 6//7 3//7 2//7
f 9//8 8//8 12//8
f 18//6 29//6 17//6
f 19//9 17//9 20//9
f 13//2 28//2 26//2
f 23//9 21//9 24//9
f 26//9 27//9 25//9
f 22//6 40//6 21//6
f 33//9 42//9 34//9
f 31//9 30//9 29//9
f 39//9 43//9 40//9
f 35//9 38//9 37//9
f 28//6 37//6 27//6
f 21//4 25//4 14//4
f 24//1 41//1 23//1
f 20//1 36//1 19//1
f 16//6 34//6 15//6
f 25//1 44//1 26//1
f 14//1 32//1 13//1
f 5//2 2//2 1//2
f 48//10 13//10 47//10
f 48//1 9//1 12//1
f 46//9 15//9 45//9
f 1//1 46//1 45//1
f 5//2 9//2 10//2
f 10//3 11//3 7//3
f 12//4 11//4 48//4
f 3//4 4//4 45//4
f 48//4 11//4 3//4
f 1//5 4//5 8//5
f 10//2 9//2 47//2
f 46//2 1//2 2//2
f 10//2 47//2 2//2
f 7//4 8//4 4//4
f 2//6 3//6 11//6
f 11//4 12//4 8//4
f 6//7 7//7 3//7
f 9//8 5//8 8//8
f 18//6 31//6 29//6
f 19//9 18//9 17//9
f 13//2 32//2 18//2
f 32//2 31//2 18//2
f 46//2 47//2 16//2
f 41//2 33//2 16//2
f 16//2 47//2 13//2
f 13//2 18//2 19//2
f 19//2 36//2 35//2
f 19//2 35//2 28//2
f 23//2 41//2 16//2
f 44//2 39//2 22//2
f 23//2 16//2 13//2
f 26//2 44//2 22//2
f 22//2 23//2 13//2
f 13//2 19//2 28//2
f 26//2 22//2 13//2
f 23//9 22//9 21//9
f 26//9 28//9 27//9
f 22//6 39//6 40//6
f 33//9 41//9 42//9
f 31//9 32//9 30//9
f 39//9 44//9 43//9
f 35//9 36//9 38//9
f 28//6 35//6 37//6
f 17//4 29//4 30//4
f 14//4 48//4 15//4
f 15//4 34//4 42//4
f 48//4 45//4 15//4
f 17//4 30//4 14//4
f 37//4 38//4 20//4
f 20//4 17//4 14//4
f 15//4 42//4 24//4
f 21//4 40//4 43//4
f 14//4 15//4 24//4
f 21//4 43//4 25//4
f 14//4 24//4 21//4
f 27//4 37//4 20//4
f 20//4 14//4 27//4
f 25//4 27//4 14//4
f 24//1 42//1 41//1
f 20//1 38//1 36//1
f 16//6 33//6 34//6
f 25//1 43//1 44//1
f 14//1 30//1 32//1
f 5//2 6//2 2//2
f 48//10 14//10 13//10
f 48//1 47//1 9//1
f 46//9 16//9 15//9
