# Blender v2.77 (sub 0) OBJ File: 'key_red.sapphire.blend'
# www.blender.org
mtllib key_red.sapphire.mtl
o Torus
origin 0.000000 -0.500000 0.000000
v 0.000000 0.098449 0.070000
v 0.000000 0.098449 -0.070000
v 0.100710 0.054892 0.070000
v 0.065439 0.115983 0.070000
v 0.065439 0.115983 -0.070000
v 0.100710 0.054892 -0.070000
v 0.174435 0.128617 0.070000
v 0.113344 0.163888 0.070000
v 0.113344 0.163888 -0.070000
v 0.174435 0.128617 -0.070000
v 0.201420 0.229327 0.070000
v 0.130879 0.229327 0.070000
v 0.130879 0.229327 -0.070000
v 0.201420 0.229327 -0.070000
v 0.174435 0.330037 0.070000
v 0.113344 0.294767 0.070000
v 0.113344 0.294767 -0.070000
v 0.174435 0.330037 -0.070000
v 0.100710 0.403762 0.070000
v 0.065439 0.342672 0.070000
v 0.065439 0.342672 -0.070000
v 0.100710 0.403762 -0.070000
v 0.000000 0.430747 0.070000
v 0.000000 0.360206 0.070000
v 0.000000 0.360206 -0.070000
v 0.000000 0.430747 -0.070000
v -0.100710 0.403762 0.070000
v -0.065439 0.342672 0.070000
v -0.065439 0.342672 -0.070000
v -0.100710 0.403762 -0.070000
v -0.174435 0.330037 0.070000
v -0.113344 0.294767 0.070000
v -0.113344 0.294767 -0.070000
v -0.174435 0.330037 -0.070000
v -0.201420 0.229327 0.070000
v -0.130879 0.229327 0.070000
v -0.130879 0.229327 -0.070000
v -0.201420 0.229327 -0.070000
v -0.174435 0.128617 0.070000
v -0.113344 0.163888 0.070000
v -0.113344 0.163888 -0.070000
v -0.174435 0.128617 -0.070000
v -0.100710 0.054892 0.070000
v -0.065439 0.115983 0.070000
v -0.065439 0.115983 -0.070000
v -0.100710 0.054892 -0.070000
v -0.050000 -0.400000 0.070000
v -0.050000 -0.400000 -0.070000
v 0.050000 -0.150000 -0.070000
v 0.050000 -0.150000 0.070000
v 0.050000 -0.362500 -0.070000
v 0.050000 -0.362500 0.070000
v 0.050000 -0.328315 0.070000
v 0.050000 -0.328315 -0.070000
v 0.050000 -0.231436 -0.070000
v 0.050000 -0.231436 0.070000
v 0.050000 -0.193688 0.070000
v 0.050000 -0.193688 -0.070000
v 0.050000 -0.259682 -0.070000
v 0.050000 -0.259682 0.070000
v 0.050000 -0.299344 -0.070000
v 0.050000 -0.299344 0.070000
v 0.145829 -0.362500 -0.070000
v 0.145829 -0.400000 -0.070000
v 0.145829 -0.362500 0.070000
v 0.145829 -0.400000 0.070000
v 0.088462 -0.150000 0.070000
v 0.088462 -0.150000 -0.070000
v 0.137840 -0.299344 0.070000
v 0.137840 -0.328315 0.070000
v 0.137840 -0.299344 -0.070000
v 0.137840 -0.328315 -0.070000
v 0.094970 -0.231436 0.070000
v 0.094970 -0.231436 -0.070000
v 0.088462 -0.193688 0.070000
v 0.088462 -0.193688 -0.070000
v 0.094970 -0.259682 -0.070000
v 0.094970 -0.259682 0.070000
v 0.050000 0.044461 -0.070000
v -0.050000 0.043849 -0.070000
v -0.050000 0.044064 0.070000
v 0.050000 0.044227 0.070000
v 0.000000 0.430747 0.070000
v -0.100710 0.403762 0.070000
v -0.174435 0.128617 -0.070000
v -0.100710 0.054892 -0.070000
v 0.100710 0.403762 -0.070000
v 0.000000 0.430747 -0.070000
v -0.174435 0.128617 0.070000
v -0.100710 0.054892 0.070000
v 0.201420 0.229327 -0.070000
v 0.174435 0.330037 -0.070000
v 0.174435 0.128617 -0.070000
v 0.100710 0.054892 0.070000
v 0.174435 0.128617 0.070000
v -0.174435 0.330037 0.070000
v 0.174435 0.330037 0.070000
v 0.100710 0.403762 0.070000
v -0.174435 0.330037 -0.070000
v -0.201420 0.229327 -0.070000
v -0.201420 0.229327 0.070000
v -0.100710 0.403762 -0.070000
v 0.201420 0.229327 0.070000
v 0.100710 0.054892 -0.070000
v -0.065439 0.342672 -0.070000
v -0.113344 0.294767 -0.070000
v 0.000000 0.360206 -0.070000
v -0.130879 0.229327 -0.070000
v -0.113344 0.163888 -0.070000
v 0.000000 0.098449 -0.070000
v -0.065439 0.115983 -0.070000
v 0.065439 0.115983 -0.070000
v 0.113344 0.163888 -0.070000
v 0.113344 0.294767 -0.070000
v 0.065439 0.342672 -0.070000
v 0.130879 0.229327 -0.070000
v -0.113344 0.294767 0.070000
v -0.130879 0.229327 0.070000
v -0.113344 0.163888 0.070000
v -0.065439 0.342672 0.070000
v 0.113344 0.163888 0.070000
v 0.130879 0.229327 0.070000
v 0.065439 0.115983 0.070000
v 0.000000 0.098449 0.070000
v -0.065439 0.115983 0.070000
v 0.000000 0.360206 0.070000
v 0.065439 0.342672 0.070000
v 0.113344 0.294767 0.070000
v -0.050000 0.043849 -0.070000
v -0.050000 0.044064 0.070000
v 0.050000 0.044227 0.070000
v 0.050000 0.044461 -0.070000
vn 0.0000 0.0000 1.0000
vn 0.0000 0.0000 -1.0000
vn 0.0000 1.0000 0.0000
vn 1.0000 0.0000 0.0000
vn 0.0000 -1.0000 0.0000
vn -1.0000 -0.0000 0.0000
vn 0.4758 -0.8795 -0.0006
vn 0.8660 -0.5000 0.0000
vn -0.5000 0.8660 0.0000
vn 0.8660 0.5000 0.0000
vn -0.8660 0.5000 0.0000
vn 0.5000 0.8660 0.0000
vn -0.8660 -0.5000 0.0000
vn -0.5000 -0.8660 0.0000
vn 0.5000 -0.8660 0.0000
vn -0.4776 -0.8786 0.0000
vn -0.4789 -0.8778 0.0006
vn 0.2025 -0.9793 -0.0004
vn 0.4743 -0.8804 0.0000
vn -0.2097 -0.9778 0.0003
vn -0.2128 -0.9771 0.0015
vn 0.2058 -0.9786 -0.0016
usemtl Material
s off
f 7//1 123//1 3//1
f 112//2 10//2 6//2
f 11//1 121//1 7//1
f 113//2 91//2 10//2
f 11//1 128//1 122//1
f 114//2 91//2 116//2
f 97//1 127//1 128//1
f 115//2 18//2 114//2
f 23//1 127//1 98//1
f 115//2 26//2 22//2
f 23//1 120//1 126//1
f 105//2 26//2 107//2
f 96//1 120//1 27//1
f 105//2 99//2 30//2
f 96//1 118//1 117//1
f 108//2 99//2 106//2
f 39//1 118//1 35//1
f 108//2 42//2 100//2
f 43//1 119//1 39//1
f 109//2 46//2 42//2
f 62//1 60//1 47//1
f 55//2 59//2 48//2
f 52//3 63//3 51//3
f 53//4 51//4 54//4
f 57//4 55//4 58//4
f 60//4 61//4 59//4
f 56//3 74//3 55//3
f 67//4 76//4 68//4
f 65//4 64//4 63//4
f 73//4 77//4 74//4
f 69//4 72//4 71//4
f 62//3 71//3 61//3
f 58//5 75//5 57//5
f 54//5 70//5 53//5
f 50//3 68//3 49//3
f 59//5 78//5 60//5
f 48//5 66//5 47//5
f 129//6 47//6 130//6
f 82//4 49//4 79//4
f 7//1 121//1 123//1
f 112//2 113//2 10//2
f 11//1 122//1 121//1
f 113//2 116//2 91//2
f 11//1 97//1 128//1
f 114//2 18//2 91//2
f 97//1 98//1 127//1
f 115//2 22//2 18//2
f 23//1 126//1 127//1
f 115//2 107//2 26//2
f 23//1 27//1 120//1
f 105//2 30//2 26//2
f 96//1 117//1 120//1
f 105//2 106//2 99//2
f 96//1 35//1 118//1
f 108//2 100//2 99//2
f 39//1 119//1 118//1
f 108//2 109//2 42//2
f 43//1 44//1 119//1
f 109//2 45//2 46//2
f 82//1 3//1 123//1
f 1//1 44//1 130//1
f 82//1 123//1 1//1
f 75//1 67//1 50//1
f 50//1 82//1 130//1
f 44//1 43//1 130//1
f 47//1 66//1 52//1
f 66//1 65//1 52//1
f 1//1 130//1 82//1
f 57//1 75//1 50//1
f 50//1 130//1 57//1
f 47//1 52//1 53//1
f 53//1 70//1 69//1
f 53//1 69//1 62//1
f 130//1 47//1 57//1
f 56//1 57//1 47//1
f 47//1 53//1 62//1
f 60//1 78//1 73//1
f 56//1 47//1 60//1
f 60//1 73//1 56//1
f 2//2 112//2 79//2
f 112//2 6//2 79//2
f 46//2 45//2 129//2
f 129//2 45//2 2//2
f 2//2 79//2 129//2
f 49//2 68//2 76//2
f 49//2 76//2 58//2
f 129//2 79//2 49//2
f 63//2 64//2 51//2
f 51//2 64//2 48//2
f 48//2 129//2 58//2
f 49//2 58//2 129//2
f 51//2 48//2 54//2
f 71//2 72//2 54//2
f 54//2 48//2 61//2
f 55//2 74//2 77//2
f 48//2 58//2 55//2
f 61//2 71//2 54//2
f 55//2 77//2 59//2
f 61//2 48//2 59//2
f 52//3 65//3 63//3
f 53//4 52//4 51//4
f 57//4 56//4 55//4
f 60//4 62//4 61//4
f 56//3 73//3 74//3
f 67//4 75//4 76//4
f 65//4 66//4 64//4
f 73//4 78//4 77//4
f 69//4 70//4 72//4
f 62//3 69//3 71//3
f 58//5 76//5 75//5
f 54//5 72//5 70//5
f 50//3 67//3 68//3
f 59//5 77//5 78//5
f 48//5 64//5 66//5
f 129//6 48//6 47//6
f 82//4 50//4 49//4
s 1
f 94//7 93//8 95//8
f 95//8 14//4 103//4
f 124//3 5//9 110//3
f 15//10 14//4 92//10
f 8//11 5//9 4//9
f 15//10 87//12 19//12
f 8//11 13//6 9//11
f 19//12 88//3 83//3
f 16//13 13//6 12//6
f 83//3 102//9 84//9
f 16//13 21//14 17//13
f 31//11 102//9 34//11
f 20//14 25//5 21//14
f 124//3 111//12 125//12
f 24//5 29//15 25//5
f 89//13 38//6 85//13
f 32//8 29//15 28//15
f 90//16 85//13 86//17
f 36//4 33//8 32//8
f 40//10 37//4 36//4
f 94//7 132//18 104//19
f 125//12 41//10 40//10
f 38//6 31//11 34//11
f 81//20 86//17 80//21
f 94//7 104//19 93//8
f 95//8 93//8 14//4
f 124//3 4//9 5//9
f 15//10 103//4 14//4
f 8//11 9//11 5//9
f 15//10 92//10 87//12
f 8//11 12//6 13//6
f 19//12 87//12 88//3
f 16//13 17//13 13//6
f 83//3 88//3 102//9
f 16//13 20//14 21//14
f 31//11 84//9 102//9
f 20//14 24//5 25//5
f 124//3 110//3 111//12
f 24//5 28//15 29//15
f 89//13 101//6 38//6
f 32//8 33//8 29//15
f 90//16 89//13 85//13
f 36//4 37//4 33//8
f 40//10 41//10 37//4
f 94//7 131//22 132//18
f 125//12 111//12 41//10
f 38//6 101//6 31//11
f 81//20 90//16 86//17
