# Blender v2.77 (sub 0) OBJ File: 'key_yellow.sapphire.blend'
# www.blender.org
mtllib key_yellow.sapphire.mtl
o Cube_Cube.001
v 0.160587 0.400000 -0.070000
v 0.090743 0.330155 -0.070000
v 0.090743 0.330155 0.070000
v 0.160587 0.400000 0.070000
v 0.160587 0.078826 -0.070000
v 0.090743 0.148669 -0.070000
v 0.090743 0.148669 0.070000
v 0.160587 0.078826 0.070000
v -0.160587 0.078826 -0.070000
v -0.090743 0.148669 -0.070000
v -0.090743 0.148669 0.070000
v -0.160587 0.078826 0.070000
v -0.160587 0.400000 -0.070000
v -0.090743 0.330155 -0.070000
v -0.090743 0.330155 0.070000
v -0.160587 0.400000 0.070000
v -0.050000 -0.400000 0.070000
v -0.050000 -0.400000 -0.070000
v 0.050000 -0.150000 -0.070000
v 0.050000 -0.150000 0.070000
v 0.050000 -0.362500 -0.070000
v 0.050000 -0.362500 0.070000
v 0.050000 -0.328315 0.070000
v 0.050000 -0.328315 -0.070000
v 0.050000 -0.231436 -0.070000
v 0.050000 -0.231436 0.070000
v 0.050000 -0.193688 0.070000
v 0.050000 -0.193688 -0.070000
v 0.050000 -0.259682 -0.070000
v 0.050000 -0.259682 0.070000
v 0.050000 -0.299344 -0.070000
v 0.050000 -0.299344 0.070000
v 0.110979 -0.362500 -0.070000
v 0.110979 -0.400000 -0.070000
v 0.110979 -0.362500 0.070000
v 0.110979 -0.400000 0.070000
v 0.163087 -0.150000 0.070000
v 0.163087 -0.150000 -0.070000
v 0.168702 -0.299344 0.070000
v 0.168702 -0.328315 0.070000
v 0.168702 -0.299344 -0.070000
v 0.168702 -0.328315 -0.070000
v 0.101094 -0.231436 0.070000
v 0.101094 -0.231436 -0.070000
v 0.163087 -0.193688 0.070000
v 0.163087 -0.193688 -0.070000
v 0.101094 -0.259682 -0.070000
v 0.101094 -0.259682 0.070000
v 0.050000 0.078826 0.070000
v 0.050000 0.078826 -0.070000
v -0.050000 0.078826 -0.070000
v -0.050000 0.078826 0.070000
vn 0.0000 0.0000 1.0000
vn 0.0000 1.0000 0.0000
vn 0.0000 -1.0000 0.0000
vn -0.0000 0.0000 -1.0000
vn -1.0000 0.0000 0.0000
vn 1.0000 -0.0000 0.0000
usemtl Material
s off
f 3//1 16//1 15//1
f 13//2 4//2 1//2
f 2//3 15//3 14//3
f 15//1 12//1 11//1
f 10//2 7//2 6//2
f 5//4 2//4 1//4
f 6//5 3//5 2//5
f 9//5 16//5 13//5
f 50//4 10//4 6//4
f 11//1 52//1 49//1
f 1//6 8//6 5//6
f 9//4 14//4 10//4
f 14//6 11//6 10//6
f 13//4 2//4 14//4
f 3//1 8//1 4//1
f 22//2 33//2 21//2
f 23//6 21//6 24//6
f 17//1 32//1 30//1
f 27//6 25//6 28//6
f 30//6 31//6 29//6
f 26//2 44//2 25//2
f 37//6 46//6 38//6
f 35//6 34//6 33//6
f 43//6 47//6 44//6
f 39//6 42//6 41//6
f 32//2 41//2 31//2
f 25//4 29//4 18//4
f 28//3 45//3 27//3
f 24//3 40//3 23//3
f 20//2 38//2 19//2
f 29//3 48//3 30//3
f 18//3 36//3 17//3
f 51//5 17//5 52//5
f 8//3 50//3 5//3
f 49//6 19//6 50//6
f 12//3 51//3 52//3
f 3//1 4//1 16//1
f 13//2 16//2 4//2
f 2//3 3//3 15//3
f 15//1 16//1 12//1
f 10//2 11//2 7//2
f 5//4 6//4 2//4
f 6//5 7//5 3//5
f 9//5 12//5 16//5
f 6//4 5//4 50//4
f 50//4 51//4 10//4
f 9//4 10//4 51//4
f 8//1 7//1 49//1
f 11//1 12//1 52//1
f 49//1 7//1 11//1
f 1//6 4//6 8//6
f 9//4 13//4 14//4
f 14//6 15//6 11//6
f 13//4 1//4 2//4
f 3//1 7//1 8//1
f 22//2 35//2 33//2
f 23//6 22//6 21//6
f 17//1 36//1 22//1
f 36//1 35//1 22//1
f 49//1 52//1 20//1
f 45//1 37//1 20//1
f 20//1 52//1 17//1
f 17//1 22//1 23//1
f 23//1 40//1 39//1
f 23//1 39//1 32//1
f 27//1 45//1 20//1
f 48//1 43//1 26//1
f 27//1 20//1 17//1
f 30//1 48//1 26//1
f 26//1 27//1 17//1
f 17//1 23//1 32//1
f 30//1 26//1 17//1
f 27//6 26//6 25//6
f 30//6 32//6 31//6
f 26//2 43//2 44//2
f 37//6 45//6 46//6
f 35//6 36//6 34//6
f 43//6 48//6 47//6
f 39//6 40//6 42//6
f 32//2 39//2 41//2
f 21//4 33//4 34//4
f 18//4 51//4 19//4
f 19//4 38//4 46//4
f 51//4 50//4 19//4
f 21//4 34//4 18//4
f 41//4 42//4 24//4
f 24//4 21//4 18//4
f 19//4 46//4 28//4
f 25//4 44//4 47//4
f 18//4 19//4 28//4
f 25//4 47//4 29//4
f 18//4 28//4 25//4
f 31//4 41//4 24//4
f 24//4 18//4 31//4
f 29//4 31//4 18//4
f 28//3 46//3 45//3
f 24//3 42//3 40//3
f 20//2 37//2 38//2
f 29//3 47//3 48//3
f 18//3 34//3 36//3
f 51//5 18//5 17//5
f 8//3 49//3 50//3
f 49//6 20//6 19//6
f 12//3 9//3 51//3
