# Blender v2.77 (sub 0) OBJ File: 'miner.sapphire.blend'
# www.blender.org
mtllib miner_drill.sapphire.mtl
o Drill_Cylinder.002
origin 0.000000 -0.250000 0.000000
v -0.040654 -0.219769 -0.062877
v -0.044728 0.035317 -0.069291
v 0.039215 -0.219769 -0.062877
v 0.043289 0.035317 -0.069291
v 0.095692 -0.219769 -0.017363
v 0.105527 0.035317 -0.019135
v 0.095692 -0.219769 0.017363
v 0.105527 0.035317 0.019134
v 0.039215 -0.219769 0.062876
v 0.043289 0.035317 0.069291
v -0.040654 -0.219769 0.062876
v -0.044728 0.035317 0.069291
v -0.097131 -0.219769 0.017363
v -0.106965 0.035317 0.019134
v -0.097131 -0.219769 -0.017363
v -0.106965 0.035317 -0.019135
v -0.035511 -0.253286 -0.054779
v 0.034072 -0.253286 -0.054779
v 0.083274 -0.253286 -0.015127
v 0.083274 -0.253286 0.015126
v 0.034072 -0.253286 0.054778
v -0.035511 -0.253286 0.054778
v -0.084713 -0.253286 0.015126
v -0.084713 -0.253286 -0.015127
v -0.023783 -0.285605 -0.036314
v 0.022344 -0.285605 -0.036314
v 0.054961 -0.285605 -0.010028
v 0.054961 -0.285605 0.010027
v 0.022344 -0.285605 0.036313
v -0.023783 -0.285605 0.036313
v -0.056400 -0.285605 0.010027
v -0.056400 -0.285605 -0.010028
v -0.021614 -0.308349 -0.032899
v 0.020175 -0.308349 -0.032899
v 0.049725 -0.308349 -0.009085
v 0.049725 -0.308349 0.009084
v 0.020175 -0.308349 0.032898
v -0.021614 -0.308349 0.032898
v -0.051164 -0.308349 0.009084
v -0.051164 -0.308349 -0.009085
v -0.016924 -0.324908 -0.025514
v 0.015485 -0.324908 -0.025514
v 0.038402 -0.324908 -0.005887
v 0.038402 -0.324908 0.005886
v 0.015485 -0.324908 0.025514
v -0.016924 -0.324908 0.025514
v -0.039841 -0.324908 0.005886
v -0.039841 -0.324908 -0.005887
v -0.007739 -0.378774 -0.011054
v 0.006301 -0.378774 -0.011054
v 0.016229 -0.378774 -0.000000
v 0.006301 -0.378774 0.011053
v -0.007739 -0.378774 0.011053
v -0.017667 -0.378774 -0.000000
v -0.021614 -0.308349 -0.032899
v 0.020175 -0.308349 -0.032899
v 0.049725 -0.308349 -0.009085
v 0.049725 -0.308349 0.009084
v 0.020175 -0.308349 0.032898
v -0.021614 -0.308349 0.032898
v -0.051164 -0.308349 0.009084
v -0.051164 -0.308349 -0.009085
v -0.023783 -0.285605 -0.036314
v 0.022344 -0.285605 -0.036314
v 0.054961 -0.285605 -0.010028
v 0.054961 -0.285605 0.010027
v 0.022344 -0.285605 0.036313
v -0.023783 -0.285605 0.036313
v -0.056400 -0.285605 0.010027
v -0.056400 -0.285605 -0.010028
v 0.043289 0.035317 -0.069291
v -0.044728 0.035317 -0.069291
v 0.105527 0.035317 -0.019135
v 0.105527 0.035317 0.019134
v 0.043289 0.035317 0.069291
v -0.044728 0.035317 0.069291
v -0.106965 0.035317 0.019134
v -0.106965 0.035317 -0.019135
v -0.040654 -0.219769 -0.062877
v 0.039215 -0.219769 -0.062877
v 0.095692 -0.219769 -0.017363
v 0.095692 -0.219769 0.017363
v 0.039215 -0.219769 0.062876
v -0.040654 -0.219769 0.062876
v -0.097131 -0.219769 0.017363
v -0.097131 -0.219769 -0.017363
v 0.043289 0.035317 0.069291
v 0.039215 -0.219769 0.062876
v -0.044728 0.035317 0.069291
v -0.040654 -0.219769 0.062876
v -0.040654 -0.219769 -0.062877
v -0.044728 0.035317 -0.069291
v 0.043289 0.035317 -0.069291
v 0.039215 -0.219769 -0.062877
v -0.160000 -0.000000 -0.010000
v 0.160000 0.000000 -0.010000
v -0.160000 -0.008660 -0.005000
v 0.160000 -0.008660 -0.005000
v -0.160000 -0.008660 0.005000
v 0.160000 -0.008660 0.005000
v -0.160000 -0.000000 0.010000
v 0.160000 0.000000 0.010000
v -0.160000 0.008660 0.005000
v 0.160000 0.008660 0.005000
v -0.160000 0.008660 -0.005000
v 0.160000 0.008660 -0.005000
v 0.160000 -0.008660 -0.005000
v 0.160000 0.000000 -0.010000
v 0.160000 -0.008660 0.005000
v 0.160000 0.000000 0.010000
v 0.160000 0.008660 0.005000
v 0.160000 0.008660 -0.005000
v -0.160000 -0.000000 -0.010000
v -0.160000 -0.008660 -0.005000
v -0.160000 -0.008660 0.005000
v -0.160000 -0.000000 0.010000
v -0.160000 0.008660 0.005000
v -0.160000 0.008660 -0.005000
vn 0.0000 -0.0251 -0.9997
vn 0.6272 -0.0296 -0.7783
vn 0.9002 -0.0377 -0.4339
vn 0.9026 -0.0378 -0.4287
vn 0.9002 -0.0377 0.4339
vn 0.6272 -0.0296 0.7783
vn 0.0000 -0.0251 0.9997
vn -0.6272 -0.0296 0.7783
vn -0.9002 -0.0377 0.4339
vn 0.0000 1.0000 0.0000
vn -0.9026 -0.0378 0.4287
vn -0.9002 -0.0377 -0.4339
vn -0.6272 -0.0296 -0.7783
vn -0.3313 -0.2693 -0.9042
vn -0.7877 -0.4846 -0.3804
vn -0.8563 -0.3430 -0.3862
vn -0.3056 -0.4032 -0.8625
vn -0.6671 -0.6436 -0.3751
vn 0.3056 -0.4032 -0.8625
vn 0.8563 -0.3430 0.3862
vn 0.7877 -0.4846 -0.3804
vn 0.8563 -0.3430 -0.3862
vn -0.3313 -0.2693 0.9042
vn -0.7877 -0.4846 0.3804
vn -0.3056 -0.4032 0.8625
vn 0.3313 -0.2693 0.9042
vn 0.7877 -0.4846 0.3804
vn -0.8563 -0.3430 0.3862
vn 0.3313 -0.2693 -0.9042
vn 0.3056 -0.4032 0.8625
vn 0.3351 -0.1711 0.9265
vn -0.3196 -0.1704 0.9321
vn 0.3196 -0.1704 0.9321
vn -0.6671 -0.6436 0.3751
vn -0.2528 -0.5475 0.7977
vn 0.6671 -0.6436 0.3751
vn 0.6671 -0.6436 -0.3751
vn 0.2528 -0.5475 -0.7977
vn 0.2528 -0.5475 0.7977
vn -0.2528 -0.5475 -0.7977
vn -0.7457 -0.5749 0.3367
vn -0.7852 -0.4906 -0.3779
vn -0.7852 -0.4906 0.3779
vn 0.8861 -0.2209 0.4075
vn 0.8724 -0.2190 -0.4370
vn 0.8861 -0.2209 -0.4075
vn -0.3351 -0.1711 -0.9265
vn 0.3196 -0.1704 -0.9321
vn -0.3196 -0.1704 -0.9321
vn -0.8724 -0.2190 -0.4370
vn -0.8861 -0.2209 -0.4075
vn -0.3351 -0.1711 0.9265
vn -0.8724 -0.2190 0.4370
vn 0.8724 -0.2190 0.4370
vn 0.3351 -0.1711 -0.9265
vn -0.8861 -0.2209 0.4075
vn -0.6750 -0.7378 0.0000
vn 0.3176 -0.4675 0.8249
vn -0.3165 -0.3922 0.8637
vn 0.3165 -0.3922 0.8637
vn 0.7457 -0.5749 -0.3367
vn 0.7852 -0.4906 0.3779
vn 0.7852 -0.4906 -0.3779
vn -0.3176 -0.4675 -0.8249
vn 0.3165 -0.3922 -0.8637
vn -0.3165 -0.3922 -0.8637
vn -0.7457 -0.5749 -0.3367
vn -0.3176 -0.4675 0.8249
vn 0.7457 -0.5749 0.3367
vn 0.3176 -0.4675 -0.8249
vn 0.2675 -0.7364 -0.6214
vn -0.2675 -0.7364 0.6214
vn -0.2675 -0.7364 -0.6214
vn 0.2675 -0.7364 0.6214
vn 0.6750 -0.7378 0.0000
vn 0.0000 0.0000 -1.0000
vn 0.0000 -0.8660 -0.5000
vn 0.0000 -0.8660 0.5000
vn 0.0000 0.0000 1.0000
vn 0.0000 0.8660 0.5000
vn 1.0000 0.0000 0.0000
vn 0.0000 0.8660 -0.5000
vn -1.0000 0.0000 0.0000
vn 0.9026 -0.0378 0.4287
vn -0.9026 -0.0378 -0.4287
usemtl DrillMaterial
s 1
f 92//1 94//1 91//1
f 71//2 81//3 80//2
f 73//4 82//5 81//3
f 82//5 87//6 88//6
f 75//7 90//7 83//7
f 76//8 85//9 84//8
f 12//10 10//10 2//10
f 77//11 86//12 85//9
f 86//12 72//13 79//13
f 1//14 24//15 15//16
f 17//17 70//18 24//15
f 1//14 18//19 17//17
f 7//20 19//21 5//22
f 11//23 23//24 22//25
f 9//26 20//27 7//20
f 15//16 23//24 13//28
f 3//29 19//21 18//19
f 11//23 21//30 9//26
f 29//31 60//32 59//33
f 22//25 69//34 30//35
f 21//30 66//36 20//27
f 18//19 65//37 64//38
f 23//24 70//18 69//34
f 22//25 67//39 21//30
f 20//27 65//37 19//21
f 18//19 63//40 17//17
f 39//41 48//42 47//43
f 28//44 57//45 27//46
f 25//47 56//48 55//49
f 25//47 40//50 32//51
f 68//52 61//53 60//32
f 29//31 58//54 28//44
f 26//55 57//45 56//48
f 32//51 61//53 31//56
f 47//43 48//42 54//57
f 37//58 46//59 45//60
f 35//61 44//62 43//63
f 33//64 42//65 41//66
f 33//64 48//42 62//67
f 38//68 47//43 46//59
f 37//58 44//62 36//69
f 34//70 43//63 42//65
f 50//71 53//72 49//73
f 46//59 52//74 45//60
f 43//63 44//62 51//75
f 42//65 49//73 41//66
f 41//66 54//57 48//42
f 46//59 54//57 53//72
f 45//60 51//75 44//62
f 42//65 51//75 50//71
f 108//76 114//77 113//76
f 107//77 115//78 114//77
f 109//78 116//79 115//78
f 110//79 117//80 116//79
f 96//81 104//81 98//81
f 111//80 118//82 117//80
f 106//82 113//76 118//82
f 97//83 101//83 105//83
f 92//1 93//1 94//1
f 71//2 73//4 81//3
f 73//4 74//84 82//5
f 82//5 74//84 87//6
f 75//7 89//7 90//7
f 76//8 77//11 85//9
f 6//10 4//10 10//10
f 2//10 78//10 14//10
f 14//10 12//10 2//10
f 10//10 8//10 6//10
f 4//10 2//10 10//10
f 77//11 16//85 86//12
f 86//12 16//85 72//13
f 1//14 17//17 24//15
f 17//17 63//40 70//18
f 1//14 3//29 18//19
f 7//20 20//27 19//21
f 11//23 13//28 23//24
f 9//26 21//30 20//27
f 15//16 24//15 23//24
f 3//29 5//22 19//21
f 11//23 22//25 21//30
f 29//31 68//52 60//32
f 22//25 23//24 69//34
f 21//30 67//39 66//36
f 18//19 19//21 65//37
f 23//24 24//15 70//18
f 22//25 30//35 67//39
f 20//27 66//36 65//37
f 18//19 64//38 63//40
f 39//41 62//67 48//42
f 28//44 58//54 57//45
f 25//47 26//55 56//48
f 25//47 55//49 40//50
f 68//52 31//56 61//53
f 29//31 59//33 58//54
f 26//55 27//46 57//45
f 32//51 40//50 61//53
f 37//58 38//68 46//59
f 35//61 36//69 44//62
f 33//64 34//70 42//65
f 33//64 41//66 48//42
f 38//68 39//41 47//43
f 37//58 45//60 44//62
f 34//70 35//61 43//63
f 54//57 49//73 53//72
f 50//71 51//75 52//74
f 52//74 53//72 50//71
f 46//59 53//72 52//74
f 42//65 50//71 49//73
f 41//66 49//73 54//57
f 46//59 47//43 54//57
f 45//60 52//74 51//75
f 42//65 43//63 51//75
f 108//76 107//77 114//77
f 107//77 109//78 115//78
f 109//78 110//79 116//79
f 110//79 111//80 117//80
f 100//81 98//81 104//81
f 96//81 112//81 104//81
f 104//81 102//81 100//81
f 111//80 106//82 118//82
f 106//82 108//76 113//76
f 105//83 95//83 97//83
f 97//83 99//83 101//83
f 101//83 103//83 105//83
