# Blender v2.77 (sub 0) OBJ File: 'miner.sapphire.blend'
# www.blender.org
mtllib miner_armleft.sapphire.mtl
o Arm.Left_Cube.005
origin -0.170000 0.060000 0.000000
v -0.025339 0.027502 0.034622
v -0.035744 0.036401 -0.000025
v -0.025324 0.027482 -0.034658
v 0.015891 0.011661 -0.004900
v -0.046249 -0.304201 0.050352
v -0.047400 -0.011488 0.050971
v -0.075765 -0.304159 0.035367
v -0.076180 -0.009606 0.035307
v -0.090305 -0.304084 0.000000
v -0.090398 -0.009211 0.000000
v -0.075765 -0.304159 -0.035367
v -0.076180 -0.009606 -0.035307
v -0.046249 -0.304201 -0.050352
v -0.047400 -0.011488 -0.050971
v -0.010224 -0.304138 -0.035647
v 0.004569 -0.304096 -0.000000
v 0.001905 -0.020398 -0.000000
v -0.010224 -0.304138 0.035647
v -0.057376 0.007915 0.034816
v -0.031425 0.000119 0.051125
v -0.070225 0.012753 0.000000
v -0.057376 0.007915 -0.034816
v -0.031425 0.000119 -0.051125
v -0.003246 -0.011706 -0.036191
v -0.003246 -0.011855 0.035550
v -0.044467 -0.326465 0.023268
v -0.058684 -0.325877 0.016864
v -0.065980 -0.325587 0.000000
v -0.058684 -0.325877 -0.016864
v -0.044467 -0.326465 -0.023268
v -0.027338 -0.325904 -0.017007
v -0.019982 -0.325662 -0.000000
v -0.027338 -0.325904 0.017007
v 0.005351 -0.283628 -0.000000
v -0.009642 -0.283628 0.036195
v -0.076390 -0.283628 0.035881
v -0.091082 -0.283628 0.000000
v -0.076390 -0.283628 -0.035881
v -0.046273 -0.283628 0.051178
v -0.046273 -0.283628 -0.051178
v -0.009642 -0.283628 -0.036195
v -0.076390 -0.143507 -0.035881
v -0.009642 -0.143507 -0.036195
v 0.005351 -0.143507 -0.000000
v -0.091082 -0.143507 0.000000
v -0.046273 -0.143507 -0.051178
v -0.046273 -0.143507 0.051178
v -0.076390 -0.143507 0.035881
v -0.009642 -0.143507 0.036195
v 0.049530 0.052546 -0.000585
v 0.036277 0.039689 -0.033713
v 0.037318 0.040689 0.032975
v 0.017692 0.016609 0.050631
v 0.017002 0.015783 -0.050695
v 0.065891 0.010036 -0.009764
v 0.099530 0.050920 -0.005449
v 0.086277 0.038064 -0.038577
v 0.087318 0.039063 0.028111
v 0.067692 0.014984 0.045767
v 0.067002 0.014157 -0.055559
vn -0.3921 0.9199 -0.0011
vn -0.0975 0.8227 -0.5600
vn -0.2814 0.7675 -0.5759
vn -0.2851 0.7666 0.5753
vn 0.2107 -0.1569 0.9649
vn -0.0280 0.8069 0.5900
vn -0.0516 0.9987 0.0037
vn -0.1686 0.1441 -0.9751
vn -0.4938 0.6518 -0.5755
vn -0.0409 0.0901 -0.9951
vn -0.0369 0.0831 0.9958
vn -0.4937 0.6519 0.5755
vn -0.7201 0.3179 0.6167
vn -0.6517 0.7584 0.0000
vn -0.9401 0.3409 0.0000
vn 0.6894 -0.3900 -0.6103
vn -0.1648 0.1432 0.9759
vn 0.7003 -0.3866 0.6000
vn -0.7201 0.3179 -0.6167
vn 0.1551 -0.1756 -0.9721
vn 0.5039 -0.8637 -0.0065
vn -0.0409 -0.0199 0.9990
vn -0.7358 0.0004 0.6771
vn -0.7351 -0.0194 0.6776
vn 0.9998 -0.0190 0.0000
vn 0.7077 0.0037 0.7065
vn 0.7054 -0.0193 0.7085
vn -0.0409 -0.0199 -0.9990
vn 0.7077 0.0034 -0.7065
vn 0.7054 -0.0193 -0.7085
vn -1.0000 0.0018 0.0000
vn -0.9998 -0.0189 0.0000
vn -0.0397 0.0006 0.9992
vn 0.9999 0.0139 0.0000
vn -0.7358 0.0004 -0.6771
vn -0.7351 -0.0194 -0.6776
vn -0.0397 0.0006 -0.9992
vn 0.9803 -0.1972 0.0086
vn 0.0869 -0.2282 0.9697
vn 0.0794 0.8405 0.5359
vn -0.0996 -0.1047 -0.9895
vn 0.0298 0.9991 -0.0276
vn -0.0250 0.8422 -0.5386
vn -0.0331 -0.9994 -0.0058
vn -0.0388 -0.4076 0.9123
vn -0.6701 -0.4028 0.6234
vn -0.9185 -0.3954 0.0000
vn -0.6701 -0.4028 -0.6234
vn -0.0388 -0.4076 -0.9123
vn 0.6448 -0.4006 -0.6510
vn 0.9181 -0.3963 0.0000
vn 0.6448 -0.4006 0.6510
vn -0.3110 -0.9112 0.2700
vn -0.3110 -0.9112 -0.2700
vn -0.4310 -0.9023 0.0000
vn -0.0133 -0.9283 -0.3717
vn 0.2990 -0.9093 -0.2895
vn 0.2990 -0.9093 0.2895
vn 0.4281 -0.9037 0.0000
vn -0.0133 -0.9283 0.3717
usemtl Shirt
s 1
f 2//1 51//2 3//3
f 1//4 53//5 52//6
f 2//1 52//6 50//7
f 14//8 22//9 23//10
f 20//11 1//4 19//12
f 8//13 21//14 10//15
f 24//16 14//8 23//10
f 6//17 25//18 20//11
f 6//17 19//12 8//13
f 12//19 21//14 22//9
f 53//5 20//11 25//18
f 24//16 23//10 54//20
f 23//10 3//3 54//20
f 19//12 2//1 21//14
f 25//18 4//21 53//5
f 22//9 2//1 3//3
f 54//20 3//3 51//2
f 39//22 48//23 36//24
f 34//25 49//26 35//27
f 40//28 43//29 41//30
f 36//24 45//31 37//32
f 35//27 47//33 39//22
f 41//30 44//34 34//25
f 37//32 42//35 38//36
f 38//36 46//37 40//28
f 43//29 17//38 44//34
f 43//29 14//8 24//16
f 45//31 12//19 42//35
f 42//35 14//8 46//37
f 45//31 8//13 10//15
f 48//23 6//17 8//13
f 49//26 6//17 47//33
f 49//26 17//38 25//18
f 24//16 4//21 17//38
f 52//6 59//39 58//40
f 51//2 60//41 54//20
f 50//7 58//40 56//42
f 50//7 57//43 51//2
f 54//20 55//44 4//21
f 4//21 59//39 53//5
f 2//1 50//7 51//2
f 2//1 1//4 52//6
f 14//8 12//19 22//9
f 20//11 53//5 1//4
f 8//13 19//12 21//14
f 6//17 20//11 19//12
f 12//19 10//15 21//14
f 23//10 22//9 3//3
f 19//12 1//4 2//1
f 25//18 17//38 4//21
f 22//9 21//14 2//1
f 39//22 47//33 48//23
f 34//25 44//34 49//26
f 40//28 46//37 43//29
f 36//24 48//23 45//31
f 35//27 49//26 47//33
f 41//30 43//29 44//34
f 37//32 45//31 42//35
f 38//36 42//35 46//37
f 43//29 24//16 17//38
f 43//29 46//37 14//8
f 45//31 10//15 12//19
f 42//35 12//19 14//8
f 45//31 48//23 8//13
f 48//23 47//33 6//17
f 49//26 25//18 6//17
f 49//26 44//34 17//38
f 24//16 54//20 4//21
f 52//6 53//5 59//39
f 51//2 57//43 60//41
f 50//7 52//6 58//40
f 50//7 56//42 57//43
f 54//20 60//41 55//44
f 4//21 55//44 59//39
usemtl Body
f 5//45 36//24 7//46
f 36//24 9//47 7//46
f 9//47 38//36 11//48
f 38//36 13//49 11//48
f 40//28 15//50 13//49
f 41//30 16//51 15//50
f 16//51 35//27 18//52
f 18//52 39//22 5//45
f 9//47 27//53 7//46
f 9//47 29//54 28//55
f 11//48 30//56 29//54
f 15//50 30//56 13//49
f 16//51 31//57 15//50
f 16//51 33//58 32//59
f 18//52 26//60 33//58
f 29//54 32//59 28//55
f 7//46 26//60 5//45
f 5//45 39//22 36//24
f 36//24 37//32 9//47
f 9//47 37//32 38//36
f 38//36 40//28 13//49
f 40//28 41//30 15//50
f 41//30 34//25 16//51
f 16//51 34//25 35//27
f 18//52 35//27 39//22
f 9//47 28//55 27//53
f 9//47 11//48 29//54
f 11//48 13//49 30//56
f 15//50 31//57 30//56
f 16//51 32//59 31//57
f 16//51 18//52 33//58
f 18//52 5//45 26//60
f 33//58 26//60 27//53
f 27//53 28//55 32//59
f 29//54 30//56 31//57
f 31//57 32//59 29//54
f 33//58 27//53 32//59
f 7//46 27//53 26//60
