# Blender v2.77 (sub 0) OBJ File: 'miner.sapphire.blend'
# www.blender.org
mtllib miner_legright.sapphire.mtl
o Leg.Right_Cube.001
origin 0.100000 -0.200000 0.000000
v 0.044497 -0.299973 -0.049497
v 0.065000 -0.299973 0.000000
v -0.075000 -0.299973 0.000000
v -0.054497 -0.299973 -0.049497
v -0.032933 -0.283089 0.159386
v -0.046402 -0.298904 0.164182
v -0.005000 -0.267348 0.139282
v 0.022933 -0.283089 0.159386
v 0.036402 -0.298904 0.164182
v -0.054497 -0.286160 0.049497
v 0.044497 -0.285943 0.049497
v 0.044497 -0.155653 0.049497
v -0.005000 -0.155653 0.070000
v 0.065000 -0.155653 0.000000
v 0.044497 -0.155653 -0.049497
v -0.054497 -0.155653 -0.049497
v -0.054497 -0.155653 0.049497
v -0.075000 -0.155653 0.000000
v -0.005000 -0.155653 -0.070000
v -0.005000 -0.267348 0.070000
v -0.005000 -0.299973 -0.070000
v 0.044497 0.018666 -0.049497
v 0.065000 0.018666 0.000000
v 0.044497 0.018666 0.049497
v -0.005000 0.018666 0.070000
v -0.075000 0.018666 0.000000
v -0.054497 0.018666 -0.049497
v -0.054497 0.018666 0.049497
v -0.005000 0.018666 -0.070000
v 0.044497 -0.285943 0.049497
v -0.054497 -0.286160 0.049497
v -0.005000 -0.267348 0.070000
v 0.044497 -0.299973 -0.049497
v 0.065000 -0.299973 0.000000
v -0.075000 -0.299973 0.000000
v -0.054497 -0.299973 -0.049497
v -0.005000 -0.299973 -0.070000
vn -0.7071 0.0000 -0.7071
vn -1.0000 0.0000 0.0000
vn 0.7071 0.0000 -0.7071
vn 0.9993 0.0000 -0.0367
vn 1.0000 0.0000 0.0000
vn 0.7611 0.0000 0.6486
vn -0.7612 0.0000 0.6485
vn -0.9993 0.0000 -0.0361
vn 0.0000 0.0000 -1.0000
vn 0.7071 0.0000 0.7071
vn 0.0000 0.0000 1.0000
vn -0.7071 0.0000 0.7071
vn -0.0004 0.0000 1.0000
vn 0.6678 0.7374 0.1012
vn 0.6788 -0.3247 0.6586
vn 0.1046 -0.9943 0.0215
vn -0.6793 -0.3245 0.6582
vn -0.6644 0.7406 0.1003
vn -0.1030 -0.9944 0.0212
vn -0.0006 0.9726 0.2326
vn -0.0019 1.0000 0.0000
vn 0.3658 0.7075 0.6046
vn 0.0000 -1.0000 0.0000
vn -0.3662 0.7077 0.6041
usemtl Pants
s 1
f 4//1 18//2 16//1
f 15//3 2//4 1//3
f 14//5 11//6 2//4
f 10//7 18//2 3//8
f 19//9 22//3 15//3
f 14//5 24//10 12//10
f 13//11 28//12 17//12
f 18//2 27//1 16//1
f 15//3 23//5 14//5
f 12//10 25//11 13//11
f 17//12 26//2 18//2
f 19//9 27//1 29//9
f 32//13 12//10 13//11
f 32//13 17//12 10//7
f 19//9 1//3 37//9
f 16//1 37//9 4//1
f 4//1 3//8 18//2
f 15//3 14//5 2//4
f 14//5 12//10 11//6
f 10//7 17//12 18//2
f 19//9 29//9 22//3
f 14//5 23//5 24//10
f 13//11 25//11 28//12
f 18//2 26//2 27//1
f 15//3 22//3 23//5
f 12//10 24//10 25//11
f 17//12 28//12 26//2
f 19//9 16//1 27//1
f 32//13 11//6 12//10
f 32//13 13//11 17//12
f 19//9 15//3 1//3
f 16//1 19//9 37//9
usemtl Shoes
f 30//14 9//15 34//16
f 6//17 31//18 35//19
f 31//18 7//20 20//21
f 30//14 7//20 8//22
f 35//19 36//23 33//23
f 7//20 5//24 8//22
f 5//24 9//15 8//22
f 30//14 8//22 9//15
f 6//17 5//24 31//18
f 31//18 5//24 7//20
f 30//14 20//21 7//20
f 34//16 9//15 6//17
f 6//17 35//19 34//16
f 36//23 21//23 33//23
f 33//23 34//16 35//19
f 5//24 6//17 9//15
