# Blender v2.77 (sub 0) OBJ File: 'miner.sapphire.blend'
# www.blender.org
mtllib miner_legleft.sapphire.mtl
o Leg.Left_Cube.000
origin -0.100000 -0.200000 0.000000
v 0.054497 -0.299973 -0.049497
v 0.075000 -0.299973 0.000000
v -0.044497 -0.299973 -0.049497
v -0.022933 -0.283092 0.159384
v 0.032933 -0.283092 0.159384
v 0.005000 -0.267351 0.139281
v -0.036402 -0.298907 0.164180
v 0.046402 -0.298907 0.164180
v 0.054497 -0.285946 0.049497
v 0.005000 -0.299973 -0.070000
v -0.065000 -0.299973 -0.000000
v 0.054497 -0.155653 -0.049497
v -0.065000 -0.155653 -0.000000
v 0.005000 -0.155653 -0.070000
v -0.044497 -0.155653 0.049497
v 0.054497 -0.155653 0.049497
v 0.005000 -0.155653 0.070000
v 0.075000 -0.155653 0.000000
v -0.044497 -0.155653 -0.049497
v 0.005000 -0.267351 0.070000
v -0.044497 -0.286163 0.049497
v 0.054497 0.018666 0.049497
v 0.075000 0.018666 0.000000
v 0.005000 0.018666 0.070000
v 0.054497 0.018666 -0.049497
v -0.044497 0.018666 0.049497
v -0.065000 0.018666 -0.000000
v 0.005000 0.018666 -0.070000
v -0.044497 0.018666 -0.049497
v 0.054497 -0.285946 0.049497
v 0.005000 -0.267351 0.070000
v -0.044497 -0.286163 0.049497
v 0.054497 -0.299973 -0.049497
v 0.075000 -0.299973 0.000000
v 0.005000 -0.299973 -0.070000
v -0.044497 -0.299973 -0.049497
v -0.065000 -0.299973 -0.000000
vn -1.0000 0.0000 0.0000
vn -0.7071 0.0000 -0.7071
vn -0.9993 0.0000 -0.0361
vn -0.7612 0.0000 0.6485
vn 0.7071 0.0000 -0.7071
vn 1.0000 0.0000 0.0000
vn 0.7071 0.0000 0.7071
vn 0.0000 0.0000 1.0000
vn -0.7071 0.0000 0.7071
vn 0.0000 0.0000 -1.0000
vn -0.0004 0.0000 1.0000
vn 0.7611 0.0000 0.6486
vn 0.9993 0.0000 -0.0367
vn 0.6677 0.7374 0.1012
vn -0.0006 0.9726 0.2326
vn 0.3658 0.7075 0.6046
vn -0.6644 0.7406 0.1003
vn -0.0019 1.0000 0.0000
vn -0.6793 -0.3245 0.6582
vn -0.1030 -0.9944 0.0211
vn 0.6788 -0.3247 0.6586
vn 0.1046 -0.9943 0.0214
vn 0.0000 -1.0000 0.0000
vn -0.3662 0.7077 0.6041
usemtl Pants
s 1
f 13//1 3//2 37//3
f 21//4 13//1 37//3
f 25//5 18//6 12//5
f 22//7 17//8 16//7
f 26//9 13//1 15//9
f 29//2 14//10 19//2
f 14//10 25//5 12//5
f 23//6 16//7 18//6
f 24//8 15//9 17//8
f 27//1 19//2 13//1
f 10//10 12//5 1//5
f 20//11 15//9 21//4
f 16//7 20//11 9//12
f 12//5 2//13 1//5
f 18//6 9//12 2//13
f 19//2 10//10 3//2
f 13//1 19//2 3//2
f 21//4 15//9 13//1
f 25//5 23//6 18//6
f 22//7 24//8 17//8
f 26//9 27//1 13//1
f 29//2 28//10 14//10
f 14//10 28//10 25//5
f 23//6 22//7 16//7
f 24//8 26//9 15//9
f 27//1 29//2 19//2
f 10//10 14//10 12//5
f 20//11 17//8 15//9
f 16//7 17//8 20//11
f 12//5 18//6 2//13
f 18//6 16//7 9//12
f 19//2 14//10 10//10
usemtl Shoes
f 30//14 6//15 5//16
f 32//17 6//15 31//18
f 7//19 32//17 11//20
f 30//14 8//21 34//22
f 11//20 36//23 33//23
f 6//15 4//24 5//16
f 4//24 8//21 5//16
f 30//14 31//18 6//15
f 32//17 4//24 6//15
f 7//19 4//24 32//17
f 30//14 5//16 8//21
f 34//22 8//21 7//19
f 7//19 11//20 34//22
f 36//23 35//23 33//23
f 33//23 34//22 11//20
f 4//24 7//19 8//21
