# Blender v2.77 (sub 0) OBJ File: 'pusher.sapphire.blend'
# www.blender.org
mtllib pusher.sapphire.mtl
o Cube
v -0.065464 -0.319800 0.244152
v -0.055646 -0.295455 -0.150146
v -0.071681 0.035438 0.205715
v -0.111054 0.035438 -0.205103
v 0.045732 -0.291595 -0.092080
v 0.040129 -0.308678 0.127524
v 0.073996 -0.085349 -0.083684
v -0.337894 0.172544 -0.233470
v -0.326853 0.200321 -0.136732
v 0.021392 -0.319430 0.001177
v 0.054391 -0.191322 -0.131179
v 0.060784 -0.196993 0.130435
v -0.252367 0.235876 -0.242127
v -0.059680 -0.358708 0.000435
v -0.083261 -0.163987 0.265136
v -0.067127 -0.150582 -0.220833
v -0.077734 0.091980 -0.068164
v 0.073996 -0.085349 0.085477
v 0.068703 -0.054725 0.000896
v -0.229391 0.260837 -0.144744
v -0.184251 -0.143291 0.191943
v -0.192521 -0.022201 0.177552
v -0.228107 0.019045 -0.075238
v -0.086699 0.081554 0.068775
v -0.220055 0.017254 0.062772
v -0.135664 0.125169 0.202281
v -0.230705 0.066207 0.204692
v -0.145674 0.170373 0.103426
v -0.261844 0.105244 0.082441
v -0.152281 0.182059 0.041790
v -0.159325 0.186569 -0.059172
v -0.251993 0.124973 0.045464
v -0.264552 0.121365 -0.056279
v -0.164922 0.164820 -0.110378
v -0.183942 0.133514 -0.222170
v -0.282050 0.102507 -0.106892
v -0.274586 0.068386 -0.216088
v -0.210634 0.226878 0.215116
v -0.295494 0.177487 0.215506
v -0.224734 0.270891 0.122471
v -0.322211 0.209105 0.110762
v -0.245551 0.299755 0.042815
v -0.255703 0.301112 -0.052746
v -0.331709 0.241494 0.042057
v -0.341310 0.237830 -0.047268
v -0.226198 -0.324886 0.354192
v -0.253243 -0.211718 0.364861
v -0.264726 -0.324886 0.256523
v -0.291771 -0.211718 0.267192
v -0.304292 -0.332365 0.368997
v -0.330524 -0.232134 0.371965
v -0.315010 -0.332365 0.274261
v -0.341243 -0.232134 0.277229
v -0.428609 -0.326433 0.357959
v -0.395466 -0.336531 0.370142
v -0.418636 -0.251220 0.372764
v -0.434990 -0.276635 0.358184
v -0.402994 -0.333361 0.289999
v -0.423281 -0.320205 0.308360
v -0.440913 -0.278068 0.315149
v -0.412776 -0.252903 0.291695
v -0.379477 0.261342 -0.239292
v -0.379450 0.293405 -0.226614
v -0.335775 0.324159 -0.231671
v -0.303012 0.309606 -0.254228
v -0.286013 0.329018 -0.175006
v -0.324482 0.332644 -0.182971
v -0.366547 0.305160 -0.182564
v -0.365518 0.279121 -0.163054
v -0.270759 0.305010 0.224763
v -0.311041 0.308780 0.214116
v -0.350174 0.278154 0.208697
v -0.329624 0.243682 0.222389
v -0.289020 0.331632 0.143233
v -0.317314 0.326851 0.163772
v -0.355986 0.295209 0.150626
v -0.350358 0.256544 0.127898
v -0.332761 0.382020 0.016672
v -0.307661 0.367954 0.034093
v -0.304337 0.369420 -0.052026
v -0.337103 0.382396 -0.032753
v -0.381440 0.324505 0.036124
v -0.380913 0.351610 0.019608
v -0.385123 0.355607 -0.027670
v -0.385664 0.320738 -0.041887
v -0.170828 -0.144999 -0.005856
v -0.050895 -0.060616 0.228540
v -0.178140 -0.077552 0.185012
v -0.134294 -0.010843 0.208742
v -0.143984 -0.132758 0.229599
v -0.114308 -0.064273 0.218566
v -0.262850 -0.187508 0.318081
v -0.433564 -0.244591 0.336657
v -0.445706 -0.269032 0.337853
v -0.341214 -0.220823 0.328651
v -0.320638 -0.288223 0.382208
v -0.227186 -0.278072 0.367809
v -0.059256 -0.255321 0.278728
v -0.413890 -0.295025 0.385516
v -0.431458 -0.300123 0.368687
v -0.130932 -0.339842 0.224401
v -0.309049 -0.350616 0.325064
v -0.405630 -0.351872 0.333497
v -0.229706 -0.341120 0.305211
v -0.426152 -0.334641 0.335645
v -0.269772 -0.262956 0.252777
v -0.206785 -0.234052 0.170578
v -0.436074 -0.297474 0.304495
v -0.415398 -0.293458 0.283061
v -0.331862 -0.280251 0.269756
v -0.224011 0.260190 -0.195114
v -0.325590 0.335740 -0.206801
v -0.276479 0.324886 -0.208325
v -0.157563 0.161000 -0.167952
v -0.084608 0.073080 -0.139019
v -0.285544 0.379480 -0.010623
v -0.071490 0.097668 0.000935
v -0.326747 0.391752 -0.008259
v -0.236371 0.310760 -0.008253
v -0.138482 0.196119 -0.010306
v -0.126997 0.158196 0.153149
v -0.306350 0.330036 0.187836
v -0.204011 0.259310 0.169089
v -0.064783 0.073143 0.138322
v -0.267536 0.327256 0.184093
v -0.297019 0.266036 0.242980
v -0.169937 0.087612 0.223750
v -0.253734 0.200161 0.237738
v -0.331430 0.289403 0.222743
v -0.341303 0.310455 0.148696
v -0.185858 0.122173 0.072476
v -0.153852 0.067539 0.062828
v -0.274985 0.258161 0.102166
v -0.322971 0.302118 0.125795
v -0.331021 0.188451 0.164322
v -0.363982 0.276972 0.175549
v -0.358084 0.233690 0.172725
v -0.250767 0.068124 0.140601
v -0.221816 0.000423 0.117725
v -0.115008 -0.340562 -0.004044
v -0.154661 -0.302537 -0.005924
v -0.170124 -0.237750 -0.152917
v -0.122685 -0.277095 -0.162361
v -0.133496 -0.144037 -0.217087
v -0.190235 -0.149653 -0.187673
v -0.243937 -0.002625 -0.207476
v -0.201697 -0.286545 0.152092
v -0.311938 0.304170 -0.150105
v -0.185563 0.100111 -0.072054
v -0.276877 0.231584 -0.123948
v -0.235866 0.158837 -0.099851
v -0.342662 0.318843 -0.173478
v -0.343762 0.341599 -0.061091
v -0.360458 0.370504 -0.033947
v -0.296964 0.265896 -0.070990
v -0.212929 0.153701 -0.074448
v -0.356955 0.367069 0.024805
v -0.343809 0.349454 0.051293
v -0.290743 0.268548 0.057023
v -0.201185 0.152917 0.059886
v -0.355262 0.237027 -0.002075
v -0.237805 0.019100 -0.002582
v -0.391996 0.351780 -0.005262
v -0.277025 0.120534 -0.004878
v -0.404674 0.320011 -0.004369
v -0.380317 0.292071 -0.207333
v -0.351463 0.186433 -0.189640
v -0.247640 0.009533 -0.137309
v -0.395136 0.263455 -0.205806
v -0.296661 0.085447 -0.164057
v -0.362860 0.306875 -0.237422
v -0.231637 0.100950 -0.236510
v -0.177496 0.016406 -0.215477
v -0.343775 0.276040 -0.263195
v -0.298250 0.204210 -0.257152
v 0.041489 -0.311342 -0.116994
v 0.230461 -0.349832 -0.083941
v 0.228336 -0.393588 -0.004707
v 0.232250 -0.358164 0.072627
v 0.034491 -0.332679 0.157285
v 0.008511 -0.370843 -0.002867
v 0.055862 -0.187463 -0.177878
v 0.076791 -0.053748 -0.106507
v 0.276868 -0.193483 -0.077343
v 0.261917 -0.279743 -0.106654
v 0.065443 -0.193623 0.175812
v 0.285803 -0.159794 -0.002358
v 0.263513 -0.278820 0.104777
v 0.070180 -0.015500 -0.000869
v 0.076791 -0.053748 0.104770
v 0.276869 -0.193483 0.072627
v 0.021392 -0.319430 0.001177
v 0.045732 -0.291595 -0.092080
v 0.054391 -0.191322 -0.131179
v 0.073996 -0.085349 -0.083684
v 0.060784 -0.196993 0.130435
v 0.040129 -0.308678 0.127524
v 0.068703 -0.054725 0.000896
v 0.073996 -0.085349 0.085477
v -0.185563 0.100111 -0.072054
v -0.153852 0.067539 0.062828
vn 0.7193 0.4602 -0.5204
vn 0.5716 -0.0955 -0.8149
vn 0.4855 0.2481 -0.8383
vn 0.5930 -0.7135 0.3731
vn 0.6297 -0.0684 0.7738
vn 0.4822 -0.7350 0.4767
vn 0.7295 0.5701 -0.3777
vn 0.7463 0.6653 -0.0184
vn 0.1567 -0.7185 -0.6776
vn 0.2905 -0.0997 -0.9516
vn -0.9965 0.0704 0.0445
vn -0.4343 0.2341 0.8698
vn -0.3661 0.7230 0.5858
vn -0.9960 0.0885 -0.0121
vn -0.4898 0.1279 -0.8624
vn -0.9892 0.1459 -0.0127
vn -0.9746 0.2226 -0.0250
vn -0.7762 -0.6240 -0.0895
vn -0.9691 0.2450 -0.0280
vn 0.4133 -0.7082 -0.5723
vn 0.0573 -0.9885 -0.1396
vn 0.7733 0.6250 0.1068
vn 0.6817 0.7291 0.0604
vn -0.9839 -0.1784 0.0053
vn -0.7918 -0.3274 -0.5155
vn -0.8176 -0.4271 -0.3861
vn 0.7620 0.0479 0.6458
vn 0.3988 0.2513 0.8819
vn 0.3707 0.3787 0.8480
vn -0.8740 -0.4763 0.0964
vn -0.6706 -0.4378 -0.5988
vn -0.6026 -0.4733 -0.6425
vn 0.7955 0.5352 -0.2840
vn 0.3486 0.8485 0.3982
vn 0.5595 0.6052 0.5663
vn -0.2474 -0.0395 0.9681
vn -0.8635 0.0229 0.5038
vn -0.3148 0.2079 0.9261
vn -0.8502 -0.4957 -0.1774
vn -0.7461 -0.3274 0.5798
vn 0.0616 -0.0629 0.9961
vn -0.5693 -0.4423 0.6930
vn -0.6688 -0.3664 -0.6468
vn -0.2812 0.9256 0.2532
vn 0.0876 0.5755 0.8131
vn -0.8128 -0.4665 -0.3489
vn -0.0107 -0.9992 0.0370
vn -0.3261 -0.7055 -0.6292
vn 0.7661 0.6225 0.1598
vn -0.0768 0.1237 0.9893
vn -0.5591 -0.2458 0.7918
vn -0.9686 -0.2477 0.0195
vn 0.0261 -0.0638 0.9976
vn -0.5912 -0.4215 0.6876
vn 0.0177 0.2519 -0.9676
vn 0.5836 0.5755 -0.5729
vn -0.8759 -0.4759 0.0793
vn -0.6504 -0.2091 -0.7302
vn 0.5895 0.3785 0.7136
vn 0.5159 0.3508 0.7815
vn -0.0463 0.0396 0.9981
vn -0.5595 -0.3265 0.7618
vn 0.5416 0.4378 0.7176
vn -0.9385 -0.3379 0.0712
vn -0.6515 -0.2930 -0.6997
vn -0.9558 -0.2521 0.1509
vn -0.0423 0.0624 -0.9971
vn 0.4616 0.4234 -0.7795
vn 0.7049 0.6724 -0.2257
vn 0.0493 -0.1772 -0.9829
vn 0.5149 0.2184 -0.8289
vn 0.5342 0.1984 -0.8217
vn 0.0320 -0.0879 -0.9956
vn -0.1334 0.3513 0.9267
vn -0.6913 -0.1400 0.7088
vn 0.5046 0.6623 0.5538
vn -0.1243 0.2882 0.9494
vn -0.6425 -0.0785 0.7622
vn 0.8069 0.5288 -0.2632
vn 0.7686 0.6366 -0.0621
vn 0.3319 0.6542 0.6796
vn 0.5061 0.4837 0.7140
vn -0.6043 0.7571 -0.2482
vn -0.8068 0.2438 0.5382
vn -0.4855 0.8731 -0.0437
vn -0.8805 -0.4607 0.1115
vn -0.6763 -0.3618 -0.6417
vn -0.0279 0.3134 -0.9492
vn 0.5350 0.6142 -0.5801
vn 0.8057 0.5702 0.1603
vn 0.5906 0.3533 0.7255
vn -0.0055 -0.0038 -1.0000
vn 0.4952 0.4140 -0.7638
vn 0.7780 0.6278 -0.0236
vn -0.8531 -0.5153 0.0813
vn -0.6592 -0.1666 -0.7332
vn 0.0558 -0.9981 0.0251
vn -0.1429 -0.6672 -0.7310
vn 0.3189 -0.6428 0.6965
vn -0.8950 0.1442 -0.4222
vn -0.5877 0.5871 -0.5566
vn -0.8867 0.4608 0.0370
vn -0.6033 -0.0428 -0.7963
vn -0.2288 -0.0104 -0.9734
vn -0.4717 0.5660 -0.6761
vn -0.3580 0.6016 -0.7140
vn -0.2982 0.9525 0.0623
vn -0.1155 0.6416 0.7583
vn 0.3375 -0.0386 0.9405
vn 0.1240 -0.6489 0.7507
vn -0.3785 -0.6195 -0.6876
vn -0.4472 0.5663 0.6923
vn 0.0662 -0.0471 0.9967
vn -0.1383 -0.6871 0.7133
vn -0.3399 -0.0671 0.9380
vn -0.7695 -0.4971 0.4008
vn -0.7279 -0.5154 -0.4523
vn -0.4817 -0.0558 -0.8745
vn -0.9469 0.0679 -0.3142
vn -0.6669 0.7449 0.0177
vn -0.3258 -0.9454 -0.0092
vn -0.8734 -0.1989 -0.4445
vn -0.8516 -0.1236 0.5094
vn -0.8956 -0.4077 0.1781
vn -0.7549 -0.1413 -0.6403
vn 0.7751 0.6149 0.1455
vn 0.3069 0.6174 0.7243
vn -0.6855 -0.0134 0.7279
vn -0.2386 0.2411 -0.9407
vn 0.2754 0.6005 -0.7506
vn -0.9224 -0.3689 0.1141
vn -0.7550 -0.0160 -0.6555
vn -0.1097 0.4850 0.8676
vn -0.6669 0.1550 0.7288
vn -0.5535 0.6594 -0.5087
vn -0.7249 0.5996 0.3390
vn -0.2994 0.8374 -0.4572
vn 0.0991 0.8805 -0.4635
vn -0.8518 -0.5148 0.0970
vn -0.7174 -0.0714 -0.6930
vn -0.6202 -0.2771 0.7338
vn -0.0908 0.9945 0.0511
vn -0.4803 0.7597 -0.4384
vn -0.1672 0.9013 0.3996
vn -0.7988 0.5117 -0.3163
vn -0.2269 0.9065 0.3561
vn -0.8141 0.5653 0.1329
vn -0.1991 0.9712 -0.1305
vn -0.3212 0.7289 0.6046
vn -0.1141 0.1087 0.9875
vn 0.4466 0.8728 0.1967
vn -0.8423 0.4808 -0.2436
vn -0.3311 0.5046 -0.7973
vn 0.6069 0.7947 0.0098
vn -0.6851 0.5579 0.4683
vn -0.9934 -0.1083 0.0378
vn -0.2199 0.8468 -0.4842
vn -0.1817 0.3667 0.9124
vn -0.2587 0.1008 -0.9607
vn 0.2525 0.5325 -0.8078
vn -0.9013 -0.4075 0.1469
vn -0.2292 -0.1917 -0.9543
vn -0.3355 -0.6798 -0.6522
vn -0.4632 -0.8641 -0.1968
vn -0.3581 0.6152 0.7024
vn -0.8990 0.0745 0.4314
vn 0.0999 -0.9936 0.0531
vn 0.5745 0.7767 -0.2582
vn -0.3193 0.8781 0.3563
vn -0.5453 0.4701 0.6940
vn -0.9102 -0.4062 0.0810
vn -0.9654 0.2255 0.1312
vn -0.0968 0.2795 0.9552
vn -0.4516 0.7127 0.5367
vn -0.7014 0.5788 -0.4160
vn -0.0862 0.0360 -0.9956
vn 0.0244 0.0409 0.9988
vn -0.4552 0.7829 0.4240
vn -0.9933 -0.0700 0.0915
vn -0.0224 -0.1359 -0.9904
vn 0.5552 -0.7093 0.4342
vn 0.5454 -0.8373 -0.0366
vn 0.8342 0.2597 -0.4864
vn 0.7240 -0.2351 -0.6484
vn 0.8390 0.2696 0.4726
vn 0.7638 -0.1940 0.6155
vn 0.9018 0.4321 -0.0011
vn -0.4141 0.9102 -0.0008
vn -0.3604 0.7375 -0.5711
vn -0.5758 -0.4362 0.6915
vn -0.6528 -0.4187 -0.6313
vn 0.4837 -0.6655 -0.5683
vn -0.9993 0.0378 0.0030
vn -0.9645 0.2599 0.0466
vn -0.9823 0.1651 0.0886
vn 0.7957 0.4226 0.4339
vn 0.4353 -0.8972 -0.0742
vn -0.0195 0.1628 -0.9864
vn -0.9910 -0.0239 0.1318
vn -0.7927 -0.6031 -0.0888
vn -0.7882 0.6091 0.0873
usemtl Material
s 1
f 195//1 194//2 4//3
f 197//4 98//5 1//6
f 195//1 115//7 198//8
f 194//2 2//9 16//10
f 18//11 186//12 190//13
f 7//14 182//15 11//16
f 193//17 181//18 192//19
f 5//20 14//21 2//9
f 198//8 117//22 24//23
f 86//24 145//25 142//26
f 196//27 87//28 15//29
f 170//30 8//31 37//32
f 14//21 197//4 1//6
f 111//33 66//34 20//35
f 89//36 88//37 91//38
f 142//26 141//39 86//24
f 22//40 127//41 27//42
f 145//25 86//24 146//43
f 15//29 92//44 47//45
f 86//24 141//39 147//46
f 101//47 48//48 147//46
f 24//23 124//49 198//8
f 132//50 32//51 25//52
f 27//42 128//53 39//54
f 24//23 131//55 28//56
f 25//52 138//57 29//58
f 124//49 26//59 3//60
f 32//51 159//61 44//62
f 117//22 30//63 24//23
f 162//64 33//65 23//66
f 149//67 31//68 17//69
f 172//70 13//71 35//72
f 173//73 35//72 4//3
f 200//74 36//75 23//66
f 115//7 34//76 17//69
f 151//77 9//78 36//75
f 114//79 20//35 34//76
f 119//80 79//81 42//82
f 130//83 72//84 75//85
f 164//86 45//87 33//65
f 28//56 133//88 40//89
f 121//90 38//91 26//59
f 156//92 43//93 31//68
f 120//94 42//82 30//63
f 29//58 135//95 41//96
f 48//48 102//97 52//98
f 98//5 46//99 1//6
f 107//100 49//101 21//102
f 106//103 147//46 48//48
f 110//104 61//105 53//106
f 49//101 110//104 53//106
f 47//45 95//107 51//108
f 97//109 50//110 46//99
f 102//97 58//111 52//98
f 95//107 56//112 51//108
f 96//113 55//114 50//110
f 99//115 54//116 55//114
f 59//117 109//118 58//111
f 60//119 93//120 61//105
f 54//116 103//121 55//114
f 60//119 108//122 100//123
f 167//124 62//125 8//31
f 123//126 70//127 38//91
f 159//61 82//128 44//62
f 43//93 153//129 80//130
f 41//96 137//131 77//132
f 9//78 148//133 69//134
f 171//135 68//136 64//137
f 133//88 74//138 40//89
f 161//139 85//140 45//87
f 128//53 73//141 39//54
f 118//142 154//143 78//144
f 171//135 62//125 63//145
f 67//146 148//133 66//34
f 166//147 69//134 68//136
f 66//34 112//148 67//146
f 71//149 126//150 70//127
f 125//151 71//149 70//127
f 72//84 137//131 73//141
f 76//152 134//153 77//132
f 116//154 78//144 79//81
f 83//155 165//156 82//128
f 153//129 81//157 80//130
f 158//158 83//155 82//128
f 13//71 174//159 65//160
f 168//161 37//32 146//43
f 162//64 86//24 25//52
f 4//3 144//162 173//73
f 16//10 143//163 144//162
f 14//21 101//47 140//164
f 90//165 88//37 21//102
f 15//29 91//38 90//165
f 87//28 89//36 91//38
f 92//44 21//102 49//101
f 95//107 61//105 93//120
f 95//107 49//101 53//106
f 93//120 57//166 56//112
f 96//113 56//112 99//115
f 96//113 47//45 51//108
f 99//115 57//166 100//123
f 97//109 15//29 47//45
f 101//47 46//99 104//167
f 102//97 46//99 50//110
f 103//121 59//117 58//111
f 102//97 55//114 103//121
f 110//104 48//48 52//98
f 109//118 60//119 61//105
f 107//100 86//24 147//46
f 110//104 58//111 109//118
f 111//33 35//72 13//71
f 113//168 13//71 65//160
f 114//79 4//3 35//72
f 112//148 65//160 64//137
f 118//142 80//130 81//157
f 119//80 31//68 43//93
f 116//154 43//93 80//130
f 120//94 17//69 31//68
f 121//90 24//23 28//56
f 122//169 74//138 75//85
f 123//126 28//56 40//89
f 125//151 40//89 74//138
f 129//170 73//141 126//150
f 126//150 38//91 70//127
f 127//41 3//60 26//59
f 128//53 26//59 38//91
f 133//88 29//58 41//96
f 133//88 77//132 134//153
f 131//55 25//52 29//58
f 134//153 75//85 74//138
f 139//171 27//42 138//57
f 136//172 77//132 137//131
f 138//57 39//54 135//95
f 135//95 73//141 137//131
f 141//39 143//163 140//164
f 147//46 140//164 101//47
f 142//26 144//162 143//163
f 2//9 140//164 143//163
f 151//77 20//35 150//173
f 148//133 20//35 66//34
f 152//174 69//134 148//133
f 200//74 34//76 151//77
f 149//67 33//65 156//92
f 153//129 45//87 85//140
f 153//129 84//175 154//143
f 155//176 33//65 45//87
f 160//177 42//82 159//61
f 158//158 78//144 157//178
f 132//50 30//63 160//177
f 159//61 79//81 158//158
f 165//156 84//175 85//140
f 161//139 82//128 165//156
f 164//86 44//62 161//139
f 162//64 32//51 164//86
f 167//124 69//134 169//179
f 168//161 36//75 170//30
f 170//30 9//78 167//124
f 169//179 63//145 62//125
f 172//70 8//31 175//180
f 174//159 64//137 65//160
f 173//73 37//32 172//70
f 175//180 62//125 174//159
f 173//73 145//25 146//43
f 107//100 21//102 86//24
f 139//171 25//52 86//24
f 86//24 21//102 88//37
f 22//40 139//171 86//24
f 86//24 23//66 168//161
f 86//24 168//161 146//43
f 162//64 23//66 86//24
f 86//24 88//37 22//40
f 179//181 181//18 178//182
f 182//15 184//183 185//184
f 191//185 186//12 188//186
f 190//13 187//187 189//188
f 183//189 187//187 184//183
f 188//186 180//190 179//181
f 176//191 185//184 177//192
f 177//192 181//18 176//191
f 19//193 183//189 7//14
f 6//194 181//18 180//190
f 11//16 176//191 193//17
f 19//193 190//13 189//188
f 6//194 186//12 12//195
f 177//192 185//184 179//181
f 4//3 194//2 16//10
f 198//8 115//7 17//69
f 115//7 195//1 4//3
f 199//196 124//49 3//60
f 198//8 124//49 199//196
f 87//28 199//196 3//60
f 98//5 196//27 15//29
f 98//5 197//4 196//27
f 117//22 198//8 17//69
f 194//2 5//20 2//9
f 18//11 12//195 186//12
f 7//14 183//189 182//15
f 193//17 176//191 181//18
f 5//20 10//197 14//21
f 196//27 199//196 87//28
f 170//30 167//124 8//31
f 14//21 10//197 197//4
f 111//33 113//168 66//34
f 89//36 22//40 88//37
f 22//40 89//36 127//41
f 15//29 90//165 92//44
f 101//47 104//167 48//48
f 132//50 160//177 32//51
f 27//42 127//41 128//53
f 24//23 201//198 131//55
f 25//52 139//171 138//57
f 124//49 121//90 26//59
f 32//51 160//177 159//61
f 117//22 120//94 30//63
f 162//64 164//86 33//65
f 149//67 156//92 31//68
f 172//70 175//180 13//71
f 173//73 172//70 35//72
f 200//74 151//77 36//75
f 115//7 114//79 34//76
f 151//77 150//173 9//78
f 114//79 111//33 20//35
f 119//80 116//154 79//81
f 129//170 71//149 72//84
f 122//169 75//85 71//149
f 130//83 76//152 136//172
f 136//172 72//84 130//83
f 71//149 75//85 72//84
f 164//86 161//139 45//87
f 28//56 131//55 133//88
f 121//90 123//126 38//91
f 156//92 155//176 43//93
f 120//94 119//80 42//82
f 29//58 138//57 135//95
f 48//48 104//167 102//97
f 98//5 97//109 46//99
f 107//100 106//103 49//101
f 106//103 107//100 147//46
f 110//104 109//118 61//105
f 49//101 106//103 110//104
f 47//45 92//44 95//107
f 97//109 96//113 50//110
f 102//97 103//121 58//111
f 95//107 93//120 56//112
f 96//113 99//115 55//114
f 99//115 100//123 54//116
f 59//117 108//122 109//118
f 60//119 94//199 93//120
f 54//116 105//200 103//121
f 105//200 54//116 108//122
f 100//123 57//166 60//119
f 94//199 60//119 57//166
f 108//122 59//117 105//200
f 54//116 100//123 108//122
f 167//124 169//179 62//125
f 123//126 125//151 70//127
f 159//61 158//158 82//128
f 43//93 155//176 153//129
f 41//96 135//95 137//131
f 9//78 150//173 148//133
f 152//174 67//146 112//148
f 112//148 64//137 68//136
f 171//135 63//145 166//147
f 166//147 68//136 171//135
f 152//174 112//148 68//136
f 133//88 134//153 74//138
f 161//139 165//156 85//140
f 128//53 126//150 73//141
f 163//201 83//155 157//178
f 157//178 78//144 154//143
f 118//142 81//157 154//143
f 154//143 84//175 163//201
f 163//201 157//178 154//143
f 171//135 174//159 62//125
f 67//146 152//174 148//133
f 166//147 169//179 69//134
f 66//34 113//168 112//148
f 71//149 129//170 126//150
f 125//151 122//169 71//149
f 72//84 136//172 137//131
f 76//152 130//83 134//153
f 116//154 118//142 78//144
f 83//155 163//201 165//156
f 153//129 154//143 81//157
f 158//158 157//178 83//155
f 13//71 175//180 174//159
f 168//161 170//30 37//32
f 4//3 16//10 144//162
f 16//10 2//9 143//163
f 14//21 1//6 101//47
f 90//165 91//38 88//37
f 15//29 87//28 91//38
f 87//28 3//60 89//36
f 92//44 90//165 21//102
f 95//107 53//106 61//105
f 95//107 92//44 49//101
f 93//120 94//199 57//166
f 96//113 51//108 56//112
f 96//113 97//109 47//45
f 99//115 56//112 57//166
f 97//109 98//5 15//29
f 101//47 1//6 46//99
f 102//97 104//167 46//99
f 103//121 105//200 59//117
f 102//97 50//110 55//114
f 110//104 106//103 48//48
f 109//118 108//122 60//119
f 110//104 52//98 58//111
f 111//33 114//79 35//72
f 113//168 111//33 13//71
f 114//79 115//7 4//3
f 112//148 113//168 65//160
f 118//142 116//154 80//130
f 119//80 120//94 31//68
f 116//154 119//80 43//93
f 120//94 117//22 17//69
f 121//90 124//49 24//23
f 122//169 125//151 74//138
f 123//126 121//90 28//56
f 125//151 123//126 40//89
f 129//170 72//84 73//141
f 126//150 128//53 38//91
f 127//41 89//36 3//60
f 128//53 127//41 26//59
f 133//88 131//55 29//58
f 133//88 41//96 77//132
f 131//55 201//198 25//52
f 134//153 130//83 75//85
f 139//171 22//40 27//42
f 136//172 76//152 77//132
f 138//57 27//42 39//54
f 135//95 39//54 73//141
f 141//39 142//26 143//163
f 147//46 141//39 140//164
f 142//26 145//25 144//162
f 2//9 14//21 140//164
f 151//77 34//76 20//35
f 148//133 150//173 20//35
f 152//174 68//136 69//134
f 200//74 17//69 34//76
f 149//67 23//66 33//65
f 153//129 155//176 45//87
f 153//129 85//140 84//175
f 155//176 156//92 33//65
f 160//177 30//63 42//82
f 158//158 79//81 78//144
f 132//50 24//23 30//63
f 159//61 42//82 79//81
f 165//156 163//201 84//175
f 161//139 44//62 82//128
f 164//86 32//51 44//62
f 162//64 25//52 32//51
f 167//124 9//78 69//134
f 168//161 23//66 36//75
f 170//30 36//75 9//78
f 169//179 166//147 63//145
f 172//70 37//32 8//31
f 174//159 171//135 64//137
f 173//73 146//43 37//32
f 175//180 8//31 62//125
f 173//73 144//162 145//25
f 179//181 180//190 181//18
f 182//15 183//189 184//183
f 191//185 190//13 186//12
f 190//13 191//185 187//187
f 183//189 189//188 187//187
f 188//186 186//12 180//190
f 176//191 182//15 185//184
f 177//192 178//182 181//18
f 19//193 189//188 183//189
f 6//194 192//19 181//18
f 11//16 182//15 176//191
f 19//193 18//11 190//13
f 6//194 180//190 186//12
f 187//187 191//185 184//183
f 188//186 179//181 185//184
f 178//182 177//192 179//181
f 185//184 184//183 191//185
f 191//185 188//186 185//184
