# Blender v2.77 (sub 0) OBJ File: 'pusher.sapphire.blend'
# www.blender.org
mtllib pusher_right.sapphire.mtl
o Cube
v 0.065464 -0.319800 0.244152
v 0.055646 -0.295455 -0.150146
v 0.071681 0.035438 0.205715
v 0.111054 0.035438 -0.205103
v -0.045732 -0.291595 -0.092080
v -0.040129 -0.308678 0.127524
v -0.073996 -0.085349 -0.083684
v 0.337894 0.172544 -0.233470
v 0.326853 0.200321 -0.136732
v -0.021392 -0.319430 0.001177
v -0.054391 -0.191322 -0.131179
v -0.060784 -0.196993 0.130435
v 0.252367 0.235876 -0.242127
v 0.059680 -0.358708 0.000435
v 0.083261 -0.163987 0.265136
v 0.067127 -0.150582 -0.220833
v 0.077734 0.091980 -0.068164
v -0.073996 -0.085349 0.085477
v -0.068703 -0.054725 0.000896
v 0.229391 0.260837 -0.144744
v 0.184251 -0.143291 0.191943
v 0.192521 -0.022201 0.177552
v 0.228107 0.019045 -0.075238
v 0.086699 0.081554 0.068775
v 0.220055 0.017254 0.062772
v 0.135664 0.125169 0.202281
v 0.230705 0.066207 0.204692
v 0.145674 0.170373 0.103426
v 0.261844 0.105244 0.082441
v 0.152281 0.182059 0.041790
v 0.159325 0.186569 -0.059172
v 0.251993 0.124973 0.045464
v 0.264552 0.121365 -0.056279
v 0.164922 0.164820 -0.110378
v 0.183942 0.133514 -0.222170
v 0.282050 0.102507 -0.106892
v 0.274586 0.068386 -0.216088
v 0.210634 0.226878 0.215116
v 0.295494 0.177487 0.215506
v 0.224734 0.270891 0.122471
v 0.322211 0.209105 0.110762
v 0.245551 0.299755 0.042815
v 0.255703 0.301112 -0.052746
v 0.331709 0.241494 0.042057
v 0.341310 0.237830 -0.047268
v 0.226198 -0.324886 0.354192
v 0.253243 -0.211718 0.364861
v 0.264726 -0.324886 0.256523
v 0.291771 -0.211718 0.267192
v 0.304292 -0.332365 0.368997
v 0.330524 -0.232134 0.371965
v 0.315010 -0.332365 0.274261
v 0.341243 -0.232134 0.277229
v 0.428609 -0.326433 0.357959
v 0.395466 -0.336531 0.370142
v 0.418636 -0.251220 0.372764
v 0.434990 -0.276635 0.358184
v 0.402994 -0.333361 0.289999
v 0.423281 -0.320205 0.308360
v 0.440913 -0.278068 0.315149
v 0.412776 -0.252903 0.291695
v 0.379477 0.261342 -0.239292
v 0.379450 0.293405 -0.226614
v 0.335775 0.324159 -0.231671
v 0.303012 0.309606 -0.254228
v 0.286013 0.329018 -0.175006
v 0.324482 0.332644 -0.182971
v 0.366547 0.305160 -0.182564
v 0.365518 0.279121 -0.163054
v 0.270759 0.305010 0.224763
v 0.311041 0.308780 0.214116
v 0.350174 0.278154 0.208697
v 0.329624 0.243682 0.222389
v 0.289020 0.331632 0.143233
v 0.317314 0.326851 0.163772
v 0.355986 0.295209 0.150626
v 0.350358 0.256544 0.127898
v 0.332761 0.382020 0.016672
v 0.307661 0.367954 0.034093
v 0.304337 0.369420 -0.052026
v 0.337103 0.382396 -0.032753
v 0.381440 0.324505 0.036124
v 0.380913 0.351610 0.019608
v 0.385123 0.355607 -0.027670
v 0.385664 0.320738 -0.041887
v 0.170828 -0.144999 -0.005856
v 0.050895 -0.060616 0.228540
v 0.178140 -0.077552 0.185012
v 0.134294 -0.010843 0.208742
v 0.143984 -0.132758 0.229599
v 0.114308 -0.064273 0.218566
v 0.262850 -0.187508 0.318081
v 0.433564 -0.244591 0.336657
v 0.445706 -0.269032 0.337853
v 0.341214 -0.220823 0.328651
v 0.320638 -0.288223 0.382208
v 0.227186 -0.278072 0.367809
v 0.059256 -0.255321 0.278728
v 0.413890 -0.295025 0.385516
v 0.431458 -0.300123 0.368687
v 0.130932 -0.339842 0.224401
v 0.309049 -0.350616 0.325064
v 0.405630 -0.351872 0.333497
v 0.229706 -0.341120 0.305211
v 0.426152 -0.334641 0.335645
v 0.269772 -0.262956 0.252777
v 0.206785 -0.234052 0.170578
v 0.436074 -0.297474 0.304495
v 0.415398 -0.293458 0.283061
v 0.331862 -0.280251 0.269756
v 0.224011 0.260190 -0.195114
v 0.325590 0.335740 -0.206801
v 0.276479 0.324886 -0.208325
v 0.157563 0.161000 -0.167952
v 0.084608 0.073080 -0.139019
v 0.285544 0.379480 -0.010623
v 0.071490 0.097668 0.000935
v 0.326747 0.391752 -0.008259
v 0.236371 0.310760 -0.008253
v 0.138482 0.196119 -0.010306
v 0.126997 0.158196 0.153149
v 0.306350 0.330036 0.187836
v 0.204011 0.259310 0.169089
v 0.064783 0.073143 0.138322
v 0.267536 0.327256 0.184093
v 0.297019 0.266036 0.242980
v 0.169937 0.087612 0.223750
v 0.253734 0.200161 0.237738
v 0.331430 0.289403 0.222743
v 0.341303 0.310455 0.148696
v 0.185858 0.122173 0.072476
v 0.153852 0.067539 0.062828
v 0.274985 0.258161 0.102166
v 0.322971 0.302118 0.125795
v 0.331021 0.188451 0.164322
v 0.363982 0.276972 0.175549
v 0.358084 0.233690 0.172725
v 0.250767 0.068124 0.140601
v 0.221816 0.000423 0.117725
v 0.115008 -0.340562 -0.004044
v 0.154661 -0.302537 -0.005924
v 0.170124 -0.237750 -0.152917
v 0.122685 -0.277095 -0.162361
v 0.133496 -0.144037 -0.217087
v 0.190235 -0.149653 -0.187673
v 0.243937 -0.002625 -0.207476
v 0.201697 -0.286545 0.152092
v 0.311938 0.304170 -0.150105
v 0.185563 0.100111 -0.072054
v 0.276877 0.231584 -0.123948
v 0.235866 0.158837 -0.099851
v 0.342662 0.318843 -0.173478
v 0.343762 0.341599 -0.061091
v 0.360458 0.370504 -0.033947
v 0.296964 0.265896 -0.070990
v 0.212929 0.153701 -0.074448
v 0.356955 0.367069 0.024805
v 0.343809 0.349454 0.051293
v 0.290743 0.268548 0.057023
v 0.201185 0.152917 0.059886
v 0.355262 0.237027 -0.002075
v 0.237805 0.019100 -0.002582
v 0.391996 0.351780 -0.005262
v 0.277025 0.120534 -0.004878
v 0.404674 0.320011 -0.004369
v 0.380317 0.292071 -0.207333
v 0.351463 0.186433 -0.189640
v 0.247640 0.009533 -0.137309
v 0.395136 0.263455 -0.205806
v 0.296661 0.085447 -0.164057
v 0.362860 0.306875 -0.237422
v 0.231637 0.100950 -0.236510
v 0.177496 0.016406 -0.215477
v 0.343775 0.276040 -0.263195
v 0.298250 0.204210 -0.257152
v -0.041489 -0.311342 -0.116994
v -0.230461 -0.349832 -0.083941
v -0.228336 -0.393588 -0.004707
v -0.232250 -0.358164 0.072627
v -0.034491 -0.332679 0.157285
v -0.008511 -0.370843 -0.002867
v -0.055862 -0.187463 -0.177878
v -0.076791 -0.053748 -0.106507
v -0.276868 -0.193483 -0.077343
v -0.261917 -0.279743 -0.106654
v -0.065443 -0.193623 0.175812
v -0.285803 -0.159794 -0.002358
v -0.263513 -0.278820 0.104777
v -0.070180 -0.015500 -0.000869
v -0.076791 -0.053748 0.104770
v -0.276869 -0.193483 0.072627
v -0.021392 -0.319430 0.001177
v -0.045732 -0.291595 -0.092080
v -0.054391 -0.191322 -0.131179
v -0.073996 -0.085349 -0.083684
v -0.060784 -0.196993 0.130435
v -0.040129 -0.308678 0.127524
v -0.068703 -0.054725 0.000896
v -0.073996 -0.085349 0.085477
v 0.185563 0.100111 -0.072054
v 0.153852 0.067539 0.062828
vn -0.7193 0.4602 -0.5204
vn -0.4855 0.2481 -0.8383
vn -0.5716 -0.0955 -0.8149
vn -0.5930 -0.7135 0.3731
vn -0.4822 -0.7350 0.4767
vn -0.6297 -0.0684 0.7738
vn -0.7463 0.6653 -0.0184
vn -0.7295 0.5701 -0.3777
vn -0.1567 -0.7185 -0.6776
vn -0.2905 -0.0997 -0.9516
vn 0.9965 0.0704 0.0445
vn 0.4343 0.2341 0.8698
vn 0.9823 0.1651 0.0886
vn 0.4898 0.1279 -0.8624
vn 0.9960 0.0885 -0.0121
vn 0.9892 0.1459 -0.0127
vn 0.7762 -0.6240 -0.0895
vn 0.9746 0.2226 -0.0250
vn 0.9691 0.2450 -0.0280
vn -0.4133 -0.7082 -0.5723
vn -0.0573 -0.9885 -0.1396
vn -0.4353 -0.8972 -0.0742
vn -0.6817 0.7291 0.0604
vn -0.7733 0.6250 0.1068
vn 0.9839 -0.1784 0.0053
vn 0.8176 -0.4271 -0.3861
vn 0.7918 -0.3274 -0.5155
vn -0.3988 0.2513 0.8819
vn -0.7620 0.0479 0.6458
vn -0.3707 0.3787 0.8480
vn 0.6706 -0.4378 -0.5988
vn 0.8740 -0.4763 0.0964
vn 0.6026 -0.4733 -0.6425
vn -0.3486 0.8485 0.3982
vn -0.7955 0.5352 -0.2840
vn -0.5595 0.6052 0.5663
vn 0.8635 0.0229 0.5038
vn 0.2474 -0.0395 0.9681
vn 0.3148 0.2079 0.9261
vn 0.8502 -0.4957 -0.1774
vn 0.7461 -0.3274 0.5798
vn -0.0616 -0.0629 0.9961
vn 0.6688 -0.3664 -0.6468
vn 0.2812 0.9256 0.2532
vn 0.3581 0.6152 0.7024
vn 0.8128 -0.4665 -0.3489
vn 0.3261 -0.7055 -0.6292
vn 0.0107 -0.9992 0.0370
vn -0.7661 0.6225 0.1598
vn 0.5591 -0.2458 0.7918
vn 0.0768 0.1237 0.9893
vn 0.9686 -0.2477 0.0195
vn 0.5693 -0.4423 0.6930
vn -0.0261 -0.0638 0.9976
vn -0.0177 0.2519 -0.9676
vn 0.0195 0.1628 -0.9864
vn 0.8759 -0.4759 0.0793
vn 0.9102 -0.4062 0.0810
vn -0.5895 0.3785 0.7136
vn -0.5159 0.3508 0.7815
vn 0.0463 0.0396 0.9981
vn -0.0244 0.0409 0.9988
vn -0.5416 0.4378 0.7176
vn 0.6515 -0.2930 -0.6997
vn 0.9385 -0.3379 0.0712
vn 0.9558 -0.2521 0.1509
vn -0.4616 0.4234 -0.7795
vn 0.0423 0.0624 -0.9971
vn -0.7049 0.6724 -0.2257
vn -0.5149 0.2184 -0.8289
vn -0.0493 -0.1772 -0.9829
vn -0.5342 0.1984 -0.8217
vn -0.0320 -0.0879 -0.9956
vn 0.6913 -0.1400 0.7088
vn 0.1334 0.3513 0.9267
vn -0.5046 0.6623 0.5538
vn 0.6425 -0.0785 0.7622
vn 0.1243 0.2882 0.9494
vn -0.8069 0.5288 -0.2632
vn -0.3319 0.6542 0.6796
vn -0.7686 0.6366 -0.0621
vn -0.5061 0.4837 0.7140
vn 0.9654 0.2255 0.1312
vn 0.6043 0.7571 -0.2482
vn 0.8068 0.2438 0.5382
vn 0.6763 -0.3618 -0.6417
vn 0.8805 -0.4607 0.1115
vn -0.5836 0.5755 -0.5729
vn 0.0279 0.3134 -0.9492
vn -0.5906 0.3533 0.7255
vn -0.8057 0.5702 0.1603
vn -0.4952 0.4140 -0.7638
vn 0.0055 -0.0038 -1.0000
vn -0.7780 0.6278 -0.0236
vn 0.6504 -0.2091 -0.7302
vn 0.8531 -0.5153 0.0813
vn -0.0558 -0.9981 0.0251
vn -0.0999 -0.9936 0.0531
vn -0.3189 -0.6428 0.6965
vn 0.5877 0.5871 -0.5566
vn 0.8950 0.1442 -0.4222
vn 0.8867 0.4608 0.0370
vn 0.6033 -0.0428 -0.7963
vn 0.4717 0.5660 -0.6761
vn 0.2288 -0.0104 -0.9734
vn 0.3580 0.6016 -0.7140
vn -0.0876 0.5755 0.8131
vn 0.2982 0.9525 0.0623
vn -0.1240 -0.6489 0.7507
vn -0.3375 -0.0386 0.9405
vn 0.3785 -0.6195 -0.6876
vn 0.1429 -0.6672 -0.7310
vn 0.4472 0.5663 0.6923
vn 0.1155 0.6416 0.7583
vn 0.1383 -0.6871 0.7133
vn -0.0662 -0.0471 0.9967
vn 0.7695 -0.4971 0.4008
vn 0.3399 -0.0671 0.9380
vn 0.7279 -0.5154 -0.4523
vn 0.4817 -0.0558 -0.8745
vn 0.8734 -0.1989 -0.4445
vn 0.9469 0.0679 -0.3142
vn 0.6669 0.7449 0.0177
vn 0.9910 -0.0239 0.1318
vn 0.3258 -0.9454 -0.0092
vn 0.7927 -0.6031 -0.0888
vn 0.8990 0.0745 0.4314
vn 0.8516 -0.1236 0.5094
vn 0.7549 -0.1413 -0.6403
vn 0.8956 -0.4077 0.1781
vn -0.3069 0.6174 0.7243
vn -0.7751 0.6149 0.1455
vn 0.6855 -0.0134 0.7279
vn 0.5595 -0.3265 0.7618
vn 0.2386 0.2411 -0.9407
vn 0.0862 0.0360 -0.9956
vn 0.6592 -0.1666 -0.7332
vn 0.9224 -0.3689 0.1141
vn 0.1097 0.4850 0.8676
vn 0.0968 0.2795 0.9552
vn 0.8141 0.5653 0.1329
vn 0.5535 0.6594 -0.5087
vn 0.7249 0.5996 0.3390
vn -0.0991 0.8805 -0.4635
vn -0.5350 0.6142 -0.5801
vn 0.7174 -0.0714 -0.6930
vn 0.8518 -0.5148 0.0970
vn 0.6202 -0.2771 0.7338
vn 0.5912 -0.4215 0.6876
vn 0.4803 0.7597 -0.4384
vn 0.1672 0.9013 0.3996
vn 0.4552 0.7829 0.4240
vn 0.7988 0.5117 -0.3163
vn 0.2269 0.9065 0.3561
vn 0.4516 0.7127 0.5367
vn 0.6669 0.1550 0.7288
vn 0.1991 0.9712 -0.1305
vn -0.5745 0.7767 -0.2582
vn 0.3212 0.7289 0.6046
vn 0.1141 0.1087 0.9875
vn 0.5453 0.4701 0.6940
vn -0.4466 0.8728 0.1967
vn 0.8423 0.4808 -0.2436
vn 0.3311 0.5046 -0.7973
vn -0.6069 0.7947 0.0098
vn 0.6851 0.5579 0.4683
vn 0.9934 -0.1083 0.0378
vn 0.7882 0.6091 0.0873
vn 0.2199 0.8468 -0.4842
vn -0.2754 0.6005 -0.7506
vn 0.1817 0.3667 0.9124
vn 0.2587 0.1008 -0.9607
vn 0.0224 -0.1359 -0.9904
vn 0.9013 -0.4075 0.1469
vn 0.2292 -0.1917 -0.9543
vn 0.3355 -0.6798 -0.6522
vn -0.2525 0.5325 -0.8078
vn 0.0908 0.9945 0.0511
vn 0.3193 0.8781 0.3563
vn 0.7550 -0.0160 -0.6555
vn 0.4855 0.8731 -0.0437
vn 0.4632 -0.8641 -0.1968
vn 0.7014 0.5788 -0.4160
vn 0.9933 -0.0700 0.0915
vn 0.2994 0.8374 -0.4572
vn -0.5552 -0.7093 0.4342
vn -0.5454 -0.8373 -0.0366
vn -0.8342 0.2597 -0.4864
vn 0.3604 0.7375 -0.5711
vn -0.8390 0.2696 0.4726
vn -0.7638 -0.1940 0.6155
vn -0.9018 0.4321 -0.0011
vn 0.3661 0.7230 0.5858
vn 0.4141 0.9102 -0.0008
vn 0.5758 -0.4362 0.6915
vn 0.6528 -0.4187 -0.6313
vn -0.7240 -0.2351 -0.6484
vn -0.4837 -0.6655 -0.5683
vn 0.9993 0.0378 0.0030
vn 0.9645 0.2599 0.0466
vn -0.7957 0.4226 0.4339
usemtl Material
s 1
f 195//1 4//2 194//3
f 197//4 1//5 98//6
f 195//1 198//7 115//8
f 2//9 194//3 16//10
f 18//11 186//12 12//13
f 182//14 7//15 11//16
f 181//17 193//18 192//19
f 5//20 14//21 10//22
f 198//7 24//23 117//24
f 86//25 142//26 145//27
f 87//28 196//29 15//30
f 8//31 170//32 37//33
f 14//21 197//4 10//22
f 66//34 111//35 20//36
f 88//37 89//38 91//39
f 142//26 86//25 141//40
f 22//41 127//42 89//38
f 145//27 146//43 86//25
f 15//30 92//44 90//45
f 86//25 147//46 141//40
f 48//47 101//48 147//46
f 24//23 198//7 124//49
f 32//50 132//51 25//52
f 27//53 128//54 127//42
f 24//23 131//55 201//56
f 25//52 138//57 139//58
f 26//59 124//49 3//60
f 32//50 159//61 160//62
f 30//63 117//24 24//23
f 33//64 162//65 23//66
f 31//67 149//68 17//69
f 13//70 172//71 35//72
f 35//72 173//73 4//2
f 36//74 200//75 23//66
f 34//76 115//8 17//69
f 9//77 151//78 36//74
f 20//36 114//79 34//76
f 79//80 119//81 42//82
f 136//83 130//84 72//85
f 45//86 164//87 33//64
f 28//88 133//89 131//55
f 38//90 121//91 26//59
f 43//92 156//93 31//67
f 42//82 120//94 30//63
f 29//95 135//96 138//57
f 48//47 102//97 104//98
f 46//99 98//6 1//5
f 49//100 107//101 21//102
f 106//103 147//46 107//101
f 61//104 110//105 53//106
f 49//100 110//105 106//103
f 47//107 95//108 92//44
f 50//109 97//110 46//99
f 58//111 102//97 52//112
f 56//113 95//108 51//114
f 55//115 96//116 50//109
f 54//117 99//118 55//115
f 59//119 109//120 108//121
f 60//122 93//123 94//124
f 54//117 103//125 105//126
f 60//122 57//127 100//128
f 62//129 167//130 8//31
f 70//131 123//132 38//90
f 82//133 159//61 44//134
f 43//92 153//135 155//136
f 41//137 137//138 135//96
f 9//77 148//139 150//140
f 166//141 171//142 68//143
f 74//144 133//89 40//145
f 85//146 161//147 45//86
f 73//148 128//54 39//149
f 154//150 78//151 157//152
f 62//129 171//142 63//153
f 67//154 148//139 152//155
f 69//156 166//141 68//143
f 66//34 112//157 113//158
f 71//159 126//160 129//161
f 71//159 125//162 70//131
f 72//85 137//138 136//83
f 76//163 134//164 130//84
f 78//151 116//165 79//80
f 83//166 165//167 163//168
f 81//169 153//135 80//170
f 83//166 158//171 82//133
f 13//70 174//172 175//173
f 37//33 168//174 146//43
f 162//65 25//52 86//25
f 4//2 144//175 16//10
f 16//10 143//176 2//9
f 14//21 101//48 1//5
f 90//45 88//37 91//39
f 15//30 91//39 87//28
f 87//28 89//38 3//60
f 92//44 21//102 90//45
f 61//104 95//108 93//123
f 95//108 49//100 92//44
f 93//123 57//127 94//124
f 56//113 96//116 99//118
f 96//116 47//107 97//110
f 57//127 99//118 100//128
f 97//110 15//30 98//6
f 46//99 101//48 104//98
f 102//97 46//99 104//98
f 103//125 59//119 105//126
f 55//115 102//97 103//125
f 110//105 48//47 106//103
f 109//120 60//122 108//121
f 107//101 147//46 86//25
f 58//111 110//105 109//120
f 111//35 35//72 114//79
f 113//158 13//70 111//35
f 114//79 4//2 115//8
f 112//157 65//177 113//158
f 118//178 80//170 116//165
f 119//81 31//67 120//94
f 116//165 43//92 119//81
f 120//94 17//69 117//24
f 121//91 24//23 124//49
f 122//179 74//144 125//162
f 123//132 28//88 121//91
f 125//162 40//145 123//132
f 73//148 129//161 126//160
f 126//160 38//90 128//54
f 127//42 3//60 89//38
f 128//54 26//59 127//42
f 133//89 29//95 131//55
f 77//180 133//89 134//164
f 131//55 25//52 201//56
f 134//164 75//181 130//84
f 27//53 139//58 138//57
f 77//180 136//83 137//138
f 39//149 138//57 135//96
f 73//148 135//96 137//138
f 141//40 143//176 142//26
f 147//46 140//182 141//40
f 142//26 144//175 145//27
f 2//9 140//182 14//21
f 20//36 151//78 150//140
f 148//139 20//36 150//140
f 69//156 152//155 148//139
f 34//76 200//75 151//78
f 33//64 149//68 156//93
f 153//135 45//86 155//136
f 84//183 153//135 154//150
f 155//136 33//64 156//93
f 42//82 160//62 159//61
f 78//151 158//171 157//152
f 30//63 132//51 160//62
f 79//80 159//61 158//171
f 165//167 84//183 163//168
f 82//133 161//147 165//167
f 44//134 164//87 161//147
f 32//50 162//65 164//87
f 69//156 167//130 169//184
f 36//74 168//174 170//32
f 9//77 170//32 167//130
f 169//184 63//153 166//141
f 8//31 172//71 175//173
f 174//172 64//185 171//142
f 37//33 173//73 172//71
f 62//129 175//173 174//172
f 173//73 145//27 144//175
f 107//101 86//25 21//102
f 139//58 86//25 25//52
f 86//25 88//37 21//102
f 22//41 86//25 139//58
f 86//25 168//174 23//66
f 86//25 146//43 168//174
f 162//65 86//25 23//66
f 86//25 22//41 88//37
f 181//17 179//186 178//187
f 182//14 184//188 183//189
f 186//12 191//190 188//191
f 187//192 190//193 189//194
f 183//189 187//192 189//194
f 180//195 188//191 179//186
f 176//196 185//197 182//14
f 177//198 181//17 178//187
f 183//189 19//199 7//15
f 6//200 181//17 192//19
f 176//196 11//16 193//18
f 19//199 190//193 18//11
f 186//12 6//200 12//13
f 185//197 179//186 188//191
f 4//2 16//10 194//3
f 198//7 17//69 115//8
f 115//8 4//2 195//1
f 199//201 3//60 124//49
f 198//7 199//201 124//49
f 87//28 3//60 199//201
f 98//6 15//30 196//29
f 98//6 196//29 197//4
f 117//24 17//69 198//7
f 2//9 5//20 194//3
f 18//11 190//193 186//12
f 182//14 183//189 7//15
f 181//17 176//196 193//18
f 5//20 2//9 14//21
f 87//28 199//201 196//29
f 8//31 167//130 170//32
f 14//21 1//5 197//4
f 66//34 113//158 111//35
f 88//37 22//41 89//38
f 22//41 27//53 127//42
f 15//30 47//107 92//44
f 48//47 104//98 101//48
f 32//50 160//62 132//51
f 27//53 39//149 128//54
f 24//23 28//88 131//55
f 25//52 29//95 138//57
f 26//59 121//91 124//49
f 32//50 44//134 159//61
f 30//63 120//94 117//24
f 33//64 164//87 162//65
f 31//67 156//93 149//68
f 13//70 175//173 172//71
f 35//72 172//71 173//73
f 36//74 151//78 200//75
f 34//76 114//79 115//8
f 9//77 150//140 151//78
f 20//36 111//35 114//79
f 79//80 116//165 119//81
f 122//179 71//159 75//181
f 129//161 72//85 71//159
f 136//83 76//163 130//84
f 130//84 75//181 72//85
f 71//159 72//85 75//181
f 45//86 161//147 164//87
f 28//88 40//145 133//89
f 38//90 123//132 121//91
f 43//92 155//136 156//93
f 42//82 119//81 120//94
f 29//95 41//137 135//96
f 48//47 52//112 102//97
f 46//99 97//110 98//6
f 49//100 106//103 107//101
f 106//103 48//47 147//46
f 61//104 109//120 110//105
f 49//100 53//106 110//105
f 47//107 51//114 95//108
f 50//109 96//116 97//110
f 58//111 103//125 102//97
f 56//113 93//123 95//108
f 55//115 99//118 96//116
f 54//117 100//128 99//118
f 59//119 58//111 109//120
f 60//122 61//104 93//123
f 54//117 55//115 103//125
f 100//128 54//117 108//121
f 105//126 59//119 108//121
f 108//121 60//122 100//128
f 94//124 57//127 60//122
f 54//117 105//126 108//121
f 62//129 169//184 167//130
f 70//131 125//162 123//132
f 82//133 158//171 159//61
f 43//92 80//170 153//135
f 41//137 77//180 137//138
f 9//77 69//156 148//139
f 112//157 67//154 152//155
f 152//155 68//143 112//157
f 166//141 63//153 171//142
f 171//142 64//185 68//143
f 112//157 68//143 64//185
f 74//144 134//164 133//89
f 85//146 165//167 161//147
f 73//148 126//160 128//54
f 157//152 83//166 163//168
f 163//168 84//183 154//150
f 154//150 81//169 118//178
f 118//178 78//151 154//150
f 157//152 163//168 154//150
f 62//129 174//172 171//142
f 67//154 66//34 148//139
f 69//156 169//184 166//141
f 66//34 67//154 112//157
f 71//159 70//131 126//160
f 71//159 122//179 125//162
f 72//85 73//148 137//138
f 76//163 77//180 134//164
f 78//151 118//178 116//165
f 83//166 82//133 165//167
f 81//169 154//150 153//135
f 83//166 157//152 158//171
f 13//70 65//177 174//172
f 37//33 170//32 168//174
f 4//2 173//73 144//175
f 16//10 144//175 143//176
f 14//21 140//182 101//48
f 90//45 21//102 88//37
f 15//30 90//45 91//39
f 87//28 91//39 89//38
f 92//44 49//100 21//102
f 61//104 53//106 95//108
f 95//108 53//106 49//100
f 93//123 56//113 57//127
f 56//113 51//114 96//116
f 96//116 51//114 47//107
f 57//127 56//113 99//118
f 97//110 47//107 15//30
f 46//99 1//5 101//48
f 102//97 50//109 46//99
f 103//125 58//111 59//119
f 55//115 50//109 102//97
f 110//105 52//112 48//47
f 109//120 61//104 60//122
f 58//111 52//112 110//105
f 111//35 13//70 35//72
f 113//158 65//177 13//70
f 114//79 35//72 4//2
f 112//157 64//185 65//177
f 118//178 81//169 80//170
f 119//81 43//92 31//67
f 116//165 80//170 43//92
f 120//94 31//67 17//69
f 121//91 28//88 24//23
f 122//179 75//181 74//144
f 123//132 40//145 28//88
f 125//162 74//144 40//145
f 73//148 72//85 129//161
f 126//160 70//131 38//90
f 127//42 26//59 3//60
f 128//54 38//90 26//59
f 133//89 41//137 29//95
f 77//180 41//137 133//89
f 131//55 29//95 25//52
f 134//164 74//144 75//181
f 27//53 22//41 139//58
f 77//180 76//163 136//83
f 39//149 27//53 138//57
f 73//148 39//149 135//96
f 141//40 140//182 143//176
f 147//46 101//48 140//182
f 142//26 143//176 144//175
f 2//9 143//176 140//182
f 20//36 34//76 151//78
f 148//139 66//34 20//36
f 69//156 68//143 152//155
f 34//76 17//69 200//75
f 33//64 23//66 149//68
f 153//135 85//146 45//86
f 84//183 85//146 153//135
f 155//136 45//86 33//64
f 42//82 30//63 160//62
f 78//151 79//80 158//171
f 30//63 24//23 132//51
f 79//80 42//82 159//61
f 165//167 85//146 84//183
f 82//133 44//134 161//147
f 44//134 32//50 164//87
f 32//50 25//52 162//65
f 69//156 9//77 167//130
f 36//74 23//66 168//174
f 9//77 36//74 170//32
f 169//184 62//129 63//153
f 8//31 37//33 172//71
f 174//172 65//177 64//185
f 37//33 146//43 173//73
f 62//129 8//31 175//173
f 173//73 146//43 145//27
f 181//17 180//195 179//186
f 182//14 185//197 184//188
f 186//12 190//193 191//190
f 187//192 191//190 190//193
f 183//189 184//188 187//192
f 180//195 186//12 188//191
f 176//196 177//198 185//197
f 177//198 176//196 181//17
f 183//189 189//194 19//199
f 6//200 180//195 181//17
f 176//196 182//14 11//16
f 19//199 189//194 190//193
f 186//12 180//195 6//200
f 188//191 191//190 185//197
f 187//192 184//188 191//190
f 185//197 177//198 179//186
f 178//187 179//186 177//198
f 191//190 184//188 185//197
