# Blender v2.77 (sub 0) OBJ File: 'stonewall2.sapphire.blend'
# www.blender.org
mtllib roundstonewall_downopen.sapphire.mtl
o RoundStoneWallDownOpen_Cube.003
origin 0.000000 0.000000 0.000000
v 0.500000 -0.500000 -0.125000
v 0.500000 -0.500000 -0.375000
v 0.500000 -0.500000 0.125000
v 0.500000 -0.500000 -0.500000
v 0.500000 -0.500000 0.500000
v 0.125000 -0.500000 0.500000
v -0.500000 -0.500000 0.125000
v -0.125000 -0.500000 0.500000
v -0.500000 -0.500000 -0.500000
v -0.500000 -0.500000 -0.125000
v -0.500000 -0.500000 0.500000
v -0.489989 -0.461396 0.341392
v 0.495290 0.029756 -0.499832
v 0.462508 -0.282250 -0.260118
v 0.463586 -0.360903 -0.138151
v 0.512866 -0.249168 -0.413141
v 0.436208 -0.190209 0.101687
v 0.496740 -0.376622 0.038681
v 0.462238 -0.271942 0.288280
v 0.512849 -0.413557 0.254495
v -0.486239 -0.144023 0.014285
v -0.495287 -0.119448 0.085574
v -0.436208 -0.101687 0.190209
v -0.490316 -0.091995 0.375816
v -0.462505 -0.281747 0.260006
v -0.463586 -0.360904 0.138151
v -0.512849 -0.254496 0.413557
v -0.499915 -0.125344 -0.500016
v -0.499075 -0.386634 -0.500071
v -0.482860 -0.088605 -0.050596
v -0.436208 -0.190209 -0.101687
v -0.496741 -0.376622 -0.038681
v -0.461081 -0.259299 -0.277838
v -0.463586 -0.138151 -0.360903
v -0.512849 -0.413556 -0.254496
v 0.336645 -0.454273 0.482080
v -0.016603 -0.181644 0.483888
v 0.494257 -0.361897 0.481688
v 0.489854 -0.126631 0.495106
v 0.259942 -0.281901 0.462502
v 0.181704 -0.393769 0.468562
v 0.413482 -0.253277 0.512854
v -0.490199 -0.127965 0.491427
v -0.481182 -0.362424 0.493078
v -0.119448 -0.085574 0.495287
v -0.127584 -0.211382 0.467582
v -0.038681 -0.376622 0.496740
v -0.285721 -0.261248 0.462941
v -0.382835 -0.197309 0.462679
v -0.257268 -0.410322 0.488672
v 0.000000 0.434420 -0.503191
v -0.089032 0.447869 -0.499992
v -0.176115 0.408445 -0.506183
v -0.319444 0.373714 -0.508249
v -0.012194 0.464913 -0.343736
v -0.168927 0.457427 0.034560
v -0.271503 0.415338 0.039656
v -0.123641 0.469717 -0.195180
v -0.208600 0.422566 -0.293137
v -0.311954 0.406942 -0.270550
v 0.330391 0.378013 -0.237707
v 0.176115 0.408445 -0.506183
v 0.089032 0.447869 -0.499992
v 0.109605 0.493173 -0.079211
v 0.041704 0.462229 -0.223082
v 0.235132 0.421011 -0.271279
v 0.142246 0.448515 -0.404576
v 0.275352 0.390390 -0.506878
v 0.321088 0.327574 0.370932
v 0.039854 0.437642 0.464169
v 0.253508 0.393019 0.380391
v -0.001955 0.490970 0.247006
v 0.351598 0.316308 0.252487
v 0.346699 0.330212 0.067299
v 0.115812 0.473644 0.009665
v 0.159360 0.437254 0.095035
v 0.277070 0.419157 0.025198
v 0.272618 0.422416 0.225455
v 0.086439 0.442847 0.276797
v -0.298725 0.407886 0.308532
v -0.194372 0.376156 0.431345
v -0.092692 0.419132 0.454679
v -0.001910 0.488080 0.011278
v -0.126069 0.454389 0.347665
v 0.356881 0.322485 -0.505027
v 0.509772 -0.002970 -0.295739
v 0.475626 0.122865 -0.008213
v 0.456336 0.135246 -0.237132
v 0.390314 0.182086 -0.340185
v 0.417275 0.270136 -0.052415
v 0.333221 0.334697 -0.397782
v 0.486210 -0.144059 -0.014421
v 0.484041 -0.024147 -0.105158
v 0.435785 -0.102106 -0.190236
v 0.488109 -0.094027 -0.375855
v 0.479262 -0.022504 0.158154
v 0.479685 -0.059006 0.373928
v 0.494030 -0.097718 0.162357
v 0.469405 0.069028 0.083931
v 0.429484 0.078066 0.180015
v 0.416713 0.190690 0.211282
v 0.475646 0.107602 0.353355
v 0.400867 0.270718 0.385536
v -0.460191 0.055752 0.476225
v -0.435773 0.185864 0.458716
v -0.387544 0.280828 0.401943
v -0.482835 0.044936 0.129101
v -0.477366 -0.003202 0.211779
v -0.364522 0.317777 0.262496
v -0.428007 0.158174 0.091117
v -0.442910 0.116566 0.253244
v -0.351268 0.331678 0.020583
v -0.379614 0.316767 -0.050758
v -0.336539 0.320109 -0.454298
v -0.486402 0.129409 -0.057395
v -0.389285 0.262245 -0.503604
v -0.485743 0.054168 -0.499861
v -0.478293 0.031200 -0.157597
v -0.413202 0.187906 -0.240437
v -0.504689 0.045759 -0.349458
v 0.472267 0.057070 0.481016
v 0.109863 -0.012460 0.479399
v 0.405601 0.220841 0.436650
v 0.202974 0.014780 0.485932
v 0.093666 0.165848 0.461096
v 0.121614 0.320603 0.469579
v 0.305239 0.096914 0.458082
v 0.126970 -0.136984 0.499725
v 0.223050 -0.093328 0.456674
v 0.363633 -0.020426 0.492837
v -0.138005 -0.014784 0.484806
v -0.292018 -0.032946 0.498607
v -0.010442 0.285115 0.494024
v -0.040297 0.128944 0.503229
v -0.249379 0.070172 0.474667
v -0.189288 0.194517 0.473370
v -0.355068 0.235609 0.474611
v -0.128636 0.281297 0.473980
v -0.308741 0.311751 0.449497
vn 0.9785 0.1149 0.1714
vn 0.9852 0.0088 -0.1714
vn 0.6303 0.3603 -0.6877
vn 0.9614 0.0369 0.2726
vn 0.9940 0.0205 -0.1074
vn 0.9500 -0.0012 0.3124
vn 0.9587 0.2360 -0.1588
vn 0.9987 -0.0512 -0.0000
vn 0.9965 -0.0384 -0.0745
vn 0.9427 0.0721 0.3258
vn 0.9325 -0.2996 -0.2015
vn 0.9886 0.1304 0.0754
vn -0.0000 0.3649 0.9311
vn 0.9964 -0.0292 -0.0794
vn 0.9891 -0.1470 0.0000
vn 0.9513 0.3082 0.0023
vn 0.9892 -0.1166 0.0884
vn 0.9417 0.3364 0.0006
vn 0.9972 0.0227 -0.0710
vn 0.9963 0.0507 0.0700
vn 0.8060 -0.5803 0.1165
vn 0.8879 0.1402 0.4381
vn 0.8856 -0.3671 -0.2844
vn 0.9407 0.3391 -0.0122
vn 0.9855 -0.0127 -0.1691
vn -0.8389 0.1412 0.5257
vn -0.9879 0.1479 0.0470
vn -0.9435 -0.0340 0.3296
vn -0.8532 0.2921 0.4321
vn -0.9591 0.0311 -0.2812
vn -0.9940 0.0204 0.1075
vn -0.9500 0.0039 -0.3122
vn -0.9587 0.2360 0.1588
vn -0.9674 0.2533 -0.0004
vn -0.9933 -0.0810 -0.0824
vn -0.9700 -0.2395 -0.0406
vn -0.9457 0.0568 -0.3201
vn -0.9333 -0.2973 0.2014
vn -0.9903 0.1201 -0.0693
vn -0.9891 -0.1470 0.0000
vn -0.9964 -0.0292 0.0794
vn -0.7915 -0.5227 0.3168
vn -0.9499 0.3124 0.0116
vn -0.9487 0.3156 -0.0186
vn -0.9676 -0.0032 0.2524
vn -0.9984 0.0081 -0.0551
vn -0.9173 -0.2778 -0.2851
vn -0.8877 0.1400 -0.4387
vn -0.9472 0.3203 0.0159
vn -0.9892 0.0686 0.1298
vn 0.5083 0.1339 0.8507
vn 0.0658 0.0994 0.9929
vn 0.3019 -0.0487 0.9521
vn 0.3684 0.1006 0.9242
vn -0.2408 -0.0171 0.9704
vn 0.0966 0.0546 0.9938
vn -0.3067 -0.0284 0.9514
vn 0.1401 0.2115 0.9673
vn 0.0225 0.2726 0.9619
vn -0.1359 -0.0990 0.9858
vn -0.0228 -0.2683 0.9631
vn -0.3140 0.0144 0.9493
vn 0.1242 -0.0332 0.9917
vn -0.0516 0.0900 0.9946
vn -0.0458 0.0584 0.9972
vn -0.0000 0.1253 0.9921
vn 0.0399 -0.2174 0.9753
vn -0.0718 0.1357 0.9881
vn 0.0579 0.1805 0.9819
vn 0.2689 0.0171 0.9630
vn 0.0295 0.0462 0.9985
vn -0.0871 -0.2089 0.9741
vn -0.1668 0.0836 0.9824
vn -0.0608 0.1585 0.9855
vn 0.0841 0.1318 0.9877
vn -0.9558 0.2938 -0.0109
vn -0.7045 0.7060 0.0728
vn -0.1781 0.9839 0.0175
vn -0.3813 0.9230 -0.0520
vn 0.0456 0.9990 0.0019
vn -0.2606 0.9387 -0.2258
vn -0.1761 0.9756 -0.1308
vn -0.2329 0.9672 -0.1012
vn -0.7324 0.6636 0.1523
vn -0.4486 0.8928 -0.0407
vn -0.1510 0.9885 -0.0071
vn -0.2340 0.9672 -0.0990
vn 0.1409 0.9743 -0.1756
vn -0.4163 0.9030 0.1062
vn 0.0312 0.9822 -0.1854
vn 0.1679 0.9349 -0.3127
vn -0.0794 0.9960 -0.0418
vn 0.0973 0.9950 -0.0213
vn 0.1361 0.9534 -0.2693
vn 0.2196 0.9744 0.0480
vn 0.4324 0.9000 -0.0555
vn 0.4449 0.8865 -0.1271
vn 0.8105 0.5688 -0.1396
vn 0.6384 0.7679 0.0534
vn -0.1517 0.9854 0.0779
vn 0.3888 0.8939 -0.2229
vn 0.1219 0.9712 0.2049
vn 0.0081 0.9768 -0.2139
vn 0.4268 0.9027 -0.0547
vn 0.3775 0.9254 -0.0346
vn 0.7391 0.6721 0.0447
vn 0.7857 0.6186 0.0074
vn 0.4188 0.8926 0.1669
vn 0.4432 0.8837 0.1506
vn 0.1445 0.9894 -0.0129
vn 0.4387 0.8886 0.1338
vn 0.7535 0.6465 0.1198
vn 0.7990 0.6008 0.0240
vn 0.7765 0.6140 0.1416
vn 0.1215 0.9925 -0.0121
vn 0.2753 0.9355 0.2216
vn 0.4332 0.8887 0.1501
vn 0.1131 0.9935 0.0148
vn 0.1620 0.9656 0.2032
vn 0.6947 0.6862 0.2159
vn 0.2357 0.9681 0.0855
vn -0.0797 0.9644 0.2522
vn -0.3284 0.8087 0.4880
vn -0.3763 0.9245 0.0605
vn -0.2602 0.9656 0.0004
vn -0.7904 0.6094 -0.0631
vn -0.1541 0.9231 0.3522
vn -0.4332 0.8072 0.4010
vn -0.1821 0.9832 -0.0121
vn -0.2498 0.9673 0.0436
vn -0.7238 0.6901 -0.0000
vn 0.8625 0.4921 -0.1179
vn 0.9910 -0.0294 0.1305
vn 0.9315 0.3140 -0.1834
vn 0.9420 0.2861 -0.1758
vn 0.8367 0.5469 0.0283
vn 0.9048 0.3968 0.1544
vn 0.9973 0.0092 0.0727
vn 0.9228 0.3810 -0.0572
vn 0.5841 0.8116 -0.0053
vn 0.8286 0.4573 -0.3230
vn 0.8880 0.4231 0.1802
vn 0.9840 -0.1513 -0.0941
vn 0.8246 -0.5636 0.0487
vn 0.9972 0.0557 0.0497
vn 0.8813 -0.4125 0.2305
vn 0.9910 0.1119 -0.0732
vn 0.9805 0.1942 0.0309
vn 0.9736 0.1975 0.1143
vn 0.9952 0.0928 -0.0317
vn 0.9989 0.0289 0.0379
vn 0.8950 0.3578 0.2662
vn 0.9997 0.0245 0.0022
vn 0.9234 -0.0018 0.3838
vn 0.9413 0.1851 -0.2822
vn 0.9098 0.3969 0.1215
vn 0.8736 0.4797 -0.0818
vn 0.5706 0.8183 0.0691
vn 0.8911 0.4134 0.1872
vn 0.8729 0.3606 0.3287
vn 0.8270 0.4748 -0.3011
vn 0.9578 0.2154 0.1905
vn 0.7944 0.5811 0.1768
vn 0.8892 0.4574 0.0108
vn 0.8812 0.4387 -0.1760
vn -0.9998 -0.0159 0.0119
vn -0.8475 0.4746 0.2375
vn -0.8954 0.4442 0.0317
vn -0.9110 0.4118 0.0220
vn -0.9294 0.3647 -0.0568
vn -0.9611 0.2762 0.0008
vn -0.9104 0.4005 -0.1035
vn -0.8124 0.5828 0.0203
vn -0.8410 0.4865 0.2365
vn -0.8473 0.4730 0.2416
vn -0.9594 0.2114 0.1866
vn -0.9309 0.3640 -0.0301
vn -0.9831 0.1809 -0.0269
vn -0.9825 0.1850 0.0226
vn -0.9932 0.0936 -0.0694
vn -0.9238 -0.3543 -0.1452
vn -0.9849 0.1652 0.0524
vn -0.9926 -0.0620 -0.1046
vn -0.8640 -0.0667 0.4991
vn -0.9118 -0.3266 -0.2488
vn -0.9747 0.1683 0.1469
vn -0.9474 -0.2258 0.2266
vn -0.9902 -0.1393 0.0097
vn -0.9465 -0.1956 -0.2567
vn -0.9897 0.0782 -0.1203
vn -0.8135 0.5205 0.2594
vn -0.9979 -0.0182 -0.0629
vn -0.9270 0.2275 -0.2980
vn -0.8806 0.4478 0.1551
vn -0.8513 0.4917 -0.1833
vn -0.8485 0.5287 0.0227
vn -0.8906 0.4455 -0.0914
vn -0.9042 0.4175 -0.0906
vn -0.8016 0.5655 0.1940
vn -0.9202 0.3798 -0.0951
vn 0.1424 0.1447 0.9792
vn -0.0156 -0.1823 0.9831
vn 0.1756 0.0244 0.9842
vn 0.0862 0.2220 0.9712
vn -0.0034 -0.0541 0.9985
vn 0.0235 0.2947 0.9553
vn 0.1360 0.0608 0.9888
vn -0.0730 0.2497 0.9656
vn 0.3704 0.6817 0.6309
vn 0.4031 0.3212 0.8569
vn 0.4139 0.3033 0.8583
vn 0.2087 0.3038 0.9296
vn 0.3257 -0.1103 0.9390
vn 0.3123 0.6650 0.6784
vn -0.0781 0.2309 0.9698
vn 0.0083 -0.2598 0.9656
vn 0.0504 0.0812 0.9954
vn -0.1512 0.1390 0.9787
vn 0.3256 0.1957 0.9250
vn -0.1019 -0.2775 0.9553
vn 0.0796 -0.0330 0.9963
vn 0.1058 -0.1506 0.9829
vn 0.0897 -0.2597 0.9615
vn 0.0201 0.1516 0.9882
vn -0.2643 0.0731 0.9617
vn -0.1056 -0.1563 0.9820
vn -0.0817 0.0954 0.9921
vn -0.5468 0.7093 0.4449
vn -0.5000 0.6172 0.6075
vn 0.0229 -0.1424 0.9895
vn 0.0462 0.3259 0.9443
vn -0.1588 0.0870 0.9835
vn 0.0069 0.0071 1.0000
vn -0.1583 0.0882 0.9834
vn 0.0744 0.2712 0.9596
vn -0.1701 0.1800 0.9688
vn -0.0629 0.3726 0.9259
vn -0.2967 0.1818 0.9375
vn -0.5790 0.5506 0.6014
vn -0.1233 -0.0433 0.9914
vn -0.0007 0.1176 0.9931
vn 0.0085 0.0040 1.0000
vn -0.1697 0.1117 0.9792
vn -0.1214 0.0779 0.9896
vn -0.1006 0.2229 0.9696
vn -0.3018 0.2090 0.9302
vn -0.3600 0.7825 0.5081
vn 0.0000 0.0264 0.9997
vn -0.9680 0.2510 -0.0000
vn 0.9674 0.2533 0.0000
vn 0.9997 0.0264 0.0000
vn -0.9997 0.0264 0.0000
usemtl StoneMaterial
s off
f 16//1 13//1 95//1
f 16//2 4//2 13//2
f 14//3 94//3 93//3
f 14//4 95//4 94//4
f 18//5 14//5 92//5
f 2//6 16//6 14//6
f 18//7 1//7 15//7
f 16//8 2//8 4//8
f 92//9 14//9 93//9
f 14//10 16//10 95//10
f 18//11 15//11 14//11
f 15//12 2//12 14//12
f 36//13 6//13 5//13
f 20//14 3//14 18//14
f 5//15 3//15 20//15
f 19//16 18//16 17//16
f 97//17 19//17 98//17
f 38//18 20//18 19//18
f 97//19 39//19 38//19
f 20//20 38//20 5//20
f 92//21 98//21 17//21
f 92//22 17//22 18//22
f 98//23 19//23 17//23
f 19//24 20//24 18//24
f 97//25 38//25 19//25
f 27//26 11//26 44//26
f 27//27 43//27 24//27
f 27//28 44//28 43//28
f 25//29 23//29 22//29
f 25//30 24//30 23//30
f 32//31 25//31 21//31
f 12//32 27//32 25//32
f 32//33 7//33 26//33
f 26//34 7//34 12//34
f 27//35 12//35 11//35
f 21//36 25//36 22//36
f 25//37 27//37 24//37
f 32//38 26//38 25//38
f 26//39 12//39 25//39
f 9//40 10//40 35//40
f 35//41 10//41 32//41
f 33//42 31//42 30//42
f 33//43 32//43 31//43
f 29//44 35//44 33//44
f 34//45 28//45 29//45
f 35//46 29//46 9//46
f 21//47 30//47 31//47
f 21//48 31//48 32//48
f 33//49 35//49 32//49
f 34//50 29//50 33//50
f 42//51 5//51 38//51
f 42//52 39//52 130//52
f 42//53 38//53 39//53
f 40//54 129//54 128//54
f 40//55 130//55 129//55
f 47//56 40//56 37//56
f 36//57 42//57 40//57
f 47//58 6//58 41//58
f 41//59 6//59 36//59
f 42//60 36//60 5//60
f 37//61 40//61 128//61
f 40//62 42//62 130//62
f 47//63 41//63 40//63
f 41//64 36//64 40//64
f 50//65 8//65 47//65
f 11//66 8//66 50//66
f 48//67 46//67 45//67
f 48//68 47//68 46//68
f 44//69 50//69 48//69
f 49//70 43//70 44//70
f 50//71 44//71 11//71
f 37//72 45//72 46//72
f 37//73 46//73 47//73
f 48//74 50//74 47//74
f 49//75 44//75 48//75
f 60//76 54//76 114//76
f 60//77 113//77 57//77
f 83//78 58//78 56//78
f 59//79 57//79 56//79
f 55//80 58//80 65//80
f 55//81 59//81 58//81
f 54//82 60//82 59//82
f 55//83 53//83 54//83
f 57//84 113//84 112//84
f 58//85 59//85 56//85
f 59//86 60//86 57//86
f 55//87 54//87 59//87
f 55//88 51//88 52//88
f 55//89 52//89 53//89
f 67//90 51//90 55//90
f 67//91 68//91 62//91
f 83//92 64//92 58//92
f 65//93 67//93 55//93
f 66//94 65//94 64//94
f 66//95 67//95 65//95
f 77//96 66//96 64//96
f 61//97 67//97 66//97
f 61//98 91//98 68//98
f 68//99 91//99 85//99
f 67//100 63//100 51//100
f 67//101 62//101 63//101
f 83//102 75//102 64//102
f 58//103 64//103 65//103
f 77//104 61//104 66//104
f 61//105 68//105 67//105
f 77//106 90//106 61//106
f 78//107 74//107 77//107
f 75//108 76//108 64//108
f 79//109 76//109 75//109
f 78//110 77//110 76//110
f 72//111 70//111 79//111
f 77//112 74//112 90//112
f 78//113 73//113 74//113
f 78//114 69//114 73//114
f 83//115 72//115 75//115
f 64//116 76//116 77//116
f 72//117 79//117 75//117
f 79//118 78//118 76//118
f 79//119 71//119 78//119
f 71//120 69//120 78//120
f 79//121 70//121 71//121
f 84//122 70//122 72//122
f 84//123 80//123 81//123
f 57//124 84//124 56//124
f 80//125 84//125 57//125
f 57//126 109//126 80//126
f 84//127 82//127 70//127
f 84//128 81//128 82//128
f 72//129 83//129 56//129
f 72//130 56//130 84//130
f 57//131 112//131 109//131
f 90//132 91//132 61//132
f 86//133 87//133 93//133
f 89//134 90//134 87//134
f 91//135 90//135 89//135
f 86//136 13//136 89//136
f 89//137 85//137 91//137
f 99//138 93//138 87//138
f 86//139 88//139 87//139
f 88//140 89//140 87//140
f 86//141 89//141 88//141
f 89//142 13//142 85//142
f 95//143 13//143 86//143
f 93//144 94//144 86//144
f 99//145 92//145 93//145
f 86//146 94//146 95//146
f 99//147 98//147 92//147
f 97//148 98//148 96//148
f 99//149 96//149 98//149
f 97//150 121//150 39//150
f 102//151 121//151 97//151
f 102//152 103//152 123//152
f 96//153 102//153 97//153
f 101//154 100//154 99//154
f 101//155 102//155 100//155
f 90//156 101//156 87//156
f 73//157 102//157 101//157
f 103//158 73//158 69//158
f 102//159 123//159 121//159
f 96//160 99//160 100//160
f 96//161 100//161 102//161
f 87//162 101//162 99//162
f 90//163 74//163 101//163
f 74//164 73//164 101//164
f 73//165 103//165 102//165
f 30//166 107//166 115//166
f 115//167 112//167 113//167
f 111//168 110//168 107//168
f 111//169 112//169 110//169
f 106//170 109//170 111//170
f 108//171 104//171 111//171
f 111//172 105//172 106//172
f 109//173 106//173 80//173
f 115//174 107//174 110//174
f 115//175 110//175 112//175
f 108//176 111//176 107//176
f 111//177 109//177 112//177
f 111//178 104//178 105//178
f 24//179 104//179 108//179
f 30//180 22//180 107//180
f 107//181 23//181 108//181
f 24//182 43//182 104//182
f 30//183 21//183 22//183
f 107//184 22//184 23//184
f 108//185 23//185 24//185
f 120//186 30//186 118//186
f 120//187 28//187 34//187
f 120//188 33//188 30//188
f 120//189 34//189 33//189
f 120//190 117//190 28//190
f 114//191 54//191 116//191
f 30//192 115//192 118//192
f 119//193 118//193 115//193
f 119//194 120//194 118//194
f 113//195 119//195 115//195
f 114//196 120//196 119//196
f 113//197 60//197 114//197
f 120//198 116//198 117//198
f 120//199 114//199 116//199
f 113//200 114//200 119//200
f 126//201 70//201 133//201
f 122//202 124//202 134//202
f 134//203 126//203 133//203
f 127//204 125//204 124//204
f 127//205 126//205 125//205
f 130//206 127//206 124//206
f 123//207 126//207 127//207
f 130//208 121//208 127//208
f 123//209 103//209 69//209
f 126//210 71//210 70//210
f 126//211 69//211 71//211
f 134//212 124//212 125//212
f 134//213 125//213 126//213
f 123//214 69//214 126//214
f 127//215 121//215 123//215
f 122//216 129//216 124//216
f 130//217 39//217 121//217
f 122//218 37//218 128//218
f 122//219 128//219 129//219
f 124//220 129//220 130//220
f 122//221 45//221 37//221
f 132//222 48//222 131//222
f 132//223 43//223 49//223
f 122//224 131//224 45//224
f 131//225 48//225 45//225
f 132//226 49//226 48//226
f 132//227 104//227 43//227
f 139//228 80//228 106//228
f 137//229 106//229 105//229
f 122//230 134//230 131//230
f 131//231 104//231 132//231
f 136//232 135//232 134//232
f 136//233 104//233 135//233
f 133//234 136//234 134//234
f 139//235 137//235 136//235
f 133//236 82//236 138//236
f 138//237 81//237 139//237
f 137//238 105//238 104//238
f 137//239 139//239 106//239
f 131//240 134//240 135//240
f 131//241 135//241 104//241
f 136//242 137//242 104//242
f 133//243 138//243 136//243
f 138//244 139//244 136//244
f 133//245 70//245 82//245
f 138//246 82//246 81//246
f 139//247 81//247 80//247
f 47//248 8//248 6//248
f 12//249 7//249 11//249
f 15//250 1//250 2//250
f 18//251 3//251 1//251
f 32//252 10//252 7//252
