# Blender v2.77 (sub 0) OBJ File: 'stonewall2.sapphire.blend'
# www.blender.org
mtllib roundstonewall.sapphire.mtl
o RoundStoneWall_Cube.032
origin 0.000000 0.000000 0.000000
v 0.000000 -0.477172 -0.000000
v 0.386634 -0.499075 -0.500071
v 0.059114 -0.494626 -0.131716
v 0.190209 -0.436208 -0.101687
v 0.376622 -0.496740 -0.038681
v 0.260006 -0.462505 -0.281747
v 0.138151 -0.463586 -0.360904
v 0.413557 -0.512849 -0.254496
v -0.131716 -0.494626 -0.059114
v 0.060075 -0.499634 -0.500033
v -0.101687 -0.436208 -0.190209
v -0.038681 -0.496740 -0.376622
v -0.281747 -0.462505 -0.260006
v -0.360903 -0.463586 -0.138151
v -0.254496 -0.512849 -0.413557
v -0.059113 -0.494626 0.131716
v -0.489989 -0.461396 0.341392
v -0.489159 -0.488477 0.120903
v -0.190209 -0.436208 0.101687
v -0.376622 -0.496740 0.038681
v -0.260006 -0.462505 0.281747
v -0.138151 -0.463586 0.360903
v -0.413556 -0.512849 0.254495
v 0.131716 -0.494626 0.059113
v 0.101687 -0.436208 0.190209
v 0.038681 -0.496740 0.376621
v 0.281747 -0.462505 0.260006
v 0.360904 -0.463586 0.138151
v 0.254495 -0.512849 0.413556
v 0.482997 -0.478179 -0.500063
v 0.473195 -0.473701 -0.112271
v 0.488468 -0.456180 -0.336382
v 0.495290 0.029756 -0.499832
v 0.462508 -0.282250 -0.260118
v 0.463586 -0.360903 -0.138151
v 0.512866 -0.249168 -0.413141
v 0.462022 -0.465319 0.463043
v 0.449213 -0.487548 0.340784
v 0.466419 -0.494577 0.112301
v 0.436208 -0.190209 0.101687
v 0.496740 -0.376622 0.038681
v 0.462238 -0.271942 0.288280
v 0.512849 -0.413557 0.254495
v -0.453580 -0.473850 0.464179
v -0.486239 -0.144023 0.014285
v -0.495287 -0.119448 0.085574
v -0.436208 -0.101687 0.190209
v -0.490316 -0.091995 0.375816
v -0.462505 -0.281747 0.260006
v -0.463586 -0.360904 0.138151
v -0.512849 -0.254496 0.413557
v -0.486918 -0.491640 -0.500049
v -0.499915 -0.125344 -0.500016
v -0.499075 -0.386634 -0.500071
v -0.457766 -0.483505 -0.323471
v -0.480064 -0.481477 -0.121792
v -0.482860 -0.088605 -0.050596
v -0.436208 -0.190209 -0.101687
v -0.496741 -0.376622 -0.038681
v -0.461081 -0.259299 -0.277838
v -0.463586 -0.138151 -0.360903
v -0.512849 -0.413556 -0.254496
v -0.104109 -0.468500 0.476524
v 0.131386 -0.497200 0.488102
v 0.336645 -0.454273 0.482080
v -0.016603 -0.181644 0.483888
v 0.494257 -0.361897 0.481688
v 0.489854 -0.126631 0.495106
v 0.259942 -0.281901 0.462502
v 0.181704 -0.393769 0.468562
v 0.413482 -0.253277 0.512854
v -0.490199 -0.127965 0.491427
v -0.481182 -0.362424 0.493078
v -0.341918 -0.475505 0.440481
v -0.119448 -0.085574 0.495287
v -0.127584 -0.211382 0.467582
v -0.038681 -0.376622 0.496740
v -0.285721 -0.261248 0.462941
v -0.382835 -0.197309 0.462679
v -0.257268 -0.410322 0.488672
v 0.000000 0.434420 -0.503191
v -0.089032 0.447869 -0.499992
v -0.176115 0.408445 -0.506183
v -0.319444 0.373714 -0.508249
v -0.012194 0.464913 -0.343736
v -0.168927 0.457427 0.034560
v -0.271503 0.415338 0.039656
v -0.123641 0.469717 -0.195180
v -0.208600 0.422566 -0.293137
v -0.311954 0.406942 -0.270550
v 0.330391 0.378013 -0.237707
v 0.176115 0.408445 -0.506183
v 0.089032 0.447869 -0.499992
v 0.109605 0.493173 -0.079211
v 0.041704 0.462229 -0.223082
v 0.235132 0.421011 -0.271279
v 0.142246 0.448515 -0.404576
v 0.275352 0.390390 -0.506878
v 0.321088 0.327574 0.370932
v 0.039854 0.437642 0.464169
v 0.253508 0.393019 0.380391
v -0.001955 0.490970 0.247006
v 0.351598 0.316308 0.252487
v 0.346699 0.330212 0.067299
v 0.115812 0.473644 0.009665
v 0.159360 0.437254 0.095035
v 0.277070 0.419157 0.025198
v 0.272618 0.422416 0.225455
v 0.086439 0.442847 0.276797
v -0.298725 0.407886 0.308532
v -0.194372 0.376156 0.431345
v -0.092692 0.419132 0.454679
v -0.001910 0.488080 0.011278
v -0.126069 0.454389 0.347665
v 0.356881 0.322485 -0.505027
v 0.509772 -0.002970 -0.295739
v 0.475626 0.122865 -0.008213
v 0.456336 0.135246 -0.237132
v 0.390314 0.182086 -0.340185
v 0.417275 0.270136 -0.052415
v 0.333221 0.334697 -0.397782
v 0.486210 -0.144059 -0.014421
v 0.484041 -0.024147 -0.105158
v 0.435785 -0.102106 -0.190236
v 0.488109 -0.094027 -0.375855
v 0.479262 -0.022504 0.158154
v 0.479685 -0.059006 0.373928
v 0.494030 -0.097718 0.162357
v 0.469405 0.069028 0.083931
v 0.429484 0.078066 0.180015
v 0.416713 0.190690 0.211282
v 0.475646 0.107602 0.353355
v 0.400867 0.270718 0.385536
v -0.460191 0.055752 0.476225
v -0.435773 0.185864 0.458716
v -0.387544 0.280828 0.401943
v -0.482835 0.044936 0.129101
v -0.477366 -0.003202 0.211779
v -0.364522 0.317777 0.262496
v -0.428007 0.158174 0.091117
v -0.442910 0.116566 0.253244
v -0.351268 0.331678 0.020583
v -0.379614 0.316767 -0.050758
v -0.336539 0.320109 -0.454298
v -0.486402 0.129409 -0.057395
v -0.389285 0.262245 -0.503604
v -0.485743 0.054168 -0.499861
v -0.478293 0.031200 -0.157597
v -0.413202 0.187906 -0.240437
v -0.504689 0.045759 -0.349458
v 0.472267 0.057070 0.481016
v 0.109863 -0.012460 0.479399
v 0.405601 0.220841 0.436650
v 0.202974 0.014780 0.485932
v 0.093666 0.165848 0.461096
v 0.121614 0.320603 0.469579
v 0.305239 0.096914 0.458082
v 0.126970 -0.136984 0.499725
v 0.223050 -0.093328 0.456674
v 0.363633 -0.020426 0.492837
v -0.138005 -0.014784 0.484806
v -0.292018 -0.032946 0.498607
v -0.010442 0.285115 0.494024
v -0.040297 0.128944 0.503229
v -0.249379 0.070172 0.474667
v -0.189288 0.194517 0.473370
v -0.355068 0.235609 0.474611
v -0.128636 0.281297 0.473980
v -0.308741 0.311751 0.449497
vn 0.6550 -0.7515 0.0791
vn 0.3192 -0.9394 0.1247
vn 0.5868 -0.8094 -0.0233
vn -0.1575 -0.9857 0.0599
vn 0.3415 -0.9020 0.2641
vn -0.3140 -0.9493 0.0169
vn 0.1270 -0.9910 -0.0421
vn -0.3084 -0.9511 -0.0195
vn 0.1684 -0.9730 0.1576
vn 0.0017 -0.9683 0.2499
vn 0.2113 -0.9743 -0.0778
vn 0.4327 -0.8864 -0.1646
vn -0.1631 -0.9068 -0.3888
vn -0.3142 -0.9492 0.0171
vn 0.2014 -0.9333 -0.2973
vn -0.0718 -0.9897 0.1241
vn 0.0618 -0.9954 0.0728
vn 0.0599 -0.9857 0.1575
vn 0.2641 -0.9020 -0.3415
vn 0.0169 -0.9493 0.3140
vn -0.0421 -0.9910 -0.1270
vn 0.0010 -0.9502 0.3117
vn 0.1231 -0.9773 -0.1723
vn 0.1520 -0.9880 0.0267
vn -0.1145 -0.9913 0.0646
vn -0.0143 -0.9793 -0.2017
vn -0.1646 -0.8864 -0.4327
vn -0.3888 -0.9068 0.1631
vn 0.0171 -0.9492 0.3142
vn -0.2973 -0.9333 -0.2014
vn 0.0986 -0.9936 0.0552
vn -0.5069 -0.8597 0.0631
vn -0.1440 -0.9847 -0.0981
vn -0.4697 -0.8765 0.1059
vn 0.1575 -0.9857 -0.0599
vn -0.3415 -0.9020 -0.2641
vn 0.3140 -0.9493 -0.0169
vn -0.1270 -0.9910 0.0421
vn 0.2984 -0.9514 0.0761
vn -0.1854 -0.9826 0.0128
vn 0.0375 -0.9979 -0.0534
vn 0.0252 -0.9820 0.1874
vn -0.0967 -0.9948 -0.0323
vn -0.4327 -0.8864 0.1646
vn 0.1631 -0.9068 0.3888
vn 0.3142 -0.9492 -0.0171
vn -0.2014 -0.9333 0.2973
vn 0.0331 -0.9974 -0.0646
vn 0.0274 -0.7758 0.6304
vn -0.0857 -0.9941 0.0672
vn 0.1918 -0.8477 0.4947
vn -0.0599 -0.9857 -0.1575
vn -0.2641 -0.9020 0.3415
vn -0.0169 -0.9493 -0.3140
vn 0.0421 -0.9910 0.1270
vn 0.0075 -0.9506 -0.3103
vn -0.2425 -0.9572 0.1579
vn -0.2799 -0.9600 0.0085
vn 0.1847 -0.9702 0.1570
vn -0.1252 -0.9871 0.1001
vn 0.1646 -0.8864 0.4327
vn 0.3888 -0.9068 -0.1631
vn -0.0171 -0.9492 -0.3142
vn 0.2973 -0.9333 0.2014
vn -0.1161 -0.9910 -0.0666
vn 0.1686 -0.9819 -0.0862
vn 0.9785 0.1149 0.1714
vn 0.9627 -0.0232 -0.2697
vn 0.6303 0.3603 -0.6877
vn 0.9614 0.0369 0.2726
vn 0.9940 0.0205 -0.1074
vn 0.9496 0.0043 0.3134
vn 0.9827 0.0423 -0.1805
vn 0.9919 0.1018 0.0756
vn 0.9923 -0.1231 -0.0166
vn 0.9965 -0.0384 -0.0745
vn 0.9427 0.0721 0.3258
vn 0.9325 -0.2996 -0.2015
vn 0.9907 0.1183 0.0675
vn 0.7765 -0.6293 0.0331
vn 0.9394 -0.3193 -0.1248
vn 0.7993 -0.5958 0.0785
vn 0.9513 0.3082 0.0023
vn 0.9892 -0.1166 0.0884
vn 0.9417 0.3364 0.0006
vn 0.9972 0.0227 -0.0710
vn 0.9361 -0.3186 0.1491
vn 0.9695 -0.2452 0.0065
vn 0.8060 -0.5803 0.1165
vn 0.8879 0.1402 0.4381
vn 0.8856 -0.3671 -0.2844
vn 0.9407 0.3391 -0.0122
vn 0.9855 -0.0127 -0.1691
vn -0.9670 -0.2510 0.0443
vn -0.9879 0.1479 0.0470
vn -0.9435 -0.0340 0.3296
vn -0.8532 0.2921 0.4321
vn -0.9591 0.0311 -0.2812
vn -0.9940 0.0204 0.1075
vn -0.9500 0.0039 -0.3122
vn -0.9709 0.1721 0.1667
vn -0.9794 0.2001 -0.0283
vn -0.9455 -0.1953 0.2605
vn -0.9700 -0.2395 -0.0406
vn -0.9457 0.0568 -0.3201
vn -0.9333 -0.2973 0.2014
vn -0.9903 0.1201 -0.0693
vn -0.9913 -0.1253 -0.0408
vn -0.7009 -0.6978 0.1479
vn -0.9633 -0.2432 0.1135
vn -0.8219 -0.5632 -0.0852
vn -0.7915 -0.5227 0.3168
vn -0.9499 0.3124 0.0116
vn -0.9487 0.3156 -0.0186
vn -0.9676 -0.0032 0.2524
vn -0.9911 -0.1148 -0.0682
vn -0.9173 -0.2778 -0.2851
vn -0.8877 0.1400 -0.4387
vn -0.9472 0.3203 0.0159
vn -0.9892 0.0686 0.1298
vn 0.0984 -0.2062 0.9736
vn 0.0658 0.0994 0.9929
vn 0.3019 -0.0487 0.9521
vn 0.3684 0.1006 0.9242
vn -0.2408 -0.0171 0.9704
vn 0.0966 0.0546 0.9938
vn -0.3067 -0.0284 0.9514
vn 0.1351 0.1201 0.9835
vn -0.0111 0.1908 0.9816
vn 0.1300 -0.1984 0.9714
vn -0.0228 -0.2683 0.9631
vn -0.3140 0.0144 0.9493
vn 0.1242 -0.0332 0.9917
vn -0.0516 0.0900 0.9946
vn -0.0688 -0.1674 0.9835
vn 0.1386 -0.6988 0.7018
vn -0.0033 -0.2127 0.9771
vn -0.1167 -0.4879 0.8650
vn 0.0399 -0.2174 0.9753
vn -0.0718 0.1357 0.9881
vn 0.0579 0.1805 0.9819
vn 0.2689 0.0171 0.9630
vn -0.0365 -0.2593 0.9651
vn -0.0871 -0.2089 0.9741
vn -0.1668 0.0836 0.9824
vn -0.0608 0.1585 0.9855
vn 0.0841 0.1318 0.9877
vn -0.9558 0.2938 -0.0109
vn -0.7045 0.7060 0.0728
vn -0.1781 0.9839 0.0175
vn -0.3813 0.9230 -0.0520
vn 0.0456 0.9990 0.0019
vn -0.2606 0.9387 -0.2258
vn -0.1761 0.9756 -0.1308
vn -0.2329 0.9672 -0.1012
vn -0.7324 0.6636 0.1523
vn -0.4486 0.8928 -0.0407
vn -0.1510 0.9885 -0.0071
vn -0.2340 0.9672 -0.0990
vn 0.1409 0.9743 -0.1756
vn -0.4163 0.9030 0.1062
vn 0.0312 0.9822 -0.1854
vn 0.1679 0.9349 -0.3127
vn -0.0794 0.9960 -0.0418
vn 0.0973 0.9950 -0.0213
vn 0.1361 0.9534 -0.2693
vn 0.2196 0.9744 0.0480
vn 0.4324 0.9000 -0.0555
vn 0.4449 0.8865 -0.1271
vn 0.8105 0.5688 -0.1396
vn 0.6384 0.7679 0.0534
vn -0.1517 0.9854 0.0779
vn 0.3888 0.8939 -0.2229
vn 0.1219 0.9712 0.2049
vn 0.0081 0.9768 -0.2139
vn 0.4268 0.9027 -0.0547
vn 0.3775 0.9254 -0.0346
vn 0.7391 0.6721 0.0447
vn 0.7857 0.6186 0.0074
vn 0.4188 0.8926 0.1669
vn 0.4432 0.8837 0.1506
vn 0.1445 0.9894 -0.0129
vn 0.4387 0.8886 0.1338
vn 0.7535 0.6465 0.1198
vn 0.7990 0.6008 0.0240
vn 0.7765 0.6140 0.1416
vn 0.1215 0.9925 -0.0121
vn 0.2753 0.9355 0.2216
vn 0.4332 0.8887 0.1501
vn 0.1131 0.9935 0.0148
vn 0.1620 0.9656 0.2032
vn 0.6947 0.6862 0.2159
vn 0.2357 0.9681 0.0855
vn -0.0797 0.9644 0.2522
vn -0.3284 0.8087 0.4880
vn -0.3763 0.9245 0.0605
vn -0.2602 0.9656 0.0004
vn -0.7904 0.6094 -0.0631
vn -0.1541 0.9231 0.3522
vn -0.4332 0.8072 0.4010
vn -0.1821 0.9832 -0.0121
vn -0.2498 0.9673 0.0436
vn -0.7238 0.6901 -0.0000
vn 0.8625 0.4921 -0.1179
vn 0.9910 -0.0294 0.1305
vn 0.9315 0.3140 -0.1834
vn 0.9420 0.2861 -0.1758
vn 0.8367 0.5469 0.0283
vn 0.9048 0.3968 0.1544
vn 0.9973 0.0092 0.0727
vn 0.9228 0.3810 -0.0572
vn 0.5841 0.8116 -0.0053
vn 0.8286 0.4573 -0.3230
vn 0.8880 0.4231 0.1802
vn 0.9840 -0.1513 -0.0941
vn 0.8246 -0.5636 0.0487
vn 0.9972 0.0557 0.0497
vn 0.8813 -0.4125 0.2305
vn 0.9910 0.1119 -0.0732
vn 0.9805 0.1942 0.0309
vn 0.9736 0.1975 0.1143
vn 0.9952 0.0928 -0.0317
vn 0.9989 0.0289 0.0379
vn 0.8950 0.3578 0.2662
vn 0.9997 0.0245 0.0022
vn 0.9234 -0.0018 0.3838
vn 0.9413 0.1851 -0.2822
vn 0.9098 0.3969 0.1215
vn 0.8736 0.4797 -0.0818
vn 0.5706 0.8183 0.0691
vn 0.8911 0.4134 0.1872
vn 0.8729 0.3606 0.3287
vn 0.8270 0.4748 -0.3011
vn 0.9578 0.2154 0.1905
vn 0.7944 0.5811 0.1768
vn 0.8892 0.4574 0.0108
vn 0.8812 0.4387 -0.1760
vn -0.9998 -0.0159 0.0119
vn -0.8475 0.4746 0.2375
vn -0.8954 0.4442 0.0317
vn -0.9110 0.4118 0.0220
vn -0.9294 0.3647 -0.0568
vn -0.9611 0.2762 0.0008
vn -0.9104 0.4005 -0.1035
vn -0.8124 0.5828 0.0203
vn -0.8410 0.4865 0.2365
vn -0.8473 0.4730 0.2416
vn -0.9594 0.2114 0.1866
vn -0.9309 0.3640 -0.0301
vn -0.9831 0.1809 -0.0269
vn -0.9825 0.1850 0.0226
vn -0.9932 0.0936 -0.0694
vn -0.9238 -0.3543 -0.1452
vn -0.9849 0.1652 0.0524
vn -0.9926 -0.0620 -0.1046
vn -0.8640 -0.0667 0.4991
vn -0.9118 -0.3266 -0.2488
vn -0.9747 0.1683 0.1469
vn -0.9474 -0.2258 0.2266
vn -0.9902 -0.1393 0.0097
vn -0.9465 -0.1956 -0.2567
vn -0.9897 0.0782 -0.1203
vn -0.8135 0.5205 0.2594
vn -0.9979 -0.0182 -0.0629
vn -0.9270 0.2275 -0.2980
vn -0.8806 0.4478 0.1551
vn -0.8513 0.4917 -0.1833
vn -0.8485 0.5287 0.0227
vn -0.8906 0.4455 -0.0914
vn -0.9042 0.4175 -0.0906
vn -0.8016 0.5655 0.1940
vn -0.9202 0.3798 -0.0951
vn 0.1424 0.1447 0.9792
vn -0.0156 -0.1823 0.9831
vn 0.1756 0.0244 0.9842
vn 0.0862 0.2220 0.9712
vn -0.0034 -0.0541 0.9985
vn 0.0235 0.2947 0.9553
vn 0.1360 0.0608 0.9888
vn -0.0730 0.2497 0.9656
vn 0.3704 0.6817 0.6309
vn 0.4031 0.3212 0.8569
vn 0.4139 0.3033 0.8583
vn 0.2087 0.3038 0.9296
vn 0.3257 -0.1103 0.9390
vn 0.3123 0.6650 0.6784
vn -0.0781 0.2309 0.9698
vn 0.0083 -0.2598 0.9656
vn 0.0504 0.0812 0.9954
vn -0.1512 0.1390 0.9787
vn 0.3256 0.1957 0.9250
vn -0.1019 -0.2775 0.9553
vn 0.0796 -0.0330 0.9963
vn 0.1058 -0.1506 0.9829
vn 0.0897 -0.2597 0.9615
vn 0.0201 0.1516 0.9882
vn -0.2643 0.0731 0.9617
vn -0.1056 -0.1563 0.9820
vn -0.0817 0.0954 0.9921
vn -0.5468 0.7093 0.4449
vn -0.5000 0.6172 0.6075
vn 0.0229 -0.1424 0.9895
vn 0.0462 0.3259 0.9443
vn -0.1588 0.0870 0.9835
vn 0.0069 0.0071 1.0000
vn -0.1583 0.0882 0.9834
vn 0.0744 0.2712 0.9596
vn -0.1701 0.1800 0.9688
vn -0.0629 0.3726 0.9259
vn -0.2967 0.1818 0.9375
vn -0.5790 0.5506 0.6014
vn -0.1233 -0.0433 0.9914
vn -0.0007 0.1176 0.9931
vn 0.0085 0.0040 1.0000
vn -0.1697 0.1117 0.9792
vn -0.1214 0.0779 0.9896
vn -0.1006 0.2229 0.9696
vn -0.3018 0.2090 0.9302
vn -0.3600 0.7825 0.5081
usemtl StoneMaterial
s off
f 8//1 30//1 32//1
f 8//2 31//2 5//2
f 8//3 32//3 31//3
f 1//4 3//4 24//4
f 6//5 4//5 3//5
f 6//6 5//6 4//6
f 12//7 6//7 3//7
f 2//8 8//8 6//8
f 12//9 10//9 7//9
f 7//10 10//10 2//10
f 8//11 2//11 30//11
f 24//12 3//12 4//12
f 24//13 4//13 5//13
f 6//14 8//14 5//14
f 12//15 7//15 6//15
f 7//16 2//16 6//16
f 15//17 10//17 12//17
f 1//18 9//18 3//18
f 13//19 11//19 9//19
f 13//20 12//20 11//20
f 20//21 13//21 9//21
f 55//22 15//22 13//22
f 20//23 56//23 14//23
f 14//24 56//24 55//24
f 15//25 55//25 52//25
f 15//26 52//26 10//26
f 3//27 9//27 11//27
f 3//28 11//28 12//28
f 13//29 15//29 12//29
f 20//30 14//30 13//30
f 14//31 55//31 13//31
f 23//32 44//32 17//32
f 23//33 18//33 20//33
f 23//34 17//34 18//34
f 1//35 16//35 9//35
f 21//36 19//36 16//36
f 21//37 20//37 19//37
f 26//38 21//38 16//38
f 74//39 23//39 21//39
f 26//40 63//40 22//40
f 22//41 63//41 74//41
f 23//42 74//42 44//42
f 20//43 18//43 56//43
f 9//44 16//44 19//44
f 9//45 19//45 20//45
f 21//46 23//46 20//46
f 26//47 22//47 21//47
f 22//48 74//48 21//48
f 29//49 37//49 65//49
f 29//50 64//50 26//50
f 29//51 65//51 64//51
f 1//52 24//52 16//52
f 27//53 25//53 24//53
f 27//54 26//54 25//54
f 5//55 27//55 24//55
f 38//56 29//56 27//56
f 5//57 39//57 28//57
f 28//58 39//58 38//58
f 29//59 38//59 37//59
f 26//60 64//60 63//60
f 16//61 24//61 25//61
f 16//62 25//62 26//62
f 27//63 29//63 26//63
f 5//64 28//64 27//64
f 28//65 38//65 27//65
f 5//66 31//66 39//66
f 36//67 33//67 125//67
f 36//68 30//68 33//68
f 34//69 124//69 123//69
f 34//70 125//70 124//70
f 41//71 34//71 122//71
f 32//72 36//72 34//72
f 41//73 31//73 35//73
f 35//74 31//74 32//74
f 36//75 32//75 30//75
f 122//76 34//76 123//76
f 34//77 36//77 125//77
f 41//78 35//78 34//78
f 35//79 32//79 34//79
f 43//80 37//80 38//80
f 43//81 39//81 41//81
f 43//82 38//82 39//82
f 42//83 41//83 40//83
f 127//84 42//84 128//84
f 67//85 43//85 42//85
f 127//86 68//86 67//86
f 43//87 67//87 37//87
f 41//88 39//88 31//88
f 122//89 128//89 40//89
f 122//90 40//90 41//90
f 128//91 42//91 40//91
f 42//92 43//92 41//92
f 127//93 67//93 42//93
f 51//94 44//94 73//94
f 51//95 72//95 48//95
f 51//96 73//96 72//96
f 49//97 47//97 46//97
f 49//98 48//98 47//98
f 59//99 49//99 45//99
f 17//100 51//100 49//100
f 59//101 18//101 50//101
f 50//102 18//102 17//102
f 51//103 17//103 44//103
f 45//104 49//104 46//104
f 49//105 51//105 48//105
f 59//106 50//106 49//106
f 50//107 17//107 49//107
f 59//108 56//108 18//108
f 62//109 52//109 55//109
f 62//110 56//110 59//110
f 62//111 55//111 56//111
f 60//112 58//112 57//112
f 60//113 59//113 58//113
f 54//114 62//114 60//114
f 61//115 53//115 54//115
f 62//116 54//116 52//116
f 45//117 57//117 58//117
f 45//118 58//118 59//118
f 60//119 62//119 59//119
f 61//120 54//120 60//120
f 71//121 37//121 67//121
f 71//122 68//122 160//122
f 71//123 67//123 68//123
f 69//124 159//124 158//124
f 69//125 160//125 159//125
f 77//126 69//126 66//126
f 65//127 71//127 69//127
f 77//128 64//128 70//128
f 70//129 64//129 65//129
f 71//130 65//130 37//130
f 66//131 69//131 158//131
f 69//132 71//132 160//132
f 77//133 70//133 69//133
f 70//134 65//134 69//134
f 77//135 63//135 64//135
f 80//136 44//136 74//136
f 80//137 63//137 77//137
f 80//138 74//138 63//138
f 78//139 76//139 75//139
f 78//140 77//140 76//140
f 73//141 80//141 78//141
f 79//142 72//142 73//142
f 80//143 73//143 44//143
f 66//144 75//144 76//144
f 66//145 76//145 77//145
f 78//146 80//146 77//146
f 79//147 73//147 78//147
f 90//148 84//148 144//148
f 90//149 143//149 87//149
f 113//150 88//150 86//150
f 89//151 87//151 86//151
f 85//152 88//152 95//152
f 85//153 89//153 88//153
f 84//154 90//154 89//154
f 85//155 83//155 84//155
f 87//156 143//156 142//156
f 88//157 89//157 86//157
f 89//158 90//158 87//158
f 85//159 84//159 89//159
f 85//160 81//160 82//160
f 85//161 82//161 83//161
f 97//162 81//162 85//162
f 97//163 98//163 92//163
f 113//164 94//164 88//164
f 95//165 97//165 85//165
f 96//166 95//166 94//166
f 96//167 97//167 95//167
f 107//168 96//168 94//168
f 91//169 97//169 96//169
f 91//170 121//170 98//170
f 98//171 121//171 115//171
f 97//172 93//172 81//172
f 97//173 92//173 93//173
f 113//174 105//174 94//174
f 88//175 94//175 95//175
f 107//176 91//176 96//176
f 91//177 98//177 97//177
f 107//178 120//178 91//178
f 108//179 104//179 107//179
f 105//180 106//180 94//180
f 109//181 106//181 105//181
f 108//182 107//182 106//182
f 102//183 100//183 109//183
f 107//184 104//184 120//184
f 108//185 103//185 104//185
f 108//186 99//186 103//186
f 113//187 102//187 105//187
f 94//188 106//188 107//188
f 102//189 109//189 105//189
f 109//190 108//190 106//190
f 109//191 101//191 108//191
f 101//192 99//192 108//192
f 109//193 100//193 101//193
f 114//194 100//194 102//194
f 114//195 110//195 111//195
f 87//196 114//196 86//196
f 110//197 114//197 87//197
f 87//198 139//198 110//198
f 114//199 112//199 100//199
f 114//200 111//200 112//200
f 102//201 113//201 86//201
f 102//202 86//202 114//202
f 87//203 142//203 139//203
f 120//204 121//204 91//204
f 116//205 117//205 123//205
f 119//206 120//206 117//206
f 121//207 120//207 119//207
f 116//208 33//208 119//208
f 119//209 115//209 121//209
f 129//210 123//210 117//210
f 116//211 118//211 117//211
f 118//212 119//212 117//212
f 116//213 119//213 118//213
f 119//214 33//214 115//214
f 125//215 33//215 116//215
f 123//216 124//216 116//216
f 129//217 122//217 123//217
f 116//218 124//218 125//218
f 129//219 128//219 122//219
f 127//220 128//220 126//220
f 129//221 126//221 128//221
f 127//222 151//222 68//222
f 132//223 151//223 127//223
f 132//224 133//224 153//224
f 126//225 132//225 127//225
f 131//226 130//226 129//226
f 131//227 132//227 130//227
f 120//228 131//228 117//228
f 103//229 132//229 131//229
f 133//230 103//230 99//230
f 132//231 153//231 151//231
f 126//232 129//232 130//232
f 126//233 130//233 132//233
f 117//234 131//234 129//234
f 120//235 104//235 131//235
f 104//236 103//236 131//236
f 103//237 133//237 132//237
f 57//238 137//238 145//238
f 145//239 142//239 143//239
f 141//240 140//240 137//240
f 141//241 142//241 140//241
f 136//242 139//242 141//242
f 138//243 134//243 141//243
f 141//244 135//244 136//244
f 139//245 136//245 110//245
f 145//246 137//246 140//246
f 145//247 140//247 142//247
f 138//248 141//248 137//248
f 141//249 139//249 142//249
f 141//250 134//250 135//250
f 48//251 134//251 138//251
f 57//252 46//252 137//252
f 137//253 47//253 138//253
f 48//254 72//254 134//254
f 57//255 45//255 46//255
f 137//256 46//256 47//256
f 138//257 47//257 48//257
f 150//258 57//258 148//258
f 150//259 53//259 61//259
f 150//260 60//260 57//260
f 150//261 61//261 60//261
f 150//262 147//262 53//262
f 144//263 84//263 146//263
f 57//264 145//264 148//264
f 149//265 148//265 145//265
f 149//266 150//266 148//266
f 143//267 149//267 145//267
f 144//268 150//268 149//268
f 143//269 90//269 144//269
f 150//270 146//270 147//270
f 150//271 144//271 146//271
f 143//272 144//272 149//272
f 156//273 100//273 163//273
f 152//274 154//274 164//274
f 164//275 156//275 163//275
f 157//276 155//276 154//276
f 157//277 156//277 155//277
f 160//278 157//278 154//278
f 153//279 156//279 157//279
f 160//280 151//280 157//280
f 153//281 133//281 99//281
f 156//282 101//282 100//282
f 156//283 99//283 101//283
f 164//284 154//284 155//284
f 164//285 155//285 156//285
f 153//286 99//286 156//286
f 157//287 151//287 153//287
f 152//288 159//288 154//288
f 160//289 68//289 151//289
f 152//290 66//290 158//290
f 152//291 158//291 159//291
f 154//292 159//292 160//292
f 152//293 75//293 66//293
f 162//294 78//294 161//294
f 162//295 72//295 79//295
f 152//296 161//296 75//296
f 161//297 78//297 75//297
f 162//298 79//298 78//298
f 162//299 134//299 72//299
f 169//300 110//300 136//300
f 167//301 136//301 135//301
f 152//302 164//302 161//302
f 161//303 134//303 162//303
f 166//304 165//304 164//304
f 166//305 134//305 165//305
f 163//306 166//306 164//306
f 169//307 167//307 166//307
f 163//308 112//308 168//308
f 168//309 111//309 169//309
f 167//310 135//310 134//310
f 167//311 169//311 136//311
f 161//312 164//312 165//312
f 161//313 165//313 134//313
f 166//314 167//314 134//314
f 163//315 168//315 166//315
f 168//316 169//316 166//316
f 163//317 100//317 112//317
f 168//318 112//318 111//318
f 169//319 111//319 110//319
