# Blender v2.77 (sub 0) OBJ File: 'sand3.sapphire.blend'
# www.blender.org
mtllib sand2.sapphire.mtl
o Downward_Cube.007
origin 0.000000 0.000000 0.000000
v -0.500000 -0.500000 0.500000
v -0.500000 0.500000 0.500000
v 0.500000 -0.500000 0.500000
v 0.500000 0.500000 0.500000
v -0.006158 0.338404 0.550604
v 0.500000 -0.300000 0.500000
v -0.500000 -0.300000 0.500000
v 0.000000 -0.510000 0.500000
v 0.500000 0.300000 0.500000
v 0.500000 0.100000 0.500000
v 0.500000 -0.100000 0.500000
v -0.500000 -0.100000 0.500000
v -0.500000 0.100000 0.500000
v -0.500000 0.300000 0.500000
v 0.030873 0.118393 0.593495
v 0.008682 -0.075718 0.598026
v -0.027013 -0.295116 0.563194
v 0.000000 0.490000 0.500000
v 0.208760 0.422677 0.540573
v 0.250000 0.520000 0.500000
v 0.250000 -0.490000 0.500000
v 0.286616 -0.016817 0.562108
v 0.285545 0.226154 0.563342
v 0.265775 -0.360380 0.545740
v 0.238612 -0.172126 0.557695
v -0.250000 -0.480000 0.500000
v -0.225482 0.001563 0.562108
v -0.266203 0.380700 0.540573
v -0.250000 0.520000 0.500000
v -0.262835 -0.165831 0.557695
v -0.282892 0.193366 0.563342
v -0.245318 -0.368304 0.545740
vn 0.0299 0.3738 0.9270
vn -0.0133 -0.3313 0.9434
vn -0.2364 0.0000 0.9717
vn -0.0452 -0.3769 0.9251
vn -0.2207 0.0000 0.9753
vn -0.2801 0.0000 0.9600
vn -0.1710 0.0000 0.9853
vn 0.1429 -0.0722 0.9871
vn 0.0148 0.3161 0.9486
vn 0.1195 -0.0045 0.9928
vn 0.0468 -0.0566 0.9973
vn 0.0011 0.1155 0.9933
vn 0.2795 0.0000 0.9602
vn 0.1380 0.0000 0.9904
vn 0.0268 -0.3355 0.9416
vn -0.0808 0.3185 0.9445
vn 0.2833 0.0000 0.9590
vn 0.2155 0.0000 0.9765
vn -0.1493 0.0072 0.9888
vn -0.0226 0.2820 0.9592
vn -0.1045 -0.0377 0.9938
vn -0.0582 -0.0639 0.9963
vn -0.0184 0.1223 0.9923
vn 0.0304 -0.3799 0.9245
vn 0.1917 0.0000 0.9815
vn -0.1956 -0.0747 0.9778
vn -0.2296 0.0256 0.9730
vn -0.2472 -0.0802 0.9656
vn -0.2150 0.1367 0.9670
vn 0.0999 -0.1718 0.9801
vn 0.0331 0.2759 0.9606
vn 0.1263 0.0087 0.9919
vn -0.0059 -0.2828 0.9592
vn 0.0328 0.1966 0.9799
vn 0.2412 -0.1020 0.9651
vn 0.2155 0.1950 0.9568
vn -0.0482 0.4017 0.9145
vn 0.2813 -0.0036 0.9596
vn 0.1998 -0.0334 0.9793
vn -0.0998 -0.1402 0.9851
vn -0.1389 0.0390 0.9895
vn 0.0172 -0.2801 0.9598
vn -0.0507 0.1829 0.9818
vn -0.1768 0.0000 0.9843
usemtl Material.006
s off
f 4//1 20//1 19//1
f 3//2 24//2 21//2
usemtl Material.005
f 7//3 30//3 12//3
usemtl Material.006
f 8//4 32//4 26//4
usemtl Material.004
f 12//5 27//5 13//5
usemtl Material.003
f 13//6 31//6 14//6
usemtl Material.005
f 14//7 28//7 2//7
usemtl Material.004
f 16//8 25//8 22//8
usemtl Material.006
f 18//9 28//9 5//9
usemtl Material.003
f 15//10 22//10 23//10
usemtl Material.005
f 17//11 24//11 25//11
f 5//12 23//12 19//12
usemtl Material.004
f 22//13 11//13 10//13
usemtl Material.005
f 19//14 9//14 4//14
usemtl Material.006
f 21//15 24//15 8//15
f 19//16 18//16 5//16
usemtl Material.003
f 23//17 10//17 9//17
usemtl Material.005
f 25//18 6//18 11//18
usemtl Material.004
f 30//19 16//19 27//19
usemtl Material.006
f 28//20 29//20 2//20
usemtl Material.003
f 27//21 15//21 31//21
usemtl Material.005
f 32//22 17//22 30//22
f 31//23 5//23 28//23
usemtl Material.006
f 32//24 1//24 26//24
f 3//25 6//25 24//25
usemtl Material.005
f 7//26 32//26 30//26
usemtl Material.004
f 12//27 30//27 27//27
usemtl Material.003
f 13//28 27//28 31//28
usemtl Material.005
f 14//29 31//29 28//29
usemtl Material.004
f 16//30 17//30 25//30
usemtl Material.006
f 18//31 29//31 28//31
usemtl Material.003
f 15//32 16//32 22//32
usemtl Material.005
f 17//33 8//33 24//33
f 5//34 15//34 23//34
usemtl Material.004
f 22//35 25//35 11//35
usemtl Material.005
f 19//36 23//36 9//36
usemtl Material.006
f 19//37 20//37 18//37
usemtl Material.003
f 23//38 22//38 10//38
usemtl Material.005
f 25//39 24//39 6//39
usemtl Material.004
f 30//40 17//40 16//40
usemtl Material.003
f 27//41 16//41 15//41
usemtl Material.005
f 32//42 8//42 17//42
f 31//43 15//43 5//43
usemtl Material.006
f 32//44 7//44 1//44
