# Blender v2.77 (sub 0) OBJ File: 'sand3.sapphire.blend'
# www.blender.org
mtllib sand2_bot.sapphire.mtl
o DownwardBottom_Cube.002
origin 0.000000 0.000000 0.000000
v -0.500000 -0.500000 -0.500000
v 0.500000 -0.500000 0.500000
v 0.500000 -0.500000 -0.500000
v 0.078198 -0.587142 0.459489
v 0.000000 -0.500000 -0.500000
v 0.293721 -0.545759 0.482033
v 0.250000 -0.500000 -0.500000
v -0.268891 -0.548090 0.482223
v -0.250000 -0.500000 -0.500000
v 0.298917 -0.551773 0.078572
v -0.325062 -0.533816 0.077125
v -0.500000 -0.500000 0.000000
v 0.500000 -0.500000 0.000000
v 0.090030 -0.578289 -0.031101
v 0.500000 -0.500000 -0.250000
v 0.242433 -0.558332 -0.210130
v -0.195711 -0.557144 -0.201605
v -0.500000 -0.500000 -0.250000
v -0.057292 -0.536771 -0.346388
v -0.500000 -0.500000 0.250000
v -0.287043 -0.565301 0.294410
v 0.500000 -0.500000 0.250000
v 0.273314 -0.581289 0.286217
v 0.006786 -0.598906 0.282061
v -0.500000 -0.500000 0.500000
v 0.000000 -0.510000 0.500000
v 0.250000 -0.490000 0.500000
v -0.250000 -0.480000 0.500000
vn -0.0028 -0.4672 0.8842
vn 0.0064 -0.4598 0.8880
vn 0.1897 -0.9818 -0.0113
vn 0.0232 -0.2901 0.9567
vn -0.1042 -0.9887 0.1075
vn -0.0294 -0.2449 0.9691
vn 0.0623 -0.9831 0.1719
vn -0.1088 -0.9889 0.1011
vn -0.0126 -0.3156 0.9488
vn 0.0206 -0.2579 0.9659
vn 0.2011 -0.9673 0.1546
vn 0.0674 -0.9889 -0.1323
vn -0.1945 -0.9749 0.1081
vn -0.1178 -0.9855 -0.1222
vn 0.1403 -0.9897 -0.0279
vn -0.1317 -0.9862 -0.0999
vn 0.3376 -0.9413 0.0000
vn -0.2932 -0.9561 0.0000
vn 0.3227 -0.9418 -0.0941
vn -0.2746 -0.9573 -0.0907
vn 0.2493 -0.9684 0.0000
vn -0.1898 -0.9818 0.0000
vn -0.0965 -0.9946 0.0384
vn 0.1271 -0.9919 -0.0023
vn 0.2401 -0.9704 -0.0249
vn 0.0063 -0.9910 -0.1334
vn -0.0152 -0.9922 -0.1236
vn -0.1841 -0.9829 -0.0032
vn 0.2209 -0.9753 0.0000
vn 0.0189 -0.9803 -0.1968
vn -0.0439 -0.9827 -0.1802
vn -0.1579 -0.9747 -0.1579
vn 0.1890 -0.9636 -0.1890
vn 0.0000 -0.9725 -0.2328
vn 0.0000 -1.0000 0.0000
usemtl Material.006
s off
f 6//1 26//1 4//1
f 26//2 8//2 4//2
f 24//3 6//3 4//3
f 6//4 27//4 26//4
f 8//5 24//5 4//5
f 26//6 28//6 8//6
f 24//7 23//7 6//7
f 8//8 21//8 24//8
f 2//9 27//9 6//9
f 8//10 28//10 25//10
f 23//11 2//11 6//11
f 24//12 10//12 23//12
f 25//13 21//13 8//13
f 24//14 21//14 11//14
f 24//15 14//15 10//15
f 24//16 11//16 14//16
f 23//17 22//17 2//17
f 25//18 20//18 21//18
f 22//19 23//19 10//19
f 20//20 11//20 21//20
f 22//21 10//21 13//21
f 20//22 12//22 11//22
f 14//23 11//23 17//23
f 14//24 16//24 10//24
f 13//25 10//25 16//25
f 14//26 17//26 19//26
f 14//27 19//27 16//27
f 11//22 12//22 18//22
f 11//28 18//28 17//28
f 13//29 16//29 15//29
f 19//30 7//30 16//30
f 19//31 17//31 9//31
f 18//32 9//32 17//32
f 15//33 16//33 7//33
f 19//34 5//34 7//34
f 19//34 9//34 5//34
f 15//35 7//35 3//35
f 18//35 1//35 9//35
