# Blender v2.77 (sub 0) OBJ File: 'stonewall2.sapphire.blend'
# www.blender.org
mtllib stonewall2_emerald_part.sapphire.mtl
o Emerald_Cube.004
origin 0.000000 0.000000 0.000000
v -0.288050 -0.312523 -0.484725
v -0.400675 -0.453984 -0.024106
v -0.435727 -0.290770 0.312081
v 0.309783 0.343189 -0.375674
v 0.373900 -0.324739 -0.468767
v 0.164612 -0.491605 -0.308933
v -0.087579 -0.420246 -0.286641
v 0.334053 0.525178 -0.180529
v 0.436013 0.352052 0.362107
v 0.440139 0.114378 0.472910
v 0.397190 -0.384083 0.404740
v 0.276110 -0.480281 0.077075
v 0.148868 0.440085 0.080705
v -0.293824 0.308982 0.424184
v -0.181291 -0.497021 0.335226
v 0.235741 0.466534 -0.125114
v -0.411923 0.400414 0.257706
v -0.383595 0.400360 -0.008038
v -0.274199 0.361532 -0.230338
v 0.089164 -0.475501 0.215289
v 0.304320 0.067147 0.423706
v 0.495207 0.223741 -0.178937
v 0.484224 0.077245 -0.146459
v 0.472327 0.260902 0.072695
v 0.470252 0.008562 0.010074
v 0.498583 -0.220201 0.297870
v -0.091357 -0.375241 -0.514918
v 0.416338 0.160157 -0.485371
v -0.393723 0.018823 0.403577
v -0.497751 0.236793 0.110043
v -0.359415 -0.037774 -0.180184
v -0.376035 -0.412543 0.219611
v -0.155658 -0.461242 0.081628
v 0.115907 -0.433014 -0.174930
v -0.057594 -0.422795 -0.109069
v -0.422956 -0.123691 -0.012301
v -0.477177 0.089054 0.171853
v -0.448084 0.138317 0.231323
v -0.420263 -0.163706 -0.109141
v -0.390615 -0.272071 -0.235484
v -0.315972 0.164734 0.420947
v -0.414245 -0.079828 0.270726
v -0.524689 -0.173511 0.097597
v -0.415751 -0.412337 0.007232
v -0.423686 -0.036515 0.318115
v -0.389745 0.022747 -0.002153
v -0.523295 0.139636 -0.186313
v -0.438021 0.221345 -0.271712
v -0.408907 0.361905 -0.108912
v -0.432143 -0.102521 0.218435
v -0.006341 0.463944 -0.015851
v 0.014269 0.518005 -0.199984
v 0.072707 0.475642 0.178309
v 0.018156 0.525430 0.128239
v 0.255611 0.317184 0.305594
v -0.021138 0.429987 -0.041589
v -0.107941 0.435431 -0.287493
v 0.318859 0.268716 0.367756
v -0.212554 0.246126 0.441191
v -0.204103 0.403544 0.198593
v 0.081975 0.073367 0.459546
v 0.418571 -0.399339 0.267218
v 0.360555 -0.397943 0.382764
v 0.158626 -0.475421 0.400819
v -0.244296 0.318213 0.352419
v -0.293904 0.330465 0.432273
v 0.265205 -0.429899 0.282579
v -0.155156 -0.210213 0.494010
v -0.267546 0.232900 0.284135
v -0.081782 -0.406789 0.439713
v -0.213815 0.152092 0.512104
v -0.285128 0.198880 0.453973
v -0.317087 0.296754 0.290312
v -0.044280 -0.118945 0.434385
v 0.082878 -0.366709 -0.509969
v 0.204498 0.395478 0.119409
v 0.203833 0.393401 0.217907
v -0.164957 0.028643 0.446716
v -0.106482 0.124962 0.467714
v -0.332687 -0.086389 0.459408
v -0.194293 0.314045 0.506644
v -0.032700 0.046575 0.445810
v 0.118456 0.232638 0.468573
v -0.026663 0.402574 0.196841
v -0.214517 -0.367921 0.457005
v 0.457953 0.195468 0.251421
v 0.500902 0.175054 -0.066015
v 0.468474 0.145191 0.183349
v 0.471253 0.130307 0.040286
v -0.471765 0.183260 -0.039851
v -0.365312 0.434942 -0.100196
vn 0.8216 -0.2822 -0.4954
vn 0.5524 -0.8225 -0.1354
vn -0.4119 -0.9102 -0.0437
vn 0.5801 0.7983 0.1618
vn -0.1103 -0.9872 -0.1150
vn 0.0360 0.8701 0.4916
vn -0.4721 -0.1338 0.8714
vn -0.5752 -0.6545 0.4906
vn -0.7280 -0.0246 -0.6851
vn -0.8938 -0.3180 -0.3162
vn 0.9222 -0.3777 -0.0834
vn -0.4284 0.3757 0.8218
vn -0.3070 -0.1029 0.9461
vn -0.2695 -0.9625 0.0317
vn -0.5342 -0.5078 0.6759
vn -0.3312 0.8791 0.3427
vn 0.8961 0.4429 -0.0271
vn 0.9967 0.0684 -0.0437
vn -0.5687 0.1031 0.8161
vn 0.9717 -0.0925 -0.2173
vn -0.6131 -0.5847 -0.5313
vn 0.1247 0.9761 0.1781
vn -0.9856 -0.1617 -0.0486
vn -0.8606 0.5057 -0.0602
vn 0.9914 -0.0944 -0.0907
vn 0.3858 0.8231 -0.4168
vn -0.6332 0.6038 -0.4843
vn -0.4811 0.7923 -0.3752
vn 0.2056 -0.9712 0.1203
vn -0.1665 0.9859 -0.0180
vn -0.2826 -0.9420 -0.1810
vn -0.3011 0.8467 0.4387
vn 0.5591 0.8174 0.1385
vn 0.9438 -0.3212 0.0776
vn 0.8367 -0.3856 -0.3889
vn 0.9967 -0.0273 0.0770
vn 0.9924 0.0656 0.1038
vn 0.9923 0.0666 0.1042
vn 0.8199 -0.1463 0.5535
vn -0.3236 -0.9293 -0.1779
vn 0.0565 -0.8376 -0.5433
vn 0.9670 -0.1221 -0.2236
vn -0.1749 -0.9284 -0.3279
vn 0.8182 -0.1999 0.5390
vn -0.9869 -0.0527 -0.1523
vn 0.8818 0.4715 0.0106
vn -0.3576 0.9338 0.0073
vn 0.0835 -0.9961 -0.0284
vn -0.1316 -0.9819 0.1363
vn 0.7267 0.6111 -0.3138
vn 0.7746 0.4116 -0.4802
vn 0.0682 -0.9974 -0.0251
vn 0.0398 -0.9833 -0.1778
vn -0.1944 -0.9803 0.0354
vn -0.1017 -0.9882 -0.1146
vn -0.5220 -0.8348 0.1753
vn -0.9215 0.3493 -0.1700
vn -0.9204 -0.1264 0.3699
vn -0.9114 0.0443 0.4092
vn -0.8908 0.2133 -0.4012
vn -0.7881 0.3606 0.4989
vn -0.8850 -0.4496 0.1213
vn -0.9693 0.0516 -0.2403
vn -0.9536 0.1485 0.2620
vn -0.4162 -0.4125 -0.8103
vn -0.7526 0.6241 0.2098
vn -0.8506 -0.3405 0.4007
vn -0.8342 0.2582 0.4872
vn -0.5259 0.8109 -0.2566
vn -0.5696 0.2577 0.7805
vn -0.0449 0.9382 0.3432
vn 0.0096 0.8734 0.4870
vn -0.3161 0.6567 -0.6847
vn 0.1944 0.7943 0.5756
vn 0.0120 0.7188 -0.6951
vn 0.0163 -0.0700 0.9974
vn 0.2069 -0.9683 0.1396
vn 0.3578 -0.9331 -0.0367
vn -0.4959 -0.4562 0.7389
vn -0.2726 0.0533 0.9606
vn 0.4250 0.3204 -0.8466
vn 0.1291 -0.1066 0.9859
vn 0.1314 0.8519 0.5069
vn -0.4245 -0.3788 0.8224
vn -0.5042 0.8309 0.2355
vn -0.5338 -0.4814 0.6951
vn 0.0648 0.1666 0.9839
vn 0.0536 -0.2472 0.9675
vn -0.2558 0.9335 0.2514
vn 0.2766 -0.3620 0.8902
vn 0.0762 -0.1670 0.9830
vn 0.3059 -0.3483 0.8861
vn 0.8175 0.5757 0.0177
vn 0.1560 -0.0915 0.9835
vn 0.8851 -0.4270 0.1850
vn 0.3205 0.8840 -0.3404
vn 0.1569 -0.0678 0.9853
vn -0.1244 -0.8893 -0.4402
vn -0.9977 -0.0673 0.0001
vn -0.8552 -0.4715 0.2152
vn -0.9845 -0.1072 -0.1391
vn 0.1112 -0.8951 0.4318
vn -0.6487 -0.4305 0.6277
vn -0.5776 0.1224 0.8071
vn -0.7527 -0.0906 0.6521
vn -0.7621 0.1289 0.6345
vn -0.9483 0.0248 0.3164
vn -0.8797 -0.0511 0.4727
vn -0.9144 0.3726 -0.1582
vn 0.0577 0.9868 0.1512
vn -0.2788 -0.8796 -0.3854
vn 0.1761 -0.9464 0.2709
vn -0.1225 0.6329 -0.7645
vn -0.3449 0.5371 0.7698
vn -0.7080 -0.3515 0.6125
vn 0.5265 0.8499 0.0215
vn 0.1959 -0.7953 -0.5737
vn -0.0917 0.9903 -0.1048
vn 0.0462 -0.9836 -0.1746
vn 0.2875 -0.9517 -0.1072
vn -0.3201 -0.6409 0.6977
vn -0.8351 -0.5276 0.1557
vn -0.8945 -0.2925 -0.3380
vn -0.8954 0.2117 -0.3917
vn -0.9504 0.0377 0.3088
vn -0.7634 0.2153 -0.6090
vn -0.8976 -0.2706 -0.3479
vn 0.0826 0.9368 0.3400
vn -0.1494 0.2745 0.9499
vn -0.5441 0.7932 -0.2735
vn -0.2466 0.5395 0.8051
vn 0.5613 0.4404 0.7008
vn 0.2704 0.7659 0.5833
vn -0.1046 -0.0612 0.9926
vn 0.0385 -0.2351 0.9712
vn 0.3342 0.1962 0.9218
vn -0.6535 0.5735 -0.4940
vn -0.5731 -0.2824 0.7693
vn 0.1289 -0.0848 0.9880
vn 0.5045 -0.0498 0.8620
vn -0.9891 -0.0857 -0.1196
vn -0.0897 -0.7100 0.6985
vn -0.1118 -0.6970 0.7083
vn -0.0573 0.1916 0.9798
vn -0.7645 0.6427 0.0496
vn -0.4906 0.5672 0.6615
vn -0.8386 0.4032 0.3663
vn -0.6093 -0.3308 0.7207
vn -0.2453 0.5858 0.7724
vn 0.2868 0.7464 0.6006
vn 0.4347 0.5385 0.7218
vn 0.0876 -0.1908 0.9777
vn -0.1118 -0.0307 0.9933
vn -0.5826 0.6790 -0.4468
vn 0.0113 0.4844 0.8748
vn -0.5651 -0.6384 0.5226
vn -0.5458 0.0088 0.8379
vn 0.9701 0.2369 0.0532
vn 0.9873 0.1155 0.1089
vn 0.9997 -0.0134 0.0208
vn 0.9680 -0.0679 0.2414
vn 0.9483 -0.2817 0.1459
vn -0.6805 0.7324 0.0213
vn -0.8912 -0.4536 0.0075
vn -0.0679 0.8785 0.4730
vn -0.2956 0.8657 -0.4040
usemtl GemColor
s off
f 26//1 62//1 12//1
f 6//2 5//2 12//2
f 19//3 17//3 18//3
f 13//4 54//4 53//4
f 20//5 34//5 12//5
f 16//6 52//6 56//6
f 21//7 63//7 11//7
f 32//8 15//8 3//8
f 43//9 36//9 2//9
f 2//10 40//10 1//10
f 25//11 12//11 23//11
f 9//12 21//12 10//12
f 21//13 11//13 10//13
f 6//14 35//14 7//14
f 59//15 81//15 14//15
f 8//16 16//16 9//16
f 9//17 24//17 8//17
f 25//18 88//18 26//18
f 80//19 71//19 29//19
f 23//20 5//20 28//20
f 36//21 47//21 31//21
f 9//22 16//22 13//22
f 38//23 42//23 45//23
f 49//24 30//24 17//24
f 23//25 22//25 87//25
f 13//26 51//26 54//26
f 16//27 8//27 4//27
f 18//28 57//28 19//28
f 20//29 62//29 67//29
f 51//30 18//30 17//30
f 7//31 27//31 6//31
f 76//32 55//32 9//32
f 53//33 76//33 13//33
f 23//34 12//34 5//34
f 25//35 26//35 12//35
f 23//36 89//36 25//36
f 9//37 86//37 24//37
f 24//38 86//38 88//38
f 10//39 11//39 26//39
f 1//40 27//40 7//40
f 75//41 6//41 27//41
f 22//42 23//42 28//42
f 1//43 7//43 2//43
f 14//44 65//44 66//44
f 48//45 90//45 30//45
f 8//46 24//46 22//46
f 11//47 63//47 64//47
f 35//48 2//48 7//48
f 20//49 32//49 33//49
f 4//50 22//50 28//50
f 8//51 22//51 4//51
f 20//52 64//52 15//52
f 33//53 35//53 20//53
f 32//54 44//54 33//54
f 35//55 34//55 20//55
f 12//56 34//56 6//56
f 39//57 36//57 31//57
f 37//58 50//58 42//58
f 37//59 38//59 30//59
f 40//60 31//60 1//60
f 29//61 41//61 38//61
f 43//62 44//62 3//62
f 3//63 45//63 42//63
f 42//64 50//64 3//64
f 48//65 31//65 47//65
f 46//66 43//66 50//66
f 46//67 90//67 47//67
f 3//68 50//68 43//68
f 51//69 60//69 54//69
f 21//70 58//70 55//70
f 56//71 91//71 18//71
f 65//72 84//72 60//72
f 56//73 51//73 16//73
f 77//74 83//74 55//74
f 57//75 52//75 4//75
f 82//76 78//76 74//76
f 67//77 62//77 11//77
f 64//78 67//78 11//78
f 65//79 73//79 69//79
f 61//80 74//80 70//80
f 66//81 59//81 14//81
f 63//82 70//82 64//82
f 65//83 60//83 17//83
f 68//84 80//84 3//84
f 69//85 38//85 41//85
f 73//86 30//86 69//86
f 72//87 59//87 66//87
f 70//88 68//88 85//88
f 81//89 53//89 14//89
f 79//90 71//90 78//90
f 79//91 83//91 81//91
f 80//92 78//92 71//92
f 76//93 77//93 55//93
f 83//94 61//94 21//94
f 26//95 11//95 62//95
f 16//96 4//96 52//96
f 21//97 61//97 63//97
f 32//98 20//98 15//98
f 39//99 2//99 36//99
f 44//100 43//100 2//100
f 2//101 39//101 40//101
f 6//102 34//102 35//102
f 59//103 79//103 81//103
f 72//104 29//104 71//104
f 3//105 80//105 29//105
f 36//106 46//106 47//106
f 45//107 29//107 38//107
f 38//108 37//108 42//108
f 49//109 48//109 30//109
f 13//110 16//110 51//110
f 91//111 57//111 18//111
f 20//112 12//112 62//112
f 51//113 56//113 18//113
f 58//114 9//114 55//114
f 13//115 76//115 9//115
f 53//116 77//116 76//116
f 75//117 5//117 6//117
f 49//118 17//118 19//118
f 35//119 33//119 2//119
f 20//120 67//120 64//120
f 2//121 33//121 44//121
f 32//122 3//122 44//122
f 37//123 46//123 50//123
f 40//124 39//124 31//124
f 3//125 29//125 45//125
f 46//126 36//126 43//126
f 46//127 37//127 30//127
f 51//128 17//128 60//128
f 21//129 9//129 58//129
f 14//130 53//130 65//130
f 54//131 84//131 53//131
f 21//132 55//132 83//132
f 77//133 81//133 83//133
f 74//134 61//134 82//134
f 82//135 79//135 78//135
f 78//136 68//136 74//136
f 69//137 66//137 65//137
f 65//138 17//138 73//138
f 70//139 63//139 61//139
f 74//140 68//140 70//140
f 66//141 69//141 72//141
f 15//142 64//142 70//142
f 70//143 85//143 15//143
f 68//144 78//144 80//144
f 72//145 69//145 41//145
f 30//146 38//146 69//146
f 41//147 29//147 72//147
f 73//148 17//148 30//148
f 72//149 71//149 59//149
f 81//150 77//150 53//150
f 79//151 59//151 71//151
f 79//152 82//152 83//152
f 83//153 82//153 61//153
f 65//154 53//154 84//154
f 54//155 60//155 84//155
f 15//156 85//156 3//156
f 85//157 68//157 3//157
f 87//158 22//158 24//158
f 88//159 10//159 26//159
f 88//160 89//160 24//160
f 89//161 87//161 24//161
f 86//37 9//37 10//37
f 25//160 89//160 88//160
f 23//162 87//162 89//162
f 48//163 47//163 90//163
f 46//164 30//164 90//164
f 88//38 86//38 10//38
f 56//165 52//165 91//165
f 91//166 52//166 57//166
