# Blender v2.77 (sub 0) OBJ File: 'stonewall2.sapphire.blend'
# www.blender.org
mtllib stonewall2_bottom.sapphire.mtl
o Bottom2_Cube.026
origin 0.000000 0.000000 0.000000
v 0.500000 0.500000 0.500000
v -0.000000 0.500000 0.500000
v 0.125000 0.500000 0.500000
v 0.250000 0.500000 0.500000
v 0.375000 0.500000 0.500000
v -0.500000 0.500000 0.500000
v -0.375000 0.500000 0.500000
v -0.250000 0.500000 0.500000
v -0.125000 0.500000 0.500000
v -0.124974 -0.485303 0.002526
v -0.214229 -0.488225 -0.008239
v -0.348254 -0.497140 -0.013716
v -0.375000 -0.500000 -0.500000
v -0.500000 -0.500000 0.375000
v -0.085574 -0.495287 0.119448
v -0.375816 -0.490316 0.091995
v -0.173739 -0.480970 0.231129
v -0.138151 -0.463586 0.360903
v -0.324523 -0.478909 0.415410
v -0.435579 -0.510562 0.353127
v 0.500000 -0.500000 0.000000
v 0.500000 -0.500000 -0.125000
v 0.500000 -0.500000 -0.375000
v 0.500000 -0.500000 0.375000
v 0.500000 -0.500000 0.250000
v 0.500000 -0.500000 0.125000
v -0.500000 -0.000000 0.500000
v -0.500000 0.125000 0.500000
v -0.500000 0.250000 0.500000
v -0.500000 0.375000 0.500000
v -0.500000 -0.500000 0.000000
v -0.500000 -0.500000 0.125000
v -0.500000 -0.125000 0.500000
v -0.500000 -0.500000 -0.500000
v -0.500000 -0.500000 -0.375000
v -0.500000 -0.500000 -0.250000
v -0.500000 -0.500000 -0.125000
v 0.500000 0.000000 0.500000
v 0.000000 -0.000000 0.477172
v 0.500000 0.125000 0.500000
v 0.500000 0.250000 0.500000
v 0.500000 0.375000 0.500000
v 0.124974 -0.002526 0.485303
v 0.214229 0.008239 0.488225
v 0.348254 0.013716 0.497140
v -0.008239 0.214229 0.488225
v 0.119448 0.085574 0.495287
v 0.101687 0.190209 0.436208
v 0.091995 0.375816 0.490316
v 0.231129 0.173739 0.480970
v 0.288279 0.271942 0.462238
v 0.223446 0.402491 0.512556
v 0.360903 0.138151 0.463586
v 0.415410 0.324524 0.478908
v 0.353127 0.435579 0.510561
v -0.002526 -0.124974 0.485303
v 0.008239 -0.214229 0.488225
v 0.500000 -0.125000 0.500000
v 0.085574 -0.119448 0.495287
v 0.190209 -0.101687 0.436208
v 0.375816 -0.091995 0.490316
v 0.402491 -0.223446 0.512556
v 0.138151 -0.360903 0.463586
v 0.435579 -0.353128 0.510561
v -0.500000 -0.250000 0.500000
v -0.500000 -0.375000 0.500000
v -0.124974 0.002526 0.485303
v -0.214229 -0.008239 0.488225
v -0.348254 -0.013716 0.497140
v -0.119448 -0.085574 0.495287
v -0.101687 -0.190209 0.436208
v -0.231129 -0.173739 0.480970
v -0.223446 -0.402491 0.512556
v -0.360903 -0.138151 0.463586
v -0.415410 -0.324523 0.478908
v 0.002526 0.124974 0.485303
v -0.013716 0.348254 0.497140
v -0.085574 0.119448 0.495287
v -0.190209 0.101687 0.436208
v -0.375816 0.091995 0.490316
v -0.173739 0.231129 0.480970
v -0.271942 0.288280 0.462238
v -0.402491 0.223446 0.512556
v -0.138151 0.360904 0.463586
v -0.324523 0.415410 0.478908
v -0.435579 0.353128 0.510561
v -0.500000 -0.500000 0.500000
v -0.500000 -0.500000 0.250000
v -0.002434 -0.447934 0.442399
v 0.000000 -0.477172 -0.000000
v -0.108748 -0.455791 0.434895
v -0.223237 -0.462634 0.449332
v -0.349740 -0.464761 0.467956
v 0.002526 -0.485303 0.124974
v -0.008239 -0.488225 0.214229
v -0.013716 -0.497140 0.348254
v -0.190209 -0.436208 0.101687
v -0.271942 -0.462238 0.288279
v -0.402491 -0.512556 0.223446
v 0.500000 -0.500000 0.500000
v 0.124974 -0.485303 -0.002526
v 0.214229 -0.488225 0.008239
v 0.348254 -0.497140 0.013716
v 0.124088 -0.437326 0.447441
v 0.119448 -0.495287 0.085574
v 0.101687 -0.436208 0.190209
v 0.091995 -0.490316 0.375816
v 0.231129 -0.480970 0.173739
v 0.288279 -0.462238 0.271942
v 0.223446 -0.512556 0.402491
v 0.360904 -0.463586 0.138151
v 0.415410 -0.478908 0.324523
v 0.353127 -0.510561 0.435579
v 0.500000 -0.500000 -0.500000
v 0.000000 -0.500000 -0.500000
v 0.125000 -0.500000 -0.500000
v 0.250000 -0.500000 -0.500000
v 0.375000 -0.500000 -0.500000
v -0.002526 -0.485303 -0.124975
v 0.008239 -0.488225 -0.214229
v 0.013716 -0.497140 -0.348254
v 0.500000 -0.500000 -0.250000
v 0.085574 -0.495287 -0.119448
v 0.190209 -0.436208 -0.101687
v 0.375816 -0.490316 -0.091995
v 0.173739 -0.480970 -0.231129
v 0.271942 -0.462238 -0.288279
v 0.402491 -0.512556 -0.223446
v 0.138151 -0.463586 -0.360903
v 0.324524 -0.478908 -0.415410
v 0.435579 -0.510561 -0.353127
v -0.250000 -0.500000 -0.500000
v -0.125000 -0.500000 -0.500000
v -0.119448 -0.495287 -0.085574
v -0.101687 -0.436208 -0.190209
v -0.091995 -0.490316 -0.375816
v -0.231129 -0.480970 -0.173739
v -0.288279 -0.462238 -0.271942
v -0.223446 -0.512556 -0.402491
v -0.360903 -0.463586 -0.138151
v -0.415410 -0.478908 -0.324523
v -0.353127 -0.510561 -0.435579
v 0.250078 -0.451625 0.471995
v 0.354182 -0.479947 0.483643
v 0.013716 -0.348254 0.497140
v 0.500000 -0.375000 0.500000
v 0.500000 -0.250000 0.500000
v 0.173739 -0.231129 0.480970
v 0.271942 -0.288280 0.462238
v 0.324523 -0.415410 0.478908
v -0.091995 -0.375816 0.490316
v -0.288280 -0.271942 0.462238
v -0.353128 -0.435579 0.510561
vn 0.1618 -0.9868 0.0000
vn -0.0252 -0.9972 -0.0709
vn -0.0344 -0.9865 0.1599
vn 0.1277 -0.9918 0.0000
vn -0.0777 -0.9970 0.0000
vn 0.1711 -0.9848 0.0285
vn -0.0000 -0.9868 -0.1618
vn 0.0000 -0.9918 -0.1277
vn 0.0188 -0.9933 0.1138
vn 0.0684 -0.9964 -0.0507
vn 0.2191 -0.9362 -0.2747
vn 0.2479 -0.9688 0.0072
vn 0.0565 -0.9514 0.3028
vn -0.0717 -0.9974 0.0000
vn 0.0285 -0.9848 -0.1711
vn 0.0668 -0.9909 0.1165
vn -0.1012 -0.9943 -0.0332
vn -0.1926 -0.9522 -0.2372
vn 0.0188 -0.9998 -0.0000
vn 0.2533 -0.9674 0.0000
vn 0.2419 -0.9703 0.0000
vn -0.1618 -0.9868 0.0000
vn 0.0252 -0.9972 0.0709
vn 0.0344 -0.9865 -0.1599
vn -0.1277 -0.9918 -0.0000
vn 0.0624 -0.9924 -0.1058
vn -0.0225 -0.9018 0.4316
vn 0.0629 -0.9948 0.0806
vn 0.1138 -0.9933 -0.0188
vn -0.4457 -0.8620 -0.2414
vn 0.2804 -0.9598 -0.0111
vn -0.0507 -0.9964 -0.0684
vn -0.0956 -0.9828 0.1579
vn 0.3500 -0.9365 0.0220
vn 0.0777 -0.9970 0.0000
vn -0.1711 -0.9848 -0.0285
vn 0.1165 -0.9909 -0.0668
vn -0.5017 -0.8598 0.0956
vn 0.2419 -0.8964 0.3713
vn -0.0332 -0.9943 0.1012
vn -0.3301 -0.9043 -0.2707
vn 0.3912 -0.9172 -0.0758
vn -0.2372 -0.9522 0.1926
vn 0.0495 -0.9927 -0.1097
vn 0.2344 -0.9693 0.0747
vn -0.2191 -0.9362 0.2747
vn -0.2479 -0.9688 -0.0072
vn -0.0565 -0.9514 -0.3028
vn 0.0717 -0.9974 0.0000
vn -0.0188 -0.9998 0.0000
vn -0.2533 -0.9674 0.0000
vn -0.2419 -0.9703 0.0000
vn 0.0000 0.1618 0.9868
vn 0.0709 -0.0252 0.9972
vn -0.1599 -0.0344 0.9865
vn 0.0000 0.1277 0.9918
vn -0.1058 -0.0624 0.9924
vn 0.4316 0.0225 0.9018
vn 0.0806 -0.0629 0.9948
vn -0.0188 -0.1138 0.9933
vn -0.2414 0.4457 0.8620
vn -0.0111 -0.2804 0.9598
vn -0.0684 0.0507 0.9964
vn 0.1579 0.0956 0.9828
vn 0.0220 -0.3500 0.9365
vn -0.2191 0.2747 0.9362
vn -0.2479 -0.0072 0.9688
vn -0.0565 -0.3028 0.9514
vn 0.0717 -0.0000 0.9974
vn 0.0000 -0.0777 0.9970
vn -0.0285 0.1711 0.9848
vn -0.0668 -0.1165 0.9909
vn 0.0956 0.5017 0.8598
vn 0.3713 -0.2419 0.8964
vn 0.1012 0.0332 0.9943
vn -0.2707 0.3301 0.9043
vn -0.0758 -0.3912 0.9172
vn 0.1926 0.2372 0.9522
vn -0.1097 -0.0495 0.9927
vn 0.0747 -0.2344 0.9693
vn -0.0188 0.0000 0.9998
vn -0.2533 0.0000 0.9674
vn -0.2419 0.0000 0.9703
vn 0.1618 0.0000 0.9868
vn -0.0252 -0.0709 0.9972
vn -0.0344 0.1599 0.9865
vn 0.1277 -0.0000 0.9918
vn -0.0624 0.1058 0.9924
vn 0.0225 -0.4316 0.9018
vn -0.0629 -0.0806 0.9948
vn -0.1138 0.0188 0.9933
vn 0.4457 0.2414 0.8620
vn -0.2804 0.0111 0.9598
vn 0.0507 0.0684 0.9964
vn 0.0956 -0.1579 0.9828
vn -0.3500 -0.0220 0.9365
vn -0.0777 -0.0000 0.9970
vn 0.1711 0.0285 0.9848
vn -0.1165 0.0668 0.9909
vn 0.5017 -0.0956 0.8598
vn -0.2419 -0.3713 0.8964
vn 0.0332 -0.1012 0.9943
vn 0.3301 0.2707 0.9043
vn -0.3912 0.0758 0.9172
vn 0.2372 -0.1926 0.9522
vn -0.0495 0.1097 0.9927
vn -0.2344 -0.0747 0.9693
vn 0.1058 0.0624 0.9924
vn -0.4316 -0.0225 0.9018
vn -0.0806 0.0629 0.9948
vn 0.0188 0.1138 0.9933
vn 0.2414 -0.4457 0.8620
vn 0.0111 0.2804 0.9598
vn 0.0684 -0.0507 0.9964
vn -0.1579 -0.0956 0.9828
vn -0.0220 0.3500 0.9365
vn 0.2191 -0.2747 0.9362
vn 0.2479 0.0072 0.9688
vn 0.0565 0.3028 0.9514
vn -0.0717 -0.0000 0.9974
vn 0.0668 0.1165 0.9909
vn -0.0956 -0.5017 0.8598
vn -0.3713 0.2419 0.8964
vn -0.1012 -0.0332 0.9943
vn 0.2707 -0.3301 0.9043
vn 0.0758 0.3912 0.9172
vn -0.1926 -0.2372 0.9522
vn 0.1097 0.0495 0.9927
vn -0.0747 0.2344 0.9693
vn 0.0188 0.0000 0.9998
vn 0.2533 -0.0000 0.9674
vn 0.2419 0.0000 0.9703
vn -0.1618 0.0000 0.9868
vn 0.0252 0.0709 0.9972
vn 0.0344 -0.1599 0.9865
vn -0.1277 0.0000 0.9918
vn 0.0624 -0.1058 0.9924
vn -0.0225 0.4316 0.9018
vn 0.0629 0.0806 0.9948
vn 0.1138 -0.0188 0.9933
vn -0.4457 -0.2414 0.8620
vn 0.2804 -0.0111 0.9598
vn -0.0507 -0.0684 0.9964
vn -0.0956 0.1579 0.9828
vn 0.3500 0.0220 0.9365
vn -0.2747 -0.2191 0.9362
vn 0.0072 -0.2479 0.9688
vn 0.3028 -0.0565 0.9514
vn 0.0000 0.0717 0.9974
vn 0.0777 0.0000 0.9970
vn -0.1711 -0.0285 0.9848
vn 0.1165 -0.0668 0.9909
vn -0.5017 0.0956 0.8598
vn 0.2419 0.3713 0.8964
vn -0.0332 0.1012 0.9943
vn -0.3301 -0.2707 0.9043
vn 0.3912 -0.0758 0.9172
vn -0.2372 0.1926 0.9522
vn 0.0495 -0.1097 0.9927
vn 0.2344 0.0747 0.9693
vn 0.0000 -0.0188 0.9998
vn 0.0000 -0.2533 0.9674
vn -0.0000 -0.2419 0.9703
vn -0.2369 -0.9519 0.1944
vn 0.1171 -0.9854 0.1233
vn 0.1001 -0.9477 0.3032
vn 0.2613 -0.9478 0.1827
vn 0.0331 -0.8874 0.4598
vn 0.0692 -0.9946 0.0773
vn 0.0581 -0.9566 0.2854
vn -0.1736 -0.8289 0.5318
vn -0.0652 -0.8811 0.4684
vn -0.2530 -0.7201 0.6461
vn -0.2607 -0.6742 0.6910
vn -0.1058 -0.9924 -0.0624
vn 0.4316 -0.9018 0.0225
vn 0.0806 -0.9948 -0.0629
vn -0.0188 -0.9933 -0.1138
vn -0.2414 -0.8620 0.4457
vn -0.0111 -0.9598 -0.2804
vn -0.0684 -0.9964 0.0507
vn 0.1579 -0.9828 0.0956
vn 0.0220 -0.9365 -0.3500
vn 0.0450 -0.8126 0.5810
vn -0.2129 -0.6928 0.6890
vn -0.1237 -0.8357 0.5350
vn -0.0668 -0.9909 -0.1165
vn 0.0956 -0.8598 0.5017
vn 0.3713 -0.8964 -0.2419
vn 0.1012 -0.9943 0.0332
vn -0.2707 -0.9043 0.3301
vn -0.0758 -0.9172 -0.3912
vn 0.1926 -0.9522 0.2372
vn -0.1097 -0.9927 -0.0495
vn 0.0747 -0.9693 -0.2344
vn -0.0624 -0.9924 0.1058
vn 0.0225 -0.9018 -0.4316
vn -0.0629 -0.9948 -0.0806
vn -0.1138 -0.9933 0.0188
vn 0.4457 -0.8620 0.2414
vn -0.2804 -0.9598 0.0111
vn 0.0507 -0.9964 0.0684
vn 0.0956 -0.9828 -0.1579
vn -0.3500 -0.9365 -0.0220
vn 0.2747 -0.9362 0.2191
vn -0.0072 -0.9688 0.2479
vn -0.3028 -0.9514 0.0565
vn 0.0000 -0.9974 -0.0717
vn -0.1165 -0.9909 0.0668
vn 0.5017 -0.8598 -0.0956
vn -0.2419 -0.8964 -0.3713
vn 0.0332 -0.9943 -0.1012
vn 0.3301 -0.9043 0.2707
vn -0.3912 -0.9172 0.0758
vn 0.2372 -0.9522 -0.1926
vn -0.0495 -0.9927 0.1097
vn -0.2344 -0.9693 -0.0747
vn -0.0000 -0.9998 0.0188
vn 0.0000 -0.9674 0.2533
vn 0.0000 -0.9703 0.2419
vn -0.0709 -0.9972 0.0252
vn 0.1599 -0.9865 0.0344
vn 0.1058 -0.9924 0.0624
vn -0.4316 -0.9018 -0.0225
vn -0.0806 -0.9948 0.0629
vn 0.2414 -0.8620 -0.4457
vn 0.0111 -0.9598 0.2804
vn -0.1579 -0.9828 -0.0956
vn -0.0220 -0.9365 0.3500
vn 0.0000 -0.9970 0.0777
vn -0.0956 -0.8598 -0.5017
vn -0.3713 -0.8964 0.2419
vn 0.2707 -0.9043 -0.3301
vn 0.0758 -0.9172 0.3912
vn 0.1097 -0.9927 0.0495
vn -0.0747 -0.9693 0.2344
vn 0.2297 -0.2415 0.9428
vn -0.0859 -0.0136 0.9962
vn -0.2508 -0.0443 0.9670
vn -0.1278 -0.1268 0.9837
vn 0.0055 -0.4820 0.8761
vn -0.2067 -0.1657 0.9643
vn -0.1045 0.0249 0.9942
vn 0.3003 -0.7756 0.5552
vn 0.0714 -0.4890 0.8694
vn 0.2494 -0.5863 0.7707
vn 0.1130 -0.7197 0.6850
vn -0.0162 -0.5672 0.8234
vn 0.1291 -0.7183 0.6837
vn 0.1959 -0.8017 0.5647
usemtl StoneMaterial
s off
f 131//1 114//1 23//1
f 125//2 21//2 103//2
f 128//3 22//3 125//3
f 128//4 23//4 122//4
f 125//5 22//5 21//5
f 128//4 122//4 22//4
f 128//6 131//6 23//6
f 142//7 34//7 13//7
f 139//8 13//8 132//8
f 11//9 134//9 10//9
f 12//10 137//10 11//10
f 12//11 37//11 140//11
f 140//12 36//12 141//12
f 141//13 35//13 142//13
f 142//14 35//14 34//14
f 139//15 142//15 13//15
f 90//16 10//16 134//16
f 11//17 137//17 134//17
f 12//18 140//18 137//18
f 12//19 31//19 37//19
f 140//20 37//20 36//20
f 141//21 36//21 35//21
f 20//22 87//22 14//22
f 16//23 31//23 12//23
f 99//24 32//24 16//24
f 99//25 14//25 88//25
f 90//26 15//26 10//26
f 10//27 97//27 11//27
f 11//28 16//28 12//28
f 95//29 15//29 94//29
f 17//30 97//30 15//30
f 98//31 16//31 97//31
f 96//32 17//32 95//32
f 18//33 98//33 17//33
f 19//34 99//34 98//34
f 16//35 32//35 31//35
f 99//25 88//25 32//25
f 99//36 20//36 14//36
f 90//37 94//37 15//37
f 10//38 15//38 97//38
f 11//39 97//39 16//39
f 95//40 17//40 15//40
f 17//41 98//41 97//41
f 98//42 99//42 16//42
f 96//43 18//43 17//43
f 18//44 19//44 98//44
f 19//45 20//45 99//45
f 103//46 26//46 111//46
f 111//47 25//47 112//47
f 112//48 24//48 113//48
f 113//49 24//49 100//49
f 103//50 21//50 26//50
f 111//51 26//51 25//51
f 112//52 25//52 24//52
f 55//53 1//53 5//53
f 49//54 2//54 77//54
f 52//55 3//55 49//55
f 52//56 5//56 4//56
f 39//57 47//57 76//57
f 76//58 48//58 46//58
f 46//59 49//59 77//59
f 44//60 47//60 43//60
f 50//61 48//61 47//61
f 51//62 49//62 48//62
f 45//63 50//63 44//63
f 53//64 51//64 50//64
f 54//65 52//65 51//65
f 45//66 40//66 53//66
f 53//67 41//67 54//67
f 54//68 42//68 55//68
f 55//69 42//69 1//69
f 49//70 3//70 2//70
f 52//56 4//56 3//56
f 52//71 55//71 5//71
f 39//72 43//72 47//72
f 76//73 47//73 48//73
f 46//74 48//74 49//74
f 44//75 50//75 47//75
f 50//76 51//76 48//76
f 51//77 52//77 49//77
f 45//78 53//78 50//78
f 53//79 54//79 51//79
f 54//80 55//80 52//80
f 45//81 38//81 40//81
f 53//82 40//82 41//82
f 54//83 41//83 42//83
f 64//84 100//84 146//84
f 61//85 38//85 45//85
f 62//86 58//86 61//86
f 62//87 146//87 147//87
f 39//88 59//88 43//88
f 43//89 60//89 44//89
f 44//90 61//90 45//90
f 57//91 59//91 56//91
f 148//92 60//92 59//92
f 149//93 61//93 60//93
f 145//94 148//94 57//94
f 63//95 149//95 148//95
f 150//96 62//96 149//96
f 61//97 58//97 38//97
f 62//87 147//87 58//87
f 62//98 64//98 146//98
f 39//99 56//99 59//99
f 43//100 59//100 60//100
f 44//101 60//101 61//101
f 57//102 148//102 59//102
f 148//103 149//103 60//103
f 149//104 62//104 61//104
f 145//105 63//105 148//105
f 63//106 150//106 149//106
f 150//107 64//107 62//107
f 39//108 70//108 56//108
f 56//109 71//109 57//109
f 57//110 151//110 145//110
f 68//111 70//111 67//111
f 72//112 71//112 70//112
f 152//113 151//113 71//113
f 69//114 72//114 68//114
f 74//115 152//115 72//115
f 75//116 73//116 152//116
f 69//117 33//117 74//117
f 74//118 65//118 75//118
f 75//119 66//119 153//119
f 153//120 66//120 87//120
f 39//121 67//121 70//121
f 56//122 70//122 71//122
f 57//123 71//123 151//123
f 68//124 72//124 70//124
f 72//125 152//125 71//125
f 152//126 73//126 151//126
f 69//127 74//127 72//127
f 74//128 75//128 152//128
f 75//129 153//129 73//129
f 69//130 27//130 33//130
f 74//131 33//131 65//131
f 75//132 65//132 66//132
f 86//133 6//133 30//133
f 80//134 27//134 69//134
f 83//135 28//135 80//135
f 83//136 30//136 29//136
f 39//137 78//137 67//137
f 67//138 79//138 68//138
f 68//139 80//139 69//139
f 46//140 78//140 76//140
f 81//141 79//141 78//141
f 82//142 80//142 79//142
f 77//143 81//143 46//143
f 84//144 82//144 81//144
f 85//145 83//145 82//145
f 77//146 9//146 84//146
f 84//147 8//147 85//147
f 85//148 7//148 86//148
f 86//149 7//149 6//149
f 80//150 28//150 27//150
f 83//136 29//136 28//136
f 83//151 86//151 30//151
f 39//152 76//152 78//152
f 67//153 78//153 79//153
f 68//154 79//154 80//154
f 46//155 81//155 78//155
f 81//156 82//156 79//156
f 82//157 83//157 80//157
f 77//158 84//158 81//158
f 84//159 85//159 82//159
f 85//160 86//160 83//160
f 77//161 2//161 9//161
f 84//162 9//162 8//162
f 85//163 8//163 7//163
f 96//164 91//164 18//164
f 18//165 92//165 19//165
f 19//166 93//166 20//166
f 20//167 93//167 87//167
f 96//168 89//168 91//168
f 18//169 91//169 92//169
f 19//170 92//170 93//170
f 113//171 100//171 144//171
f 107//172 89//172 96//172
f 110//173 104//173 107//173
f 110//174 144//174 143//174
f 90//175 105//175 94//175
f 94//176 106//176 95//176
f 95//177 107//177 96//177
f 102//178 105//178 101//178
f 108//179 106//179 105//179
f 109//180 107//180 106//180
f 103//181 108//181 102//181
f 111//182 109//182 108//182
f 112//183 110//183 109//183
f 107//184 104//184 89//184
f 110//185 143//185 104//185
f 110//186 113//186 144//186
f 90//187 101//187 105//187
f 94//188 105//188 106//188
f 95//189 106//189 107//189
f 102//190 108//190 105//190
f 108//191 109//191 106//191
f 109//192 110//192 107//192
f 103//193 111//193 108//193
f 111//194 112//194 109//194
f 112//195 113//195 110//195
f 90//196 123//196 101//196
f 101//197 124//197 102//197
f 102//198 125//198 103//198
f 120//199 123//199 119//199
f 126//200 124//200 123//200
f 127//201 125//201 124//201
f 121//202 126//202 120//202
f 129//203 127//203 126//203
f 130//204 128//204 127//204
f 121//205 116//205 129//205
f 129//206 117//206 130//206
f 130//207 118//207 131//207
f 131//208 118//208 114//208
f 90//209 119//209 123//209
f 101//210 123//210 124//210
f 102//211 124//211 125//211
f 120//212 126//212 123//212
f 126//213 127//213 124//213
f 127//214 128//214 125//214
f 121//215 129//215 126//215
f 129//216 130//216 127//216
f 130//217 131//217 128//217
f 121//218 115//218 116//218
f 129//219 116//219 117//219
f 130//220 117//220 118//220
f 136//221 115//221 121//221
f 139//222 133//222 136//222
f 90//223 134//223 119//223
f 119//224 135//224 120//224
f 120//225 136//225 121//225
f 137//226 135//226 134//226
f 138//227 136//227 135//227
f 140//228 138//228 137//228
f 141//229 139//229 138//229
f 136//230 133//230 115//230
f 139//8 132//8 133//8
f 119//231 134//231 135//231
f 120//232 135//232 136//232
f 137//233 138//233 135//233
f 138//234 139//234 136//234
f 140//235 141//235 138//235
f 141//236 142//236 139//236
f 145//237 104//237 63//237
f 63//238 143//238 150//238
f 150//239 144//239 64//239
f 64//240 144//240 100//240
f 145//241 89//241 104//241
f 63//242 104//242 143//242
f 150//243 143//243 144//243
f 153//244 87//244 93//244
f 151//245 89//245 145//245
f 73//246 91//246 151//246
f 73//247 93//247 92//247
f 151//248 91//248 89//248
f 73//249 92//249 91//249
f 73//250 153//250 93//250
