# Blender v2.77 (sub 0) OBJ File: 'tickbomb.sapphire.blend'
# www.blender.org
mtllib tickbomb_led_bombon.sapphire.mtl
o Led_Left_Cylinder.001
origin 0.000000 0.000000 0.000000
v -0.104368 0.004374 0.391839
v 0.017157 0.074327 0.388291
v -0.063733 0.074327 0.388292
v -0.023259 0.085148 0.387741
v -0.064112 -0.065579 0.395375
v -0.093640 -0.036014 0.393880
v -0.093421 0.044761 0.389790
v 0.046685 0.044761 0.389772
v 0.046466 -0.036014 0.393880
v -0.023696 -0.076401 0.395922
v 0.016778 -0.065579 0.395375
v 0.057413 0.004374 0.391829
vn -0.0000 0.0505 0.9987
vn 0.0001 0.0506 0.9987
vn 0.0002 0.0507 0.9987
vn 0.0011 0.0512 0.9987
vn 0.0000 0.0506 0.9987
vn -0.0001 0.0505 0.9987
usemtl LedBombOn
s off
f 9//1 3//1 11//1
f 7//2 1//2 10//2
f 6//1 5//1 1//1
f 10//1 11//1 7//1
f 9//3 12//3 4//3
f 8//4 2//4 12//4
f 4//5 3//5 9//5
f 1//1 5//1 10//1
f 11//5 3//5 7//5
f 2//6 4//6 12//6
