# Blender v2.77 (sub 0) OBJ File: 'tickbomb.sapphire.blend'
# www.blender.org
mtllib tickbomb_led_tickoff.sapphire.mtl
o Led_Right_Cylinder.002
origin 0.000000 0.000000 0.000000
v 0.157340 0.075236 0.388228
v 0.127433 -0.035105 0.393834
v 0.197814 0.086057 0.387679
v 0.238231 0.075236 0.388217
v 0.237850 -0.064670 0.395329
v 0.267539 -0.035105 0.393817
v 0.278486 0.005283 0.391754
v 0.127653 0.045670 0.389716
v 0.116705 0.005283 0.391775
v 0.156960 -0.064670 0.395329
v 0.197376 -0.075492 0.395876
v 0.267759 0.045670 0.389699
vn 0.0002 0.0508 0.9987
vn 0.0002 0.0509 0.9987
vn 0.0006 0.0511 0.9987
vn -0.0001 0.0507 0.9987
vn 0.0005 0.0509 0.9987
vn 0.0011 0.0511 0.9987
vn 0.0000 0.0506 0.9987
vn 0.0001 0.0508 0.9987
vn -0.0003 0.0505 0.9987
vn 0.0003 0.0506 0.9987
usemtl LedTickOff
s off
f 6//1 1//1 5//1
f 8//2 9//2 11//2
f 2//3 10//3 9//3
f 11//4 5//4 8//4
f 6//5 7//5 3//5
f 12//6 4//6 7//6
f 3//7 1//7 6//7
f 9//8 10//8 11//8
f 5//9 1//9 8//9
f 4//10 3//10 7//10
