# Blender v2.77 (sub 0) OBJ File: 'wheel.sapphire.blend'
# www.blender.org
mtllib wheel.sapphire.mtl
o Wheel_Torus
origin 0.000000 0.000000 0.000000
v 0.500000 0.000000 0.000000
v 0.470711 -0.000000 0.070711
v 0.400000 -0.000000 0.100000
v 0.329289 -0.000000 0.088388
v 0.329289 0.000000 -0.088388
v 0.400000 0.000000 -0.100000
v 0.470711 0.000000 -0.070711
v 0.461940 0.191342 0.000000
v 0.434880 0.180133 0.070711
v 0.369552 0.153073 0.100000
v 0.304224 0.126014 0.088388
v 0.304224 0.126014 -0.088388
v 0.369552 0.153073 -0.100000
v 0.434880 0.180133 -0.070711
v 0.353553 0.353553 0.000000
v 0.332843 0.332843 0.070711
v 0.282843 0.282843 0.100000
v 0.232843 0.232843 0.088388
v 0.232843 0.232843 -0.088388
v 0.282843 0.282843 -0.100000
v 0.332843 0.332843 -0.070711
v 0.191342 0.461940 0.000000
v 0.180133 0.434880 0.070711
v 0.153073 0.369552 0.100000
v 0.126014 0.304224 0.088388
v 0.126014 0.304224 -0.088388
v 0.153073 0.369552 -0.100000
v 0.180133 0.434880 -0.070711
v 0.000000 0.500000 0.000000
v 0.000000 0.470711 0.070711
v 0.000000 0.400000 0.100000
v 0.000000 0.329289 0.088388
v 0.000000 0.329289 -0.088388
v 0.000000 0.400000 -0.100000
v 0.000000 0.470711 -0.070711
v -0.191342 0.461940 0.000000
v -0.180133 0.434880 0.070711
v -0.153073 0.369552 0.100000
v -0.126014 0.304224 0.088388
v -0.126014 0.304224 -0.088388
v -0.153073 0.369552 -0.100000
v -0.180133 0.434880 -0.070711
v -0.353553 0.353553 0.000000
v -0.332843 0.332843 0.070711
v -0.282843 0.282843 0.100000
v -0.232843 0.232843 0.088388
v -0.232843 0.232843 -0.088388
v -0.282843 0.282843 -0.100000
v -0.332843 0.332843 -0.070711
v -0.461940 0.191342 0.000000
v -0.434880 0.180133 0.070711
v -0.369552 0.153073 0.100000
v -0.304224 0.126014 0.088388
v -0.304224 0.126014 -0.088388
v -0.369552 0.153073 -0.100000
v -0.434880 0.180133 -0.070711
v -0.500000 0.000000 0.000000
v -0.470711 0.000000 0.070711
v -0.400000 0.000000 0.100000
v -0.329289 0.000000 0.088388
v -0.329289 0.000000 -0.088388
v -0.400000 0.000000 -0.100000
v -0.470711 0.000000 -0.070711
v -0.461940 -0.191342 -0.000000
v -0.434880 -0.180133 0.070711
v -0.369552 -0.153073 0.100000
v -0.304224 -0.126013 0.088388
v -0.304224 -0.126013 -0.088388
v -0.369552 -0.153073 -0.100000
v -0.434880 -0.180133 -0.070711
v -0.353553 -0.353553 -0.000000
v -0.332843 -0.332843 0.070711
v -0.282843 -0.282843 0.100000
v -0.232843 -0.232843 0.088388
v -0.232843 -0.232843 -0.088388
v -0.282843 -0.282843 -0.100000
v -0.332843 -0.332843 -0.070711
v -0.191342 -0.461940 -0.000000
v -0.180133 -0.434880 0.070711
v -0.153073 -0.369552 0.100000
v -0.126014 -0.304224 0.088388
v -0.126014 -0.304224 -0.088388
v -0.153073 -0.369552 -0.100000
v -0.180133 -0.434880 -0.070711
v 0.000000 -0.500000 -0.000000
v 0.000000 -0.470711 0.070711
v 0.000000 -0.400000 0.100000
v 0.000000 -0.329289 0.088388
v 0.000000 -0.329289 -0.088388
v 0.000000 -0.400000 -0.100000
v 0.000000 -0.470711 -0.070711
v 0.191342 -0.461940 -0.000000
v 0.180133 -0.434880 0.070711
v 0.153073 -0.369552 0.100000
v 0.126014 -0.304224 0.088388
v 0.126014 -0.304224 -0.088388
v 0.153073 -0.369552 -0.100000
v 0.180133 -0.434880 -0.070711
v 0.353553 -0.353554 -0.000000
v 0.332843 -0.332843 0.070711
v 0.282843 -0.282843 0.100000
v 0.232843 -0.232843 0.088388
v 0.232843 -0.232843 -0.088388
v 0.282843 -0.282843 -0.100000
v 0.332843 -0.332843 -0.070711
v 0.461940 -0.191342 -0.000000
v 0.434880 -0.180133 0.070711
v 0.369552 -0.153074 0.100000
v 0.304224 -0.126014 0.088388
v 0.304224 -0.126014 -0.088388
v 0.369552 -0.153074 -0.100000
v 0.434880 -0.180133 -0.070711
v -0.063007 0.316756 0.088388
v 0.316756 -0.063007 0.088388
v 0.063007 0.316756 0.088388
v -0.316757 -0.063007 0.088388
v -0.063007 -0.316756 0.088388
v -0.316756 0.063007 0.088388
v 0.063007 -0.316756 0.088388
v -0.063007 -0.316756 -0.088388
v 0.063007 0.316756 -0.088388
v 0.063007 -0.316756 -0.088388
v -0.063007 0.316756 -0.088388
v -0.316756 0.063007 -0.088388
v 0.063007 0.063007 -0.088388
v -0.063007 0.063007 -0.088388
v 0.063007 0.063007 0.088388
v -0.063007 0.063007 0.088388
v 0.316756 0.063007 0.088388
v 0.316756 -0.063007 -0.088388
v -0.316757 -0.063007 -0.088388
v 0.316756 0.063007 -0.088388
v -0.063007 -0.063007 -0.088388
v 0.063007 -0.063007 -0.088388
v -0.063007 -0.063007 0.088388
v 0.063007 -0.063007 0.088388
v -0.329289 0.000000 0.088388
v -0.329289 0.000000 -0.088388
v 0.329289 -0.000000 0.088388
v 0.329289 0.000000 -0.088388
v 0.000000 -0.329289 -0.088388
v 0.000000 0.329289 -0.088388
v 0.000000 -0.329289 0.088388
v 0.000000 0.329289 0.088388
v -0.063007 -0.316756 -0.088388
v 0.063007 -0.316756 -0.088388
v -0.063007 0.316756 -0.088388
v 0.063007 0.316756 -0.088388
v -0.316756 0.063007 -0.088388
v 0.316756 -0.063007 -0.088388
v -0.316757 -0.063007 -0.088388
v 0.316756 0.063007 -0.088388
v -0.063007 0.316756 0.088388
v -0.316757 -0.063007 0.088388
v 0.316756 -0.063007 0.088388
v 0.063007 -0.316756 0.088388
v 0.063007 0.316756 0.088388
v -0.063007 -0.316756 0.088388
v -0.316756 0.063007 0.088388
v 0.316756 0.063007 0.088388
v -0.063007 0.063007 0.088388
v -0.063007 0.316756 0.088388
v 0.063007 0.063007 0.088388
v 0.063007 0.316756 0.088388
v -0.063007 -0.316756 0.088388
v -0.063007 -0.063007 0.088388
v 0.063007 -0.316756 0.088388
v 0.063007 -0.063007 0.088388
v -0.316757 -0.063007 0.088388
v -0.316756 0.063007 0.088388
v 0.316756 0.063007 0.088388
v 0.316756 -0.063007 0.088388
v -0.063007 0.063007 -0.088388
v -0.063007 0.316756 -0.088388
v 0.063007 0.063007 -0.088388
v 0.063007 0.316756 -0.088388
v 0.063007 -0.063007 -0.088388
v 0.316756 -0.063007 -0.088388
v -0.316757 -0.063007 -0.088388
v -0.063007 -0.063007 -0.088388
v -0.063007 -0.316756 -0.088388
v 0.063007 -0.316756 -0.088388
v 0.316756 0.063007 -0.088388
v -0.316756 0.063007 -0.088388
v 0.126014 -0.304224 0.088388
v 0.232843 -0.232843 0.088388
v 0.304224 -0.126014 0.088388
v 0.126014 -0.304224 -0.088388
v 0.232843 -0.232843 -0.088388
v 0.304224 -0.126014 -0.088388
v 0.304224 0.126014 0.088388
v 0.232843 0.232843 0.088388
v -0.232843 0.232843 0.088388
v -0.304224 0.126014 0.088388
v -0.232843 -0.232843 0.088388
v -0.126014 -0.304224 0.088388
v 0.126014 0.304224 0.088388
v -0.304224 -0.126013 0.088388
v -0.126014 0.304224 0.088388
v -0.232843 -0.232843 -0.088388
v -0.126014 -0.304224 -0.088388
v 0.232843 0.232843 -0.088388
v 0.126014 0.304224 -0.088388
v -0.304224 -0.126013 -0.088388
v -0.126014 0.304224 -0.088388
v -0.232843 0.232843 -0.088388
v 0.304224 0.126014 -0.088388
v -0.304224 0.126014 -0.088388
v 0.316756 0.063007 0.088388
v 0.316756 0.063007 -0.088388
v 0.063007 0.316756 0.088388
v 0.063007 0.316756 -0.088388
v -0.063007 0.316756 -0.088388
v -0.063007 0.316756 0.088388
v -0.063007 -0.316756 -0.088388
v -0.063007 -0.316756 0.088388
v 0.063007 -0.316756 0.088388
v 0.063007 -0.316756 -0.088388
v -0.316756 0.063007 0.088388
v -0.316756 0.063007 -0.088388
v 0.316756 -0.063007 0.088388
v 0.316756 -0.063007 -0.088388
v -0.316757 -0.063007 0.088388
v -0.316757 -0.063007 -0.088388
v -0.063007 0.063007 0.088388
v -0.063007 0.063007 -0.088388
v 0.063007 0.063007 0.088388
v 0.063007 0.063007 -0.088388
v -0.063007 -0.063007 0.088388
v -0.063007 -0.063007 -0.088388
v 0.063007 -0.063007 0.088388
v 0.063007 -0.063007 -0.088388
vn 0.9239 0.3827 0.0000
vn 0.7294 0.0000 0.6840
vn 1.0000 0.0000 0.0000
vn 0.6739 0.2791 0.6840
vn 0.1482 0.0000 0.9889
vn 0.1369 0.0567 0.9889
vn -0.1619 -0.0322 0.9863
vn -0.9239 0.3827 0.0000
vn -0.9808 0.1951 0.0000
vn -0.1619 -0.0322 -0.9863
vn 0.1369 0.0567 -0.9889
vn 0.1482 0.0000 -0.9889
vn 0.7294 0.0000 -0.6840
vn 0.6739 0.2791 -0.6840
vn 0.7071 0.7071 0.0000
vn 0.5158 0.5158 0.6840
vn 0.1048 0.1048 0.9889
vn -0.1497 -0.0620 0.9868
vn -0.1497 -0.0620 -0.9868
vn 0.1048 0.1048 -0.9889
vn 0.5158 0.5158 -0.6840
vn 0.2791 0.6739 0.6840
vn 0.0567 0.1369 0.9889
vn -0.1146 -0.1146 0.9868
vn -0.7071 -0.7071 0.0000
vn -0.9239 -0.3827 0.0000
vn -0.0620 -0.1497 -0.9868
vn -0.1146 -0.1146 -0.9868
vn 0.2791 0.6739 -0.6840
vn 0.3827 0.9239 0.0000
vn 0.0000 0.7294 0.6840
vn 0.0000 0.1482 0.9889
vn -0.0322 -0.1619 0.9863
vn -0.3827 -0.9239 0.0000
vn -0.0322 -0.1619 -0.9863
vn 0.0000 0.1482 -0.9889
vn 0.0567 0.1369 -0.9889
vn 0.0000 0.7294 -0.6840
vn 0.0000 1.0000 0.0000
vn -0.2791 0.6739 0.6840
vn -0.0567 0.1369 0.9889
vn 0.0322 -0.1619 0.9863
vn -0.1951 -0.9808 0.0000
vn 0.0322 -0.1619 -0.9863
vn -0.0567 0.1369 -0.9889
vn -0.2791 0.6739 -0.6840
vn -0.7071 0.7071 0.0000
vn -0.3827 0.9239 0.0000
vn -0.5158 0.5158 0.6840
vn 0.1146 -0.1146 0.9868
vn 0.0620 -0.1497 0.9868
vn 0.1146 -0.1146 -0.9868
vn 0.0620 -0.1497 -0.9868
vn -0.1048 0.1048 -0.9889
vn -0.5158 0.5158 -0.6840
vn -0.6739 0.2791 0.6840
vn -0.1048 0.1048 0.9889
vn 0.1497 -0.0620 0.9868
vn 0.7071 -0.7071 0.0000
vn 0.3827 -0.9239 0.0000
vn 0.1497 -0.0620 -0.9868
vn -0.1369 0.0567 -0.9889
vn -0.7294 0.0000 0.6840
vn -0.1482 0.0000 0.9889
vn -0.1369 0.0567 0.9889
vn 0.1619 -0.0322 0.9863
vn 0.9239 -0.3827 0.0000
vn 0.1619 -0.0322 -0.9863
vn -0.1482 0.0000 -0.9889
vn -0.6739 0.2791 -0.6840
vn -1.0000 0.0000 0.0000
vn -0.6739 -0.2791 0.6840
vn -0.1369 -0.0567 0.9889
vn 0.1619 0.0322 0.9863
vn 0.9808 -0.1951 0.0000
vn 0.1619 0.0322 -0.9863
vn -0.1369 -0.0567 -0.9889
vn -0.6739 -0.2791 -0.6840
vn -0.7294 0.0000 -0.6840
vn -0.5158 -0.5158 0.6840
vn -0.1048 -0.1048 0.9889
vn 0.1146 0.1146 0.9868
vn 0.1497 0.0620 0.9868
vn 0.1951 -0.9808 0.0000
vn 0.1146 0.1146 -0.9868
vn 0.1497 0.0620 -0.9868
vn -0.1048 -0.1048 -0.9889
vn -0.5158 -0.5158 -0.6840
vn -0.2791 -0.6739 0.6840
vn -0.0567 -0.1369 0.9889
vn 0.0620 0.1497 -0.9868
vn -0.0567 -0.1369 -0.9889
vn 0.0000 -1.0000 0.0000
vn 0.0000 -0.7294 0.6840
vn 0.0000 -0.1482 0.9889
vn 0.0322 0.1619 0.9863
vn 0.0322 0.1619 -0.9863
vn 0.0000 -0.1482 -0.9889
vn -0.2791 -0.6739 -0.6840
vn 0.2791 -0.6739 0.6840
vn 0.0567 -0.1369 0.9889
vn -0.0322 0.1619 0.9863
vn 0.1951 0.9808 0.0000
vn -0.0322 0.1619 -0.9863
vn 0.0567 -0.1369 -0.9889
vn 0.0000 -0.7294 -0.6840
vn 0.1048 -0.1048 0.9889
vn -0.1146 0.1146 0.9868
vn -0.0620 0.1497 0.9868
vn -0.1146 0.1146 -0.9868
vn -0.0620 0.1497 -0.9868
vn 0.1048 -0.1048 -0.9889
vn 0.2791 -0.6739 -0.6840
vn 0.5158 -0.5158 -0.6840
vn 0.5158 -0.5158 0.6840
vn 0.6739 -0.2791 0.6840
vn 0.1369 -0.0567 0.9889
vn -0.1497 0.0620 -0.9868
vn 0.1369 -0.0567 -0.9889
vn 0.6739 -0.2791 -0.6840
vn -0.1619 0.0322 0.9863
vn -0.1619 0.0322 -0.9863
vn 0.0000 0.0000 -1.0000
vn -0.1951 0.9808 0.0000
vn -0.9808 -0.1951 0.0000
vn 0.9808 0.1951 0.0000
vn 0.0000 0.0000 1.0000
vn -0.1620 0.0000 0.9868
vn -0.1620 0.0000 -0.9868
vn -0.0620 -0.1497 0.9868
vn 0.0000 -0.1620 0.9868
vn 0.0000 -0.1620 -0.9868
vn 0.1620 0.0000 0.9868
vn 0.1620 0.0000 -0.9868
vn 0.0620 0.1497 0.9868
vn 0.0000 0.1620 0.9868
vn 0.0000 0.1620 -0.9868
vn -0.1497 0.0620 0.9868
usemtl Material.001
s 1
f 8//1 2//2 1//3
f 9//4 3//5 2//2
f 10//6 129//7 3//5
f 109//8 222//9 110//8
f 132//10 13//11 6//12
f 13//11 7//13 6//12
f 1//3 14//14 8//1
f 15//15 9//4 8//1
f 16//16 10//6 9//4
f 17//17 191//18 10//6
f 12//19 20//20 13//11
f 20//20 14//14 13//11
f 21//21 8//1 14//14
f 15//15 23//22 16//16
f 23//22 17//17 16//16
f 24//23 192//24 17//17
f 18//25 207//26 11//26
f 26//27 20//20 202//28
f 20//20 28//29 21//21
f 28//29 15//15 21//21
f 22//30 30//31 23//22
f 23//22 31//32 24//23
f 31//32 115//33 24//23
f 197//34 19//25 18//25
f 148//35 34//36 27//37
f 27//37 35//38 28//29
f 35//38 22//30 28//29
f 29//39 37//40 30//31
f 37//40 31//32 30//31
f 38//41 153//42 31//32
f 211//43 203//34 197//34
f 123//44 41//45 34//36
f 34//36 42//46 35//38
f 42//46 29//39 35//38
f 43//47 37//40 36//48
f 44//49 38//41 37//40
f 38//41 193//50 199//51
f 47//52 41//45 205//53
f 48//54 42//46 41//45
f 49//55 36//48 42//46
f 50//8 44//49 43//47
f 51//56 45//57 44//49
f 45//57 194//58 193//50
f 46//59 40//60 39//60
f 54//61 48//54 47//52
f 55//62 49//55 48//54
f 49//55 50//8 43//47
f 50//8 58//63 51//56
f 51//56 59//64 52//65
f 59//64 159//66 52//65
f 53//67 206//59 46//59
f 149//68 62//69 55//62
f 62//69 56//70 55//62
f 56//70 57//71 50//8
f 64//26 58//63 57//71
f 65//72 59//64 58//63
f 66//73 154//74 59//64
f 219//75 208//67 53//67
f 151//76 69//77 62//69
f 62//69 70//78 63//79
f 63//79 64//26 57//71
f 64//26 72//80 65//72
f 65//72 73//81 66//73
f 66//73 195//82 198//83
f 214//84 40//60 213//84
f 200//85 69//77 68//86
f 76//87 70//78 69//77
f 77//88 64//26 70//78
f 78//34 72//80 71//25
f 79//89 73//81 72//80
f 80//90 195//82 73//81
f 74//15 204//1 67//1
f 201//91 76//87 200//85
f 83//92 77//88 76//87
f 77//88 78//34 71//25
f 85//93 79//89 78//34
f 86//94 80//90 79//89
f 87//95 158//96 80//90
f 81//30 75//15 74//15
f 145//97 90//98 83//92
f 90//98 84//99 83//92
f 84//99 85//93 78//34
f 92//60 86//94 85//93
f 93//100 87//95 86//94
f 94//101 156//102 87//95
f 216//103 82//30 81//30
f 146//104 97//105 90//98
f 97//105 91//106 90//98
f 91//106 92//60 85//93
f 99//59 93//100 92//60
f 93//100 101//107 94//101
f 94//101 186//108 185//109
f 189//110 97//105 188//111
f 104//112 98//113 97//105
f 105//114 92//60 98//113
f 106//67 100//115 99//59
f 107//116 101//107 100//115
f 108//117 186//108 101//107
f 102//47 96//48 95//48
f 190//118 104//112 189//110
f 111//119 105//114 104//112
f 112//120 99//59 105//114
f 1//3 107//116 106//67
f 2//2 108//117 107//116
f 3//5 114//121 108//117
f 109//8 103//47 102//47
f 150//122 6//12 111//119
f 6//12 112//120 111//119
f 7//13 106//67 112//120
f 134//123 173//123 175//123
f 217//124 96//48 218//124
f 209//125 207//26 210//125
f 232//3 167//3 182//3
f 165//71 230//71 181//71
f 164//3 228//3 176//3
f 224//126 67//1 204//1
f 171//39 125//39 163//39
f 225//39 184//39 170//39
f 169//93 180//93 166//93
f 177//93 172//93 168//93
f 127//127 161//127 135//127
f 126//71 162//71 174//71
f 8//1 9//4 2//2
f 9//4 10//6 3//5
f 139//128 3//5 129//7
f 10//6 191//18 129//7
f 109//8 221//9 222//9
f 6//12 140//129 132//10
f 132//10 12//19 13//11
f 13//11 14//14 7//13
f 1//3 7//13 14//14
f 15//15 16//16 9//4
f 16//16 17//17 10//6
f 17//17 192//24 191//18
f 12//19 202//28 20//20
f 20//20 21//21 14//14
f 21//21 15//15 8//1
f 15//15 22//30 23//22
f 23//22 24//23 17//17
f 24//23 25//130 192//24
f 18//25 19//25 207//26
f 26//27 27//37 20//20
f 20//20 27//37 28//29
f 28//29 22//30 15//15
f 22//30 29//39 30//31
f 23//22 30//31 31//32
f 25//130 24//23 115//33
f 31//32 144//131 115//33
f 197//34 203//34 19//25
f 27//37 26//27 148//35
f 148//35 142//132 34//36
f 27//37 34//36 35//38
f 35//38 29//39 22//30
f 29//39 36//48 37//40
f 37//40 38//41 31//32
f 144//131 31//32 153//42
f 38//41 199//51 153//42
f 211//43 212//43 203//34
f 34//36 142//132 123//44
f 123//44 205//53 41//45
f 34//36 41//45 42//46
f 42//46 36//48 29//39
f 43//47 44//49 37//40
f 44//49 45//57 38//41
f 38//41 45//57 193//50
f 47//52 48//54 41//45
f 48//54 49//55 42//46
f 49//55 43//47 36//48
f 50//8 51//56 44//49
f 51//56 52//65 45//57
f 45//57 52//65 194//58
f 46//59 206//59 40//60
f 54//61 55//62 48//54
f 55//62 56//70 49//55
f 49//55 56//70 50//8
f 50//8 57//71 58//63
f 51//56 58//63 59//64
f 194//58 52//65 159//66
f 59//64 137//133 159//66
f 53//67 208//67 206//59
f 55//62 54//61 149//68
f 149//68 138//134 62//69
f 62//69 63//79 56//70
f 56//70 63//79 57//71
f 64//26 65//72 58//63
f 65//72 66//73 59//64
f 137//133 59//64 154//74
f 66//73 198//83 154//74
f 219//75 220//75 208//67
f 62//69 138//134 151//76
f 151//76 68//86 69//77
f 62//69 69//77 70//78
f 63//79 70//78 64//26
f 64//26 71//25 72//80
f 65//72 72//80 73//81
f 66//73 73//81 195//82
f 214//84 39//60 40//60
f 200//85 76//87 69//77
f 76//87 77//88 70//78
f 77//88 71//25 64//26
f 78//34 79//89 72//80
f 79//89 80//90 73//81
f 80//90 196//135 195//82
f 74//15 75//15 204//1
f 201//91 83//92 76//87
f 83//92 84//99 77//88
f 77//88 84//99 78//34
f 85//93 86//94 79//89
f 86//94 87//95 80//90
f 196//135 80//90 158//96
f 87//95 143//136 158//96
f 81//30 82//30 75//15
f 83//92 201//91 145//97
f 145//97 141//137 90//98
f 90//98 91//106 84//99
f 84//99 91//106 85//93
f 92//60 93//100 86//94
f 93//100 94//101 87//95
f 143//136 87//95 156//102
f 94//101 185//109 156//102
f 216//103 215//103 82//30
f 90//98 141//137 146//104
f 146//104 188//111 97//105
f 97//105 98//113 91//106
f 91//106 98//113 92//60
f 99//59 100//115 93//100
f 93//100 100//115 101//107
f 94//101 101//107 186//108
f 189//110 104//112 97//105
f 104//112 105//114 98//113
f 105//114 99//59 92//60
f 106//67 107//116 100//115
f 107//116 108//117 101//107
f 108//117 187//138 186//108
f 102//47 103//47 96//48
f 190//118 111//119 104//112
f 111//119 112//120 105//114
f 112//120 106//67 99//59
f 1//3 2//2 107//116
f 2//2 3//5 108//117
f 187//138 108//117 114//121
f 3//5 139//128 114//121
f 109//8 110//8 103//47
f 111//119 190//118 150//122
f 150//122 140//129 6//12
f 6//12 7//13 112//120
f 7//13 1//3 106//67
f 134//123 122//123 89//123
f 89//123 120//123 133//123
f 133//123 179//123 61//123
f 61//123 124//123 173//123
f 173//123 147//123 33//123
f 33//123 121//123 175//123
f 175//123 152//123 5//123
f 5//123 178//123 134//123
f 134//123 89//123 133//123
f 133//123 61//123 173//123
f 173//123 33//123 175//123
f 175//123 5//123 134//123
f 134//123 133//123 173//123
f 217//124 95//48 96//48
f 209//125 11//26 207//26
f 232//3 231//3 167//3
f 165//71 229//71 230//71
f 164//3 227//3 228//3
f 224//126 223//126 67//1
f 171//39 183//39 125//39
f 225//39 226//39 184//39
f 169//93 131//93 180//93
f 177//93 130//93 172//93
f 88//127 119//127 136//127
f 136//127 155//127 4//127
f 4//127 160//127 127//127
f 127//127 157//127 32//127
f 32//127 113//127 161//127
f 161//127 118//127 60//127
f 60//127 116//127 135//127
f 135//127 117//127 88//127
f 136//127 4//127 127//127
f 135//127 88//127 136//127
f 161//127 60//127 135//127
f 127//127 32//127 161//127
f 135//127 136//127 127//127
f 126//71 128//71 162//71
