# Blender v2.77 (sub 0) OBJ File: 'yamyam.sapphire.blend'
# www.blender.org
mtllib yamyam_mouthtop.sapphire.mtl
o MouthTop_Icosphere.013
origin 0.000000 -0.056990 0.120580
v 0.331059 -0.033083 0.252189
v 0.215700 -0.006510 0.327245
v -0.215700 -0.006509 0.327244
v -0.331057 -0.033081 0.252191
v 0.081230 0.010659 0.371189
v -0.081230 0.010660 0.371189
v 0.425330 -0.081206 0.103035
v 0.331059 -0.069114 0.238122
v 0.215700 -0.069814 0.317740
v -0.215700 -0.069813 0.317740
v -0.331057 -0.069113 0.238124
v 0.081230 -0.068710 0.364906
v -0.081230 -0.068709 0.364906
v -0.425325 -0.081209 0.103033
vn 0.4330 -0.1501 0.8888
vn 0.7070 -0.1029 0.6996
vn 0.4409 0.0023 0.8975
vn -0.4330 -0.1501 0.8888
vn -0.7071 -0.1029 0.6996
vn -0.6972 -0.2607 0.6677
vn -0.8643 -0.2718 0.4232
vn -0.1576 -0.0870 0.9837
vn -0.4409 0.0024 0.8975
vn 0.1576 -0.0870 0.9837
vn 0.1551 0.0217 0.9877
vn 0.6972 -0.2607 0.6678
vn 0.8643 -0.2718 0.4232
vn -0.1551 0.0213 0.9877
usemtl Material
s 1
f 9//1 1//2 2//3
f 10//4 4//5 11//6
f 4//5 14//7 11//6
f 13//8 3//9 10//4
f 12//10 2//3 5//11
f 8//12 7//13 1//2
f 13//8 5//11 6//14
f 9//1 8//12 1//2
f 10//4 3//9 4//5
f 13//8 6//14 3//9
f 12//10 9//1 2//3
f 13//8 12//10 5//11
