# Blender v2.77 (sub 0) OBJ File: 'yamyam.sapphire.blend'
# www.blender.org
mtllib yamyam_mouthbottom.sapphire.mtl
o MouthBottom_Icosphere.014
origin 0.000000 -0.138200 0.223610
v -0.000001 -0.170246 0.170179
v -0.238664 -0.146658 0.112512
v -0.340858 -0.084148 0.042360
v -0.145756 -0.159282 0.140918
v 0.340859 -0.084149 0.042357
v 0.145756 -0.159283 0.140917
v 0.238665 -0.146659 0.112510
v 0.425330 0.000000 0.000000
v -0.000001 -0.033548 0.250368
v -0.238664 -0.049415 0.190117
v -0.340858 -0.041711 0.096471
v -0.145756 -0.042401 0.220400
v 0.340859 -0.041714 0.096470
v 0.145756 -0.042403 0.220400
v 0.238665 -0.049418 0.190116
v -0.425325 -0.000003 -0.000001
v 0.244544 -0.104682 0.159748
v -0.148849 -0.105914 0.189237
v -0.000001 -0.106992 0.219480
v 0.346129 -0.066041 0.073944
v -0.346128 -0.066039 0.073946
v 0.148848 -0.105915 0.189237
v -0.244543 -0.104680 0.159750
vn -0.7109 -0.3721 0.5968
vn -0.4755 -0.5431 0.6921
vn -0.4281 -0.3930 0.8138
vn 0.8643 -0.2718 0.4232
vn 0.7241 -0.5357 0.4344
vn 0.7007 -0.5554 0.4478
vn 0.7109 -0.3721 0.5968
vn 0.4755 -0.5431 0.6921
vn 0.4281 -0.3931 0.8138
vn 0.2172 -0.5431 0.8111
vn 0.2102 -0.4148 0.8853
vn -0.0000 -0.5051 0.8631
vn -0.2102 -0.4148 0.8853
vn -0.0000 -0.3877 0.9218
vn -0.8643 -0.2718 0.4233
vn -0.7241 -0.5357 0.4344
vn -0.2817 -0.6231 0.7296
vn -0.5421 -0.6233 0.5636
vn 0.5421 -0.6233 0.5636
vn 0.2817 -0.6231 0.7296
vn -0.2172 -0.5431 0.8111
vn -0.0000 -0.6563 0.7545
vn -0.7007 -0.5554 0.4478
usemtl Material
s 1
f 11//1 23//2 10//3
f 8//4 20//5 5//6
f 13//7 17//8 20//5
f 15//9 22//10 17//8
f 14//11 19//12 22//10
f 12//13 19//12 9//14
f 16//15 21//16 11//1
f 4//17 23//2 2//18
f 20//5 7//19 5//6
f 17//8 6//20 7//19
f 21//16 2//18 23//2
f 18//21 10//3 23//2
f 22//10 1//22 6//20
f 18//21 1//22 19//12
f 16//15 3//23 21//16
f 8//4 13//7 20//5
f 11//1 21//16 23//2
f 13//7 15//9 17//8
f 15//9 14//11 22//10
f 14//11 9//14 19//12
f 12//13 18//21 19//12
f 4//17 18//21 23//2
f 20//5 17//8 7//19
f 17//8 22//10 6//20
f 21//16 3//23 2//18
f 18//21 12//13 10//3
f 22//10 19//12 1//22
f 18//21 4//17 1//22
