# Blender v2.77 (sub 0) OBJ File: 'yamyam.sapphire.blend'
# www.blender.org
mtllib yamyam_teethbottom.sapphire.mtl
o TeethBottom_Icosphere.012
origin -0.000000 -0.138200 0.223610
v 0.340859 -0.041714 0.096470
v -0.000001 -0.033548 0.250368
v 0.425330 0.000000 -0.000000
v 0.347329 -0.019358 0.039512
v 0.270680 -0.040698 0.095253
v -0.091921 -0.031136 0.161322
v -0.238664 -0.049415 0.190117
v 0.145756 -0.042403 0.220400
v -0.340858 -0.041711 0.096471
v -0.087884 0.014556 0.208016
v 0.083885 0.018557 0.207976
v -0.373866 0.005345 0.048911
v -0.297818 -0.011551 0.129315
v 0.294524 -0.020212 0.132682
v 0.368729 0.005203 0.062527
v 0.198152 -0.009423 0.179161
v -0.197114 -0.010216 0.179775
v 0.191890 -0.029650 0.149725
v 0.073335 -0.026084 0.162764
v -0.376516 -0.045179 0.018345
v -0.288236 -0.056518 0.094694
v -0.196338 -0.033374 0.156551
v 0.238665 -0.049418 0.190116
v -0.145756 -0.042401 0.220400
v -0.425325 -0.000002 -0.000003
vn -0.5453 0.8313 -0.1076
vn 0.5874 0.5524 -0.5914
vn -0.6610 0.5641 -0.4948
vn -0.6248 0.6236 -0.4699
vn 0.6079 0.4895 -0.6252
vn -0.6714 0.6697 -0.3174
vn 0.6696 0.5380 -0.5121
vn 0.0211 0.8713 -0.4903
vn 0.4411 0.7150 -0.5423
vn 0.1635 0.9068 -0.3885
vn 0.2209 0.9457 0.2384
vn -0.3592 0.8826 0.3032
vn -0.0899 0.9867 0.1354
vn -0.3854 0.8411 0.3793
vn -0.0324 0.9235 0.3822
vn -0.0832 0.9959 0.0351
vn 0.3293 0.8498 0.4114
vn 0.1303 0.9907 0.0388
vn 0.3881 0.8430 0.3723
vn 0.1308 0.9912 0.0171
vn 0.1206 0.9447 0.3050
vn 0.2309 0.9271 0.2952
vn 0.2197 0.9684 0.1183
vn 0.0481 0.8845 0.4641
vn -0.0557 0.9966 -0.0602
vn -0.0438 0.7067 -0.7061
vn 0.4652 0.6001 -0.6507
vn -0.6674 0.7280 -0.1563
vn 0.7591 0.3074 -0.5739
usemtl Teeth
s off
f 14//1 5//1 23//1
f 6//2 10//2 2//2
f 6//3 24//3 10//3
f 19//4 2//4 11//4
f 19//5 11//5 8//5
f 18//6 8//6 16//6
f 18//7 16//7 23//7
f 5//8 14//8 1//8
s 1
f 25//9 9//10 12//11
f 9//10 7//12 13//13
f 24//14 2//15 10//16
f 2//15 8//17 11//18
f 8//17 23//19 16//20
f 1//21 14//22 23//19
f 3//23 15//24 1//21
f 24//14 17//25 7//12
f 7//12 17//25 22//26
f 24//14 22//26 17//25
f 7//12 21//27 13//13
f 1//21 15//24 4//28
f 9//10 13//13 21//27
f 9//10 20//29 12//11
f 25//9 12//11 20//29
f 15//24 3//23 4//28
