# Blender v2.77 (sub 0) OBJ File: 'yamyam.sapphire.blend'
# www.blender.org
mtllib yamyam_mouthinside.sapphire.mtl
o MouthInside_Icosphere.001
origin 0.000000 0.000000 0.000000
v -0.013281 -0.119302 0.051540
v -0.115172 -0.138198 0.072356
v 0.425330 -0.138200 0.223610
v 0.236932 -0.138199 0.120863
v 0.098498 -0.187525 0.182624
v 0.058083 -0.236069 0.287479
v -0.111849 -0.189434 0.182156
v -0.077349 -0.237554 0.281420
v -0.009633 -0.261391 0.324521
v -0.145756 -0.297482 0.364528
v 0.081230 -0.046335 0.491764
v -0.340858 -0.222348 0.265970
v -0.238664 -0.284858 0.336122
v 0.238665 -0.284859 0.336120
v 0.215700 -0.063504 0.447820
v -0.425325 -0.138203 0.223609
v -0.081289 -0.270141 0.358224
v 0.328135 -0.190754 0.248201
v 0.270257 -0.096720 0.385495
v -0.190376 -0.257060 0.328307
v -0.403936 -0.138203 0.216436
v 0.074835 -0.270862 0.362272
v 0.368676 -0.154832 0.232563
v -0.000553 -0.064042 0.473427
v -0.272838 -0.096359 0.387190
v -0.286499 -0.216058 0.275670
v 0.283407 -0.218431 0.279371
v -0.354155 -0.131125 0.281107
v -0.369658 -0.154131 0.230498
v 0.364062 -0.131214 0.280447
v -0.146704 -0.073994 0.448760
v 0.187929 -0.257801 0.329658
v 0.145859 -0.074250 0.447540
v 0.384537 -0.138200 0.206042
v 0.340859 -0.222349 0.265967
v 0.145755 -0.297483 0.364527
v -0.000001 -0.308446 0.393789
v 0.331059 -0.090077 0.372765
v -0.331057 -0.090076 0.372766
v -0.215700 -0.063503 0.447820
v -0.081230 -0.046334 0.491764
v -0.266602 -0.138198 0.120864
v 0.101918 -0.138199 0.072356
v -0.013281 -0.119302 0.051540
v -0.115172 -0.138198 0.072356
v 0.101918 -0.138199 0.072356
v 0.384537 -0.138200 0.206042
v 0.236932 -0.138199 0.120863
v -0.403936 -0.138203 0.216436
v -0.425325 -0.138203 0.223609
v -0.266602 -0.138198 0.120864
v 0.425330 -0.138200 0.223610
vn 0.1722 -0.0466 0.9840
vn -0.1688 -0.0382 0.9849
vn 0.0003 -0.9479 0.3186
vn -0.0014 -0.3332 0.9429
vn 0.0965 0.7907 0.6046
vn -0.0907 0.8106 0.5785
vn 0.0495 -0.9835 0.1743
vn 0.7409 -0.1515 0.6543
vn 0.0528 -0.9078 0.4160
vn 0.4620 -0.0977 0.8815
vn 0.1819 -0.8813 0.4361
vn -0.4627 -0.0765 0.8832
vn 0.1009 -0.9169 0.3862
vn -0.7446 -0.1548 0.6493
vn -0.0559 -0.9802 0.1899
vn -0.0648 -0.9831 0.1714
vn 0.2892 -0.4363 0.8521
vn -0.0914 -0.9552 0.2814
vn -0.2575 -0.3835 0.8869
vn 0.1904 -0.8710 0.4529
vn -0.4210 -0.4688 0.7765
vn -0.2382 -0.4514 0.8599
vn -0.2113 0.7155 0.6659
vn 0.2484 -0.4767 0.8432
vn 0.4248 -0.4837 0.7652
vn 0.6338 -0.4933 0.5958
vn 0.0904 0.8201 0.5650
vn -0.1030 0.7201 0.6862
vn -0.3256 -0.0332 0.9449
vn -0.1824 0.7506 0.6351
vn 0.1024 0.6741 0.7315
vn -0.6324 -0.5675 0.5272
vn 0.1808 0.7743 0.6064
vn 0.3802 0.0298 0.9244
vn -0.0496 0.8143 0.5783
vn -0.0925 0.7776 0.6219
vn 0.1176 0.8247 0.5533
vn -0.3367 -0.1888 0.9225
vn -0.1932 -0.0595 0.9793
vn 0.3623 -0.1759 0.9153
vn 0.3583 -0.1856 0.9150
vn -0.2179 -0.0934 0.9715
vn -0.0057 -0.2449 0.9695
vn 0.2036 -0.0955 0.9744
vn -0.3350 -0.1866 0.9236
vn 0.0811 0.8865 0.4555
vn 0.1238 0.8438 0.5222
vn 0.0089 0.9655 0.2602
vn -0.0718 0.7826 0.6183
vn -0.0726 0.8862 0.4575
vn 0.1797 -0.0659 0.9815
vn -0.0081 -0.2103 0.9776
usemtl Material
s 1
f 11//1 41//2 24//3
f 37//4 22//5 17//6
f 3//7 38//8 30//9
f 15//10 11//1 33//11
f 41//2 40//12 31//13
f 39//14 50//15 28//16
f 21//17 28//16 50//15
f 39//14 28//16 25//18
f 30//9 47//19 3//7
f 19//20 30//9 38//8
f 40//12 39//14 25//18
f 40//12 25//18 31//13
f 19//20 38//8 15//10
f 33//11 19//20 15//10
f 41//2 31//13 24//3
f 24//3 33//11 11//1
f 13//21 10//22 20//23
f 37//4 36//24 22//5
f 14//25 35//26 27//27
f 52//28 34//29 23//30
f 52//28 23//30 35//26
f 16//31 12//32 29//33
f 29//33 49//34 16//31
f 26//35 29//33 12//32
f 35//26 23//30 18//36
f 35//26 18//36 27//27
f 26//35 12//32 13//21
f 20//23 26//35 13//21
f 14//25 27//27 32//37
f 14//25 32//37 36//24
f 20//23 10//22 17//6
f 17//6 10//22 37//4
f 36//24 32//37 22//5
usemtl MouthInside
f 4//38 23//30 34//29
f 46//39 32//37 4//38
f 4//38 32//37 27//27
f 42//40 49//34 29//33
f 51//41 25//18 28//16
f 43//42 24//3 44//43
f 51//41 28//16 21//17
f 2//44 25//18 51//41
f 2//44 24//3 31//13
f 48//45 33//11 43//42
f 5//46 6//47 22//5
f 27//27 18//36 4//38
f 17//6 22//5 9//48
f 17//6 8//49 7//50
f 30//9 19//20 48//45
f 47//19 30//9 48//45
f 20//23 7//50 45//51
f 18//36 23//30 4//38
f 20//23 45//51 42//40
f 26//35 20//23 42//40
f 32//37 5//46 22//5
f 29//33 26//35 42//40
f 43//42 33//11 24//3
f 2//44 31//13 25//18
f 2//44 44//43 24//3
f 48//45 19//20 33//11
f 22//5 6//47 9//48
f 9//48 8//49 17//6
f 20//23 17//6 7//50
f 32//37 46//39 5//46
usemtl Tongue
f 8//49 6//47 5//46
f 5//46 46//39 1//52
f 1//52 45//51 7//50
f 7//50 8//49 5//46
f 9//48 6//47 8//49
f 5//46 1//52 7//50
